<svg width="25" height="24" viewBox="0 0 25 24" xmlns="http://www.w3.org/2000/svg"><g id="Page-1" fill="none" fill-rule="evenodd"><path d="M12.303 0C5.509 0 0 5.509 0 12.305 0 17.74 3.525 22.35 8.415 23.979c.615.112.84-.267.84-.594 0-.291-.011-1.065-.017-2.092-3.422.743-4.145-1.65-4.145-1.65-.56-1.421-1.366-1.799-1.366-1.799-1.117-.763.085-.748.085-.748 1.235.087 1.884 1.268 1.884 1.268 1.098 1.88 2.88 1.337 3.581 1.023.112-.796.43-1.338.781-1.645-2.732-.31-5.604-1.367-5.604-6.081 0-1.343.48-2.442 1.266-3.302-.127-.311-.549-1.562.12-3.256 0 0 1.034-.33 3.384 1.261.981-.273 2.034-.41 3.08-.414 1.045.005 2.098.14 3.08.414 2.35-1.592 3.38-1.261 3.38-1.261.672 1.694.25 2.945.123 3.256.789.86 1.265 1.959 1.265 3.302 0 4.726-2.877 5.766-5.618 6.07.442.38.835 1.131.835 2.28 0 1.644-.015 2.97-.015 3.374 0 .33.222.713.846.592 4.885-1.63 8.408-6.238 8.408-11.672C24.608 5.509 19.098 0 12.303 0" id="Fill-1" fill="#FFF"/></g></svg>