<svg id="landing_open" xmlns="http://www.w3.org/2000/svg" xmlns:xlink="http://www.w3.org/1999/xlink" viewBox="0 0 438.5 592"><path fill="#F5F5F6" d="M176 517.8c-54.3-14.7-111.9-2.1-161.7 23.9C7.7 545.1.5 550 0 557.4c-.8 11.5 14.1 16.6 25.6 17.9 28 3.1 56 6.3 83.9 9.4 42.2 4.7 84.8 9.5 127.1 6.2 46.7-3.6 92.5-17 139.3-16.9 14.2 0 29 1.2 42.1-4.1 13.2-5.4 24-20.1 19.3-33.5-3.2-9.4-12.7-15.1-21.9-18.8-78-31.2-128.5 22.4-239.4.2"/><g opacity=".18" fill="none" stroke="#5F90FF" stroke-width="2.6" stroke-miterlimit="10"><path d="M192.1 4l25.5 504 .7 13.1-10.4 28.9M126.8 553l14.3-33.1L142.6 0M202.2 242.1h-59.6M205.3 297h-62.7M208.2 345.6h-65.6M211.2 398.3h-69.8M214.6 456.6h-72M217.6 508h-76.5"/></g><g fill="none" stroke="#FEBF24" stroke-width="2.84" stroke-miterlimit="10"><path d="M142.6 0l-15.8 553M207.9 553L192.1 0M137.3 182.9h60.1M135.9 233.2h62.9M134.4 286.7h64.4M132.8 340.5H202M131.4 389.8h71.9M130 439.1h73.3M128.5 491.5h77.6"/></g><path fill="#EE9224" d="M242.1 321.9l-1.3-4.7-2.1.3 1.4 4.7 2-.3z"/><path fill="#5F90FF" d="M270.3 381.3c-5.5-3.8-27.2-60-27.2-60l-4.1 1.2s11.3 48.6 20.5 55.9"/><linearGradient id="landing_open-a" gradientUnits="userSpaceOnUse" x1="200.04" y1="427.86" x2="208.71" y2="427.86"><stop offset="0" stop-color="#ee9224"/><stop offset="1" stop-color="#fcb850"/></linearGradient><path fill="url(#landing_open-a)" d="M208.1 424.1c-1.7.5-3.3 1-4.8 1.9-1.5.9-2.7 2.3-3.2 3.9-.1.4-.2 1 .2 1.3.3.4.9.3 1.3.1s.7-.6 1.1-1c1.6-1.7 3.7-3 6-3.5l-.6-2.7z"/><linearGradient id="landing_open-b" gradientUnits="userSpaceOnUse" x1="264.51" y1="375.95" x2="258.09" y2="362.42"><stop offset="0" stop-color="#ee9224"/><stop offset="1" stop-color="#fcb850"/></linearGradient><path fill="url(#landing_open-b)" d="M260.8 376.1l6.1-11.1s1.8-2.5-1.2-4.5l-3.6-2s-3.6-1.8-6.8 2.7c0 0-.9 1-2.3.8 0 0-.7.2-.3.7 0 0 .9.8.5 1.3 0 0-1.4 1.8-.2 2.9l1.8 1.2c.1.1.1.2.1.3l-.1 6.3 6 1.4z"/><path fill="#0D3F72" stroke="#0D4054" stroke-width=".15" stroke-miterlimit="10" d="M267.9 527.6l-.5 8.3c0 .3-.2.5-.4.5l-6.5 2s-.6 0-.6.9c0 .5.7.5.7.5h12.2c.2 0 .3-.2.3-.4l-.5-11.8h-4.7zM299.1 527.6l-.5 8.3c0 .3-.2.5-.4.5l-6.5 2s-.6 0-.6.9c0 .5.7.5.7.5H304c.2 0 .3-.2.3-.4l-.5-11.8h-4.7z"/><path fill="#F9BF79" d="M243.5 546.4c.4 0 .4-.6 0-.6s-.4.6 0 .6z"/><defs><path id="landing_open-c" d="M249.7 446.9s-3.4 49 15.7 82.2c.2.3.5.5.9.5h8c.5 0 .8-.5.6-.9-2.5-6.1-16.2-39.1-9.9-84.6"/></defs><linearGradient id="landing_open-d" gradientUnits="userSpaceOnUse" x1="264.26" y1="441.83" x2="262.97" y2="472.68"><stop offset="0" stop-color="#044982"/><stop offset=".51" stop-color="#044e91"/><stop offset="1" stop-color="#0452a0"/></linearGradient><use xlink:href="#landing_open-c" overflow="visible" fill="url(#landing_open-d)"/><clipPath id="XMLID_3_"><use xlink:href="#landing_open-c" overflow="visible"/></clipPath><linearGradient id="landing_open-e" gradientUnits="userSpaceOnUse" x1="286.67" y1="440.82" x2="287.93" y2="477.28"><stop offset="0" stop-color="#044982"/><stop offset=".51" stop-color="#044e91"/><stop offset="1" stop-color="#0452a0"/></linearGradient><path id="XMLID_50_" fill="url(#landing_open-e)" d="M270.3 443.5s1.6 49.6 26.4 87c.4.5 9.6 0 9.6 0s-18.6-32.8-20.6-87.2"/><path fill="#3D83FA" d="M246.5 447.4l40.9-4.2s-9.4-70.8-27.5-69.8c0 0-14.3-2.3-20.2 13.1-3.1 8-4.1 15.4-5.2 21.5-1.2 6.1-13.6 12.6-13.6 12.6l-13.6 3.1 1 3.8s5.7-.8 11.8-1c6.1-.2 12.4-3.8 12.4-3.8s5.4-4.7 8-8.5c2.6-3.8 4-12 4-12l2 45.2z"/><path fill="#0452A0" d="M262.9 377.4c-.9 1.4-1 3.2-1.6 4.7-.5 1.6-1.4 3-2.6 4.1-.7.6-1.5 1.2-2.5 1.4-.9.2-2.9-.3-3.6-.9-1.3-1-1.2-3-.5-4.5.8-1.4 2-2.5 3.2-3.7 1.4-1.5 2.7-3.3 3.1-5.3.2-1.3.2-2.6.4-3.8.1-.5.5-1.6.9-2.9 0-.1.1-.1.1-.1.2.1.5 0 .7 0 .3-.1.5-.3.6-.6.1-.3.1-.6 0-.9-.1-.3-.5-.5-.7-.6l-.1-.1c.3-1.1.5-2 .4-2.6l-.9-2.4c-.1-.9.1-1.8.7-2.4.9-.8 2.3-.8 3.3-.1 1 .6 1.6 1.2 2 2.3.4 1.1 2.2 2.3 2.6 3.5.5 1.4.5 3.2.2 4.7-.5 3-4.5 8.4-5.7 10.2z"/><path fill="none" stroke="#FCB850" stroke-width="2.6" stroke-miterlimit="10" d="M211.2 319.8l44.4-.8"/><g><linearGradient id="landing_open-f" gradientUnits="userSpaceOnUse" x1="238.97" y1="319.63" x2="239.61" y2="316.88"><stop offset="0" stop-color="#ee9224"/><stop offset="1" stop-color="#fcb850"/></linearGradient><path fill="url(#landing_open-f)" d="M238.5 317.2c-.4.3-.6.9-.5 1.4s.6.9 1.2.9c.5 0 .9-.3 1.1-.7.3-.4.4-.9.5-1.3v-.2c0-.1-.1-.1-.2-.1-.6-.1-1.2-.1-1.9-.2"/></g><path fill="#0452A0" d="M175.3 368.5l.7 15.2c0 .3.2.6.5.7l8.6 2.6s.7 0 .7 1.2c0 .6-1 .6-1 .6h-16c-.2 0-.4-.2-.4-.5v-19.8h6.9zM149.1 322.9l.7 11.2c0 .4.2.7.5.7l8.6 2.7s.7 0 .7 1.3c0 .6-1 .6-1 .6h-16c-.2 0-.4-.2-.4-.5l.7-16.1h6.2z"/><linearGradient id="landing_open-g" gradientUnits="userSpaceOnUse" x1="139.65" y1="286.72" x2="138.93" y2="262.42"><stop offset="0" stop-color="#3178dd"/><stop offset="1" stop-color="#18539b"/></linearGradient><path fill="url(#landing_open-g)" d="M127 267.6s12.7 24.5 13.9 29.1c1.2 4.6.5 27.4.5 27.4h9.1s1.6-20.7 1.6-27.4c0-6.8-9.3-31.1-9.3-31.1l-15.8 2z"/><linearGradient id="landing_open-h" gradientUnits="userSpaceOnUse" x1="156.98" y1="305.52" x2="155.67" y2="260.86"><stop offset="0" stop-color="#3d83fa"/><stop offset="1" stop-color="#18539b"/></linearGradient><path fill="url(#landing_open-h)" d="M131.7 267.8s32.6 36.5 35.1 44.9c2.5 8.4-.6 61.5-.6 61.5h11.3s6.2-47.9 3.2-63c-3-15.1-21.1-44.5-21.1-44.5l-27.9 1.1z"/><g><path fill="#FCB850" d="M208.8 268.3c1 .6 1.9 1.2 2.7 1.9.8.8 1.5 1.8 1.6 2.9.1.5 0 1.2-.4 1.5-.6.5-1.4.2-2-.1-1.7-.8-3.2-2-4.4-3.4-.1-.2-.3-.4-.2-.6 0-.1-3.3-3.8-2.2-4.4.5-.2.4-.3.7-.6.4-.3 3.6 3 4 2.6"/></g><linearGradient id="landing_open-i" gradientUnits="userSpaceOnUse" x1="3172.67" y1="1586.2" x2="3182.24" y2="1586.2" gradientTransform="rotate(25.266 4754.243 -5837.617)"><stop offset="0" stop-color="#ee9224"/><stop offset="1" stop-color="#fcb850"/></linearGradient><path fill="url(#landing_open-i)" d="M170.3 198.2s.1 1.8-1.1 3.7c0 0-.4.4-.3 1.2l.2 2.3s.2.7-.3.7c0 0-1.2-.2-1 .6v.5s0 .3-.3.3c0 0-.5 0-.4.4l.1.3s0 .5-.4.5c0 0-.7.5-.8 1 0 0 0 1.6-1.5 1.2l-2.5-.9s-1.4.3-3.3 3.6c0 0-3.1 0-7.4-2.3 0 0 3-6.1 3.3-8.5l4.6-7.1 6.8-1.6 4.2 3.5.1.6z"/><path fill="#3D83FA" d="M160.9 204.5s-1.8 2-6.6-.9c-.1-.1-.2-.1.1-.7 0 0 1-2.1.9-4.5 0 0 .3-4.1 3.6-6.2 3.3-2.1 6.2-1 6.2-1s2 .7 3.8 2.4c2.9 2.8 1.5 4.7 1.5 4.7s-1-1.5-2.3-1.5c-1.3 0-2.7 1.4-2.7 1.4s-1.1 1.4-1 2.8c.1 1.4-1.2 1.7-1.2 1.7s.4-1.3-.4-1.7c-.8-.3-1.5 0-1.6.9-.2 1.2-.3 2.6-.3 2.6z"/><g><linearGradient id="landing_open-j" gradientUnits="userSpaceOnUse" x1="156.47" y1="185.45" x2="164.94" y2="185.45"><stop offset="0" stop-color="#ee9224"/><stop offset="1" stop-color="#fcb850"/></linearGradient><path fill="url(#landing_open-j)" d="M157.7 188c1-1.9 2.2-3.8 3.5-5.6.3-.5.7-.9 1.2-1.3.5-.3 1.1-.5 1.7-.2.7.3 1 1.2.9 2-.1.8-.6 1.5-1.1 2.1-.9 1.2-2 2.3-3 3.5-.6.6-1.2 1.3-2.1 1.6-.8.3-1.9 0-2.2-.8v-.2"/></g><path fill="#044982" d="M169.4 210.7s-13 .7-14.5 0-3.9-5.3-3.2-7.7c.5-1.8 6-8.7 8.2-12.4.6-1 3-2.6 3-2.6-.8-.2-4.6-3.4-5.1-3.4s-13.3 13.5-15.6 18.1c-4.5 15.7-18.5 57.6-16.4 64.5.7 2.1 36 0 36 0s-1.1-6.3-1.5-9.9c-.4-3.6 8.1-25.7 9.1-23.2 2.8 7.2 33.7 34 33.7 34l2.8-2.5s-19.5-26.4-22-30.4c-2.5-4.1-6.5-24.3-12.6-24.5-6-.2-1.9 0-1.9 0z"/><path fill="none" stroke="#FEBF24" stroke-width="2.84" stroke-miterlimit="10" d="M63.2 540.8l55.4-6.4M31.7 545.5l67.4 8.5M333.2 532.6l68.4 11.1"/><g><path fill="#F9BF79" d="M348.8 519.5c.4 0 .4-.6 0-.6s-.4.6 0 .6z"/></g></svg>