<svg id="Layer_1" xmlns="http://www.w3.org/2000/svg" xmlns:xlink="http://www.w3.org/1999/xlink" viewBox="0 0 652.6 483.9"><g fill="none" stroke="#F3F8FF" stroke-width="1.28" stroke-miterlimit="10"><path d="M127.8 246.5l32.2-18.4c8.1-4.6 18-4.6 26.1.1l328.8 190.6"/><path d="M186.9 228.9l39-22.7c3.3-1.9 5.4-5.5 5.4-9.4v-71c0-3.7 1.9-7.1 5-9.1h.1M242.8 329.6l59.1-34.2M318.1 304.2l38.5-22.3c3.3-1.9 5.4-5.5 5.4-9.4v-94.4c0-3.5 1.7-6.8 4.6-8.9M380.9 396.1l47.1-27.7M436.3 373l38.6-22.8c3.3-1.9 5.3-5.4 5.3-9.2l.4-36.5c0-3.4 1.7-6.6 4.5-8.7l.7-.5"/></g><path opacity=".5" fill="#E8F0F9" d="M228.1 162.8c-10.1-3.9-21.4-3.7-28.6.7-11.3 6.8-11.1 22.2-2 34.4s25.3 21.1 41.3 25.4c16.1 4.3 32.1 4.5 47.4 3.6 15.7-.9 33.1-4.4 36-16.5 2.2-9.3-5.1-20.1-12.1-29.7-1.6-2.1-3.1-4.3-5.3-6.1-2.7-2.3-6.2-3.9-9.6-5.4-11.9-5.2-24.2-9.9-36.6-11.7s-24.9-.4-32.8 5.5"/><g id="server"><path fill="#044982" d="M290.6 171.4l.1 26-28.4 15.8.5-25.9z"/><linearGradient id="landing_new-a" gradientUnits="userSpaceOnUse" x1="240.13" y1="302.44" x2="235.46" y2="287.14" gradientTransform="matrix(1 -.00427 -.00427 -1 -1.638 482.777)"><stop offset="0" stop-color="#044982"/><stop offset=".51" stop-color="#044e91"/><stop offset="1" stop-color="#0452a0"/></linearGradient><path fill="url(#landing_new-a)" d="M209.1 182.2l53.4 30.9.3-25.9-53.9-31.7z"/><path fill="#3D83FA" d="M293.9 52.9l.1 124.5-29.4 16.5 1.2-125z"/><path fill="#0452A0" d="M293.9 52.9l-58-34.6-29.2 15.8 59.1 34.8z"/><path fill="#246EF0" d="M206.8 160.2l58.1 33.7.9-125-59.1-34.8z"/><path id="XMLID_6_" fill="#0452A0" d="M254.4 77.9l-38-21.3c-.4-.2-.7-.7-.7-1.2v-.1c0-1.1 1.1-1.7 2.1-1.2l38 21.3c.4.2.7.7.7 1.2v.1c-.1 1-1.2 1.7-2.1 1.2z"/><defs><path id="landing_new-b" d="M254.4 77.9l-38-21.3c-.4-.2-.7-.7-.7-1.2v-.1c0-1.1 1.1-1.7 2.1-1.2l38 21.3c.4.2.7.7.7 1.2v.1c-.1 1-1.2 1.7-2.1 1.2z"/></defs><clipPath id="landing_new-c"><use xlink:href="#landing_new-b" overflow="visible"/></clipPath><path clip-path="url(#landing_new-c)" fill="#12355A" d="M214 57.1l6.6-3.2h1.6-8.2z"/><path id="XMLID_2_" fill="#0452A0" d="M253.5 87.2l-37.5-21c-.4-.2-.7-.7-.7-1.2v-.1c0-1 1.1-1.7 2-1.2l37.5 21c.4.2.7.7.7 1.2v.1c0 1.1-1.1 1.7-2 1.2z"/><defs><path id="landing_new-d" d="M253.5 87.2l-37.5-21c-.4-.2-.7-.7-.7-1.2v-.1c0-1 1.1-1.7 2-1.2l37.5 21c.4.2.7.7.7 1.2v.1c0 1.1-1.1 1.7-2 1.2z"/></defs><clipPath id="landing_new-e"><use xlink:href="#landing_new-d" overflow="visible"/></clipPath><path clip-path="url(#landing_new-e)" fill="#12355A" d="M213.6 66.8l6.5-3.2h1.6-8.1z"/><path fill="#0452A0" d="M249.1 99.4l5.5 3.2v-6.3l-5.5-3.1zM240.5 94.8l5.5 3.1v-6.3l-5.5-3.1zM232.3 90.1l5.4 3.1V87l-5.4-3.2z"/><path fill="#FEBF24" d="M223.7 85.4l5.4 3.1v-6.2l-5.4-3.1z"/><path fill="#0452A0" d="M215.3 80.7l5.4 3.1v-6.2l-5.4-3.1zM249.1 110.7l5.5 3.1v-6.3l-5.5-3.1zM240.5 106l5.5 3.1v-6.2l-5.5-3.2zM232.3 101.3l5.4 3.1v-6.2l-5.4-3.1zM223.7 96.6l5.4 3.1v-6.2l-5.4-3.1zM215.3 91.9l5.4 3.2v-6.3l-5.4-3.1z"/><path id="_x3C_Path_x3E_" fill="#FEBF24" d="M249.2 122.8l5.5 3.2v-6.3l-5.5-3.1z"/><path fill="#0452A0" d="M240.6 118.2l5.5 3.1V115l-5.5-3.1zM232.3 113.5l5.5 3.1v-6.2l-5.5-3.2zM223.8 108.8l5.4 3.1v-6.2l-5.4-3.1zM215.3 104.1l5.5 3.1V101l-5.5-3.1zM249.2 134.1l5.5 3.1v-6.3l-5.5-3.1zM240.6 129.4l5.5 3.1v-6.2l-5.5-3.2zM232.3 124.7l5.5 3.1v-6.2l-5.5-3.1zM223.8 120l5.4 3.1v-6.2l-5.4-3.1zM215.3 115.3l5.5 3.2v-6.3l-5.5-3.1zM249 145.3l5.5 3.1v-6.2l-5.5-3.1zM240.5 140.6l5.4 3.1v-6.2l-5.4-3.1zM232.2 135.9l5.4 3.2v-6.3l-5.4-3.1z"/><path id="lamp-1" fill="#FEBF24" d="M223.6 131.3l5.5 3.1v-6.3l-5.5-3.1z"/><path fill="#0452A0" d="M215.2 126.6l5.4 3.1v-6.2l-5.4-3.2zM249 156.5l5.5 3.2v-6.3l-5.5-3.1zM240.5 151.9l5.4 3.1v-6.3l-5.4-3.1zM232.2 147.2l5.4 3.1v-6.2l-5.4-3.2zM223.6 142.5l5.5 3.1v-6.2l-5.5-3.2zM215.2 137.8l5.4 3.1v-6.2l-5.4-3.1zM249.1 168.7l5.5 3.1v-6.2l-5.5-3.1z"/><path fill="#FEBF24" d="M240.5 164l5.5 3.1v-6.2l-5.5-3.1z"/><path fill="#0452A0" d="M232.3 159.3l5.4 3.2v-6.3l-5.4-3.1zM223.7 154.7l5.4 3.1v-6.3l-5.4-3.1zM215.3 150l5.4 3.1v-6.2l-5.4-3.2z"/></g><path opacity=".5" fill="#E8F0F9" d="M348.2 238.6c-10.1-3.9-21.4-3.7-28.6.7-11.3 6.8-11.1 22.2-2 34.4s25.3 21.1 41.3 25.4c16.1 4.3 32.1 4.5 47.4 3.6 15.7-.9 33.1-4.4 36-16.5 2.2-9.3-5.1-20.1-12.1-29.7-1.6-2.1-3.1-4.3-5.3-6.1-2.7-2.3-6.2-3.9-9.6-5.4-11.9-5.2-24.2-9.9-36.6-11.7s-24.9-.4-32.8 5.5"/><g id="server_1_"><path fill="#044982" d="M412.6 241.4l.1 26-28.4 15.8.5-25.9z"/><linearGradient id="landing_new-f" gradientUnits="userSpaceOnUse" x1="361.83" y1="231.92" x2="357.16" y2="216.62" gradientTransform="matrix(1 -.00427 -.00427 -1 -1.638 482.777)"><stop offset="0" stop-color="#044982"/><stop offset=".51" stop-color="#044e91"/><stop offset="1" stop-color="#0452a0"/></linearGradient><path fill="url(#landing_new-f)" d="M331.1 252.2l53.4 30.9.3-25.9-53.9-31.7z"/><path fill="#3D83FA" d="M415.9 122.9l.1 124.5-29.4 16.5 1.2-125z"/><path fill="#0452A0" d="M415.9 122.9l-58-34.6-29.2 15.8 59.1 34.8z"/><path fill="#246EF0" d="M328.8 230.2l58.1 33.7.9-125-59.1-34.8z"/><path id="XMLID_5_" fill="#0452A0" d="M376.4 147.9l-38-21.3c-.4-.2-.7-.7-.7-1.2v-.1c0-1.1 1.1-1.7 2.1-1.2l38 21.3c.4.2.7.7.7 1.2v.1c-.1 1-1.2 1.7-2.1 1.2z"/><defs><path id="landing_new-g" d="M376.4 147.9l-38-21.3c-.4-.2-.7-.7-.7-1.2v-.1c0-1.1 1.1-1.7 2.1-1.2l38 21.3c.4.2.7.7.7 1.2v.1c-.1 1-1.2 1.7-2.1 1.2z"/></defs><clipPath id="landing_new-h"><use xlink:href="#landing_new-g" overflow="visible"/></clipPath><path clip-path="url(#landing_new-h)" fill="#12355A" d="M336 127.1l6.6-3.2h1.6-8.2z"/><path id="XMLID_4_" fill="#0452A0" d="M375.5 157.2l-37.5-21c-.4-.2-.7-.7-.7-1.2v-.1c0-1 1.1-1.7 2-1.2l37.5 21c.4.2.7.7.7 1.2v.1c0 1.1-1.1 1.7-2 1.2z"/><defs><path id="landing_new-i" d="M375.5 157.2l-37.5-21c-.4-.2-.7-.7-.7-1.2v-.1c0-1 1.1-1.7 2-1.2l37.5 21c.4.2.7.7.7 1.2v.1c0 1.1-1.1 1.7-2 1.2z"/></defs><clipPath id="landing_new-j"><use xlink:href="#landing_new-i" overflow="visible"/></clipPath><path clip-path="url(#landing_new-j)" fill="#12355A" d="M335.6 136.8l6.5-3.2h1.6-8.1z"/><path fill="#0452A0" d="M371.1 169.4l5.5 3.2v-6.3l-5.5-3.1zM362.5 164.8l5.5 3.1v-6.3l-5.5-3.1zM354.3 160.1l5.4 3.1V157l-5.4-3.2z"/><path fill="#FEBF24" d="M345.7 155.4l5.4 3.1v-6.2l-5.4-3.1z"/><path fill="#0452A0" d="M337.3 150.7l5.4 3.1v-6.2l-5.4-3.1zM371.1 180.7l5.5 3.1v-6.3l-5.5-3.1zM362.5 176l5.5 3.1v-6.2l-5.5-3.2zM354.3 171.3l5.4 3.1v-6.2l-5.4-3.1zM345.7 166.6l5.4 3.1v-6.2l-5.4-3.1zM337.3 161.9l5.4 3.2v-6.3l-5.4-3.1z"/><path fill="#FEBF24" d="M371.2 192.8l5.5 3.2v-6.3l-5.5-3.1z"/><path fill="#0452A0" d="M362.6 188.2l5.5 3.1V185l-5.5-3.1zM354.3 183.5l5.5 3.1v-6.2l-5.5-3.2zM345.8 178.8l5.4 3.1v-6.2l-5.4-3.1zM337.3 174.1l5.5 3.1V171l-5.5-3.1zM371.2 204.1l5.5 3.1v-6.3l-5.5-3.1zM362.6 199.4l5.5 3.1v-6.2l-5.5-3.2zM354.3 194.7l5.5 3.1v-6.2l-5.5-3.1zM345.8 190l5.4 3.1v-6.2l-5.4-3.1zM337.3 185.3l5.5 3.2v-6.3l-5.5-3.1zM371 215.3l5.5 3.1v-6.2l-5.5-3.1zM362.5 210.6l5.4 3.1v-6.2l-5.4-3.1zM354.2 205.9l5.4 3.2v-6.3l-5.4-3.1z"/><path id="_x3C_Path_x3E__2_" fill="#FEBF24" d="M345.6 201.3l5.5 3.1v-6.3l-5.5-3.1z"/><path fill="#0452A0" d="M337.2 196.6l5.4 3.1v-6.2l-5.4-3.2zM371 226.5l5.5 3.2v-6.3l-5.5-3.1zM362.5 221.9l5.4 3.1v-6.3l-5.4-3.1zM354.2 217.2l5.4 3.1v-6.2l-5.4-3.2zM345.6 212.5l5.5 3.1v-6.2l-5.5-3.2zM337.2 207.8l5.4 3.1v-6.2l-5.4-3.1zM371.1 238.7l5.5 3.1v-6.2l-5.5-3.1z"/><path id="_x3C_Path_x3E__1_" fill="#FEBF24" d="M362.5 234l5.5 3.1v-6.2l-5.5-3.1z"/><path fill="#0452A0" d="M354.3 229.3l5.4 3.2v-6.3l-5.4-3.1zM345.7 224.7l5.4 3.1v-6.3l-5.4-3.1zM337.3 220l5.4 3.1v-6.2l-5.4-3.2z"/></g><path opacity=".5" fill="#E8F0F9" d="M484.2 318.4c-10.1-3.9-21.4-3.7-28.6.7-11.3 6.8-11.1 22.2-2 34.4s25.3 21.1 41.3 25.4c16.1 4.3 32.1 4.5 47.4 3.6 15.7-.9 33.1-4.4 36-16.5 2.2-9.3-5.1-20.1-12.1-29.7-1.6-2.1-3.1-4.3-5.3-6.1-2.7-2.3-6.2-3.9-9.6-5.4-11.9-5.2-24.2-9.9-36.6-11.7-12.4-1.8-24.9-.4-32.8 5.5"/><g id="server_2_"><path fill="#044982" d="M548.5 321.3l.1 25.9-28.3 15.8.4-25.8z"/><linearGradient id="landing_new-k" gradientUnits="userSpaceOnUse" x1="497.44" y1="151.5" x2="492.77" y2="136.19" gradientTransform="matrix(1 -.00427 -.00427 -1 -1.638 482.777)"><stop offset="0" stop-color="#044982"/><stop offset=".51" stop-color="#044e91"/><stop offset="1" stop-color="#0452a0"/></linearGradient><path fill="url(#landing_new-k)" d="M467 332l53.4 30.9.3-25.8-53.8-31.7z"/><path fill="#3D83FA" d="M551.8 202.8l.1 124.4-29.3 16.5 1.1-125z"/><path fill="#0452A0" d="M551.8 202.8l-58-34.7-29.1 15.8 59 34.8z"/><path fill="#246EF0" d="M464.8 310.2l58 33.7.9-125-59-34.8z"/><path id="XMLID_3_" fill="#0452A0" d="M512.3 227.7l-38-21.3c-.4-.2-.7-.7-.7-1.2v-.1c0-1.1 1.1-1.7 2.1-1.2l38 21.3c.4.2.7.7.7 1.2v.1c0 1-1.1 1.7-2.1 1.2z"/><defs><path id="landing_new-l" d="M512.3 227.7l-38-21.3c-.4-.2-.7-.7-.7-1.2v-.1c0-1.1 1.1-1.7 2.1-1.2l38 21.3c.4.2.7.7.7 1.2v.1c0 1-1.1 1.7-2.1 1.2z"/></defs><clipPath id="landing_new-m"><use xlink:href="#landing_new-l" overflow="visible"/></clipPath><path clip-path="url(#landing_new-m)" fill="#12355A" d="M472 207l6.5-3.3h1.6-8.1z"/><path id="XMLID_1_" fill="#0452A0" d="M511.4 237.1l-37.5-21c-.4-.2-.7-.7-.7-1.2v-.1c0-1 1.1-1.7 2-1.2l37.5 21c.4.2.7.7.7 1.2v.1c.1 1-1.1 1.7-2 1.2z"/><defs><path id="landing_new-n" d="M511.4 237.1l-37.5-21c-.4-.2-.7-.7-.7-1.2v-.1c0-1 1.1-1.7 2-1.2l37.5 21c.4.2.7.7.7 1.2v.1c.1 1-1.1 1.7-2 1.2z"/></defs><clipPath id="landing_new-o"><use xlink:href="#landing_new-n" overflow="visible"/></clipPath><path clip-path="url(#landing_new-o)" fill="#12355A" d="M471.6 216.6l6.4-3.2h1.6-8z"/><path fill="#0452A0" d="M507.1 249.3l5.4 3.1v-6.2l-5.4-3.2zM498.5 244.6l5.4 3.1v-6.2l-5.4-3.1zM490.2 239.9l5.5 3.1v-6.2l-5.5-3.1z"/><path id="lamp-2" fill="#FEBF24" d="M481.6 235.2l5.5 3.2v-6.3l-5.5-3.1z"/><path fill="#0452A0" d="M473.2 230.6l5.5 3.1v-6.3l-5.5-3.1zM507.1 260.5l5.4 3.1v-6.2l-5.4-3.1zM498.5 255.8l5.4 3.1v-6.2l-5.4-3.1zM490.2 251.1l5.5 3.2V248l-5.5-3.1zM481.6 246.5l5.5 3.1v-6.3l-5.5-3.1zM473.2 241.8l5.5 3.1v-6.2l-5.5-3.2zM507.1 272.7l5.5 3.1v-6.2l-5.5-3.2zM498.6 268l5.4 3.1v-6.2l-5.4-3.1zM490.3 263.3l5.4 3.1v-6.2l-5.4-3.1zM481.7 258.6l5.5 3.2v-6.3l-5.5-3.1zM473.3 254l5.4 3.1v-6.3l-5.4-3.1zM507.1 283.9l5.5 3.1v-6.2l-5.5-3.1z"/><path fill="#FEBF24" d="M498.6 279.2l5.4 3.1v-6.2l-5.4-3.1z"/><path fill="#0452A0" d="M490.3 274.5l5.4 3.2v-6.3l-5.4-3.1zM481.7 269.9l5.5 3.1v-6.3l-5.5-3.1zM473.3 265.2l5.4 3.1v-6.2l-5.4-3.2zM507 295.1l5.4 3.2V292l-5.4-3.1zM498.4 290.5l5.5 3.1v-6.3l-5.5-3.1zM490.1 285.8l5.5 3.1v-6.2l-5.5-3.2z"/><path fill="#FEBF24" d="M481.5 281.1l5.5 3.1V278l-5.5-3.1z"/><path fill="#0452A0" d="M473.1 276.4l5.5 3.1v-6.2l-5.5-3.1zM507 306.4l5.4 3.1v-6.2l-5.4-3.2zM498.4 301.7l5.5 3.1v-6.2l-5.5-3.1zM490.1 297l5.5 3.1v-6.2l-5.5-3.1zM481.5 292.3l5.5 3.2v-6.3l-5.5-3.1zM473.1 287.7l5.5 3.1v-6.3l-5.5-3.1zM507.1 318.5l5.4 3.2v-6.3l-5.4-3.1z"/><path id="_x3C_Path_x3E__3_" fill="#FEBF24" d="M498.5 313.9l5.4 3.1v-6.3l-5.4-3.1z"/><path fill="#0452A0" d="M490.2 309.2l5.5 3.1v-6.2l-5.5-3.2zM481.6 304.5l5.5 3.1v-6.2l-5.5-3.1zM473.2 299.8l5.5 3.1v-6.2l-5.5-3.1z"/></g><path opacity=".5" fill="#E8F0F9" d="M333.3 390c-6.1.6-11.8 3.7-14.3 7.7-3.9 6.3.1 14 7.9 17.8s18.3 4.1 27.5 2.1 17.4-6 24.9-10.4c7.7-4.5 15.6-10.8 13.9-17.6-1.3-5.2-7.8-8.7-13.8-11.8-1.3-.7-2.7-1.4-4.3-1.7-2-.5-4.2-.4-6.3-.2-7.4.5-14.8 1.3-21.6 3.6-6.7 2.3-12.7 6.2-15.1 11.2M89.1 247.2c-5.9.6-11.3 3.9-13.7 8.4-3.8 6.9.2 15.3 7.7 19.5 7.5 4.2 17.6 4.6 26.5 2.4 8.9-2.1 16.7-6.5 24-11.2 7.4-4.9 15-11.7 13.3-19.2-1.3-5.7-7.6-9.6-13.4-13-1.3-.7-2.6-1.5-4.1-1.9-1.9-.5-4-.4-6.1-.3-7.1.5-14.3 1.3-20.8 3.8s-12.2 6.7-14.5 12.2M567.1 428.5c-1.3-4.2-27-14.5-34.6-15.3-11.7-1.2-26 3.8-32.8 10.3-6.9 6.6-7.2 14.2-3.3 20.3 3.9 6.1 11.5 11 19.8 15.2 8.5 4.4 20.3 8.4 32.9 5.4 9.7-2.3 16.1-7.9 21.5-13 1.2-1.1 2.5-2.3 3.1-3.5.8-1.6.6-3.1.3-4.6-1-5.2-2.7-10.3-7.1-14.6M231 318.1c-3-2.1-6.9-2.6-9.8-1.5-4.6 1.8-6.2 7.4-4.4 12.5 1.8 5 6.3 9.3 11.4 11.8 5 2.5 10.5 3.6 15.8 4.2 5.5.6 11.8.4 14.1-3.9 1.8-3.3.4-7.7-.9-11.6-.3-.9-.6-1.8-1.1-2.6-.7-1-1.7-1.8-2.7-2.6-3.5-2.6-7.2-5.1-11.2-6.5s-8.5-1.7-11.8 0"/><g id="connection_1_" fill="none" stroke="#FEBF24" stroke-miterlimit="10"><path stroke-width="1.34" d="M126.8 240.7l32.2-18.4c8.1-4.6 18-4.6 26.1.1L513.9 413"/><path stroke-width="1.34" d="M185.9 223.1l39-22.7c3.3-1.9 5.4-5.5 5.4-9.4v-71c.3-8.2 7.6-8.2 7.6-8.2M241.8 323.8l59.1-34.2M317.1 298.4l38.5-22.3c3.3-1.9 5.4-5.5 5.4-9.4v-94.4c-.5-9 7-9 7-9M379.9 390.3l47.1-27.7"/><path stroke-width="1.12" d="M435.3 367.2l38.6-22.8c3.3-1.9 5.3-5.4 5.3-9.2l.4-36.5c.5-7.7 7.4-7.7 7.4-7.7"/></g><g id="app_2_"><path fill="#BEBEBE" d="M78.8 254.1l39.7-22.8.1-31.3c0-.8-1.2-1.3-2.2-1.5-.7-.2-1.4 0-2 .3l-33.9 19.4c-1 .6-1.6 1.6-1.6 2.7l-.1 33.2z"/><path fill="#044982" d="M79.8 253.6l38.5-22.1.1-31.4c0-.9-1-1.5-1.8-1l-35.5 20.3c-.8.4-1.3 1.3-1.3 2.2v32z"/><defs><path id="landing_new-p" d="M116.9 200.8l-35.3 20.3-.1 29.5 35.4-20.2z"/></defs><clipPath id="landing_new-q"><use xlink:href="#landing_new-p" overflow="visible"/></clipPath><path id="screen_2_" clip-path="url(#landing_new-q)" fill="#6DA2FC" d="M116.9 200.8l-35.3 20.3-.1 29.5 35.4-20.2z"/><g id="link_2_" clip-path="url(#landing_new-q)" fill="none" stroke="#FEBF24" stroke-width="1.2" stroke-linecap="round" stroke-miterlimit="10"><path d="M94.4 230.6l-1.4.8c-1.8 1.1-4.1.6-5-.9-.9-1.6-.2-3.7 1.6-4.7l7.4-4.3c1.8-1.1 4.1-.6 5 .9.9 1.6.2 3.7-1.6 4.7l-1.2.6"/><path d="M99.6 224.1l-1.2.6c-1.8 1.1-2.5 3.2-1.6 4.7.9 1.6 3.1 1.9 5 .9l7.4-4.3c1.8-1.1 2.5-3.2 1.6-4.7-.9-1.6-3.1-1.9-5-.9l-1.4.8"/></g><g><path fill="#BEBEBE" d="M146.1 248.1c-.1 0-30.8-15-30.8-15l-36.4 21 28.7 16.6c1 .6 2.2.6 3.2 0 0 0 29.7-17.1 34.7-20.1.5-.3.7-.7.7-1.3l-.1-1.2z"/><path fill="#E6E5E3" d="M79.9 253.4l38.5-22.2 27.2 15.7c.8.5.8 1.6 0 2l-35.4 20.5c-.8.4-1.7.4-2.5 0l-27.8-16z"/></g><g><g fill="#FFF"><path d="M90.5 254.1c-.8.4-1.1.7-1.9 1.1-.8-.4-1.2-.7-1.9-1.1.8-.4 1.1-.7 1.9-1.1.8.4 1.2.7 1.9 1.1zM93.4 252.5c-.8.4-1.1.7-1.9 1.1-.8-.4-1.2-.7-1.9-1.1.8-.4 1.1-.7 1.9-1.1.7.4 1.1.6 1.9 1.1zM96.2 250.9c-.8.4-1.1.7-1.9 1.1-.8-.4-1.2-.7-1.9-1.1.8-.4 1.1-.7 1.9-1.1.7.4 1.1.6 1.9 1.1zM99 249.2c-.8.4-1.1.7-1.9 1.1-.8-.4-1.2-.7-1.9-1.1.8-.4 1.1-.7 1.9-1.1.8.5 1.1.7 1.9 1.1zM101.8 247.6c-.8.4-1.1.7-1.9 1.1-.8-.4-1.2-.7-1.9-1.1.8-.4 1.1-.7 1.9-1.1.8.4 1.2.7 1.9 1.1zM104.7 246c-.8.4-1.1.7-1.9 1.1-.8-.4-1.2-.7-1.9-1.1.8-.4 1.1-.7 1.9-1.1.7.4 1.1.6 1.9 1.1zM107.5 244.4c-.8.4-1.1.7-1.9 1.1-.8-.4-1.2-.7-1.9-1.1.8-.4 1.1-.7 1.9-1.1.7.4 1.1.6 1.9 1.1zM110.3 242.7c-.8.4-1.1.7-1.9 1.1-.8-.4-1.2-.7-1.9-1.1.8-.4 1.1-.7 1.9-1.1.8.5 1.2.7 1.9 1.1zM113.2 241.1c-.8.4-1.1.7-1.9 1.1-.8-.4-1.2-.7-1.9-1.1.8-.4 1.1-.7 1.9-1.1.7.5 1.1.7 1.9 1.1zM116 239.5c-.8.4-1.1.7-1.9 1.1-.8-.4-1.2-.7-1.9-1.1.8-.4 1.1-.7 1.9-1.1.7.4 1.1.6 1.9 1.1zM118.8 237.9c-.8.4-1.1.7-1.9 1.1-.8-.4-1.2-.7-1.9-1.1.8-.4 1.1-.7 1.9-1.1.8.4 1.1.6 1.9 1.1zM121.6 236.2c-.8.4-1.1.7-1.9 1.1-.8-.4-1.2-.7-1.9-1.1.8-.4 1.1-.7 1.9-1.1.8.5 1.2.7 1.9 1.1zM93.3 255.6c-.8.4-1.1.7-1.9 1.1-.8-.4-1.2-.7-1.9-1.1.8-.4 1.1-.7 1.9-1.1.7.5 1.1.7 1.9 1.1zM96.1 254c-.8.4-1.1.7-1.9 1.1-.8-.4-1.2-.7-1.9-1.1.8-.4 1.1-.7 1.9-1.1.7.5 1.1.7 1.9 1.1zM98.9 252.4c-.8.4-1.1.7-1.9 1.1-.8-.4-1.2-.7-1.9-1.1.8-.4 1.1-.7 1.9-1.1.8.4 1.1.6 1.9 1.1zM101.7 250.8c-.8.4-1.1.7-1.9 1.1-.8-.4-1.2-.7-1.9-1.1.8-.4 1.1-.7 1.9-1.1.8.4 1.2.6 1.9 1.1zM104.6 249.1c-.8.4-1.1.7-1.9 1.1-.8-.4-1.2-.7-1.9-1.1.8-.4 1.1-.7 1.9-1.1.7.5 1.1.7 1.9 1.1zM107.4 247.5c-.8.4-1.1.7-1.9 1.1-.8-.4-1.2-.7-1.9-1.1.8-.4 1.1-.7 1.9-1.1.7.5 1.1.7 1.9 1.1zM110.2 245.9c-.8.4-1.1.7-1.9 1.1-.8-.4-1.2-.7-1.9-1.1.8-.4 1.1-.7 1.9-1.1.8.4 1.1.7 1.9 1.1zM113.1 244.3c-.8.4-1.1.7-1.9 1.1-.8-.4-1.2-.7-1.9-1.1.8-.4 1.1-.7 1.9-1.1.7.4 1.1.6 1.9 1.1zM115.9 242.6c-.8.4-1.1.7-1.9 1.1-.8-.4-1.2-.7-1.9-1.1.8-.4 1.1-.7 1.9-1.1.7.5 1.1.7 1.9 1.1zM118.7 241c-.8.4-1.1.7-1.9 1.1-.8-.4-1.2-.7-1.9-1.1.8-.4 1.1-.7 1.9-1.1.7.5 1.1.7 1.9 1.1zM121.5 239.4c-.8.4-1.1.7-1.9 1.1-.8-.4-1.2-.7-1.9-1.1.8-.4 1.1-.7 1.9-1.1.8.4 1.2.7 1.9 1.1z"/><path d="M124.4 237.8c-1.3.7-1.9 1.1-3.2 1.8-.8-.4-1.2-.7-1.9-1.1 1.3-.7 1.9-1.1 3.2-1.8.7.4 1.1.6 1.9 1.1zM97.2 256.4c-1.3.7-1.9 1.1-3.2 1.8-.8-.4-1.2-.7-1.9-1.1 1.3-.7 1.9-1.1 3.2-1.8.8.5 1.2.7 1.9 1.1z"/><path d="M98.8 255.5c-.8.4-1.1.7-1.9 1.1-.8-.4-1.2-.7-1.9-1.1.8-.4 1.1-.7 1.9-1.1.7.5 1.1.7 1.9 1.1zM101.6 253.9c-.8.4-1.1.7-1.9 1.1-.8-.4-1.2-.7-1.9-1.1.8-.4 1.1-.7 1.9-1.1.8.5 1.2.7 1.9 1.1zM104.5 252.3c-.8.4-1.1.7-1.9 1.1-.8-.4-1.2-.7-1.9-1.1.8-.4 1.1-.7 1.9-1.1.7.4 1.1.7 1.9 1.1zM107.3 250.7c-.8.4-1.1.7-1.9 1.1-.8-.4-1.2-.7-1.9-1.1.8-.4 1.1-.7 1.9-1.1.7.4 1.1.6 1.9 1.1zM110.1 249.1c-.8.4-1.1.7-1.9 1.1-.8-.4-1.2-.7-1.9-1.1.8-.4 1.1-.7 1.9-1.1.8.4 1.1.6 1.9 1.1zM112.9 247.4c-.8.4-1.1.7-1.9 1.1-.8-.4-1.2-.7-1.9-1.1.8-.4 1.1-.7 1.9-1.1.8.5 1.2.7 1.9 1.1zM115.8 245.8c-.8.4-1.1.7-1.9 1.1-.8-.4-1.2-.7-1.9-1.1.8-.4 1.1-.7 1.9-1.1.7.4 1.1.7 1.9 1.1zM118.6 244.2c-.8.4-1.1.7-1.9 1.1-.8-.4-1.2-.7-1.9-1.1.8-.4 1.1-.7 1.9-1.1.7.4 1.1.6 1.9 1.1zM121.4 242.6c-.8.4-1.1.7-1.9 1.1-.8-.4-1.2-.7-1.9-1.1.8-.4 1.1-.7 1.9-1.1.8.4 1.2.6 1.9 1.1zM124.3 240.9c-.8.4-1.1.7-1.9 1.1-.8-.4-1.2-.7-1.9-1.1.8-.4 1.1-.7 1.9-1.1.7.5 1.1.7 1.9 1.1zM127.1 239.3c-.8.4-1.1.7-1.9 1.1-.8-.4-1.2-.7-1.9-1.1.8-.4 1.1-.7 1.9-1.1.7.5 1.1.7 1.9 1.1zM98.7 258.7c-.8.4-1.1.7-1.9 1.1-.8-.4-1.2-.7-1.9-1.1.8-.4 1.1-.7 1.9-1.1.7.5 1.1.7 1.9 1.1zM101.5 257.1c-.8.4-1.1.7-1.9 1.1-.8-.4-1.2-.7-1.9-1.1.8-.4 1.1-.7 1.9-1.1.8.4 1.1.6 1.9 1.1zM104.3 255.5c-.8.4-1.1.7-1.9 1.1-.8-.4-1.2-.7-1.9-1.1.8-.4 1.1-.7 1.9-1.1.8.4 1.2.6 1.9 1.1zM107.2 253.8c-.8.4-1.1.7-1.9 1.1-.8-.4-1.2-.7-1.9-1.1.8-.4 1.1-.7 1.9-1.1.7.5 1.1.7 1.9 1.1zM110 252.2c-.8.4-1.1.7-1.9 1.1-.8-.4-1.2-.7-1.9-1.1.8-.4 1.1-.7 1.9-1.1.7.5 1.1.7 1.9 1.1zM112.8 250.6c-.8.4-1.1.7-1.9 1.1-.8-.4-1.2-.7-1.9-1.1.8-.4 1.1-.7 1.9-1.1.8.4 1.2.7 1.9 1.1z"/><ellipse transform="rotate(-89.85 113.767 249.002)" cx="113.8" cy="249" rx="1.1" ry="1.9"/><path d="M118.5 247.3c-.8.4-1.1.7-1.9 1.1-.8-.4-1.2-.7-1.9-1.1.8-.4 1.1-.7 1.9-1.1.7.5 1.1.7 1.9 1.1zM121.3 245.7c-.8.4-1.1.7-1.9 1.1-.8-.4-1.2-.7-1.9-1.1.8-.4 1.1-.7 1.9-1.1.8.5 1.1.7 1.9 1.1zM124.1 244.1c-.8.4-1.1.7-1.9 1.1-.8-.4-1.2-.7-1.9-1.1.8-.4 1.1-.7 1.9-1.1.8.4 1.2.7 1.9 1.1zM128.2 241.8c-1.3.7-1.9 1.1-3.1 1.8-.8-.4-1.2-.7-1.9-1.1 1.3-.7 1.9-1.1 3.1-1.8.7.4 1.1.6 1.9 1.1z"/><path d="M129.8 240.8c-.8.4-1.1.7-1.9 1.1-.8-.4-1.2-.7-1.9-1.1.8-.4 1.1-.7 1.9-1.1.7.5 1.1.7 1.9 1.1zM101.8 260.5c-.8.4-1.1.7-1.9 1.1-.8-.4-1.2-.7-1.9-1.1.8-.4 1.1-.7 1.9-1.1.7.4 1.1.6 1.9 1.1zM104.6 258.8c-.8.4-1.1.7-1.9 1.1-.8-.4-1.2-.7-1.9-1.1.8-.4 1.1-.7 1.9-1.1.8.5 1.1.7 1.9 1.1zM107.4 257.2c-.8.4-1.1.7-1.9 1.1-.8-.4-1.2-.7-1.9-1.1.8-.4 1.1-.7 1.9-1.1.8.5 1.2.7 1.9 1.1zM124.4 247.5c-5.4 3.1-10.7 6.1-16.1 9.2-.8-.4-1.2-.7-1.9-1.1 5.4-3.1 10.7-6.1 16.1-9.2.7.4 1.1.6 1.9 1.1zM127.2 245.8c-.8.4-1.1.7-1.9 1.1-.8-.4-1.2-.7-1.9-1.1.8-.4 1.1-.7 1.9-1.1.8.5 1.2.7 1.9 1.1zM130.1 244.2c-.8.4-1.1.7-1.9 1.1-.8-.4-1.2-.7-1.9-1.1.8-.4 1.1-.7 1.9-1.1.7.5 1.1.7 1.9 1.1zM132.9 242.6c-.8.4-1.1.7-1.9 1.1-.8-.4-1.2-.7-1.9-1.1.8-.4 1.1-.7 1.9-1.1.7.4 1.1.7 1.9 1.1z"/></g></g><g><path fill="#BEBEBE" d="M111.3 257.5l13.2-7.6 7.5 4.6-13.2 7.6z"/></g></g><g id="app_1_"><path fill="#BEBEBE" d="M259.6 331.7c-.1-.1-33.8-15.4-33.8-15.4l-9.2 5.1-2.5 2.8v1.8c0 .7.4 1.4 1 1.8l25.8 14.9c1.4.8 3.2.8 4.7 0 0 0 5.4-3 12.9-7.4.7-.4 1.1-1.1 1.1-1.9v-1.7z"/><path fill="#E6E5E3" d="M215.3 322.1l13.3-7.5c1-.6 2.3-.6 3.4 0l26.8 15.5c1.2.7 1.2 2.4 0 3l-14 7.9c-1.1.7-2.6.7-3.7 0l-25.8-14.9c-1.6-.9-1.6-3.2 0-4z"/><path fill="#044982" d="M215.8 325.1l16.9-9.3 22.8 13.2-16.8 9.2z"/><defs><path id="landing_new-r" d="M217.1 325.1l15.6-8.6 21.5 12.5-15.5 8.5z"/></defs><clipPath id="landing_new-s"><use xlink:href="#landing_new-r" overflow="visible"/></clipPath><path id="screen_1_" clip-path="url(#landing_new-s)" fill="#6DA2FC" d="M217.1 325.1l15.6-8.6 21.5 12.5-15.5 8.5z"/><g id="link-mobile" clip-path="url(#landing_new-s)" fill="none" stroke="#FEBF24" stroke-width="1.2" stroke-linecap="round" stroke-miterlimit="10"><path d="M229.5 324.4l-1.3-.7c-1.7-1-2.4-3-1.5-4.5.8-1.5 3-1.9 4.7-.8l7 4.1c1.7 1 2.4 3 1.5 4.5-.8 1.5-3 1.9-4.7.8l-1.1-.7"/><path d="M237.4 325.6l-1.1-.7c-1.7-1-3.9-.7-4.7.8-.8 1.5-.2 3.5 1.5 4.5l7 4.1c1.7 1 3.9.7 4.7-.8.8-1.5.2-3.5-1.5-4.5l-1.3-.7"/></g><path fill="#044982" d="M224.2 319.2c0 .2-.2.4-.5.4s-.5-.2-.5-.4.2-.4.5-.4.5.2.5.4z"/><path fill="#BEBEBE" d="M252.4 334.8c0 1-1 1.8-2.3 1.8s-2.3-.8-2.3-1.8 1-1.8 2.3-1.8 2.3.8 2.3 1.8z"/><path fill="#BEBEBE" d="M252.4 334.8c0 1-1 1.8-2.3 1.8s-2.3-.8-2.3-1.8 1-1.8 2.3-1.8 2.3.8 2.3 1.8z"/><path opacity=".5" fill="#E6E5E3" d="M251.8 334.8c0 .8-.8 1.4-1.8 1.4s-1.8-.6-1.8-1.4.8-1.4 1.8-1.4 1.8.6 1.8 1.4z"/><g fill="#BEBEBE"><path d="M226.7 317.8l-1.5.8c-.1 0-.2 0-.2-.1s0-.2.1-.2l1.5-.8c.1 0 .2 0 .2.1s0 .2-.1.2zM222.4 320.2l-1.5.8c-.1 0-.2 0-.2-.1s0-.2.1-.2l1.5-.8c.1 0 .2 0 .2.1 0 0 0 .1-.1.2z"/></g></g><g id="app"><path fill="#BEBEBE" d="M389.4 392.9l-49.2 9.6v2.3l14.8 8.3c.9.5 1.9.5 2.8 0 0 0 26.5-15.4 31-18 .4-.2.7-.7.6-1.1v-1.1z"/><path fill="#E6E5E3" d="M340.3 402.5l34.2-19.9 14.5 9.3c.7.4.7 1.4 0 1.8l-31.6 18.4c-.7.4-1.5.4-2.2 0l-14.9-9.6z"/><g><g fill="#FFF"><path d="M348.8 402.5c-.7.4-1 .6-1.7 1-.7-.5-1.1-.7-1.8-1.2.7-.4 1-.6 1.7-1 .7.5 1.1.7 1.8 1.2zM351.3 401c-.7.4-1 .6-1.7 1-.7-.5-1.1-.7-1.8-1.2.7-.4 1-.6 1.7-1 .7.5 1.1.7 1.8 1.2zM353.8 399.5c-.7.4-1 .6-1.7 1-.7-.5-1.1-.7-1.8-1.1.7-.4 1-.6 1.7-1 .7.5 1.1.7 1.8 1.1zM356.3 398.1c-.7.4-1 .6-1.7 1-.7-.4-1.1-.7-1.8-1.1.7-.4 1-.6 1.7-1 .8.4 1.1.6 1.8 1.1zM358.8 396.6c-.7.4-1 .6-1.7 1-.7-.4-1.1-.7-1.8-1.1.7-.4 1-.6 1.7-1 .8.4 1.1.7 1.8 1.1zM361.4 395.2c-.7.4-1 .6-1.7 1-.7-.4-1.1-.7-1.8-1.1.7-.4 1-.6 1.7-1 .7.4 1.1.6 1.8 1.1zM363.9 393.7c-.7.4-1 .6-1.7 1-.7-.4-1.1-.7-1.8-1.1.7-.4 1-.6 1.7-1 .7.4 1.1.7 1.8 1.1zM366.4 392.2c-.7.4-1 .6-1.7 1-.7-.4-1-.7-1.7-1.1.7-.4 1-.6 1.7-1 .7.5 1 .7 1.7 1.1zM368.9 390.8c-.7.4-1 .6-1.7 1-.7-.4-1-.7-1.7-1.1.7-.4 1-.6 1.7-1 .7.4 1 .6 1.7 1.1zM371.4 389.3c-.7.4-1 .6-1.7 1-.7-.4-1-.6-1.7-1.1.7-.4 1-.6 1.7-1 .7.5 1 .7 1.7 1.1zM373.9 387.8c-.7.4-1 .6-1.7 1-.7-.4-1-.6-1.7-1.1.7-.4 1-.6 1.7-1 .7.5 1.1.7 1.7 1.1zM376.5 386.4c-.7.4-1 .6-1.7 1-.7-.4-1-.6-1.7-1.1.7-.4 1-.6 1.7-1 .6.4 1 .7 1.7 1.1zM351.3 404c-.7.4-1 .6-1.7 1-.7-.4-1.1-.7-1.8-1.1.7-.4 1-.6 1.7-1 .7.5 1.1.7 1.8 1.1zM353.8 402.6c-.7.4-1 .6-1.7 1-.7-.4-1.1-.7-1.8-1.1.7-.4 1-.6 1.7-1 .7.4 1.1.6 1.8 1.1zM356.3 401.1c-.7.4-1 .6-1.7 1-.7-.4-1-.7-1.8-1.1.7-.4 1-.6 1.7-1 .7.4 1.1.7 1.8 1.1zM358.8 399.6c-.7.4-1 .6-1.7 1-.7-.4-1-.7-1.8-1.1.7-.4 1-.6 1.7-1 .7.5 1.1.7 1.8 1.1zM361.3 398.2c-.7.4-1 .6-1.7 1-.7-.4-1-.7-1.7-1.1.7-.4 1-.6 1.7-1 .7.4 1 .6 1.7 1.1zM363.8 396.7c-.7.4-1 .6-1.7 1-.7-.4-1-.7-1.7-1.1.7-.4 1-.6 1.7-1 .7.4 1 .7 1.7 1.1zM366.3 395.2c-.7.4-1 .6-1.7 1-.7-.4-1-.7-1.7-1.1.7-.4 1-.6 1.7-1 .7.5 1 .7 1.7 1.1zM368.8 393.8c-.7.4-1 .6-1.7 1-.7-.4-1-.7-1.7-1.1.7-.4 1-.6 1.7-1 .7.4 1 .6 1.7 1.1zM371.3 392.3c-.7.4-1 .6-1.7 1-.7-.4-1-.7-1.7-1.1.7-.4 1-.6 1.7-1 .7.4 1 .7 1.7 1.1zM373.8 390.8c-.7.4-1 .6-1.7 1-.7-.4-1-.7-1.7-1.1.7-.4 1-.6 1.7-1 .7.5 1 .7 1.7 1.1zM376.3 389.4c-.7.4-1 .6-1.7 1-.7-.4-1-.7-1.7-1.1.7-.4 1-.6 1.7-1 .7.4 1.1.6 1.7 1.1z"/><path d="M378.8 387.9c-1.1.7-1.7 1-2.8 1.7-.7-.4-1-.7-1.7-1.1 1.1-.7 1.7-1 2.9-1.7.6.4 1 .7 1.6 1.1zM354.8 404.9c-1.1.7-1.7 1-2.8 1.6-.7-.4-1-.6-1.7-1.1 1.1-.7 1.7-1 2.8-1.6.7.4 1 .6 1.7 1.1z"/><path d="M356.2 404.1c-.7.4-1 .6-1.7 1-.7-.4-1-.6-1.7-1.1.7-.4 1-.6 1.7-1 .7.4 1 .6 1.7 1.1zM358.7 402.6c-.7.4-1 .6-1.7 1-.7-.4-1-.6-1.7-1.1.7-.4 1-.6 1.7-1 .7.5 1 .7 1.7 1.1zM361.2 401.1c-.7.4-1 .6-1.7 1-.7-.4-1-.6-1.7-1.1.7-.4 1-.6 1.7-1 .7.5 1 .7 1.7 1.1zM363.7 399.7c-.7.4-1 .6-1.7 1-.7-.4-1-.6-1.7-1.1.7-.4 1-.6 1.7-1 .7.4 1 .6 1.7 1.1zM366.2 398.2c-.7.4-1 .6-1.7 1-.7-.4-1-.6-1.7-1.1.7-.4 1-.6 1.7-1 .7.5 1 .7 1.7 1.1zM368.7 396.8c-.7.4-1 .6-1.7 1-.7-.4-1-.7-1.7-1.1.7-.4 1-.6 1.7-1 .7.4 1 .6 1.7 1.1zM371.2 395.3c-.7.4-1 .6-1.7 1-.7-.4-1-.7-1.7-1.1.7-.4 1-.6 1.7-1 .7.4 1 .7 1.7 1.1zM373.7 393.8c-.7.4-1 .6-1.7 1-.7-.4-1-.7-1.7-1.1.7-.4 1-.6 1.7-1 .7.5 1 .7 1.7 1.1zM376.2 392.4c-.7.4-1 .6-1.7 1-.7-.4-1-.7-1.7-1.1.7-.4 1-.6 1.7-1 .7.4 1.1.6 1.7 1.1zM378.7 390.9c-.7.4-1 .6-1.7 1-.7-.4-1-.7-1.7-1.1.7-.4 1-.6 1.7-1 .7.4 1.1.7 1.7 1.1zM381.3 389.4c-.7.4-1 .6-1.7 1-.7-.4-1-.7-1.7-1.1.7-.4 1-.6 1.7-1 .6.5 1 .7 1.7 1.1zM356.1 407c-.7.4-1 .6-1.7 1-.7-.4-1-.6-1.7-1.1.7-.4 1-.6 1.7-1 .7.5 1 .7 1.7 1.1zM358.6 405.6c-.7.4-1 .6-1.7 1-.7-.4-1-.6-1.7-1.1.7-.4 1-.6 1.7-1 .7.4 1 .6 1.7 1.1zM361.1 404.1c-.7.4-1 .6-1.7 1-.7-.4-1-.6-1.7-1.1.7-.4 1-.6 1.7-1 .7.5 1 .7 1.7 1.1zM363.6 402.6c-.7.4-1 .6-1.7 1-.7-.4-1-.6-1.7-1.1.7-.4 1-.6 1.7-1 .7.5 1 .7 1.7 1.1zM366.1 401.2c-.7.4-1 .6-1.7 1-.7-.4-1-.6-1.7-1.1.7-.4 1-.6 1.7-1 .7.4 1 .7 1.7 1.1zM368.6 399.7c-.7.4-1 .6-1.7 1-.7-.4-1-.6-1.7-1.1.7-.4 1-.6 1.7-1 .7.5 1 .7 1.7 1.1zM371.1 398.3c-.7.4-1 .6-1.7 1-.7-.4-1-.6-1.7-1.1.7-.4 1-.6 1.7-1 .7.4 1.1.6 1.7 1.1zM373.7 396.8c-.7.4-1 .6-1.7 1-.7-.4-1-.7-1.7-1.1.7-.4 1-.6 1.7-1 .6.5 1 .7 1.7 1.1zM376.2 395.4c-.7.4-1 .6-1.7 1-.7-.4-1-.7-1.7-1.1.7-.4 1-.6 1.7-1 .6.4 1 .6 1.7 1.1zM378.7 393.9c-.7.4-1 .6-1.7 1-.7-.4-1-.7-1.7-1.1.7-.4 1-.6 1.7-1 .6.4 1 .7 1.7 1.1zM382.3 391.8c-1.1.6-1.7 1-2.8 1.6-.7-.4-1-.7-1.7-1.1 1.1-.6 1.7-1 2.8-1.6.6.5 1 .7 1.7 1.1z"/><path d="M383.7 391c-.7.4-1 .6-1.7 1-.7-.4-1.1-.7-1.7-1.1.7-.4 1-.6 1.7-1 .6.4 1 .7 1.7 1.1zM358.7 408.7c-.7.4-1 .6-1.7 1-.7-.4-1-.6-1.7-1.1.7-.4 1-.6 1.7-1 .7.5 1.1.7 1.7 1.1zM361.3 407.3c-.7.4-1 .6-1.7 1-.7-.4-1-.6-1.7-1.1.7-.4 1-.6 1.7-1 .7.4 1 .6 1.7 1.1zM363.8 405.8c-.7.4-1 .6-1.7 1-.7-.4-1-.6-1.7-1.1.7-.4 1-.6 1.7-1 .7.5 1 .7 1.7 1.1zM379 397.1c-5.7 3.3-8.6 4.9-14.4 8.2-.7-.4-1-.6-1.7-1.1 5.7-3.3 8.6-5 14.3-8.3.7.6 1.1.8 1.8 1.2zM381.5 395.7c-.7.4-1 .6-1.7 1-.7-.4-1.1-.7-1.8-1.1.7-.4 1-.6 1.7-1 .7.4 1.1.6 1.8 1.1zM384 394.2c-.7.4-1 .6-1.7 1-.7-.4-1.1-.7-1.8-1.1.7-.4 1-.6 1.7-1 .7.4 1.1.7 1.8 1.1zM386.5 392.8c-.7.4-1 .6-1.7 1-.7-.4-1.1-.7-1.8-1.1.7-.4 1-.6 1.7-1 .8.4 1.1.6 1.8 1.1z"/></g></g><g><path fill="#E6E5E3" d="M360.4 385.6s-7.6-3.7-15-7.3c-3.7 2.4-7.5 4.5-11.4 6.6-1.2.8-2.3 1.5-3.5 2.3l13.9 8c.9.5 2 .5 2.9 0 0 0 7.7-4.5 12.4-7.3.4-.2.7-.7.7-1.2v-1.1z"/><path fill="#CBCBCB" d="M359.9 384.5l-12.8-7.4c-4.2 2.8-8.6 5.3-13.1 7.7-.9.6-1.7 1.1-2.6 1.7l13 7.5c.7.4 1.6.4 2.3 0l13.1-7.6c.9-.4.9-1.5.1-1.9z"/><path fill="#BEBEBE" d="M321.6 396.4l2.2 1.1 50.6-76.6c0-.8-.8-1.7-1.5-2.1-1.2-.6-2.7-.6-3.8.1l-45.2 25.8c-1.3.7-2.1 2.1-2.1 3.6l-.2 48.1z"/><path fill="#E6E5E3" d="M323.8 397.4l50.5-29 .1-47.6c0-1.2-1.3-1.9-2.3-1.3l-46.6 26.7c-1 .6-1.6 1.7-1.6 2.8l-.1 48.4z"/><path fill="#044982" d="M374.4 360.9l.1-40c0-1.2-1.3-1.9-2.3-1.3l-46.6 26.7c-1 .6-1.6 1.7-1.6 2.8l-.1 41.4 50.5-29.6z"/><g id="_x3C_Group_x3E_"><defs><path id="landing_new-t" d="M372.4 321.9l-46.2 26.6-.1 37.2 46.3-27z"/></defs><clipPath id="landing_new-u"><use xlink:href="#landing_new-t" overflow="visible"/></clipPath><path id="screen_4_" clip-path="url(#landing_new-u)" fill="#6DA2FC" d="M372.4 321.9l-46.2 26.6-.1 37.2 46.3-27z"/><g id="link" clip-path="url(#landing_new-u)" fill="none" stroke="#FEBF24" stroke-width="1.8" stroke-linecap="round" stroke-miterlimit="10"><path d="M342.6 360.2l-1.8 1.1c-2.4 1.4-5.4.9-6.6-1.2-1.2-2.1-.3-4.9 2.1-6.3l9.8-5.7c2.4-1.4 5.4-.9 6.6 1.2 1.2 2.1.3 4.9-2.1 6.3l-1.5.9"/><path d="M349.5 351.3l-1.5.9c-2.4 1.4-3.4 4.3-2.1 6.3 1.2 2.1 4.2 2.6 6.6 1.2l9.8-5.7c2.4-1.4 3.4-4.3 2.1-6.3-1.2-2.1-4.2-2.6-6.6-1.2l-1.8 1.1"/></g></g></g></g><g id="log_5_"><path fill="#BEBEBE" d="M502.7 392.1V433c0 3.1 3.5 4.4 3.5 4.4s-1.7-1.9-1.9-3.9v-40.4l-1.6-1z"/><path fill="#B1B1B2" d="M502.7 392.1l29.6-17.1 1.5.7-30 17.1z"/><path fill="#E6E5E3" d="M527.2 424.4l-13.9 5.9v-7.9l13.9-7.8z"/><path fill="#CECECE" d="M508.6 435.6l.1 2s5.7-2.7 5.8-2.7l12-6.2v-7c-.1-3.1-2.5-4.4-5.2-3.4 0 0-5.9 2.6-5.6 8.3.2 7.4-7.1 9-7.1 9z"/><path fill="#E6E5E3" d="M516.5 420.7c-.4 1.3-.6 3.1-.8 4.9 0 .3-.1.5-.1.8 0 .4-.1.9-.1 1.3 0 .2 0 .5-.1.7 0 .4-.1.8-.1 1.1 0 .3 0 .6-.1.8-.1.8-.1 1.3-.1 1.3-.1.4-.2 3.7-6.5 6 0 0-4.8.9-4.8-4.9v-7c0 .2 13.7-8.4 12.7-5z"/><path fill="#E6E5E3" d="M503.8 428l30-16.5v-35.8l-30 17.1z"/><g fill="#828282"><path d="M509.6 404.1v-7.4l1.1-.6v6.3l3.6-1.9v1.1l-4.7 2.5zM519.6 398.7l-1.2.9c-.5.2-.9.4-1.2.4-.4.1-.7 0-.9-.1s-.4-.3-.6-.6c-.2-.3-.3-.5-.3-.9-.1-.3-.1-.7-.1-1s0-.8.1-1.2l.3-1.2.6-1.2c.2-.4.5-.7.9-1.1l1.2-.9c.5-.2.9-.4 1.2-.4.4-.1.7 0 .9.1s.4.3.6.6c.2.3.3.5.3.9.1.3.1.7.1 1 0 .4 0 .8-.1 1.2l-.3 1.2-.6 1.2c-.2.4-.5.7-.9 1.1zm-2.2.1c.3 0 .6-.1 1-.3.4-.2.7-.5 1-.8s.5-.7.7-1c.2-.4.3-.7.3-1.1.1-.3.1-.7.1-1s0-.6-.1-.9-.2-.5-.3-.7c-.2-.2-.4-.3-.7-.3s-.6.1-1 .3c-.4.2-.7.5-1 .8s-.5.7-.7 1c-.2.4-.3.7-.3 1.1-.1.3-.1.7-.1 1s0 .6.1.9.2.5.3.7c.2.2.4.3.7.3zM526.2 395.4c-.6.3-1 .4-1.5.5-.4 0-.8-.1-1-.3-.2-.2-.4-.5-.6-.9s-.2-.8-.2-1.3.1-1 .2-1.5.3-1 .6-1.5.6-1 1-1.4c.4-.5.9-.8 1.4-1.1.6-.3 1.2-.5 1.6-.4.4 0 .7.2 1 .5l-1 1.1c-.4-.4-.9-.4-1.5-.1-.3.2-.6.4-.8.6s-.4.5-.6.8c-.2.3-.3.5-.4.8-.1.3-.2.6-.2.8 0 .3-.1.5-.1.8 0 .8.2 1.3.5 1.7.3.3.9.3 1.6 0 .5-.2.8-.6 1.1-1 .3-.5.4-.9.4-1.3v-.1l-1.3.7v-1l2.5-1.3v1c0 .9-.3 1.7-.8 2.5-.5.4-1.1 1-1.9 1.4z"/></g><path fill="#828282" d="M515.3 429.6c0 .3 0 .6-.1.8l-6.6 3.7-1.2.7v-.8l7.9-4.4zM515.7 425.7c0 .3-.1.5-.1.8l-8.2 4.6v-.8l8.3-4.6zM520.4 414.3c0 1.8.9 2.8 2.3 3l6.4-3.1c1.4-1.7 2.3-4.1 2.3-5.9 0-2.9-2.4-3.9-5.5-2.2-3.1 1.7-5.5 5.3-5.5 8.2z"/><ellipse transform="rotate(-50.511 525.83 411.544)" fill="#E6E5E3" cx="525.8" cy="411.5" rx="4.3" ry="2.5"/><path fill="#828282" d="M516.5 410.5l-9.1 5v-.8l9.1-5zM517.7 414l-10.3 5.7v-.7l10.3-5.7z"/><path fill="#E6E5E3" d="M526.4 415.5v34.4c0 2.3 2.1 4.6 4.7 3.2l24.1-13.4-.1-35.6c0-3.3-2.8-4.3-6.3-2.2l-22.4 13.6z"/><path fill="#CECECE" d="M531.5 445.8l1.8 8.8 25.9-14.1c1.1-.6 3.1-2.6 3.1-5.6l-.4-6.3-30.4 17.2z"/><path fill="#E6E5E3" d="M537 445.3v2.1c0 .4 0 .8-.1 1.2 0 .3-.1.6-.1.9-.4 2.4-3.7 5.2-3.7 5.2-3.7 1.5-6.6-1.5-6.6-4v-7l9.9-3.9h.1s.4 2.1.5 4.8v.7z"/><path fill="#828282" d="M537 443.8l-6.5 3.7v-.8l6.5-3.7v.8zM537 447.3v.8l-6.5 3.6v-.8l6.5-3.6z"/><path fill="#BEBEBE" d="M525.5 419.1V450c0 2.4 2.4 3.7 2.4 3.7s-1.1-.9-1.3-3V422c0-1.7-1.1-2.9-1.1-2.9z"/><path fill="#B1B1B2" d="M535.8 442.2l24.8-14.2 1.3.7-25 14.3z"/><path fill="#BEBEBE" d="M535.8 442.2s1.1 10.2-3.1 12.6c0 0 3.7-1.1 4.1-5 0 0 .6-4.6.2-6.8l-1.2-.8z"/><path fill="#828282" d="M553.5 413.5l-23.1 12.7v-.7l23.1-12.7zM553.5 417.9l-23.1 12.6v-.8l23.1-12.6z"/></g></svg>