<svg id="landing_readon_arrow" data-name="Layer 1" xmlns="http://www.w3.org/2000/svg" viewBox="0 0 16.67 20.91"><path d="M8.33 20.91a1.83 1.83 0 0 1-1.82-1.83V1.83a1.83 1.83 0 1 1 3.65 0v17.25a1.83 1.83 0 0 1-1.83 1.83z" fill="#fff"/><path d="M8.34 20.91A1.82 1.82 0 0 1 7 20.27L.44 12.68a1.83 1.83 0 1 1 2.78-2.38l6.5 7.59a1.83 1.83 0 0 1-.2 2.58 1.77 1.77 0 0 1-1.18.44z" fill="#fff"/><path d="M8.33 20.91a1.77 1.77 0 0 1-1.18-.44A1.83 1.83 0 0 1 7 17.89l6.5-7.59a1.83 1.83 0 0 1 2.78 2.38l-6.56 7.59a1.82 1.82 0 0 1-1.39.64z" fill="#fff"/></svg>