<svg id="landing_safe" xmlns="http://www.w3.org/2000/svg" viewBox="0 0 509 327"><path fill="#F5F5F6" d="M140.3 143.8c-24.3-1.3-49.1-2.7-73 .7-23.9 3.3-47.4 12-59.6 26.5-12.3 14.5-10.2 35.2 8.7 45.8 10.7 6 24.8 8.2 38.3 10.1s27.7 3.8 38.8 9.4c11.1 5.6.4 16.2-5.4 24.8-4.3 6.3-14 10-19.4 15.8-8.8 9.7-2.9 23.1 9.2 30.9s28.9 11.1 45.2 13.3c61.1 8.6 124.4 6.5 186.4 2 62.1-4.6 127.6-.4 174.1-29 16-9.9 29.9-24.3 24.2-38.6-5.2-13-25.1-20.7-44.3-23.7s-39.4-15.2-58-19.6c-12.6-2.9-25.4-9-27.4-18.1-1.8-7.8 5-15.5 5-23.4 0-10.6-12.5-19.8-26.8-23.8s-30.4-4-45.9-3.9c-82.6.4-147.4.9-230 1.3"/><path fill="#DFDFE5" d="M69.3 192L50 155.9l28.4-1.3z"/><path fill="#0452A0" d="M69.3 192l239.1-26.3c1.1 0 1.9-.7 1.9-1.6V1.6c0-.9-.9-1.6-1.9-1.6H235c-1.1 0-1.9.7-1.9 1.6l.1 11.1c0 .9-.9 1.6-1.9 1.6H61.6c-1.1 0-1.9.7-1.9 1.6L63.6 179c-.1 1 4.6 13 5.7 13z"/><path fill="#F1F1F2" d="M91.7 193.6h189.2V17L91.7 4.1z"/><path fill="#3D83FA" d="M69.3 29.6V192c0 .9.9 1.6 1.9 1.6h243c1.1 0 1.9-.7 1.9-1.6V44c0-.9-.9-1.6-1.9-1.6h-167c-1.1 0-1.9-.7-1.9-1.6l.1-11.1c0-.9-.9-1.6-1.9-1.6H71.2c-1.1-.1-1.9.6-1.9 1.5z"/><path fill="#DFDFE5" d="M310.1 245.9l-18.5-26.8 18.5-.3 17.6 27.8M138.5 241.6l-18.4-26.9 111.8-.3 19.9 31.2"/><g><path fill="#FBB22F" d="M419.9 246.6l-110.5-1.2-14.5-72.2c8.9-4.8 14.9-14.2 14.9-25 0-15.7-12.7-28.4-28.4-28.4h-.3c-15.5.2-28.1 12.8-28.1 28.4 0 10.9 6.1 20.3 15.1 25.1l-12.9 72.2H145.8V64.1h274.1v182.5z"/><path fill="#EE9224" d="M146.1 245.7l-7.3-4.3-.1-181.6 7.4 4.6z"/><path opacity=".71" fill="#EE9224" d="M300.3 172.9l14 72.7h-4.6l-14.5-72.2c8.9-4.8 14.9-14.2 14.9-25 0-15.7-12.7-28.4-28.4-28.4h-.3c1.8-.3 3.6-.5 5.4-.5 15.7 0 28.4 12.7 28.4 28.4 0 10.9-6 20.2-14.9 25z"/><path fill="#D6841F" d="M138.7 60l7.4 4.6h274.1L411 60z"/></g><g><path fill="#DFDFE5" d="M309.9 249.5c1.8 2.6 3.7 5.4 2.6 8.6-1 3.2-5.7 7-12.7 8.9-5.8 1.5-11.9 1.5-16 .4s-6.4-3.1-8.2-5.2c-6-6.9-6.7-15.3-7.3-23.6-.2-2.3.3-5.3 5.1-7.3 3.5-1.4 8-1.7 11.1-1.2s5.1 1.7 6.8 2.9c8.8 6.1 17.1 8.4 18.6 16.5"/><linearGradient id="landing_safe-a" gradientUnits="userSpaceOnUse" x1="-6961.82" y1="255.42" x2="-6961.22" y2="260.15" gradientTransform="matrix(-1 0 0 1 -6661.78 0)"><stop offset="0" stop-color="#ee9224"/><stop offset="1" stop-color="#fcb850"/></linearGradient><path fill="url(#landing_safe-a)" d="M298.1 256h3.2v4h-3.2z"/><linearGradient id="landing_safe-b" gradientUnits="userSpaceOnUse" x1="-6948.01" y1="254.8" x2="-6947.28" y2="260.53" gradientTransform="matrix(-1 0 0 1 -6661.78 0)"><stop offset="0" stop-color="#ee9224"/><stop offset="1" stop-color="#fcb850"/></linearGradient><path fill="url(#landing_safe-b)" d="M284.2 255.5h3.2v4.9h-3.2z"/><path fill="#053C68" d="M296.5 263.6h12.6c.2 0 .4-.2.4-.4v-.2c0-.2-.2-.4-.4-.4h-12.6c-.2 0-.4.2-.4.4v.3c0 .2.2.3.4.3z"/><path fill="#0452A0" d="M302.1 258.6s.2.8 1.7 1.4c.5.2 2.3.5 2.7.8 1.2.6 2.5 1 2.7 1.8h-12.9s.1-2.8 1.3-4c0 0 .6-.5.8 0s.4.9.4.9.8.7 1.9 0c.2-.6 0-.3.3-.9.3-.8 1.1 0 1.1 0z"/><linearGradient id="landing_safe-c" gradientUnits="userSpaceOnUse" x1="285.75" y1="215.37" x2="286.28" y2="183.39"><stop offset="0" stop-color="#3d83fa"/><stop offset="1" stop-color="#0452a0"/></linearGradient><path fill="url(#landing_safe-c)" d="M279.4 185.6s8.2 32.6 3.5 70.7h5.4s8.9-37 1.3-70"/><linearGradient id="landing_safe-d" gradientUnits="userSpaceOnUse" x1="301.16" y1="214.92" x2="300.66" y2="184.2"><stop offset="0" stop-color="#3d83fa"/><stop offset=".5" stop-color="#216bcd"/><stop offset="1" stop-color="#0452a0"/></linearGradient><path fill="url(#landing_safe-d)" d="M294.3 185.6s6.8 32.6 2.1 70.7h6.7s8.9-37 1.3-70"/><linearGradient id="landing_safe-e" gradientUnits="userSpaceOnUse" x1="-6953.93" y1="127.91" x2="-6956.37" y2="132.84" gradientTransform="matrix(-1 0 0 1 -6661.78 0)"><stop offset="0" stop-color="#ee9224"/><stop offset="1" stop-color="#fcb850"/></linearGradient><path fill="url(#landing_safe-e)" d="M290.8 133.6h5.5v-5.5h-5.5z"/><path fill="#FCB850" d="M300.1 118.6l-.8 8.3s-.5 1.8-3.1 2.9c0 0-2.3 1.5-5.9-1.3 0 0-.8-.3-.8-2.3v-2.6s-.9.2-1.2-1.2c-.1-.3 0-.9.1-1.2.4-.8 1.3-.6 1.3-.6l2.2-4.8h3l5.2 2.8z"/><path fill="#0452A0" d="M289 122.4s-.3-2.6.1-4.4c.4-1.8 1.2-4.4 4.7-4.4 0 0 2.6-.5 5.4 2.1 0 0 3.7 3.4 3 3.9-3.6 2.2-4.5 1.5-6.5 0l-3-3.4s-1.8 6.2-3.7 6.2z"/><linearGradient id="landing_safe-f" gradientUnits="userSpaceOnUse" x1="-6979.02" y1="146.91" x2="-6979.02" y2="146.91" gradientTransform="matrix(-1 0 0 1 -6661.78 0)"><stop offset="0" stop-color="#ee9224"/><stop offset="1" stop-color="#fcb850"/></linearGradient><linearGradient id="landing_safe-g" gradientUnits="userSpaceOnUse" x1="293.05" y1="149.58" x2="292.38" y2="186.3"><stop offset="0" stop-color="#044982"/><stop offset="1" stop-color="#0452a3"/></linearGradient><path fill="url(#landing_safe-g)" d="M305.6 134.3c-4.7-1.7-9.4-1.2-14.3-1.2s-9.6 2.1-9.6 2.1-9.4 36.2-6.6 52.7h34.4c.8-2.6-.1-10 .2-17.9 0-.5 0-1.1.1-1.6.4-11.2.4-22.8.4-22.8l1.2-7.1c-.2-.1-3.8-3.5-5.8-4.2z"/><linearGradient id="landing_safe-h" gradientUnits="userSpaceOnUse" x1="309.55" y1="146.2" x2="309.41" y2="173.31"><stop offset="0" stop-color="#044982"/><stop offset="1" stop-color="#053c68"/></linearGradient><path fill="url(#landing_safe-h)" d="M309.5 136.9l1.8 1.5 11.3 19.6s1.9 7.9-2.2 10.3c0 0-5.7 2.2-8.2 1.6l-16.3-5.4 9.6-2.7h4l-2.9-14.8"/><linearGradient id="landing_safe-i" gradientUnits="userSpaceOnUse" x1="-6968.17" y1="158.98" x2="-6971.23" y2="158.77" gradientTransform="matrix(-1 0 0 1 -6661.78 0)"><stop offset="0" stop-color="#ee9224"/><stop offset="1" stop-color="#fcb850"/></linearGradient><path fill="url(#landing_safe-i)" d="M308.5 156.8l.8 4.1h-2.1l-1-4.1z"/><path fill="#044982" d="M286.4 133.7s-9.5 2.8-11.2 5.2l-6.3 17.9s-1.3 5.7 2.4 8.9l3 3.7s2.2 1.3 8-1c0 0 22.3-6.7 25-6.9l-1.1-4.7-.1-.6s-24.7.5-26.5 1.2l3.9-10.6"/><linearGradient id="landing_safe-j" gradientUnits="userSpaceOnUse" x1="-6947.76" y1="154.07" x2="-6938.39" y2="154.07" gradientTransform="matrix(-1 0 0 1 -6661.78 0)"><stop offset="0" stop-color="#ee9224"/><stop offset="1" stop-color="#fcb850"/></linearGradient><path fill="url(#landing_safe-j)" d="M285.7 154.3c-.8-1.5-2.2-2.6-3.7-2.9-1.5-.3-3.1.1-4.3 1.2-.7.6-1.4 1.7-1 2.7.3.7.9 1 1.6 1s1.2-.3 1.8-.4c1.6-.4 3.2-.3 4.6.9.4-.7.9-1 1.3-1.7l-.3-.8z"/><path fill="#053C68" d="M295.9 156.5l-10.1-2.7-3.1 3.3z"/><path fill="#0452A0" d="M288.2 258.6s.8.6 1.7 1.4c.1.1 2.8 2.9 2.3 2.9-2.1 0-9.7-.3-9.7-.3s.1-2.8 1.3-4c0 0-.5.3 0 0 1.1-.6 4.4 0 4.4 0z"/><path fill="#053C68" d="M282.6 263.6h9.6c.2 0 .4-.2.4-.4v-.2c0-.2-.2-.4-.4-.4h-9.6c-.2 0-.4.2-.4.4v.3c0 .2.2.3.4.3z"/><ellipse fill="#FCB850" cx="289.4" cy="121.7" rx="1.1" ry="1.3"/></g></svg>