<svg id="landing_buildings" xmlns="http://www.w3.org/2000/svg" viewBox="0 0 975 642"><linearGradient id="landing_buildings-a" gradientUnits="userSpaceOnUse" x1="967.35" y1="576.54" x2="245.38" y2="589.93"><stop offset="0" stop-color="#5f90ff"/><stop offset=".13" stop-color="#568bfd"/><stop offset=".7" stop-color="#3276f3"/><stop offset="1" stop-color="#246ef0"/></linearGradient><path opacity=".65" fill="url(#landing_buildings-a)" d="M524.2 536.8c-83.7-20.8-172.7-3-249.6 33.9-10.1 4.8-21.1 11.8-21.9 22.3-1.2 16.4 21.8 23.5 39.5 25.4 43.2 4.5 86.3 8.9 129.5 13.4 65.2 6.7 130.8 13.5 196.2 8.8 72-5.2 142.7-24.1 214.9-24 32.2.1 123 5.5 133-1.2 11.2-7.5 11.6-25 4.2-36.3-7.5-11.3-20.4-17.5-33-22.1-15.1-5.6-28.7-15.1-43.2-20.4-120.5-44.4-198.4 31.6-369.6.2"/><path fill="#246EF0" d="M357.4 128.8h132.9v443.8H357.4z"/><path fill="#0B60DB" d="M374.3 148.8h8.2v405.5h-8.2zM396.6 148.8h8.2v405.5h-8.2zM421.1 148.8h8.2v405.5h-8.2zM443.3 148.8h8.2v405.5h-8.2zM468 148h8.2v405.5H468z"/><g><path fill="#6DA2FC" d="M835.3 392.9c-14.5-30.5-43.6-51.2-77.2-51.2s-62.7 20.8-77.2 51.2h-37.2v173.7h228.7V392.9h-37.1z"/><path fill="#5090EF" d="M660.4 412.5h9.7v64.1h-9.7zM687.1 412.5h9.7v64.1h-9.7zM660.1 485.4h9.7v64.1h-9.7zM686.7 485.4h9.7v64.1h-9.7zM713.6 411.3h9.7v64.1h-9.7zM740.2 411.3h9.7v64.1h-9.7zM713.3 484.2h9.7v64.1h-9.7zM739.9 484.2h9.7v64.1h-9.7zM767 411.1h9.7v64.1H767zM793.7 411.1h9.7v64.1h-9.7zM766.7 484.1h9.7v64.1h-9.7zM793.3 484.1h9.7v64.1h-9.7zM820.2 409.9h9.7V474h-9.7zM846.8 409.9h9.7V474h-9.7zM819.9 482.9h9.7V547h-9.7zM846.5 482.9h9.7V547h-9.7z"/></g><g><path fill="#F1F1F2" d="M485.4 263.7v9.7l2.7 9.5h-2.7v41.8l3 10.2h-3v41.7l2.9 9.6h-2.9V428l2.9 10.6h-2.9V480l3.1 10.6h-3.1v41.7l2.4 9.5h-2.3v44.7h219.3v-44.3l-2.8-.1 2.8-9.8v-41.7h-3.1l3.1-10.3v-41.7h-2.5l2.5-10.6-.1-20.8.1-21h-2.3l2.3-9.6v-41.7h-2.6l2.6-10.2v-41.8h-2.5l2.5-9.5v-41.8H485.4z"/><path fill="#FFF" d="M485.4 586.5v-44.7l219.4.4v44.3zM485.4 231.6h219.3v41.8H485.4z"/><path fill="#FEBF24" d="M498.3 257.5l3.6-16.6h-2.8l-4.9 22.8zM502.4 251.2l-1.9 2.9 5.5 13.7h3.2z"/><path fill="#FFF" d="M485.4 282.9h219.3v41.8H485.4zM485.4 334.9h219.3v41.8H485.4zM485.4 386.2h219.3V428H485.4zM485.4 438.6h219.3v41.8H485.4zM485.4 490.6h219.3v41.8H485.4z"/></g><g id="dashedlines" fill="none" stroke="#FFF" stroke-width="1.24" stroke-miterlimit="10" stroke-dasharray="4.1179,4.1179"><path d="M2.3 493V338.1c0-10 8.1-18.2 18.1-18.2l197.9-.8c10 0 18.1-8.1 18.1-18.2V53.3c0-10 8.1-18.2 18.1-18.2l170.8-1h46.1l128.1 1c10 0 18.1 8.1 18.1 18.2V232"/><path d="M542.5 231.6V80c0-10 8.1-18.2 18.1-18.2h193.8c10 0 18.1 8.1 18.1 18.2v262"/><path d="M380.8 127.8V105c0-10 8.1-18.2 18.1-18.2h163.4c10 0 18.1 8.1 18.1 18.2v126.5"/><path d="M466.2 127.8V20.1c0-10-8.1-18.2-18.1-18.2-10 0-18.1 8.1-18.1 18.2v467.5"/></g><g><path fill="#5090EF" d="M566.1 458l-176.4 53v94.9h176.4z"/><path fill="#2B7BEF" d="M401.6 523.7h7.6v15.4h-7.6zM422.3 523.7h7.6v15.4h-7.6zM401.7 550.6h7.6V566h-7.6zM422.5 550.6h7.6V566h-7.6zM443.1 523.7h7.6v15.4h-7.6zM463.9 523.7h7.6v15.4h-7.6zM443.2 550.6h7.6V566h-7.6zM464 550.6h7.6V566H464zM484.8 523.7h7.6v15.4h-7.6zM505.6 523.7h7.6v15.4h-7.6zM485 550.6h7.6V566H485zM505.8 550.6h7.6V566h-7.6zM526.4 523.7h7.6v15.4h-7.6zM547.1 523.7h7.6v15.4h-7.6zM526.5 550.6h7.6V566h-7.6zM547.3 550.6h7.6V566h-7.6zM401.7 578h7.6v15.4h-7.6zM422.5 578h7.6v15.4h-7.6zM443.2 578h7.6v15.4h-7.6zM464 578h7.6v15.4H464zM485 578h7.6v15.4H485zM505.8 578h7.6v15.4h-7.6zM526.5 578h7.6v15.4h-7.6zM547.3 578h7.6v15.4h-7.6zM505.4 495h7.6v15.4h-7.6zM526.1 495h7.6v15.4h-7.6zM546.9 495h7.6v15.4h-7.6zM484.8 495h7.6v15.4h-7.6zM387.2 502.1v9.6l183.2-53.8v-10.2z"/></g></svg>