<svg id="landing_privacy" xmlns="http://www.w3.org/2000/svg" xmlns:xlink="http://www.w3.org/1999/xlink" viewBox="0 0 508.7 436.6"><path fill="#F5F5F6" d="M304.6 327.5c62.9-21.6 129.8-3.1 187.6 35.2 7.6 5 15.9 12.3 16.5 23.1.9 17-16.4 24.4-29.7 26.3-32.5 4.6-64.9 9.2-97.4 13.9-49 7-98.3 14-147.5 9.1-54.1-5.3-107.3-25-161.6-24.9-16.5 0-33.6 1.8-48.9-6.1-15.3-7.9-27.8-29.5-22.4-49.3C5 341 16 332.6 26.7 327.1c90.6-45.8 149.2 33 277.9.4"/><path transform="scale(-1) rotate(-6.661 -4382.788 5584.955)" fill="#044982" d="M323 161.5h4v187.2h-4z"/><path transform="rotate(6.661 161.687 259.075)" fill="#044982" d="M159.7 165.5h4v187.2h-4z"/><path transform="rotate(6.661 292.106 259.074)" fill="#044982" d="M290.1 165.5h4v187.2h-4z"/><path fill="#3D83FA" d="M186.6 0l-24.1 212.3h149.1L335.6 0h-149"/><path fill="#6DA2FC" d="M305.9 212.3H156.8L181.3 0h149z"/><path fill="#3D83FA" d="M219.4 19.2c-17 0-30.7 13.7-30.7 30.7s13.7 30.7 30.7 30.7 30.7-13.7 30.7-30.7-13.8-30.7-30.7-30.7zm.1 55.5c-13.8 0-24.9-11.2-24.9-24.9 0-13.8 11.2-24.9 24.9-24.9 13.8 0 24.9 11.2 24.9 24.9s-11.1 24.9-24.9 24.9zM242.6 145.2l-.7 4.1H176l.5-4.1zM264.3 157.9l-.9 4h-89.1l.5-4zM308.9 119l-.7 4h-66l.5-4z"/><path fill="#3178DD" d="M319.1 29.7l-.7 4.1H294l.5-4.1z"/><path fill="#3D83FA" d="M317.8 42.4l-.9 4h-40.5l.5-4z"/><g><path fill="#FCB850" d="M312.8 147.4c-1.3.4-5.6-3.9-6.3-4.6-.7-.7-1.3-1.7-1.3-2.7 0-.5.1-1.1.5-1.4.5-.4 1.3-.1 1.9.2 1.5.8 2.8 2 3.9 3.3.1.2 3.2 4.8 3.2 4.8s-1.5.1-1.9.4"/><path fill="#FCAA27" d="M311.9 143l19.4 17.3s17.3 7.6 21.4 9.9c4.1 2.3 5.8 6.4 5.8 6.4s.7 1.7-.6 5c-1.6 4-8.4.8-8.4.8l-23.4-15.6c-.3-.2-.5-.4-.8-.7l-16.7-20.3 3.3-2.8z"/><path fill="#FCB850" d="M360.3 171.9l3.7-14.6s1.4-3.5-2.8-4.8l-4.7-1.2s-4.6-1-7 5.1c0 0-.8 1.4-2.4 1.6 0 0-.8.4-.1.9 0 0 1.3.6 1 1.4 0 0-1.1 2.5.7 3.4l2.4.8c.1 0 .2.2.2.3l1.7 7.3 7.3-.2zM326.5 242.1c.7 1.2-2.2 6.4-2.7 7.3-.5.9-1.3 1.7-2.2 2-.5.2-1.1.2-1.5-.1-.5-.4-.5-1.2-.3-1.9.4-1.7 1.1-3.3 2.1-4.7.1-.2 3.7-4.4 3.7-4.4s.5 1.5.9 1.8"/><path fill="#044982" d="M365.3 350.1l-1.5 11.4c0 .4-.3.6-.6.7l-9.2 2.2s-.8 0-.9 1.2c0 .6 1 .7 1 .7l16.8 1.1c.3 0 .5-.2.5-.5l.3-16.4-6.4-.4z"/><linearGradient id="landing_privacy-a" gradientUnits="userSpaceOnUse" x1="-29.78" y1="-33.29" x2="-28.17" y2="-70.39" gradientTransform="matrix(.9966 .08208 -.08208 .9966 390.475 339.269)"><stop offset="0" stop-color="#ee9224"/><stop offset="1" stop-color="#ee7421"/></linearGradient><path id="XMLID_46_" fill="url(#landing_privacy-a)" d="M353.2 253.3s-8.8 58.8 9.9 98.3c.2.4.5.6 1 .7l9.1.8c.5 0 .9-.5.8-1-2.3-7.2-14.5-49.4-3.1-100.5"/><path fill="#044982" d="M321.7 350.9l-1.5 11.4c0 .4-.3.6-.6.7l-9.2 2.2s-.8 0-.9 1.2c0 .6 1 .7 1 .7l16.8 1.1c.3 0 .5-.2.5-.5l.3-16.4-6.4-.4z"/><linearGradient id="landing_privacy-b" gradientUnits="userSpaceOnUse" x1="-7690.63" y1="-194.33" x2="-7692.01" y2="-241.25" gradientTransform="scale(-1 1) rotate(-6.984 -1.588 -60179.926)"><stop offset="0" stop-color="#ee9224"/><stop offset="1" stop-color="#ee8024"/></linearGradient><path fill="url(#landing_privacy-b)" d="M363.2 245.6s-21.9 40.6-25.4 48.6c-3.4 8-6.9 60.8-6.9 60.8l-11.2-1.4s-.3-48 4.5-62.6c4.8-14.5 14.4-48.5 14.4-48.5l24.6 3.1z"/><path fill="#FCAA27" d="M332.2 255.9l39.9 1.4s3-78.3-9.7-85c0 0-9.2-6.5-19.1 10.3-5.1 8.7-11.1 73.3-11.1 73.3z"/><path fill="#FEBF24" d="M322.2 242.3l15-29.9s3.6-24 5.1-29.9c1.5-5.9 6.7-13.2 12.4-10.6 3.9 1.8 0 10.9 0 10.9l-6.3 32c-.1.4-1.4 4.1-1.7 4.5l-20 26-4.5-3z"/><path fill="#044982" d="M369.8 177.8c-.7 1.9-17.2 1-16.1-.6 1.3-2.1 1.2-4.7 1-7.1-.1-1.5-.2-3.3-.4-4.8-.1-.6 1-2.4 1.1-4 0-.1.1-.1.1-.1.3 0 .6-.1.8-.2.3-.2.5-.5.6-.9.1-.4-.1-.7-.3-1-.2-.3-.8-.5-1-.5-.1 0-.1-.1-.1-.1 0-1.3-.1-2.5-.4-3.1l-2-2.5c-.5-1-.5-2.1.1-3 .8-1.2 2.6-1.5 4.1-1.1 1.5.4 6.9 4.2 7.9 5.4 1.2 1.5 1.8 3.6 1.9 5.4.3 3.6 3.6 15.7 2.7 18.2z"/></g><g><linearGradient id="landing_privacy-c" gradientUnits="userSpaceOnUse" x1="2891.06" y1="525.28" x2="2902.35" y2="525.28" gradientTransform="rotate(-13.846 11.385 11804.468)"><stop offset="0" stop-color="#ee9224"/><stop offset="1" stop-color="#fcb850"/></linearGradient><path fill="url(#landing_privacy-c)" d="M119.7 150s1.4 1.7 1.7 4.2c0 0-.1.7.6 1.3l1.9 1.9s.7.5.2.8c0 0-1.2.7-.5 1.2l.4.4s.2.2 0 .5c0 0-.5.4-.1.7l.3.2s.4.4 0 .8c0 0-.3 1 0 1.5 0 0 1.2 1.5-.5 2.2L121 167s-1.1 1.4-.3 5.7c0 0-2.9 2.3-8.5 3.4 0 0-1.9-7.8-3.3-10.2l-1-9.9 5-6.5 6.4.1.4.4z"/><path fill="#3D83FA" d="M115.8 162.8s-.2 3.2-6.7 4c-.2 0-.2 0-.4-.6 0 0-.7-2.7-2.5-4.8 0 0-2.7-4-1.3-8.3 1.4-4.3 5-5.5 5-5.5s2.4-.8 5.3-.6c4.8.4 4.9 3.2 4.9 3.2s-2-.7-3.3.3c-1.2 1-1.4 3.3-1.4 3.3s0 2.2 1.2 3.3.1 2.5.1 2.5-.7-1.5-1.6-1.2-1.4 1.1-.8 2.1c.6.9 1.5 2.3 1.5 2.3z"/><path fill="#05416B" d="M102 356.8l.4 11.9c0 .4.2.7.6.8l9.3 3.1s.8.1.8 1.3c0 .7-1.1.6-1.1.6l-17.5-.5c-.3 0-.5-.3-.5-.6l1.2-17 6.8.4z"/><defs><path id="landing_privacy-d" d="M114.4 257s1.2 55.8-10.3 102.5c-.1.4-.6.7-1 .7l-9.5.8c-.6 0-1-.5-.8-1 2.4-7.5 11.3-51.9 3.2-104.8"/></defs><linearGradient id="landing_privacy-e" gradientUnits="userSpaceOnUse" x1="103.37" y1="303.86" x2="101.08" y2="250.6"><stop offset="0" stop-color="#3d83fa"/><stop offset="1" stop-color="#0452a0"/></linearGradient><use xlink:href="#landing_privacy-d" overflow="visible" fill="url(#landing_privacy-e)"/><clipPath id="XMLID_4_1"><use xlink:href="#landing_privacy-d" overflow="visible"/></clipPath><path fill="#05416B" d="M122.4 358.7l.4 11.9c0 .4.2.7.6.8l9.3 3.1s.8.1.8 1.3c0 .7-1.1.6-1.1.6l-17.5-.5c-.3 0-.5-.3-.5-.6l1.2-17 6.8.4z"/><g><defs><path id="landing_privacy-f" d="M134.4 257s1.2 55.8-10.3 102.5c-.1.4-.6.7-1 .7l-9.5.8c-.6 0-1-.5-.8-1 2.4-7.5 11.3-51.9 3.2-104.8"/></defs><linearGradient id="landing_privacy-g" gradientUnits="userSpaceOnUse" x1="1998.01" y1="-217.48" x2="1993.42" y2="-252.08" gradientTransform="matrix(-.9966 .08208 .08208 .9966 2133.21 339.269)"><stop offset="0" stop-color="#3d83fa"/><stop offset="1" stop-color="#0452a0"/></linearGradient><use xlink:href="#landing_privacy-f" overflow="visible" fill="url(#landing_privacy-g)"/><clipPath id="XMLID_6_2"><use xlink:href="#landing_privacy-f" overflow="visible"/></clipPath></g><path fill="#05416B" d="M142.1 217.8l-17.9.4v-14.6h18.5z"/><path fill="#0452A0" d="M139.5 259l-44.6 2.7s-5.1-89.8 17.2-91.2c0 0 17.2-4.9 26.7 13.1 5 9.4 7.3 18.2 9.6 25.5s-6.2 8.7-6.2 8.7l-6.7-14.1 4 55.3z"/></g></svg>