<svg id="landing_guy" xmlns="http://www.w3.org/2000/svg" xmlns:xlink="http://www.w3.org/1999/xlink" viewBox="0 0 406.2 265"><linearGradient id="landing_guy-a" gradientUnits="userSpaceOnUse" x1="182.99" y1="51" x2="274.99" y2="51"><stop offset="0" stop-color="#4786f4"/><stop offset=".33" stop-color="#6da2fc"/></linearGradient><path fill="url(#landing_guy-a)" d="M183 24h92v54h-92z"/><path fill="#BEBEBE" d="M273.3 21.9h2c1.7 0 3.1 1.4 3.1 3.1v61.7c0 1.6-1.3 3-3 3H272"/><path fill="#DEDEE0" d="M237.3 102.7h-11.7l-2.7-15.4h11.7z"/><path fill="#EDEDEE" d="M275.6 77.8v8.9c0 1.6-1.3 3-3 3h-88.7c-1.8 0-3.3-1.5-3.3-3.3V78"/><path fill="#044982" d="M272.2 25.3v51.4l-88.2.5V25.3h88.2m.5-3.3h-88.8c-1.8 0-3.3 1.5-3.3 3.3v55.3l94.9-.4V25c.1-1.8-1.2-3-2.8-3z"/><path opacity=".36" fill="#4087DD" d="M309.6 207.7c23.9-.9 47.9-1.1 71.8-.6 8.7.2 18.9 1.1 23.2 6.9 4.1 5.5.1 12.9-6.6 16.6-6.7 3.7-15.3 4.7-23.5 5.5-51.8 4.9-104.1 6.7-156.2 5.5-17-.4-35.5-.7-48.9 7.3-5.3 3.2-9.3 7.4-14.7 10.5-11.6 6.5-27.4 6.2-41.7 5.1-32.1-2.6-63.8-8-94.4-16.1-5.2-1.4-10.5-2.9-14.4-6-3.8-3-5.7-8-2.8-11.6 5-6.3 19.2-4 25.1-9.9 5.4-5.4 0-13.4 2.6-20 3.5-8.9 18.7-10.5 30.8-10.4 63 .3 125.9.7 188.9 1 47.9.3 105.3 4.3 149.7 18"/><linearGradient id="landing_guy-b" gradientUnits="userSpaceOnUse" x1="331.99" y1="104.06" x2="332.07" y2="138.18"><stop offset="0" stop-color="#044982"/><stop offset="1" stop-color="#0f5ebc"/></linearGradient><path fill="url(#landing_guy-b)" d="M332.8 222.5c1.5 0 2.7-1.2 2.7-2.7l.7-114.5c0-1.5-1.9-2.6-3.4-2.6s-4.9.8-4.9 2.3l2.3 114.9c-.1 1.4 1.1 2.6 2.6 2.6z"/><linearGradient id="landing_guy-c" gradientUnits="userSpaceOnUse" x1="102.89" y1="106.49" x2="102.97" y2="140.6"><stop offset="0" stop-color="#044982"/><stop offset="1" stop-color="#0f5ebc"/></linearGradient><path fill="url(#landing_guy-c)" d="M103.7 224.9c1.5 0 2.7-1.2 2.7-2.7l.7-114.5c0-1.5-1.9-2.6-3.4-2.6s-4.9.8-4.9 2.3l2.3 114.9c-.1 1.4 1.1 2.6 2.6 2.6z"/><linearGradient id="landing_guy-d" gradientUnits="userSpaceOnUse" x1="7218.98" y1="74.94" x2="7217.98" y2="82.82" gradientTransform="matrix(.9996 .02918 -.02918 .9996 -7024.106 -83.701)"><stop offset="0" stop-color="#ee9224"/><stop offset="1" stop-color="#fcb850"/></linearGradient><path fill="url(#landing_guy-d)" d="M186 202.1l-.3 11.1 5.6.7 1.2-11.7z"/><path fill="#0B5AA8" d="M207.3 219.7c.5 0 1-.4 1-.9 0-2.2-1.6-4.5-3.6-5.1-1.4-.5-2.9-.3-4.4-.3-1.5 0-3.1-.3-4.1-1.4-.5-.6-.8-1.3-1.2-1.9-.4-.6-1-1.2-1.8-1.2-.9 0-1.6.7-2 1.4-.5.9-.8 2-1.7 2.7-.4.3-1 .5-1.5.3-.9-.3-1-1.1-1.2-1.9-.2-.6-.5-1.4-1.1-1.6-.5-.2-1.1.1-1.5.5-1 .9-1.4 2.4-1.3 3.8.1 1 .3 3.4.3 4.5 0 .3.3.5.6.5l15.5.5 8 .1z"/><path fill="#0452A0" d="M179.1 138.9l17.8.3-1.9 65.3-10.2.3z"/><path fill="#044982" d="M86.9 102.3h264v4.9h-264z"/><linearGradient id="landing_guy-e" gradientUnits="userSpaceOnUse" x1="7022.25" y1="27.67" x2="7043.41" y2="27.67" gradientTransform="translate(-6896.861)"><stop offset="0" stop-color="#ee9224"/><stop offset="1" stop-color="#fcb850"/></linearGradient><path fill="url(#landing_guy-e)" d="M152.6 10.3s1.8 3.5 1.2 8c0 0-.4 1.2.5 2.5l2.4 4.1s1 1.1 0 1.5c0 0-2.4.7-1.4 1.9l.5.9s.3.5-.2.9c0 0-1 .5-.4 1.2l.5.4s.5.9-.3 1.3c0 0-.9 1.6-.7 2.6 0 0 1.4 3-1.8 3.6l-5.2.9s-5.3 1.2-5.9 9.1c0 0-6.3-3.4-16.4-3.9 0 0 3.3-7.6 1.8-12.3l2.4-17.6 11.3-9.1 11 2.9.7 1.1z"/><linearGradient id="landing_guy-f" gradientUnits="userSpaceOnUse" x1="7105.62" y1="202.48" x2="7104.38" y2="212.28" gradientTransform="translate(-6896.861)"><stop offset="0" stop-color="#ee9224"/><stop offset="1" stop-color="#fcb850"/></linearGradient><path fill="url(#landing_guy-f)" d="M205.1 203.8l-2.1 12.7 7.3.7 2.4-14.3z"/><path fill="#0452A0" d="M140 30.3s-1.7 5.8-13.8 4.3c-.3 0-.4-.1-.5-1.4 0 0-.1-5.1-2.3-9.8 0 0-3.1-8.4 1.4-15.6S136.1 0 136.1 0s4.7-.4 9.8 1.3c3.1 1 5.7 3 7.4 4.1 2.3 1.5 2.4 3 2.1 4.1-.2.8-1.1 1.1-1.8.8-1.5-.7-4.3-1.7-7-.8-2.8.9-3.3 4.2-3.3 4.2s-.9 3.9.6 6.5-.9 4.5-.9 4.5-.5-3-2.4-2.9c-1.9.1-3 1.4-2.3 3.4l1.7 5.1z"/><defs><path id="landing_guy-g" d="M134.4 120.5l1.8-47.8 34 1.6-1.3 16.9 1 29.2"/></defs><use xlink:href="#landing_guy-g" overflow="visible" fill="#246EF0"/><clipPath id="landing_guy-h"><use xlink:href="#landing_guy-g" overflow="visible"/></clipPath><linearGradient id="landing_guy-i" gradientUnits="userSpaceOnUse" x1="2078.34" y1="-3974.11" x2="2050.9" y2="-3978.69" gradientTransform="matrix(.8788 .6265 -.776 1.0886 -4737.588 3135.93)"><stop offset="0" stop-color="#246ef0"/><stop offset="0" stop-color="#0f5ebc"/><stop offset="1" stop-color="#246ef0"/></linearGradient><path clip-path="url(#landing_guy-h)" fill="url(#landing_guy-i)" d="M157.1 78.1l-9.6 3.9c-3.4 2.5 0 10.5-.4 14.5l-1.2 12.7c-.3 3.1.6 5.9 2.4 7.9 3.2 3.5 17.3 9.2 21.8 5.8l1-12.9c4-3 6.3-8.1 5.8-12.7l-1.1-10.8c-.7-7.7-11.9-13.3-18.7-8.4z"/><path fill="#0452A0" d="M125 122l1.2 14.8c.2 3 2.7 5.3 5.7 5.3l77.9 1.8-8.6 60.6 12.4.8s34-78 8.8-83.5c-21.7-4.7-50.9-3.9-50.9-3.9L125 122z"/><linearGradient id="landing_guy-j" gradientUnits="userSpaceOnUse" x1="7129.04" y1="99.04" x2="7147.85" y2="99.04" gradientTransform="translate(-6896.861)"><stop offset="0" stop-color="#ee9224"/><stop offset="1" stop-color="#fcb850"/></linearGradient><path fill="url(#landing_guy-j)" d="M233 96.4s3.6-.5 7.2-.5 4 .1 6.6 1.1c3.6 1.7 4.2 5.2 4.2 5.2H232.2l.8-5.8z"/><path fill="#FFF" d="M235.6 102.2h-1.8v-6.6l1.8.3z"/><path fill="#095FC6" d="M228.5 223.6c.6 0 1.1-.5 1.1-1.2-.1-2.6-2-5.4-4.5-6.2-1.7-.5-3.5-.3-5.3-.3-1.8 0-3.7-.3-4.9-1.6-.6-.7-1-1.5-1.5-2.3s-1.2-1.4-2.1-1.4c-1 0-1.9.9-2.3 1.8-.6 1.1-.9 2.5-1.9 3.3-.5.4-1.1.6-1.7.4-1-.3-1.3-1.4-1.5-2.3-.2-.8-.6-1.7-1.4-1.9-.6-.2-1.3.2-1.8.7-1.2 1.2-1.6 3-1.4 4.7.1 1.3.4 4.2.6 5.5 0 .4.3.6.7.6l27.9.2z"/><path fill="#246EF0" d="M112.8 71.8s0-31.6 17.3-27.7l20.2 4.6s15.6 3 19.2 13.5l12.4 22.1c.6 1 1.5 1.8 2.5 2.1 1.2.4 2.7.9 3.5.9 0 0 17.8 1.9 24.7 3.5l20.4 4.5s2.3 2.6.6 7.1h-45.9s-18 2.9-25.6-20l-2.3-6.8-47-3.8z"/><path fill="#F4C882" d="M196.5 146.2h-50.7c-.6 0-1.1-.5-1.1-1.1v-1.6c0-.6.5-1.1 1.1-1.1h50.7c.6 0 1.1.5 1.1 1.1v1.6c0 .6-.5 1.1-1.1 1.1z"/><path fill="#FEBF24" d="M164.7 146.2H111c-.6 0-1.1-.5-1.1-1.1v-1.6c0-.6.5-1.1 1.1-1.1h53.7c.6 0 1.1.5 1.1 1.1v1.6c0 .6-.5 1.1-1.1 1.1z"/><path fill="#044982" d="M151.5 178.9H149c-1.7 0-3-1.7-3-3.8v-29h8.7v28.7c0 2.3-1.4 4.1-3.2 4.1z"/><ellipse fill="#0D3F72" cx="178.5" cy="222.3" rx="2.8" ry="2.6"/><path fill="#18539B" d="M177.5 224.7c-1-.2-1.8-1.2-1.8-2.4s.8-2.2 1.8-2.4c-.6.6-1.1 1.4-1.1 2.4s.4 1.9 1.1 2.4z"/><path fill="#093356" d="M179.4 224.7c1-.2 1.8-1.2 1.8-2.4s-.8-2.2-1.8-2.4c.6.6 1.1 1.4 1.1 2.4-.1 1-.5 1.9-1.1 2.4z"/><path fill="#00416D" d="M150.4 215.1l28.2 4.8c.9 0 1.7-.8 1.7-1.9 0 0 0-1.6-1.7-1.9l-27.4-5.5s-2.5 1.5-2.5 2.6c0 1 .7 1.9 1.7 1.9z"/><path fill="#F4C882" d="M118.2 138.2c-.7 0-1.3-.7-1.1-1.4 4.3-16.8-4.9-31.3-4.9-31.3-11.1-16-12-39.1-12.1-44.4 0-.6.5-1.1 1.1-1.1h50.6c.6 0 1.1.5 1.1 1.1.1 5.3 1 28.5 12.1 44.4 0 0 9.4 14.8 4.7 31.9-.1.5-.6.8-1.1.8h-50.4z"/><path fill="#FEBF24" d="M114.5 138.2c-.7 0-1.3-.7-1.1-1.4 4.3-16.8-4.9-31.3-4.9-31.3-11.1-16-12-39.1-12.1-44.4 0-.6.5-1.1 1.1-1.1h50.6c.6 0 1.1.5 1.1 1.1.1 5.3 1 28.5 12.1 44.4 0 0 9.4 14.8 4.7 31.9-.1.5-.6.8-1.1.8h-50.4z"/><path fill="#044982" d="M135.7 121.6h-2c-1.4 0-2.5 1.7-2.5 3.8v15.2c0 2.1 1.1 3.8 2.5 3.8h2c1.5 0 2.6-1.8 2.6-4v-14.8c.1-2.2-1.1-4-2.6-4z"/><path fill="#0452A0" d="M133 132.9c0-1.5.1-4.1.1-5.8 0-3.3 1.1-4.8 1.1-4.8-2.7-.3-2.4 4.8-2.4 4.8V138.7s-.3 5.1 2.4 4.8c0 0-1.2-1.5-1.1-4.8 0-1.7-.1-4.2-.1-5.8z"/><g><ellipse fill="#0D3F72" cx="168.6" cy="226" rx="3.3" ry="2.9"/><path fill="#18539B" d="M169.8 228.7c1.2-.3 2.1-1.4 2.1-2.7 0-1.3-.9-2.4-2.1-2.7.8.6 1.2 1.6 1.2 2.7s-.5 2-1.2 2.7z"/><path fill="#093356" d="M167.5 228.7c-1.2-.3-2.1-1.4-2.1-2.7 0-1.3.9-2.4 2.1-2.7-.8.6-1.2 1.6-1.2 2.7s.5 2 1.2 2.7z"/></g><g><ellipse fill="#0D3F72" cx="123" cy="223.2" rx="3" ry="2.8"/><path fill="#18539B" d="M124.1 225.8c1.1-.3 1.9-1.3 1.9-2.6s-.8-2.3-1.9-2.6c.7.6 1.1 1.6 1.1 2.6s-.4 2-1.1 2.6z"/><path fill="#093356" d="M122 225.8c-1.1-.3-1.9-1.3-1.9-2.6s.8-2.3 1.9-2.6c-.7.6-1.1 1.6-1.1 2.6s.4 2 1.1 2.6z"/></g><path fill="#044982" d="M152.2 211.7h-2.5c-.6 0-1-.5-1-1.1l.1-33.5c0-.6.5-1.1 1-1.1h2.4c.6 0 1 .5 1 1.1v33.5c0 .6-.4 1.1-1 1.1z"/><path fill="#0452A0" d="M150.4 210.1h-.5c-.2 0-.3-.1-.3-.3v-30.2c0-.2.1-.3.3-.3h.5c.2 0 .3.1.3.3v30.2c0 .2-.1.3-.3.3z"/><g><ellipse fill="#0D3F72" cx="140.9" cy="218.4" rx="3" ry="2.8"/><path fill="#18539B" d="M142 221c1.1-.3 1.9-1.3 1.9-2.6s-.8-2.3-1.9-2.6c.7.6 1.1 1.6 1.1 2.6s-.4 2-1.1 2.6z"/><path fill="#093356" d="M139.9 221c-1.1-.3-1.9-1.3-1.9-2.6s.8-2.3 1.9-2.6c-.7.6-1.1 1.6-1.1 2.6s.4 2 1.1 2.6z"/></g><path fill="#00416D" d="M150.7 215.1l-28.1 5.3c-.9 0-1.7-.8-1.7-1.9 0 0 0-1.6 1.7-1.9l28.3-6"/><path fill="#044982" d="M150.9 210.7l18.5 7.8c1.3.6 2 2.2 1.4 3.6-.6 1.4-2.2 2-3.5 1.4l-16.3-8.3"/><path fill="#0452A0" d="M148.2 173.4c0-2.7-.1-27.1-.1-27.1h-1.5v27.1s-.3 5.1 3 4.8c0 0-1.4-1.6-1.4-4.8z"/><linearGradient id="landing_guy-k" gradientUnits="userSpaceOnUse" x1="270.53" y1="106.11" x2="270.61" y2="140.23"><stop offset="0" stop-color="#044982"/><stop offset="1" stop-color="#0f5ebc"/></linearGradient><path fill="url(#landing_guy-k)" d="M271.3 224.5c1.5 0 2.7-1.2 2.7-2.7l.7-114.5c0-1.5-1.9-2.6-3.4-2.6s-4.9.8-4.9 2.3l2.3 114.9c0 1.4 1.2 2.6 2.6 2.6z"/><path fill="#0452A0" d="M259.7 102.3h91.2v4.9h-91.2z"/><g><path fill="#EE9224" d="M241.2 60.4h-30c-.1 0-.2-.1-.2-.2V39c0-.1.1-.2.2-.2h8.9c.1 0 .2.1.2.2v1.4c0 .1.1.2.2.2h20.6c.1 0 .2.1.2.2V60c.1.3 0 .4-.1.4z"/><path fill="#FFFDFD" d="M239.4 64h-24.6V41l24.6-1.6z"/><path fill="#FEBF24" d="M210.4 64h31.7c.1 0 .2-.1.2-.2V42.7c0-.1-.1-.2-.2-.2h-9.4c-.1 0-.3.1-.2.2v1.4c0 .1-.1.2-.2.2h-21.8c-.1 0-.2.1-.2.2v19.2c-.1.2 0 .3.1.3z"/></g></svg>