<svg id="landing_buildings" xmlns="http://www.w3.org/2000/svg" viewBox="0 0 975 640.7"><linearGradient id="landing_buildings-a" gradientUnits="userSpaceOnUse" x1="967.35" y1="575.28" x2="245.38" y2="588.67"><stop offset="0" stop-color="#5f90ff"/><stop offset=".13" stop-color="#568bfd"/><stop offset=".7" stop-color="#3276f3"/><stop offset="1" stop-color="#246ef0"/></linearGradient><path opacity=".65" fill="url(#landing_buildings-a)" d="M524.2 535.5c-83.7-20.8-172.7-3-249.6 33.9-10.1 4.8-21.1 11.8-21.9 22.3-1.2 16.4 21.8 23.5 39.5 25.4 43.2 4.5 86.3 8.9 129.5 13.4 65.2 6.7 130.8 13.5 196.2 8.8 72-5.2 142.7-24.1 214.9-24 32.2.1 123 5.5 133-1.2 11.2-7.5 11.6-25 4.2-36.3-7.5-11.3-20.4-17.5-33-22.1-15.1-5.6-28.7-15.1-43.2-20.4-120.5-44.3-198.4 31.7-369.6.2"/><path fill="#246EF0" d="M357.4 127.6h132.9v443.8H357.4z"/><path fill="#0B60DB" d="M374.3 147.5h8.2V553h-8.2zM396.6 147.5h8.2V553h-8.2zM421.1 147.5h8.2V553h-8.2zM443.3 147.5h8.2V553h-8.2zM468 146.7h8.2v405.5H468z"/><g><path fill="#6DA2FC" d="M835.3 394.7c-14.5-30.5-43.6-51.2-77.2-51.2s-62.7 20.8-77.2 51.2h-37.2v173.7h228.7V394.7h-37.1z"/><path fill="#5090EF" d="M660.4 414.2h9.7v64.1h-9.7zM687.1 414.2h9.7v64.1h-9.7zM660.1 487.2h9.7v64.1h-9.7zM686.7 487.2h9.7v64.1h-9.7zM713.6 413h9.7v64.1h-9.7zM740.2 413h9.7v64.1h-9.7zM713.3 486h9.7v64.1h-9.7zM739.9 486h9.7v64.1h-9.7zM767 412.8h9.7v64.1H767zM793.7 412.8h9.7v64.1h-9.7zM766.7 485.8h9.7v64.1h-9.7zM793.3 485.8h9.7v64.1h-9.7zM820.2 411.6h9.7v64.1h-9.7zM846.8 411.6h9.7v64.1h-9.7zM819.9 484.6h9.7v64.1h-9.7zM846.5 484.6h9.7v64.1h-9.7z"/></g><g><path fill="#F1F1F2" d="M485.4 262.4v9.7l2.7 9.5h-2.7v41.8l3 10.2h-3v41.8l2.9 9.5h-2.9v41.8l2.9 10.6h-2.9v41.5l3.1 10.5h-3.1v41.8l2.4 9.4h-2.3v44.8h219.3v-44.4l-2.8-.1 2.8-9.7v-41.8h-3.1l3.1-10.2v-41.8h-2.5l2.5-10.6-.1-20.7.1-21.1h-2.3l2.3-9.5v-41.8h-2.6l2.6-10.2v-41.8h-2.5l2.5-9.5v-41.8H485.4z"/><path fill="#FFF" d="M485.4 585.3v-44.8l219.4.4v44.4zM485.4 230.3h219.3v41.8H485.4z"/><path fill="#F48455" d="M498.3 256.2l3.6-16.6h-2.8l-4.9 22.8zM502.4 250l-1.9 2.8 5.5 13.8h3.2z"/><path fill="#FFF" d="M485.4 281.6h219.3v41.8H485.4zM485.4 333.6h219.3v41.8H485.4zM485.4 384.9h219.3v41.8H485.4zM485.4 437.3h219.3v41.8H485.4zM485.4 489.3h219.3v41.8H485.4z"/></g><g id="dashedlines" fill="none" stroke="#FFF" stroke-width="1.24" stroke-miterlimit="10" stroke-dasharray="4.1179,4.1179"><path d="M2.3 491.7V336.8c0-10 8.1-18.2 18.1-18.2l197.9-.8c10 0 18.1-8.1 18.1-18.2V52c0-10 8.1-18.2 18.1-18.2l170.8-1h46.1l128.1 1c10 0 18.1 8.1 18.1 18.2v182.7"/><path d="M542.5 234.3V78.7c0-10 8.1-18.2 18.1-18.2h193.8c10 0 18.1 8.1 18.1 18.2v268"/><path d="M380.8 127.6v-23.8c0-10 8.1-18.2 18.1-18.2h163.4c10 0 18.1 8.1 18.1 18.2v130.5"/><path d="M466.2 127.6V18.8c0-10-8.1-18.2-18.1-18.2-10 0-18.1 8.1-18.1 18.2v467.5"/></g><g><path fill="#5090EF" d="M566.1 456.7l-176.4 53.1v94.9h176.4z"/><path fill="#2B7BEF" d="M401.6 522.4h7.6v15.4h-7.6zM422.3 522.4h7.6v15.4h-7.6zM401.7 549.3h7.6v15.4h-7.6zM422.5 549.3h7.6v15.4h-7.6zM443.1 522.4h7.6v15.4h-7.6zM463.9 522.4h7.6v15.4h-7.6zM443.2 549.3h7.6v15.4h-7.6zM464 549.3h7.6v15.4H464zM484.8 522.4h7.6v15.4h-7.6zM505.6 522.4h7.6v15.4h-7.6zM485 549.3h7.6v15.4H485zM505.8 549.3h7.6v15.4h-7.6zM526.4 522.4h7.6v15.4h-7.6zM547.1 522.4h7.6v15.4h-7.6zM526.5 549.3h7.6v15.4h-7.6zM547.3 549.3h7.6v15.4h-7.6zM401.7 576.7h7.6v15.4h-7.6zM422.5 576.7h7.6v15.4h-7.6zM443.2 576.7h7.6v15.4h-7.6zM464 576.7h7.6v15.4H464zM485 576.7h7.6v15.4H485zM505.8 576.7h7.6v15.4h-7.6zM526.5 576.7h7.6v15.4h-7.6zM547.3 576.7h7.6v15.4h-7.6zM505.4 493.7h7.6v15.4h-7.6zM526.1 493.7h7.6v15.4h-7.6zM546.9 493.7h7.6v15.4h-7.6zM484.8 493.7h7.6v15.4h-7.6zM387.2 500.9v9.6l183.2-53.8v-10.3z"/></g></svg>