<svg id="landing_guy_bg" xmlns="http://www.w3.org/2000/svg" viewBox="0 0 916.5 517.2"><linearGradient id="landing_guy_bg-a" gradientUnits="userSpaceOnUse" y1="258.62" x2="916.51" y2="258.62"><stop offset="0" stop-color="#4786f4"/><stop offset=".33" stop-color="#6da2fc"/></linearGradient><path fill="url(#landing_guy_bg-a)" d="M916.5 517h-214l-1.5.3H220.4c-1-.1-2.1-.2-3.1-.3H0c45.7-2.8 240.5-216.3 259.7-293.9 19.2-77.7 50.8-158.6 114.2-198.8 56.9-36.1 131.8-30.5 187.4 8.1 55.5 38.6 91.5 106.8 100.8 178.3 5.2 39.7 2.3 80.5 9 120 16.4 96.8 155.1 163 155.1 163s39.3 16.5 90.3 23.3z"/><linearGradient id="landing_guy_bg-b" gradientUnits="userSpaceOnUse" x1="138.03" y1="633.24" x2="145.03" y2="633.24"><stop offset="0" stop-color="#4786f4"/><stop offset=".33" stop-color="#6da2fc"/></linearGradient><path fill="url(#landing_guy_bg-b)" d="M145 633.2h-7 7z"/></svg>