<svg width="24" height="24" viewBox="0 0 24 24" xmlns="http://www.w3.org/2000/svg"><g id="Page-1" fill="none" fill-rule="evenodd"><path d="M22.994 8.7c2.475 8.25.556 11.819-7.694 14.294-8.25 2.475-11.819.556-14.294-7.694C-1.469 7.05.45 3.481 8.7 1.006 16.95-1.469 20.519.45 22.994 8.7zm-4.164 5.353c.653-.211.998-.921.787-1.573a1.246 1.246 0 0 0-1.573-.787l-1.554.518-1.036-3.089 1.554-.518c.652-.211.997-.921.786-1.573a1.246 1.246 0 0 0-1.573-.787l-1.554.518-.537-1.612a1.246 1.246 0 0 0-1.574-.786 1.246 1.246 0 0 0-.786 1.573l.537 1.612-3.204 1.074-.537-1.612a1.246 1.246 0 0 0-1.574-.786 1.246 1.246 0 0 0-.786 1.573l.537 1.612-1.554.518a1.246 1.246 0 0 0-.787 1.573 1.28 1.28 0 0 0 1.151.844c.135.02.288-.019.422-.057l1.554-.518 1.037 3.089-1.555.518a1.246 1.246 0 0 0-.786 1.573 1.28 1.28 0 0 0 1.151.844c.134.02.288-.019.422-.057l1.554-.518.537 1.611a1.28 1.28 0 0 0 1.152.845c.134.019.287-.02.422-.058.652-.21.997-.92.786-1.573l-.537-1.612 3.204-1.074.538 1.611a1.28 1.28 0 0 0 1.15.845c.135.019.289-.02.423-.058.652-.211.998-.92.787-1.573l-.538-1.612 1.554-.518zm-8.95-3.045l3.203-1.072 1.036 3.093-3.202 1.072-1.036-3.093z" id="Combined-Shape" fill="#FFF" fill-rule="nonzero"/></g></svg>