<svg id="Layer_1" data-name="Layer 1" xmlns="http://www.w3.org/2000/svg" xmlns:xlink="http://www.w3.org/1999/xlink" viewBox="0 0 870.91 440"><defs><linearGradient id="linear-gradient" x1="304.02" y1="274.04" x2="304.1" y2="308.99" gradientUnits="userSpaceOnUse"><stop offset="0" stop-color="#12355a"/><stop offset="1" stop-color="#18539b"/></linearGradient><linearGradient id="linear-gradient-2" x1="279.7" y1="280.94" x2="280.11" y2="306.34" xlink:href="#linear-gradient"/><linearGradient id="linear-gradient-3" x1="495.53" y1="273.76" x2="495.61" y2="308.71" xlink:href="#linear-gradient"/><linearGradient id="linear-gradient-4" x1="471.21" y1="280.67" x2="471.63" y2="306.06" xlink:href="#linear-gradient"/><linearGradient id="linear-gradient-5" x1="7175.46" y1="194.31" x2="7197.26" y2="194.31" gradientTransform="translate(-6896.86)" gradientUnits="userSpaceOnUse"><stop offset="0" stop-color="#ee9224"/><stop offset="1" stop-color="#fcb850"/></linearGradient><linearGradient id="linear-gradient-6" x1="7261.37" y1="373.36" x2="7260.1" y2="383.41" xlink:href="#linear-gradient-5"/><linearGradient id="linear-gradient-7" x1="308.52" y1="257.86" x2="303.02" y2="279.14" xlink:href="#linear-gradient"/><linearGradient id="linear-gradient-8" x1="7228.04" y1="377.38" x2="7227.01" y2="385.46" xlink:href="#linear-gradient-5"/><linearGradient id="linear-gradient-9" x1="7285.51" y1="267.42" x2="7304.89" y2="267.42" xlink:href="#linear-gradient-5"/><clipPath id="clip-path"><path id="_Clipping_Path_" data-name="&lt;Clipping Path&gt;" d="M315.43,299.85c-1.11-13.14-1.85-63.88-1.85-63.88l-53.56-7c-7,30.3-2.13,81.8.19,81.86s89.36,2.85,89.36,2.85V311.2l-31.91-2-2.23-9.33" style="fill:#78adf9"/></clipPath></defs><title>landing-guy</title><path d="M0,441c39.22-2.4,206.41-184.48,222.89-250.74S266.5,55,320.93,20.64c48.83-30.78,113.14-26,160.8,6.89s78.51,91.13,86.55,152.12c4.47,33.9,2,68.66,7.76,102.35,14.1,82.59,133.1,139.05,133.1,139.05s75.78,25.5,161.77,18.56Z" style="fill:#5f99ff"/><path d="M479,371q36.94-1.32,74-.64c9,.16,19.47,1.11,23.88,7.05,4.21,5.66.07,13.23-6.85,17.05s-15.76,4.79-24.23,5.59a1389.45,1389.45,0,0,1-161,5.65c-17.47-.41-36.6-.75-50.37,7.46-5.43,3.25-9.59,7.62-15.16,10.72-12,6.68-28.19,6.37-43,5.19a551.84,551.84,0,0,1-97.24-16.49c-5.35-1.41-10.86-3-14.81-6.1s-5.84-8.16-2.88-11.84c5.18-6.47,19.79-4.11,25.87-10.1,5.6-5.53,0-13.77,2.64-20.47,3.59-9.08,19.26-10.72,31.69-10.65l194.68,1.07c49.35.27,108.49,4.44,154.31,18.44" style="fill:#4f94f7"/><path d="M304.83,395.32h0a2.73,2.73,0,0,0,2.73-2.73l.74-117.26c0-1.51-2-2.71-3.47-2.71h0c-1.51,0-5.09.81-5.09,2.32l2.36,117.65A2.73,2.73,0,0,0,304.83,395.32Z" style="fill:url(#linear-gradient)"/><path d="M279.76,395.32h.15a2.72,2.72,0,0,0,2.69-2.72l1.48-116.33a2.72,2.72,0,0,0-2.69-2.78h-3.14a2.72,2.72,0,0,0-2.69,2.78l1.51,116.33A2.72,2.72,0,0,0,279.76,395.32Z" style="fill:url(#linear-gradient-2)"/><path d="M496.35,395h0a2.73,2.73,0,0,0,2.73-2.73l.74-117.26c0-1.51-2-2.71-3.47-2.71h0c-1.51,0-5.1.81-5.1,2.32l2.37,117.65A2.73,2.73,0,0,0,496.35,395Z" style="fill:url(#linear-gradient-3)"/><path d="M471.28,395h.15a2.72,2.72,0,0,0,2.69-2.71L475.59,276a2.72,2.72,0,0,0-2.69-2.79h-3.13a2.73,2.73,0,0,0-2.7,2.79l1.52,116.33A2.71,2.71,0,0,0,471.28,395Z" style="fill:url(#linear-gradient-4)"/><rect x="249.48" y="270.45" width="272.08" height="4.98" style="fill:#0d3f72"/><path d="M306.68,176.47a15.36,15.36,0,0,1,1.23,8.16,3,3,0,0,0,.5,2.54l2.46,4.2s1,1.13,0,1.56c0,0-2.46.72-1.39,2l.53,1a.68.68,0,0,1-.21.92s-1,.53-.46,1.27l.47.44s.52,1-.35,1.34a4.78,4.78,0,0,0-.7,2.63s1.44,3.1-1.88,3.64l-5.34.88s-5.46,1.28-6.07,9.28c0,0-6.46-3.43-16.87-3.95,0,0,3.39-7.73,1.83-12.64l2.49-18,11.66-9.32,11.3,3Z" style="fill:url(#linear-gradient-5)"/><polygon points="360.73 374.68 358.54 387.73 366.08 388.44 368.61 373.77 360.73 374.68" style="fill:url(#linear-gradient-6)"/><path d="M293.62,197s-1.77,5.92-14.24,4.42c-.33,0-.46-.07-.52-1.39a26.73,26.73,0,0,0-2.4-10s-3.23-8.64,1.42-16a16.91,16.91,0,0,1,11.74-8,28,28,0,0,1,10.06,1.29,31.32,31.32,0,0,1,7.58,4.21c2.33,1.55,2.49,3.1,2.18,4.17a1.32,1.32,0,0,1-1.85.79,10,10,0,0,0-7.26-.8c-2.85.95-3.36,4.28-3.36,4.28s-.9,4,.65,6.7a3.65,3.65,0,0,1-.91,4.65s-.51-3.1-2.45-3-3.08,1.42-2.38,3.49Z" style="fill:#0d3f72"/><rect x="378.57" y="252.34" width="12.03" height="12.28" style="fill:#ededee"/><rect x="332.55" y="185.45" width="104.42" height="69.37" rx="8.12" ry="8.12" style="fill:#ededee"/><rect id="_Rectangle_" data-name="&lt;Rectangle&gt;" x="338.19" y="191.16" width="93.14" height="56.16" style="fill:#fff"/><polyline points="287.85 289.4 289.71 240.44 324.73 242.05 323.44 259.43 324.35 286.82" style="fill:url(#linear-gradient-7)"/><path d="M326.15,286.82s30.09-.81,52.42,4c25.95,5.62-9.08,85.48-9.08,85.48l-12.77-.81,8.81-62.09-77.6-2.21.55-21.81" style="fill:#0d3f72"/><polygon points="327.47 377.67 327.47 389.07 333.29 389.65 334.18 377.67 327.47 377.67" style="fill:url(#linear-gradient-8)"/><path d="M349.9,395a1,1,0,0,0,1-1,5.86,5.86,0,0,0-3.88-5.15,16.13,16.13,0,0,0-4.56-.23,5.72,5.72,0,0,1-4.24-1.34,15,15,0,0,1-1.27-1.9,2.44,2.44,0,0,0-1.86-1.21,2.47,2.47,0,0,0-2,1.49c-.51,1-.75,2.07-1.65,2.79a1.74,1.74,0,0,1-1.51.37c-.89-.24-1.11-1.13-1.32-1.91s-.51-1.38-1.18-1.56a1.75,1.75,0,0,0-1.56.58,4.74,4.74,0,0,0-1.22,3.92c.13,1.07.37,3.49.48,4.58a.59.59,0,0,0,.62.53Z" style="fill:#18539b"/><path d="M389.51,264.71a59.68,59.68,0,0,1,7.42-.54c3.68,0,4.11.11,6.77,1.14a7.78,7.78,0,0,1,4.33,5.36H388.65Z" style="fill:url(#linear-gradient-9)"/><polygon points="392.12 270.67 390.28 270.67 390.28 263.9 392.12 264.18 392.12 270.67" style="fill:#fff"/><path d="M265.66,239.5s0-32.42,17.84-28.41l20.82,4.76s16.07,3.08,19.83,13.78l14.09,24.66a25.71,25.71,0,0,0,4.82,1.05s18.31,1.9,25.45,3.57l21,4.58s2.39,2.71.6,7.31H342.82s-18.52,3-26.36-20.53l-2.38-6.94Z" style="fill:#18539b"/><polygon points="322.55 312.38 340.94 313.07 337.55 379.97 326.99 379.97 322.55 312.38" style="fill:#0d3f72"/><path d="M384.89,395a1.13,1.13,0,0,0,1.13-1.18,7.15,7.15,0,0,0-4.61-6.3,18.17,18.17,0,0,0-5.42-.28c-1.82,0-3.81-.31-5-1.65a18.83,18.83,0,0,1-1.51-2.32,2.89,2.89,0,0,0-2.2-1.48,2.94,2.94,0,0,0-2.41,1.83c-.6,1.17-.89,2.53-2,3.41a2,2,0,0,1-1.8.45c-1.05-.3-1.31-1.39-1.56-2.34s-.61-1.69-1.41-1.9a2,2,0,0,0-1.85.7,5.88,5.88,0,0,0-1.44,4.81c.15,1.31.44,4.27.56,5.6a.72.72,0,0,0,.74.65Z" style="fill:#18539b"/><rect x="346.22" y="311.2" width="3.34" height="83.92" style="fill:#87bbf9"/><path id="_Clipping_Path_2" data-name="&lt;Clipping Path&gt;" d="M315.43,299.85c-1.11-13.14-1.85-63.88-1.85-63.88l-53.56-7c-7,30.3-2.13,81.8.19,81.86s89.36,2.85,89.36,2.85V311.2l-31.91-2-2.23-9.33" style="fill:#78adf9"/><g style="clip-path:url(#clip-path)"><path d="M315.43,312.2l2.23.05.83-76.59h-6C308.84,300.46,315.43,312.2,315.43,312.2Z" style="fill:#78adf9"/></g><path d="M315.28,395h4.47c.69-82-2.09-85.86-2.09-85.86l-3.24.06C316.18,316.3,315.28,395,315.28,395Z" style="fill:#78adf9"/><rect x="260.21" y="310.79" width="4" height="84.25" style="fill:#78adf9"/><g id="folder"><path d="M401.14,228.57H368.93a.25.25,0,0,1-.26-.22v-22.5a.25.25,0,0,1,.26-.23h9.58a.24.24,0,0,1,.25.23v1.54a.25.25,0,0,0,.26.23h22.13a.24.24,0,0,1,.25.22v20.51A.24.24,0,0,1,401.14,228.57Z" style="fill:#f3a845"/><polygon points="399.26 232.45 372.8 232.45 372.8 207.98 399.26 206.19 399.26 232.45" style="fill:#f1f1f2"/><path d="M368.13,232.45h34a.25.25,0,0,0,.26-.23v-22.5a.25.25,0,0,0-.26-.22H392a.25.25,0,0,0-.27.22v1.55a.25.25,0,0,1-.27.22H368.13a.25.25,0,0,0-.26.23v20.5A.25.25,0,0,0,368.13,232.45Z" style="fill:#fcb850"/></g></svg>