<svg id="Layer_1" data-name="Layer 1" xmlns="http://www.w3.org/2000/svg" viewBox="0 0 1078.61 500"><title>landing_buildings</title><path d="M1078.61,500.14,0,501c48.4-2.82,89-12.87,133.44-38.85s84.06-59.27,127.07-87.53C381.66,295,532.07,242.7,676.89,254.55c0,0,151.91,20.12,227.77,45.2,60.06,19.85,116.65,48.68,173.95,74.19" style="fill:#488de0"/><path d="M594.31,322.59c-66.6-16.44-137.38-2.36-198.55,26.8-8,3.84-16.82,9.34-17.43,17.62-.94,12.94,17.33,18.61,31.43,20.06l103,10.57c51.84,5.32,104.06,10.65,156.06,6.95,57.29-4.08,113.51-19.07,171-18.95,25.61.05,97.88,4.37,105.79-.92,8.9-6,9.27-19.8,3.34-28.71s-16.2-13.83-26.26-17.5c-12-4.39-22.83-12-34.35-16.16-95.89-35-157.85,25.12-294,.24" style="fill:#3084d8"/><rect x="461.55" width="105.74" height="350.96" style="fill:#18539b"/><rect x="475.03" y="15.8" width="6.49" height="320.7" style="fill:#0d3f72"/><rect x="492.76" y="15.8" width="6.49" height="320.7" style="fill:#0d3f72"/><rect x="512.21" y="15.8" width="6.49" height="320.7" style="fill:#0d3f72"/><rect x="529.95" y="15.8" width="6.49" height="320.7" style="fill:#0d3f72"/><rect x="549.54" y="15.13" width="6.49" height="320.7" style="fill:#0d3f72"/><g style="opacity:0.91"><rect x="689.41" y="212.8" width="181.97" height="137.4" style="fill:#18539b"/><ellipse cx="780.39" cy="247.47" rx="69.19" ry="75.2" style="fill:#18539b"/><rect x="702.67" y="228.25" width="7.75" height="50.68" style="fill:#0d3f72"/><rect x="723.85" y="228.25" width="7.75" height="50.68" style="fill:#0d3f72"/><rect x="702.4" y="285.95" width="7.75" height="50.68" style="fill:#0d3f72"/><rect x="723.58" y="285.95" width="7.75" height="50.68" style="fill:#0d3f72"/><rect x="744.96" y="227.31" width="7.75" height="50.68" style="fill:#0d3f72"/><rect x="766.14" y="227.31" width="7.75" height="50.68" style="fill:#0d3f72"/><rect x="744.69" y="285" width="7.75" height="50.68" style="fill:#0d3f72"/><rect x="765.87" y="285" width="7.75" height="50.68" style="fill:#0d3f72"/><rect x="787.49" y="227.17" width="7.75" height="50.68" style="fill:#0d3f72"/><rect x="808.67" y="227.17" width="7.75" height="50.68" style="fill:#0d3f72"/><rect x="787.22" y="284.87" width="7.75" height="50.68" style="fill:#0d3f72"/><rect x="808.4" y="284.87" width="7.75" height="50.68" style="fill:#0d3f72"/><rect x="829.77" y="226.22" width="7.75" height="50.68" style="fill:#0d3f72"/><rect x="850.95" y="226.22" width="7.75" height="50.68" style="fill:#0d3f72"/><rect x="829.5" y="283.92" width="7.75" height="50.68" style="fill:#0d3f72"/><rect x="850.68" y="283.92" width="7.75" height="50.68" style="fill:#0d3f72"/></g><g style="opacity:0.97"><polygon points="565.43 166.99 563.51 158.46 563.51 125.43 738.01 125.43 738.01 158.46 735.84 166.99 565.43 166.99" style="fill:#fff"/><polygon points="735.84 166.99 565.43 166.99 563.51 158.46 737.9 158.46 735.84 166.99" style="fill:#f1f1f2"/><polygon points="565.38 199.25 563.45 190.72 563.45 166.42 737.96 166.7 737.96 190.72 735.78 199.25 565.38 199.25" style="fill:#fff"/><polygon points="735.78 199.25 565.38 199.25 563.45 190.72 737.85 190.72 735.78 199.25" style="fill:#f1f1f2"/><polygon points="565.43 231.85 563.51 223.32 563.51 199.02 738.01 199.3 738.01 223.32 735.84 231.85 565.43 231.85" style="fill:#fff"/><polygon points="735.84 231.85 565.43 231.85 563.51 223.32 737.9 223.32 735.84 231.85" style="fill:#f1f1f2"/><polygon points="565.63 264.56 563.7 256.03 563.7 231.72 738.21 232 738.21 256.03 736.03 264.56 565.63 264.56" style="fill:#fff"/><polygon points="736.03 264.56 565.63 264.56 563.7 256.03 738.1 256.03 736.03 264.56" style="fill:#f1f1f2"/><polygon points="565.68 297.15 563.76 288.63 563.76 264.32 738.26 264.6 738.26 288.63 736.09 297.15 565.68 297.15" style="fill:#fff"/><polygon points="736.09 297.15 565.68 297.15 563.76 288.63 738.15 288.63 736.09 297.15" style="fill:#f1f1f2"/><polygon points="565.35 329.99 563.42 321.46 563.42 297.15 737.93 297.44 737.93 321.46 735.76 329.99 565.35 329.99" style="fill:#fff"/><polygon points="735.76 329.99 565.35 329.99 563.42 321.46 737.82 321.46 735.76 329.99" style="fill:#f1f1f2"/><polygon points="563.48 365.11 563.48 329.75 737.99 330.04 737.99 365.11 563.48 365.11" style="fill:#fff"/><polygon points="565.35 125.99 563.42 117.46 563.42 84.43 737.93 84.43 737.93 117.46 735.76 125.99 565.35 125.99" style="fill:#fff"/><polygon points="735.76 125.99 565.35 125.99 563.42 117.46 737.82 117.46 735.76 125.99" style="fill:#f1f1f2"/><polygon points="573.67 104.89 576.5 91.78 574.3 91.78 570.42 109.79 573.67 104.89" style="fill:#f48455"/><polygon points="576.93 99.97 575.45 102.2 579.79 113.1 582.34 113.1 576.93 99.97" style="fill:#f48455"/></g><polygon points="639.71 263.98 499.35 305.93 499.35 380.98 639.71 380.98 639.71 263.98" style="fill:#0d3f72"/><rect x="508.8" y="315.96" width="6.06" height="12.22" style="fill:#08365b"/><rect x="525.35" y="315.96" width="6.06" height="12.22" style="fill:#08365b"/><rect x="508.91" y="337.21" width="6.06" height="12.22" style="fill:#08365b"/><rect x="525.46" y="337.21" width="6.06" height="12.22" style="fill:#08365b"/><rect x="541.84" y="315.96" width="6.06" height="12.22" style="fill:#08365b"/><rect x="558.38" y="315.96" width="6.06" height="12.22" style="fill:#08365b"/><rect x="541.95" y="337.21" width="6.06" height="12.22" style="fill:#08365b"/><rect x="558.49" y="337.21" width="6.06" height="12.22" style="fill:#08365b"/><rect x="575.06" y="315.96" width="6.06" height="12.22" style="fill:#08365b"/><rect x="591.61" y="315.96" width="6.06" height="12.22" style="fill:#08365b"/><rect x="575.17" y="337.21" width="6.06" height="12.22" style="fill:#08365b"/><rect x="591.72" y="337.21" width="6.06" height="12.22" style="fill:#08365b"/><rect x="608.1" y="315.96" width="6.06" height="12.22" style="fill:#08365b"/><rect x="624.64" y="315.96" width="6.06" height="12.22" style="fill:#08365b"/><rect x="608.21" y="337.21" width="6.06" height="12.22" style="fill:#08365b"/><rect x="624.75" y="337.21" width="6.06" height="12.22" style="fill:#08365b"/><rect x="508.9" y="358.87" width="6.06" height="12.22" style="fill:#08365b"/><rect x="525.45" y="358.87" width="6.06" height="12.22" style="fill:#08365b"/><rect x="541.93" y="358.87" width="6.06" height="12.22" style="fill:#08365b"/><rect x="558.48" y="358.87" width="6.06" height="12.22" style="fill:#08365b"/><rect x="575.16" y="358.87" width="6.06" height="12.22" style="fill:#08365b"/><rect x="591.71" y="358.87" width="6.06" height="12.22" style="fill:#08365b"/><rect x="608.19" y="358.87" width="6.06" height="12.22" style="fill:#08365b"/><rect x="624.74" y="358.87" width="6.06" height="12.22" style="fill:#08365b"/><rect x="591.43" y="293.25" width="6.06" height="12.22" style="fill:#08365b"/><rect x="607.92" y="293.25" width="6.06" height="12.22" style="fill:#08365b"/><rect x="624.46" y="293.25" width="6.06" height="12.22" style="fill:#08365b"/><rect x="575.06" y="293.25" width="6.06" height="12.22" style="fill:#08365b"/><polygon points="497.37 298.91 497.37 306.5 643.13 263.93 643.13 255.83 497.37 298.91" style="fill:#08365b"/></svg>