<svg id="Layer_1" data-name="Layer 1" xmlns="http://www.w3.org/2000/svg" viewBox="0 0 1191.68 700.23"><defs><style>.cls-1{fill:#568eef;}.cls-2{fill:#488de0;}.cls-3{fill:#3084d8;}.cls-4{fill:#18539b;}.cls-5{fill:#0d3f72;}.cls-6{opacity:0.91;}.cls-7{opacity:0.97;}.cls-8{fill:#fff;}.cls-9{fill:#f1f1f2;}.cls-10{fill:#f48455;}.cls-11{fill:#08365b;}</style></defs><title>landing_buildings</title><path class="cls-1" d="M1191.68,0V373.91c-48.23,17.19-108.85,12.59-147.8-16-38.69-28.41-51-76-36.19-116.47,10.33-28.21,32.07-52.91,43.58-80.82,14.94-36.24,11.34-77.22-9.78-111.41C1032.94,35.36,1019.58,11,1006.11,0Z"/><path class="cls-2" d="M1191.68,699.3,0,700.23c53.47-3.06,98.33-13.94,147.43-42.1s92.87-64.24,140.38-94.86c133.86-86.27,300-143,460-130.14,0,0,167.84,21.8,251.65,49,66.35,21.52,128.87,52.76,192.18,80.41"/><path class="cls-3" d="M673.27,496.71c-72.18-17.82-148.89-2.56-215.18,29.05-8.72,4.16-18.24,10.12-18.89,19.09-1,14,18.78,20.18,34.06,21.74l111.68,11.46c56.18,5.77,112.77,11.54,169.14,7.53,62.08-4.42,123-20.66,185.29-20.54,27.75.06,106.08,4.74,114.66-1,9.64-6.45,10-21.45,3.61-31.11s-17.56-15-28.45-19c-13.06-4.75-24.74-13-37.23-17.51-103.93-37.9-171.08,27.23-318.69.26"/><rect class="cls-4" x="529.39" y="147.09" width="114.6" height="380.37"/><rect class="cls-5" x="544" y="164.21" width="7.04" height="347.57"/><rect class="cls-5" x="563.22" y="164.21" width="7.04" height="347.57"/><rect class="cls-5" x="584.3" y="164.21" width="7.04" height="347.57"/><rect class="cls-5" x="603.52" y="164.21" width="7.04" height="347.57"/><rect class="cls-5" x="624.76" y="163.49" width="7.04" height="347.57"/><g class="cls-6"><path class="cls-5" d="M840.66,444.78"/><rect class="cls-4" x="776.35" y="377.72" width="197.22" height="148.91"/><ellipse class="cls-4" cx="874.95" cy="415.3" rx="74.99" ry="81.5"/><rect class="cls-5" x="790.72" y="394.47" width="8.4" height="54.93"/><rect class="cls-5" x="813.67" y="394.47" width="8.4" height="54.93"/><rect class="cls-5" x="790.42" y="457" width="8.4" height="54.93"/><rect class="cls-5" x="813.38" y="457" width="8.4" height="54.93"/><rect class="cls-5" x="836.55" y="393.44" width="8.4" height="54.93"/><rect class="cls-5" x="859.5" y="393.44" width="8.4" height="54.93"/><rect class="cls-5" x="836.25" y="455.97" width="8.4" height="54.93"/><rect class="cls-5" x="859.21" y="455.97" width="8.4" height="54.93"/><rect class="cls-5" x="882.64" y="393.29" width="8.4" height="54.93"/><rect class="cls-5" x="905.6" y="393.29" width="8.4" height="54.93"/><rect class="cls-5" x="882.35" y="455.83" width="8.4" height="54.93"/><rect class="cls-5" x="905.3" y="455.83" width="8.4" height="54.93"/><rect class="cls-5" x="928.47" y="392.27" width="8.4" height="54.93"/><rect class="cls-5" x="951.42" y="392.27" width="8.4" height="54.93"/><rect class="cls-5" x="928.18" y="454.8" width="8.4" height="54.93"/><rect class="cls-5" x="951.13" y="454.8" width="8.4" height="54.93"/></g><g class="cls-7"><polygon class="cls-8" points="641.98 328.07 639.89 318.82 639.89 283.03 829.02 283.03 829.02 318.82 826.66 328.07 641.98 328.07"/><polygon class="cls-9" points="826.66 328.07 641.98 328.07 639.89 318.82 828.9 318.82 826.66 328.07"/><polygon class="cls-8" points="641.92 363.04 639.83 353.8 639.83 327.45 828.96 327.76 828.96 353.8 826.6 363.04 641.92 363.04"/><polygon class="cls-9" points="826.6 363.04 641.92 363.04 639.83 353.8 828.84 353.8 826.6 363.04"/><polygon class="cls-8" points="641.98 398.37 639.89 389.13 639.89 362.78 829.02 363.09 829.02 389.13 826.66 398.37 641.98 398.37"/><polygon class="cls-9" points="826.66 398.37 641.98 398.37 639.89 389.13 828.9 389.13 826.66 398.37"/><polygon class="cls-8" points="642.19 433.81 640.1 424.57 640.1 398.23 829.23 398.53 829.23 424.57 826.88 433.81 642.19 433.81"/><polygon class="cls-9" points="826.88 433.81 642.19 433.81 640.1 424.57 829.11 424.57 826.88 433.81"/><polygon class="cls-8" points="642.25 469.14 640.16 459.9 640.16 433.56 829.29 433.86 829.29 459.9 826.93 469.14 642.25 469.14"/><polygon class="cls-9" points="826.93 469.14 642.25 469.14 640.16 459.9 829.17 459.9 826.93 469.14"/><polygon class="cls-8" points="641.89 504.73 639.8 495.49 639.8 469.14 828.93 469.45 828.93 495.49 826.58 504.73 641.89 504.73"/><polygon class="cls-9" points="826.58 504.73 641.89 504.73 639.8 495.49 828.81 495.49 826.58 504.73"/><polygon class="cls-8" points="639.86 542.79 639.86 504.47 828.99 504.78 828.99 542.79 639.86 542.79"/><polygon class="cls-8" points="641.89 283.63 639.8 274.39 639.8 238.59 828.93 238.59 828.93 274.39 826.58 283.63 641.89 283.63"/><polygon class="cls-9" points="826.58 283.63 641.89 283.63 639.8 274.39 828.81 274.39 826.58 283.63"/><polygon class="cls-10" points="650.91 260.77 653.97 246.56 651.6 246.56 647.39 266.08 650.91 260.77"/><polygon class="cls-10" points="654.44 255.44 652.83 257.85 657.54 269.66 660.3 269.66 654.44 255.44"/></g><polygon class="cls-5" points="722.48 433.19 570.35 478.65 570.35 559.99 722.48 559.99 722.48 433.19"/><path class="cls-11" d="M619.62,501.91"/><rect class="cls-11" x="580.6" y="489.52" width="6.56" height="13.24"/><rect class="cls-11" x="598.53" y="489.52" width="6.56" height="13.24"/><rect class="cls-11" x="580.72" y="512.55" width="6.56" height="13.24"/><rect class="cls-11" x="598.65" y="512.55" width="6.56" height="13.24"/><rect class="cls-11" x="616.4" y="489.52" width="6.56" height="13.24"/><rect class="cls-11" x="634.34" y="489.52" width="6.56" height="13.24"/><rect class="cls-11" x="616.52" y="512.55" width="6.56" height="13.24"/><rect class="cls-11" x="634.46" y="512.55" width="6.56" height="13.24"/><rect class="cls-11" x="652.41" y="489.52" width="6.56" height="13.24"/><rect class="cls-11" x="670.35" y="489.52" width="6.56" height="13.24"/><rect class="cls-11" x="652.53" y="512.55" width="6.56" height="13.24"/><rect class="cls-11" x="670.47" y="512.55" width="6.56" height="13.24"/><rect class="cls-11" x="688.22" y="489.52" width="6.56" height="13.24"/><rect class="cls-11" x="706.15" y="489.52" width="6.56" height="13.24"/><rect class="cls-11" x="688.34" y="512.55" width="6.56" height="13.24"/><rect class="cls-11" x="706.27" y="512.55" width="6.56" height="13.24"/><rect class="cls-11" x="580.71" y="536.03" width="6.56" height="13.24"/><rect class="cls-11" x="598.64" y="536.03" width="6.56" height="13.24"/><rect class="cls-11" x="616.51" y="536.03" width="6.56" height="13.24"/><rect class="cls-11" x="634.44" y="536.03" width="6.56" height="13.24"/><rect class="cls-11" x="652.52" y="536.03" width="6.56" height="13.24"/><rect class="cls-11" x="670.45" y="536.03" width="6.56" height="13.24"/><rect class="cls-11" x="688.32" y="536.03" width="6.56" height="13.24"/><rect class="cls-11" x="706.26" y="536.03" width="6.56" height="13.24"/><rect class="cls-11" x="670.15" y="464.91" width="6.56" height="13.24"/><rect class="cls-11" x="688.02" y="464.91" width="6.56" height="13.24"/><rect class="cls-11" x="705.96" y="464.91" width="6.56" height="13.24"/><rect class="cls-11" x="652.41" y="464.91" width="6.56" height="13.24"/><polygon class="cls-11" points="568.21 471.05 568.21 479.28 726.19 433.14 726.19 424.36 568.21 471.05"/></svg>