<svg id="Layer_1" data-name="Layer 1" xmlns="http://www.w3.org/2000/svg" viewBox="0 0 16.67 20.91"><title>landing-read-arrow</title><path d="M8.33,20.91a1.83,1.83,0,0,1-1.82-1.83V1.83a1.83,1.83,0,1,1,3.65,0V19.08A1.83,1.83,0,0,1,8.33,20.91Z" style="fill:#fff"/><path d="M8.34,20.91A1.82,1.82,0,0,1,7,20.27L.44,12.68A1.83,1.83,0,1,1,3.22,10.3l6.5,7.59a1.83,1.83,0,0,1-.2,2.58A1.77,1.77,0,0,1,8.34,20.91Z" style="fill:#fff"/><path d="M8.33,20.91a1.77,1.77,0,0,1-1.18-.44A1.83,1.83,0,0,1,7,17.89l6.5-7.59a1.83,1.83,0,0,1,2.78,2.38L9.72,20.27A1.82,1.82,0,0,1,8.33,20.91Z" style="fill:#fff"/></svg>