<?xml version="1.0" encoding="UTF-8"?>
<svg width="397px" height="206px" viewBox="0 0 397 206" version="1.1" xmlns="http://www.w3.org/2000/svg" xmlns:xlink="http://www.w3.org/1999/xlink">
    <!-- Generator: Sketch 49.3 (51167) - http://www.bohemiancoding.com/sketch -->
    <title>Page 1</title>
    <desc>Created with Sketch.</desc>
    <defs>
        <polygon id="path-1" points="0.692 0.025 10.611 0.025 10.611 8.951 0.692 8.951"></polygon>
        <linearGradient x1="50%" y1="0%" x2="50%" y2="100%" id="linearGradient-3">
            <stop stop-color="#EE9224" offset="0%"></stop>
            <stop stop-color="#FCB850" offset="100%"></stop>
        </linearGradient>
        <linearGradient x1="50%" y1="22.5691743%" x2="50%" y2="100%" id="linearGradient-4">
            <stop stop-color="#164B72" offset="0%"></stop>
            <stop stop-color="#0D3F72" offset="100%"></stop>
        </linearGradient>
        <linearGradient x1="-1.11022302e-14%" y1="50%" x2="100%" y2="50%" id="linearGradient-5">
            <stop stop-color="#EE9224" offset="0%"></stop>
            <stop stop-color="#FCB850" offset="100%"></stop>
        </linearGradient>
        <linearGradient x1="50%" y1="0%" x2="50%" y2="100%" id="linearGradient-6">
            <stop stop-color="#3178DD" offset="0%"></stop>
            <stop stop-color="#3178DD" offset="34.4720918%"></stop>
            <stop stop-color="#5F90FF" offset="100%"></stop>
        </linearGradient>
        <path d="M18.038,1.362 L7.895,7.087 C7.125,7.6 0.58,11.964 0.58,18.765 C0.58,18.765 0.395,69.431 0.524,69.046 C0.651,68.661 63.441,63.661 63.441,63.661 L40.767,0.856 L34.074,0.542 L18.038,1.362 Z" id="path-7"></path>
        <linearGradient x1="100%" y1="50%" x2="-2.22044605e-14%" y2="50%" id="linearGradient-9">
            <stop stop-color="#EE9224" offset="0%"></stop>
            <stop stop-color="#FCB850" offset="100%"></stop>
        </linearGradient>
    </defs>
    <g id="Page-1" stroke="none" stroke-width="1" fill="none" fill-rule="evenodd">
        <g id="Artboard" transform="translate(-385.000000, -924.000000)">
            <g id="Page-1" transform="translate(385.000000, 923.000000)">
                <g id="Group-18" transform="translate(213.000000, 1.532000)">
                    <path d="M176.3518,164.907 C169.9698,171.93 163.5878,178.953 157.2058,185.977 C151.8878,191.831 146.3818,197.826 139.2528,201.251 C129.7478,205.817 118.6798,205.219 108.1578,204.522 L75.6878,202.373 C70.4738,202.028 64.7058,201.428 61.1998,197.551 C57.5898,193.559 57.6348,187.423 54.8038,182.845 C51.4218,177.375 44.5718,175.113 38.1648,174.55 C31.7578,173.986 25.2168,174.692 18.9428,173.28 C12.6678,171.868 6.3828,167.549 5.4028,161.193 C4.4228,154.837 11.7628,148.071 17.2938,151.353 L176.3518,164.907 Z" id="Fill-1" fill="#FBDAB2"></path>
                    <path d="M176.9505,3.5906 L176.9505,165.4846 L174.2925,165.4846 L3.4925,150.8676 C2.0305,150.8676 0.8345,149.6716 0.8345,148.2096 L0.8345,18.2076 C0.8345,16.7426 2.0305,15.5466 3.4925,15.5466 L174.2925,0.9296 C175.7545,0.9296 176.9505,2.1266 176.9505,3.5906" id="Fill-4" fill="#78ADF9"></path>
                    <path d="M176.9505,0.9295 L176.9505,14.7075 L0.8345,29.3245 L0.8345,18.2075 C0.8345,16.7425 2.0305,15.5465 3.4925,15.5465 L174.2925,0.9295 L176.9505,0.9295 Z" id="Fill-6" fill="#5F90FF"></path>
                    <path d="M11.3704,22.4456 C11.3704,23.6466 10.3954,24.6206 9.1944,24.6206 C7.9934,24.6206 7.0194,23.6466 7.0194,22.4456 C7.0194,21.2446 7.9934,20.2706 9.1944,20.2706 C10.3954,20.2706 11.3704,21.2446 11.3704,22.4456" id="Fill-8" fill="#D8EAEE"></path>
                    <path d="M20.9934,21.3494 C20.9934,22.5504 20.0194,23.5244 18.8184,23.5244 C17.6174,23.5244 16.6434,22.5504 16.6434,21.3494 C16.6434,20.1484 17.6174,19.1744 18.8184,19.1744 C20.0194,19.1744 20.9934,20.1484 20.9934,21.3494" id="Fill-10" fill="#D8EAEE"></path>
                    <path d="M30.6175,20.2708 C30.6175,21.4718 29.6435,22.4458 28.4425,22.4458 C27.2415,22.4458 26.2675,21.4718 26.2675,20.2708 C26.2675,19.0698 27.2415,18.0958 28.4425,18.0958 C29.6435,18.0958 30.6175,19.0698 30.6175,20.2708" id="Fill-12" fill="#D8EAEE"></path>
                    <polygon id="Fill-14" fill="#0D3F72" points="106.4466 116.1965 121.9736 161.0075 106.4466 159.6785"></polygon>
                    <path d="M75.8665,84.2976 C75.6185,90.2486 82.7445,91.4886 82.7445,91.4886 C90.2485,92.9766 94.2165,86.4466 94.2165,86.4466 C97.1085,80.4956 93.5545,74.8746 93.5545,74.8746 C91.3225,72.6436 90.1665,68.0976 90.1665,68.0976 C87.6855,58.7566 79.5865,54.6246 79.5865,54.6246 C72.7255,51.2356 63.6335,54.6246 63.6335,54.6246 C55.6155,58.3436 55.5335,66.9406 55.5335,66.9406 L55.4505,72.2296 C55.2025,77.3546 51.4005,80.0826 51.4005,80.0826 C48.5085,84.1316 52.3925,88.5956 52.3925,88.5956 C58.2615,94.1336 64.1905,87.0256 64.1905,87.0256 L75.8665,84.2976 Z" id="Fill-16" fill="#3178DD"></path>
                </g>
                <g id="Group-21" transform="translate(279.000000, 88.532000)">
                    <mask id="mask-2" fill="white">
                        <use xlink:href="#path-1"></use>
                    </mask>
                    <g id="Clip-20"></g>
                    <polygon id="Fill-19" fill="url(#linearGradient-3)" mask="url(#mask-2)" points="0.692 8.951 10.611 8.951 10.611 0.025 0.692 0.025"></polygon>
                </g>
                <g id="Group-29" transform="translate(260.000000, 63.532000)">
                    <path d="M10.0208,8.1634 C10.0208,8.1634 15.0628,4.3614 15.8068,0.3934 C15.8068,0.3934 23.6708,7.4674 31.3458,12.4614 L33.3948,11.0964 C34.0468,10.6614 34.9288,10.8274 35.3768,11.4714 L35.4008,11.5044 C35.9818,12.3384 35.8098,13.4804 35.0018,14.0974 C33.1608,15.5044 30.1738,18.0854 29.6108,20.3964 C29.6108,20.3964 28.4538,24.4464 29.5318,25.9194 C29.5318,25.9194 16.9638,27.7524 13.4928,22.2154 C10.0208,16.6774 10.0208,8.1634 10.0208,8.1634" id="Fill-22" fill="#FCB850"></path>
                    <g id="Group-26" transform="translate(0.000000, 32.000000)" fill="url(#linearGradient-4)">
                        <polygon id="Fill-24" points="10.021 1.952 42.504 0.092 48.35 11.916 59.447 65.678 0.949 60.672"></polygon>
                    </g>
                    <path d="M45.2317,61.2283 L44.7367,89.4963 L5.3097,83.9173 L5.3097,93.0453 L55.8387,105.1113 C55.8387,105.1113 63.5817,106.5733 63.5817,91.9563 C63.5817,83.2043 61.8457,57.6323 61.8457,57.6323 C61.8457,57.6323 60.3397,44.9143 56.0187,39.7793 C51.6977,34.6443 42.5037,32.0923 42.5037,32.0923 L45.2317,61.2283 Z" id="Fill-27" fill="#164B72"></path>
                </g>
                <g id="Group-32" transform="translate(297.000000, 169.532000)" fill="url(#linearGradient-5)">
                    <path d="M0.325,2.035 C1.247,2.825 3.735,8.96 3.91,10.164 C4.036,11.029 3.937,11.913 4.016,12.784 C4.096,13.655 4.402,14.573 5.121,15.072 C5.769,15.52 6.659,15.533 7.38,15.213 C8.1,14.892 8.66,14.276 9.031,13.58 C9.652,12.417 9.784,11.042 9.632,9.733 C9.481,8.423 9.065,7.16 8.642,5.912 L6.658,0.451 L0.325,2.035 Z" id="Fill-30"></path>
                </g>
                <g id="Group-35" transform="translate(256.000000, 151.532000)" fill="url(#linearGradient-5)">
                    <path d="M8.014,1.404 C6.737,1.731 5.452,2.072 4.272,2.66 C3.092,3.249 2.011,4.109 1.378,5.265 C0.998,5.955 0.786,6.762 0.911,7.539 C1.036,8.319 1.533,9.057 2.263,9.355 C3.073,9.685 4.009,9.44 4.782,9.031 C5.556,8.622 6.243,8.056 7.037,7.689 C8.139,7.179 14.637,5.913 15.804,6.254 L13.671,0.083 L8.014,1.404 Z" id="Fill-33"></path>
                </g>
                <g id="Group-49" transform="translate(0.000000, 0.532000)">
                    <path d="M270.0208,96.9519 C270.0208,96.9519 261.8178,101.1999 259.1078,105.1229 C256.3978,109.0459 253.1548,131.9259 253.1548,131.9259 C253.1548,131.9259 251.1298,146.7789 253.1548,150.8099 C255.1798,154.8419 269.9108,157.1749 274.8008,158.6139 C279.6918,160.0519 289.6108,166.6479 289.6108,166.6479 L295.7448,172.7399 L305.3758,170.6079 C305.3758,170.6079 301.2908,160.3039 295.7448,155.3789 C290.1978,150.4539 266.4138,142.5859 266.4138,142.5859 L267.4958,122.4839 L270.0208,96.9519 Z" id="Fill-36" fill="#164B72"></path>
                    <polygon id="Fill-38" fill="#3178DD" points="389.95 166.485 396.352 166.485 396.352 1.93 389.95 1.93"></polygon>
                    <path d="M170.7434,149.659 C168.5114,157.198 177.3994,163.032 184.8394,165.867 C192.2784,168.701 201.3514,173.89 199.8514,181.602 C198.6914,187.564 191.7924,190.308 185.8804,192.034 C169.0074,196.959 151.1114,201.915 134.0734,197.577 C119.1154,193.769 106.3824,183.094 91.0824,180.972 C80.6484,179.526 70.1504,182.226 59.6964,183.521 C49.2424,184.815 37.6774,184.39 29.5164,177.828 C26.1364,175.109 23.5684,171.498 20.1064,168.879 C16.6454,166.26 12.7814,163.082 9.0604,165.329 L170.7434,149.659 Z" id="Fill-40" fill="#FBDAB2"></path>
                    <path d="M6.4026,4.5906 L6.4026,166.4846 L9.0606,166.4846 L179.8606,151.8676 C181.3226,151.8676 182.5186,150.6716 182.5186,149.2096 L182.5186,19.2076 C182.5186,17.7426 181.3226,16.5466 179.8606,16.5466 L9.0606,1.9296 C7.5986,1.9296 6.4026,3.1266 6.4026,4.5906" id="Fill-41" fill="#78ADF9"></path>
                    <path d="M6.4026,0.468 L6.4026,14.245 L182.5186,28.862 L182.5186,17.745 C182.5186,16.281 181.3226,15.085 179.8606,15.085 L9.0606,0.468 L6.4026,0.468 Z" id="Fill-42" fill="#5F90FF"></path>
                    <polygon id="Fill-43" fill="#3178DD" points="0.001 166.485 6.403 166.485 6.403 0.468 0.001 0.468"></polygon>
                    <path d="M31.5462,10.8601 C31.5462,12.0611 32.5202,13.0351 33.7212,13.0351 C34.9222,13.0351 35.8962,12.0611 35.8962,10.8601 C35.8962,9.6591 34.9222,8.6851 33.7212,8.6851 C32.5202,8.6851 31.5462,9.6591 31.5462,10.8601" id="Fill-44" fill="#D8EAEE"></path>
                    <path d="M21.9221,9.7635 C21.9221,10.9645 22.8961,11.9385 24.0971,11.9385 C25.2981,11.9385 26.2721,10.9645 26.2721,9.7635 C26.2721,8.5625 25.2981,7.5885 24.0971,7.5885 C22.8961,7.5885 21.9221,8.5625 21.9221,9.7635" id="Fill-45" fill="#D8EAEE"></path>
                    <path d="M12.2981,8.6848 C12.2981,9.8858 13.2721,10.8598 14.4731,10.8598 C15.6741,10.8598 16.6481,9.8858 16.6481,8.6848 C16.6481,7.4838 15.6741,6.5098 14.4731,6.5098 C13.2721,6.5098 12.2981,7.4838 12.2981,8.6848" id="Fill-46" fill="#D8EAEE"></path>
                    <path d="M105.1214,47.6555 C104.4794,46.5005 92.1614,43.9345 85.8734,54.3285 C85.8734,54.3285 83.1784,60.7445 83.1784,64.4665 C83.1784,64.4665 76.8914,66.3905 78.3024,73.9625 C78.3024,73.9625 78.3024,77.9405 81.1254,80.8915 C81.1254,80.8915 80.1984,86.1245 78.0964,88.6405 C78.0964,88.6405 70.3464,97.1885 73.9384,104.1185 C73.9384,104.1185 75.6334,108.2685 79.3284,112.8445 L121.0334,98.2155 C121.0334,98.2155 130.7864,92.3125 122.4454,83.2015 L122.5734,68.1875 C122.5734,68.1875 120.9054,56.0035 115.6444,51.5055 C115.6444,51.5055 110.8404,46.6295 105.1214,47.6555" id="Fill-47" fill="#F5F5F6"></path>
                    <polygon id="Fill-48" fill="#5F90FF" points="74.5804 109.7644 66.7664 161.3384 74.4784 160.6784"></polygon>
                </g>
                <polygon id="Fill-50" fill="url(#linearGradient-3)" points="97.446 92.713 108.889 92.713 108.889 81.27 97.446 81.27"></polygon>
                <path d="M113.4436,63.9751 C116.1816,72.2341 113.6146,77.7411 113.6146,77.7411 C113.6146,77.7411 112.9436,81.6531 107.8246,84.5131 C107.8246,84.5131 103.4286,88.1331 95.4086,83.1141 C95.4086,83.1141 93.7436,82.6271 93.2816,78.4801 L92.6726,73.0111 C92.6726,73.0111 90.8536,73.6611 89.9796,70.8351 C89.7896,70.2201 89.7216,68.9131 89.9066,68.3671 C90.5126,66.5721 92.4466,66.8881 92.4466,66.8881 C92.4466,66.8881 95.6976,62.3001 97.5506,60.3781 C99.4036,58.4561 102.0056,55.7581 102.0056,55.7581 C102.0056,55.7581 111.6146,58.3481 113.4436,63.9751" id="Fill-52" fill="#FCB850"></path>
                <g id="Group-56" transform="translate(157.000000, 116.532000)" fill="url(#linearGradient-5)">
                    <path d="M5.286,0.54 C4.725,0.587 4.138,0.653 3.683,0.962 C3.191,1.296 2.944,1.851 2.722,2.378 C1.94,4.229 1.156,6.079 0.373,7.93 L4.425,8.859 L6.42,4.792 C8.97,5.181 11.601,5.114 14.123,4.594 C15.202,4.371 16.441,3.893 16.647,2.885 C16.803,2.122 16.245,1.354 15.516,0.971 C14.789,0.589 13.928,0.508 13.093,0.455 C11.983,0.385 10.872,0.35 9.76,0.35 C8.266,0.351 6.773,0.414 5.286,0.54" id="Fill-54"></path>
                </g>
                <g id="Group-59" transform="translate(74.000000, 91.532000)">
                    <mask id="mask-8" fill="white">
                        <use xlink:href="#path-7"></use>
                    </mask>
                    <use id="Clip-58" fill="url(#linearGradient-6)" xlink:href="#path-7"></use>
                </g>
                <path d="M111.0667,92.0747 L113.5907,92.0747 C113.5907,92.0747 128.6047,95.1737 131.9417,105.4257 L142.4107,141.1847 L156.8367,122.7087 L162.2257,124.7357 L149.7787,152.5097 C149.7787,152.5097 145.6937,159.7807 142.4107,159.7807 C142.4107,159.7807 137.2547,160.7347 131.4277,149.0527 L120.6487,119.8477" id="Fill-60" fill="#3178DD"></path>
                <g id="Group-64" transform="translate(116.000000, 149.532000)" fill="url(#linearGradient-9)">
                    <path d="M0.585,7.012 C1.751,6.672 8.249,7.938 9.353,8.448 C10.147,8.815 10.833,9.381 11.606,9.79 C12.38,10.199 13.316,10.444 14.126,10.114 C14.855,9.815 15.353,9.078 15.477,8.298 C15.602,7.521 15.392,6.714 15.012,6.024 C14.378,4.868 13.296,4.008 12.117,3.419 C10.938,2.831 9.653,2.49 8.376,2.162 L2.718,0.842 L0.585,7.012 Z" id="Fill-62"></path>
                </g>
                <path d="M88.1634,122.3863 L88.6594,150.6633 L120.7774,149.4673 L120.7774,158.5983 L77.5574,166.2823 C77.5574,166.2823 69.8134,167.7453 69.8134,153.1243 C69.8134,144.3683 71.5494,118.7893 71.5494,118.7893 C71.5494,118.7893 73.0564,106.0673 77.3774,100.9303 C81.6974,95.7943 92.0374,92.8943 92.0374,92.8943 L88.1634,122.3863 Z" id="Fill-65" fill="#3178DD"></path>
            </g>
        </g>
    </g>
</svg>