<svg id="Layer_1" data-name="Layer 1" xmlns="http://www.w3.org/2000/svg" xmlns:xlink="http://www.w3.org/1999/xlink" viewBox="0 0 420.59 265.03"><defs><linearGradient id="linear-gradient" x1="144.74" y1="108.57" x2="144.82" y2="143.68" gradientUnits="userSpaceOnUse"><stop offset="0" stop-color="#12355a"/><stop offset="1" stop-color="#18539b"/></linearGradient><linearGradient id="linear-gradient-2" x1="120.3" y1="115.51" x2="120.72" y2="141.02" xlink:href="#linear-gradient"/><linearGradient id="linear-gradient-3" x1="337.16" y1="108.29" x2="337.24" y2="143.41" xlink:href="#linear-gradient"/><linearGradient id="linear-gradient-4" x1="312.72" y1="115.23" x2="313.14" y2="140.74" xlink:href="#linear-gradient"/><linearGradient id="linear-gradient-5" x1="7016.07" y1="28.47" x2="7037.97" y2="28.47" gradientTransform="translate(-6896.86)" gradientUnits="userSpaceOnUse"><stop offset="0" stop-color="#ee9224"/><stop offset="1" stop-color="#fcb850"/></linearGradient><linearGradient id="linear-gradient-6" x1="7102.38" y1="208.36" x2="7101.1" y2="218.46" xlink:href="#linear-gradient-5"/><linearGradient id="linear-gradient-7" x1="149.27" y1="92.32" x2="143.74" y2="113.7" xlink:href="#linear-gradient"/><linearGradient id="linear-gradient-8" x1="7068.89" y1="212.4" x2="7067.86" y2="220.51" xlink:href="#linear-gradient-5"/><linearGradient id="linear-gradient-9" x1="7126.63" y1="101.92" x2="7146.1" y2="101.92" xlink:href="#linear-gradient-5"/><clipPath id="clip-path"><path id="_Clipping_Path_" data-name="&lt;Clipping Path&gt;" d="M156.21,134.5c-1.12-13.2-1.86-64.17-1.86-64.17l-53.81-7.08c-7.08,30.44-2.15,82.18.19,82.24s89.77,2.87,89.77,2.87v-2.45l-32.06-2-2.23-9.37" style="fill:#78adf9"/></clipPath></defs><title>landing-guy</title><path d="M320.58,206q37.13-1.34,74.32-.65c9,.17,19.55,1.12,24,7.09,4.23,5.69.07,13.3-6.88,17.13s-15.84,4.81-24.35,5.61a1393.57,1393.57,0,0,1-161.73,5.68c-17.55-.4-36.77-.75-50.61,7.5-5.46,3.26-9.63,7.65-15.23,10.77-12.05,6.71-28.33,6.39-43.17,5.22A556,556,0,0,1,19.23,247.8c-5.38-1.43-10.91-3-14.88-6.14s-5.87-8.19-2.9-11.89c5.21-6.5,19.88-4.13,26-10.15,5.63-5.55,0-13.84,2.65-20.56,3.61-9.13,19.36-10.77,31.85-10.71l195.59,1.08c49.58.27,109,4.46,155,18.53" style="fill:#4f94f7"/><path d="M145.56,230.42h0a2.75,2.75,0,0,0,2.75-2.74l.74-117.81c0-1.52-2-2.73-3.49-2.73h0c-1.52,0-5.12.82-5.12,2.33l2.38,118.21A2.74,2.74,0,0,0,145.56,230.42Z" style="fill:url(#linear-gradient)"/><path d="M120.37,230.42h.15a2.74,2.74,0,0,0,2.71-2.73l1.48-116.87A2.74,2.74,0,0,0,122,108h-3.15a2.74,2.74,0,0,0-2.7,2.8l1.52,116.87A2.73,2.73,0,0,0,120.37,230.42Z" style="fill:url(#linear-gradient-2)"/><path d="M338,230.14h0a2.74,2.74,0,0,0,2.74-2.74l.74-117.81c0-1.52-2-2.72-3.48-2.72h0c-1.52,0-5.12.81-5.12,2.33l2.37,118.2A2.74,2.74,0,0,0,338,230.14Z" style="fill:url(#linear-gradient-3)"/><path d="M312.79,230.14h.15a2.73,2.73,0,0,0,2.7-2.72l1.49-116.88a2.75,2.75,0,0,0-2.71-2.8h-3.15a2.74,2.74,0,0,0-2.71,2.8l1.52,116.88A2.73,2.73,0,0,0,312.79,230.14Z" style="fill:url(#linear-gradient-4)"/><rect x="89.95" y="104.97" width="273.36" height="5.01" style="fill:#0d3f72"/><path d="M147.42,10.55a15.34,15.34,0,0,1,1.23,8.19,3.08,3.08,0,0,0,.5,2.56l2.48,4.22s1,1.13,0,1.57c0,0-2.48.72-1.4,2l.53.95a.69.69,0,0,1-.2.93s-1.05.53-.47,1.28l.47.44s.53,1-.35,1.35a4.76,4.76,0,0,0-.71,2.63s1.45,3.13-1.88,3.66l-5.37.89s-5.48,1.28-6.1,9.32c0,0-6.49-3.45-17-4,0,0,3.41-7.77,1.84-12.69l2.5-18.08,11.72-9.36,11.35,3Z" style="fill:url(#linear-gradient-5)"/><polygon points="201.72 209.68 199.52 222.8 207.1 223.51 209.63 208.77 201.72 209.68" style="fill:url(#linear-gradient-6)"/><path d="M134.29,31.16s-1.78,5.95-14.3,4.44c-.33,0-.46-.07-.52-1.39a26.76,26.76,0,0,0-2.42-10s-3.24-8.69,1.43-16.08a17,17,0,0,1,11.79-8,28.29,28.29,0,0,1,10.12,1.29A31.91,31.91,0,0,1,148,5.57c2.34,1.56,2.5,3.12,2.19,4.19a1.34,1.34,0,0,1-1.86.8A10,10,0,0,0,141,9.75c-2.86,1-3.38,4.3-3.38,4.3s-.9,4,.65,6.74a3.64,3.64,0,0,1-.91,4.66s-.51-3.11-2.46-3-3.1,1.43-2.4,3.5Z" style="fill:#0d3f72"/><rect x="219.64" y="86.77" width="12.08" height="12.33" style="fill:#ededee"/><rect x="173.41" y="19.57" width="104.91" height="69.69" rx="8.12" ry="8.12" style="fill:#ededee"/><rect id="_Rectangle_" data-name="&lt;Rectangle&gt;" x="179.07" y="25.3" width="93.58" height="56.42" style="fill:#fff"/><polyline points="128.5 124 130.37 74.82 165.55 76.43 164.26 93.9 165.16 121.42" style="fill:url(#linear-gradient-7)"/><path d="M167,121.42s30.23-.82,52.66,4c26.07,5.64-9.11,85.87-9.11,85.87l-12.84-.81,8.86-62.38-78-2.22.55-21.92" style="fill:#0d3f72"/><polygon points="168.3 212.69 168.3 224.14 174.15 224.72 175.05 212.69 168.3 212.69" style="fill:url(#linear-gradient-8)"/><path d="M190.84,230.14a.94.94,0,0,0,1-1,5.89,5.89,0,0,0-3.89-5.18,16,16,0,0,0-4.59-.22,5.78,5.78,0,0,1-4.26-1.36,15.33,15.33,0,0,1-1.27-1.9,2.09,2.09,0,0,0-3.9.28c-.51,1-.75,2.08-1.66,2.81a1.75,1.75,0,0,1-1.52.36c-.89-.24-1.11-1.14-1.32-1.91s-.51-1.4-1.19-1.57a1.73,1.73,0,0,0-1.56.58,4.76,4.76,0,0,0-1.23,3.94c.13,1.08.38,3.5.48,4.6a.61.61,0,0,0,.63.53Z" style="fill:#18539b"/><path d="M230.64,99.2a60,60,0,0,1,7.45-.54c3.7,0,4.13.11,6.8,1.14a7.81,7.81,0,0,1,4.35,5.38H229.77Z" style="fill:url(#linear-gradient-9)"/><polygon points="233.26 105.18 231.41 105.18 231.41 98.39 233.26 98.67 233.26 105.18" style="fill:#fff"/><path d="M106.2,73.87s0-32.57,17.93-28.54L145,50.11S161.19,53.21,165,64l14.16,24.79A25.82,25.82,0,0,0,184,89.79s18.4,1.91,25.56,3.58L230.68,98s2.4,2.72.6,7.35H183.73s-18.61,3-26.49-20.63l-2.39-7Z" style="fill:#18539b"/><polygon points="163.36 147.09 181.83 147.78 178.43 215 167.82 215 163.36 147.09" style="fill:#0d3f72"/><path d="M226,230.14a1.13,1.13,0,0,0,1.14-1.18,7.21,7.21,0,0,0-4.63-6.34c-1.75-.53-3.62-.28-5.45-.27s-3.82-.31-5.06-1.66a18.54,18.54,0,0,1-1.51-2.33,2.46,2.46,0,0,0-4.64.35c-.61,1.18-.89,2.54-2,3.43a2.07,2.07,0,0,1-1.81.45c-1.06-.3-1.31-1.4-1.57-2.35s-.61-1.7-1.41-1.92a2,2,0,0,0-1.86.71,5.92,5.92,0,0,0-1.45,4.83c.15,1.32.44,4.29.57,5.63a.71.71,0,0,0,.74.65Z" style="fill:#18539b"/><rect x="187.14" y="145.91" width="3.36" height="84.32" style="fill:#87bbf9"/><path id="_Clipping_Path_2" data-name="&lt;Clipping Path&gt;" d="M156.21,134.5c-1.12-13.2-1.86-64.17-1.86-64.17l-53.81-7.08c-7.08,30.44-2.15,82.18.19,82.24s89.77,2.87,89.77,2.87v-2.45l-32.06-2-2.23-9.37" style="fill:#78adf9"/><g style="clip-path:url(#clip-path)"><path d="M156.2,146.91l2.24.06.84-77h-6.05C149.59,135.12,156.2,146.91,156.2,146.91Z" style="fill:#78adf9"/></g><path d="M156.06,230.14h4.49c.69-82.41-2.11-86.27-2.11-86.27l-3.25.07C157,151,156.06,230.14,156.06,230.14Z" style="fill:#78adf9"/><rect x="100.73" y="145.49" width="4.02" height="84.65" style="fill:#78adf9"/><path d="M242.32,62.89H210a.24.24,0,0,1-.26-.22V40.06a.24.24,0,0,1,.26-.23h9.62a.25.25,0,0,1,.26.23v1.55a.24.24,0,0,0,.25.23h22.24a.24.24,0,0,1,.25.22V62.67A.24.24,0,0,1,242.32,62.89Z" style="fill:#f3a845"/><polygon points="240.43 66.79 213.84 66.79 213.84 42.2 240.43 40.4 240.43 66.79" style="fill:#f1f1f2"/><path d="M209.16,66.79h34.16a.25.25,0,0,0,.27-.23V44a.25.25,0,0,0-.27-.22H233.16a.25.25,0,0,0-.27.22v1.56a.25.25,0,0,1-.27.22H209.16a.25.25,0,0,0-.27.23v20.6A.25.25,0,0,0,209.16,66.79Z" style="fill:#fcb850"/></svg>