<?xml version="1.0" encoding="UTF-8"?>
<svg width="237px" height="100px" viewBox="0 0 237 100" version="1.1" xmlns="http://www.w3.org/2000/svg" xmlns:xlink="http://www.w3.org/1999/xlink">
    <!-- Generator: Sketch 49.3 (51167) - http://www.bohemiancoding.com/sketch -->
    <title>NLX</title>
    <desc>Created with Sketch.</desc>
    <defs>
        <polygon id="path-1" points="0.00024 0.1288 73.4603149 0.1288 73.4603149 99.18128 0.00024 99.18128"></polygon>
        <polygon id="path-3" points="0.6596 0.1288 80.298 0.1288 80.298 99.18128 0.6596 99.18128"></polygon>
    </defs>
    <g id="Page-1" stroke="none" stroke-width="1" fill="none" fill-rule="evenodd">
        <g id="Artboard" transform="translate(-338.000000, -163.000000)">
            <g id="Group-11">
                <g id="Group-10" transform="translate(338.000000, 163.000000)">
                    <g id="NLX">
                        <g id="Group-3" transform="translate(0.000000, 0.671200)">
                            <mask id="mask-2" fill="white">
                                <use xlink:href="#path-1"></use>
                            </mask>
                            <g id="Clip-2"></g>
                            <path d="M73.23864,99.18128 L49.99704,99.18128 L49.99704,26.78368 C49.99704,20.22368 47.74504,15.10368 43.30504,11.56288 C36.10584,5.82048 25.53304,5.93808 25.42344,5.94608 L7.13864,5.94608 L7.13864,93.36368 L15.64344,93.36368 L15.64344,16.49328 L18.73144,16.15248 C20.26264,15.98048 33.80024,14.69088 37.89464,21.35808 L31.50984,23.96048 C30.48904,22.29568 26.28344,21.76368 22.79064,21.76368 L22.78184,21.76368 L22.78184,99.18128 L0.00024,99.18128 L0.00024,0.12848 L25.34744,0.12848 C25.84664,0.13648 38.98024,-0.02432 48.29784,7.40608 C54.16104,12.08128 57.13544,18.60128 57.13544,26.78368 L57.13544,93.36368 L66.10024,93.36368 L66.10984,37.06208 C66.74424,30.19008 66.35384,11.22368 57.07544,6.06528 L61.09944,1.25888 C75.25384,9.13088 73.53864,34.02848 73.23864,37.39008 L73.23864,99.18128 Z" id="Fill-1" fill="#F4F5F5" mask="url(#mask-2)"></path>
                        </g>
                        <path d="M111.90976,99.8712 C103.75856,99.8712 88.91456,96.3984 85.94016,82.832 L92.96656,81.8096 C95.75616,94.5216 112.05216,94.0576 112.75376,94.0384 L140.63296,94.0352 L140.63296,83.4656 L117.59776,83.448 C99.19856,81.8464 94.22416,67.0536 94.16336,59.4544 L94.16336,0.8 L120.31936,0.8 L120.31936,68.6192 L113.18096,68.6192 L113.18096,6.6168 L101.30176,6.6168 L101.30176,59.4352 C101.31136,60.092 101.72096,76.0968 118.17456,77.648 L147.77136,77.648 L147.77136,99.8528 L112.91616,99.8528 C112.59296,99.864 112.25856,99.8712 111.90976,99.8712" id="Fill-4" fill="#F4F5F5"></path>
                        <g id="Group-8" transform="translate(156.000000, 0.671200)">
                            <mask id="mask-4" fill="white">
                                <use xlink:href="#path-3"></use>
                            </mask>
                            <g id="Clip-7"></g>
                            <polygon id="Fill-6" fill="#F4F5F5" mask="url(#mask-4)" points="80.298 99.18128 56.382 99.18128 0.6596 0.12848 28.4188 0.12848 39.9004 23.38608 33.278 25.55648 23.5948 5.94608 11.7852 5.94608 60.9644 93.36368 69.7156 93.36368 52.9804 59.59488 57.3668 52.91568"></polygon>
                        </g>
                        <polygon id="Fill-9" fill="#F4F5F5" points="206.01048 53.5868 202.15608 46.4828 224.57928 6.6204 210.35848 6.6204 210.35848 0.8036 235.70568 0.8036"></polygon>
                        <polygon id="Fill-11" fill="#F4F5F5" points="179.9832 99.856 156.0672 99.856 179 53.5872 183.1552 60.7344 166.6496 94.0392 175.4 94.0392 188.7224 70.3624 192.9968 76.7216"></polygon>
                    </g>
                </g>
            </g>
        </g>
    </g>
</svg>