<?xml version="1.0" encoding="UTF-8"?>
<svg width="20px" height="20px" viewBox="0 0 20 20" version="1.1" xmlns="http://www.w3.org/2000/svg" xmlns:xlink="http://www.w3.org/1999/xlink">
    <!-- Generator: Sketch 50 (54983) - http://www.bohemiancoding.com/sketch -->
    <title>info</title>
    <desc>Created with Sketch.</desc>
    <defs></defs>
    <g stroke="none" stroke-width="1" fill="none" fill-rule="evenodd">
        <path d="M10,0 C15.52,0 20,4.48 20,10 C20,15.52 15.52,20 10,20 C4.48,20 0,15.52 0,10 C0,4.48 4.48,0 10,0 Z M10,18 C14.41,18 18,14.41 18,10 C18,5.59 14.41,2 10,2 C5.59,2 2,5.59 2,10 C2,14.41 5.59,18 10,18 Z M9,5 L11,5 L11,7 L9,7 L9,5 Z M9,9 L11,9 L11,15 L9,15 L9,9 Z" id="info" fill="#000000" fill-rule="nonzero"></path>
    </g>
</svg>