                    <svg id="landing_privacy" data-name="Layer 1" xmlns="http://www.w3.org/2000/svg" xmlns:xlink="http://www.w3.org/1999/xlink" viewBox="0 0 282.08 242.12"><defs><linearGradient id="linear-gradient" x1="776.24" y1="-41.02" x2="780.59" y2="-41.02" gradientTransform="translate(-38.85 540.33) rotate(-11.76)" gradientUnits="userSpaceOnUse"><stop offset="0" stop-color="#ee9224"/><stop offset="1" stop-color="#fcb850"/></linearGradient><linearGradient id="linear-gradient-2" x1="3263.39" y1="-1716.64" x2="3267.73" y2="-1716.64" gradientTransform="translate(3764.53 2487.36) rotate(-117.79)" xlink:href="#linear-gradient"/><linearGradient id="linear-gradient-3" x1="353.02" y1="130.7" x2="353.91" y2="110.12" gradientTransform="translate(403.59 271.47) rotate(4.71)" gradientUnits="userSpaceOnUse"><stop offset="0" stop-color="#ee9224"/><stop offset="1" stop-color="#ee7421"/></linearGradient><linearGradient id="linear-gradient-4" x1="-6424.23" y1="-10.17" x2="-6425" y2="-36.18" gradientTransform="matrix(-0.99, -0.12, -0.12, 0.99, -5646.54, -344.81)" gradientUnits="userSpaceOnUse"><stop offset="0" stop-color="#ee9224"/><stop offset="1" stop-color="#ee8024"/></linearGradient><linearGradient id="linear-gradient-5" x1="3380.45" y1="632.31" x2="3386.71" y2="632.31" gradientTransform="translate(-2830.39 548.27) rotate(-13.85)" xlink:href="#linear-gradient"/><linearGradient id="linear-gradient-6" x1="3183.03" y1="-111.91" x2="3180.48" y2="-131.1" gradientTransform="matrix(-1, 0.08, 0.08, 1, 3782.31, 271.47)" gradientUnits="userSpaceOnUse"><stop offset="0" stop-color="#3178dd"/><stop offset="1" stop-color="#18539b"/></linearGradient><linearGradient id="linear-gradient-7" x1="3171.99" y1="-111" x2="3169.44" y2="-130.19" xlink:href="#linear-gradient-6"/></defs><title>landing-privacy</title><path d="M712,437c34.9-13.33,72-1.92,104,21.72,4.21,3.11,8.82,7.57,9.13,14.27.49,10.5-9.08,15.09-16.47,16.27l-54,8.57c-27.16,4.31-54.52,8.62-81.77,5.62-30-3.3-59.48-15.45-89.59-15.35-9.14,0-18.64,1.11-27.11-3.77s-15.41-18.23-12.42-30.45c2.09-8.54,8.17-13.73,14.11-17.08,50.24-28.34,82.71,20.36,154.07.2" transform="translate(-543.11 -262.33)" fill="#f5f5f6"/><rect x="722.22" y="351.86" width="2.24" height="103.8" transform="translate(945.51 458.58) rotate(173.34)" fill="#18539b"/><rect x="631.66" y="354.12" width="2.24" height="103.8" transform="translate(-491.75 -332.98) rotate(6.66)" fill="#18539b"/><rect x="704" y="354.12" width="2.24" height="103.8" transform="translate(-491.26 -341.36) rotate(6.66)" fill="#18539b"/><polyline points="103.46 0 90.13 117.74 172.77 117.74 186.1 0 103.46 0" fill="#3178dd"/><polygon points="169.6 117.74 86.96 117.74 100.52 0 183.16 0 169.6 117.74" fill="#5f90ff"/><path d="M664.74,273a17,17,0,1,0,17,17A17,17,0,0,0,664.74,273Zm.08,30.78a13.83,13.83,0,1,1,13.83-13.83A13.83,13.83,0,0,1,664.82,303.73Z" transform="translate(-543.11 -262.33)" fill="#3178dd"/><polygon points="134.55 80.52 134.16 82.77 97.57 82.77 97.85 80.52 134.55 80.52" fill="#3178dd"/><polygon points="146.56 87.53 146.06 89.77 96.66 89.77 96.95 87.53 146.56 87.53" fill="#3178dd"/><polygon points="171.26 65.96 170.87 68.2 134.28 68.2 134.56 65.96 171.26 65.96" fill="#3178dd"/><polygon points="176.92 16.48 176.53 18.72 163 18.72 163.29 16.48 176.92 16.48" fill="#3178dd"/><polygon points="176.25 23.48 175.75 25.73 153.25 25.73 153.54 23.48 176.25 23.48" fill="#3178dd"/><path d="M716.57,344.08c-.75.2-3.09-2.16-3.48-2.57a2.56,2.56,0,0,1-.75-1.51.87.87,0,0,1,.27-.77,1,1,0,0,1,1,.12,7.29,7.29,0,0,1,2.17,1.85c.07.09,1.75,2.66,1.75,2.66a3,3,0,0,0-1,.22" transform="translate(-543.11 -262.33)" fill="url(#linear-gradient)"/><path d="M716.09,341.61l10.74,9.59s9.57,4.2,11.86,5.49a8.1,8.1,0,0,1,3.23,3.54,3.88,3.88,0,0,1-.33,2.75c-.92,2.22-4.64.44-4.64.44l-13-8.64a1.9,1.9,0,0,1-.42-.38l-9.27-11.25Z" transform="translate(-543.11 -262.33)" fill="#ea911c"/><path d="M742.88,357.67l2.07-8.1a2,2,0,0,0-1.55-2.65l-2.6-.66s-2.57-.55-3.9,2.86a1.9,1.9,0,0,1-1.35.89s-.43.23-.07.49c0,0,.69.36.53.78,0,0-.62,1.41.36,1.86l1.35.44a.16.16,0,0,1,.1.18l1,4Z" transform="translate(-543.11 -262.33)" fill="#fcb850"/><path d="M725.25,396.57c.4.66-1.22,3.56-1.51,4.05a2.52,2.52,0,0,1-1.24,1.13.86.86,0,0,1-.81,0,1,1,0,0,1-.18-1,7.38,7.38,0,0,1,1.18-2.6c.06-.09,2.07-2.42,2.07-2.42a3.06,3.06,0,0,0,.49.91" transform="translate(-543.11 -262.33)" fill="url(#linear-gradient-2)"/><path d="M745.68,456.48l-.84,6.3a.44.44,0,0,1-.33.4l-5.09,1.2s-.43,0-.48.68c0,.35.55.39.55.39l9.29.62a.28.28,0,0,0,.27-.28l.19-9.07Z" transform="translate(-543.11 -262.33)" fill="#0d3f72"/><path id="_Path_" data-name="&lt;Path&gt;" d="M739,402.78s-4.85,32.61,5.5,54.51a.66.66,0,0,0,.54.37l5.06.42a.42.42,0,0,0,.43-.55c-1.27-4-8-27.39-1.72-55.73" transform="translate(-543.11 -262.33)" fill="url(#linear-gradient-3)"/><path d="M721.48,456.91l-.83,6.3a.46.46,0,0,1-.34.4l-5.09,1.2s-.43,0-.48.68c0,.35.55.39.55.39l9.29.62a.28.28,0,0,0,.27-.28l.19-9.07Z" transform="translate(-543.11 -262.33)" fill="#0d3f72"/><path d="M744.51,398.51s-12.17,22.52-14.08,27-3.82,33.72-3.82,33.72l-6.2-.76s-.19-26.63,2.48-34.69,8-26.91,8-26.91Z" transform="translate(-543.11 -262.33)" fill="url(#linear-gradient-4)"/><path d="M727.34,404.2l22.13.78s1.65-43.43-5.35-47.15c0,0-5.12-3.59-10.62,5.73C730.63,368.42,727.34,404.2,727.34,404.2Z" transform="translate(-543.11 -262.33)" fill="#f29d1e"/><path d="M722.34,396.69l8.31-16.56s2-13.29,2.85-16.57,3.74-7.31,6.88-5.89c2.18,1,0,6,0,6l-3.49,17.76c-.08.23-.8,2.3-.94,2.5l-11.12,14.44Z" transform="translate(-543.11 -262.33)" fill="#fbb22f"/><path d="M748.17,360.92c-.38,1-9.52.58-9-.35a6.34,6.34,0,0,0,.55-3.95c-.07-.85-.11-1.82-.2-2.67,0-.34.57-1.34.62-2.2,0,0,0-.06.08-.06a1,1,0,0,0,.45-.14.7.7,0,0,0,.32-.48.79.79,0,0,0-.16-.55c-.11-.18-.43-.25-.57-.29a.1.1,0,0,1-.07-.09,4.28,4.28,0,0,0-.22-1.7l-1.1-1.4a1.69,1.69,0,0,1,.05-1.66,2.12,2.12,0,0,1,2.3-.61,18.26,18.26,0,0,1,4.36,3,5.76,5.76,0,0,1,1.08,3C746.85,352.83,748.67,359.56,748.17,360.92Z" transform="translate(-543.11 -262.33)" fill="#18539b"/><path d="M609.49,345.52a4.64,4.64,0,0,1,1,2.32.94.94,0,0,0,.33.72l1,1.06s.38.26.11.46c0,0-.68.39-.27.69l.23.24a.2.2,0,0,1,0,.28s-.26.24,0,.41l.17.1s.22.24,0,.42a1.44,1.44,0,0,0,0,.83.73.73,0,0,1-.29,1.21l-1.52.65s-.59.76-.19,3.16a11.7,11.7,0,0,1-4.72,1.89,31.2,31.2,0,0,0-1.85-5.67l-.57-5.5,2.76-3.6,3.55.05Z" transform="translate(-543.11 -262.33)" fill="url(#linear-gradient-5)"/><path d="M607.34,352.62s-.09,1.79-3.72,2.24c-.09,0-.13,0-.24-.36a7.84,7.84,0,0,0-1.38-2.66,5.73,5.73,0,0,1-.71-4.61,4.93,4.93,0,0,1,2.76-3.08,8.1,8.1,0,0,1,2.93-.34c2.64.2,2.72,1.77,2.72,1.77a2.18,2.18,0,0,0-1.81.17,3.08,3.08,0,0,0-.79,1.82,3.13,3.13,0,0,0,.65,1.85,1.08,1.08,0,0,1,.07,1.38s-.37-.84-.9-.67a.71.71,0,0,0-.44,1.15Z" transform="translate(-543.11 -262.33)" fill="#3178dd"/><path d="M599.68,460.18l.25,6.63a.49.49,0,0,0,.3.44l5.18,1.75s.44,0,.42.74c0,.37-.6.36-.6.36l-9.7-.26a.3.3,0,0,1-.26-.33l.69-9.43Z" transform="translate(-543.11 -262.33)" fill="#052a4b"/><path id="_Clipping_Path_" data-name="&lt;Clipping Path&gt;" d="M606.56,404.85s.65,30.95-5.73,56.83a.6.6,0,0,1-.56.38l-5.27.44a.45.45,0,0,1-.46-.57c1.33-4.16,6.25-28.77,1.8-58.1" transform="translate(-543.11 -262.33)" fill="url(#linear-gradient-6)"/><path d="M611,461.25l.25,6.62a.48.48,0,0,0,.3.45l5.17,1.74s.45,0,.43.75c0,.37-.6.35-.6.35l-9.71-.26a.28.28,0,0,1-.25-.32l.69-9.43Z" transform="translate(-543.11 -262.33)" fill="#052a4b"/><path id="_Clipping_Path_2" data-name="&lt;Clipping Path&gt;" d="M617.64,404.85s.64,30.95-5.73,56.83a.61.61,0,0,1-.56.38l-5.28.44a.44.44,0,0,1-.45-.57c1.33-4.16,6.24-28.77,1.79-58.1" transform="translate(-543.11 -262.33)" fill="url(#linear-gradient-7)"/><polygon points="78.81 120.75 68.88 121.02 68.88 112.9 79.14 112.9 78.81 120.75" fill="#0d3f72"/><path d="M620.44,406l-24.74,1.47s-2.8-49.78,9.54-50.58c0,0,9.54-2.72,14.82,7.25,2.75,5.2,4,10.1,5.33,14.16s-3.47,4.81-3.47,4.81l-3.69-7.8Z" transform="translate(-543.11 -262.33)" fill="#18539b"/></svg>
