<?xml version="1.0" encoding="utf-8"?>
<!-- Generator: Adobe Illustrator 22.1.0, SVG Export Plug-In . SVG Version: 6.00 Build 0)  -->
<svg version="1.1" id="landing_old" xmlns="http://www.w3.org/2000/svg" xmlns:xlink="http://www.w3.org/1999/xlink" x="0px"
	 y="0px" viewBox="0 0 652.6 483.9" enable-background="new 0 0 652.6 483.9" xml:space="preserve">
<g>
	<path fill="#F3F8FF" d="M605.1,294.8c3.4-2.3,7.7-3,11-1.7c5.1,2,6.9,8.3,4.9,14s-7.1,10.4-12.7,13.2c-5.6,2.9-11.7,4-17.7,4.7
		c-6.1,0.7-13.2,0.5-15.8-4.3c-2-3.7-0.5-8.6,1-13c0.3-1,0.7-2,1.3-2.9c0.8-1.1,1.9-2,3-2.9c3.9-2.9,8.1-5.7,12.6-7.3
		c4.5-1.6,9.5-1.9,13.2,0"/>
</g>
<g>
	<line fill="none" stroke="#F3F8FF" stroke-width="1.2801" stroke-miterlimit="10" x1="504.4" y1="228.1" x2="533.9" y2="246.2"/>
	<line fill="none" stroke="#F3F8FF" stroke-width="1.2801" stroke-miterlimit="10" x1="199.4" y1="325.5" x2="168.8" y2="342.9"/>
	<line fill="none" stroke="#F3F8FF" stroke-width="1.2801" stroke-miterlimit="10" x1="231.7" y1="247.5" x2="261.4" y2="265.3"/>
	<line fill="none" stroke="#F3F8FF" stroke-width="1.2801" stroke-miterlimit="10" x1="352.6" y1="233.5" x2="543.8" y2="344.4"/>
	<line fill="none" stroke="#F3F8FF" stroke-width="1.2801" stroke-miterlimit="10" x1="473.4" y1="403.3" x2="513.9" y2="426.8"/>
	<path fill="none" stroke="#F3F8FF" stroke-width="1.2801" stroke-miterlimit="10" d="M54.4,215.5l1.9,1.2c1.7,1.1,2.6,3,2.6,4.9
		v88.8c0,2.1,1.1,4.1,2.9,5.1l12,7c1.9,1.1,4.2,1.1,6,0l53.9-31.9c1.8-1.1,4.1-1.1,6,0l110.6,63.9c4,2.3,3.9,8.2-0.1,10.4l-14.6,7.9
		"/>
	<path fill="none" stroke="#F3F8FF" stroke-width="1.2801" stroke-miterlimit="10" d="M254.2,381.8l19.5-10.8c1.8-1,4.1-1,5.9,0.1
		l20,11.8"/>
	<path fill="none" stroke="#F3F8FF" stroke-width="1.2801" stroke-miterlimit="10" d="M211.2,406.8l-12.7,7.4c-3.9,2.3-3.9,8,0,10.3
		l99.6,58c1.8,1.1,4.1,1.1,6,0L649,283.2c4-2.3,3.9-8.1-0.1-10.4L561.3,225"/>
	<path fill="none" stroke="#F3F8FF" stroke-width="1.2801" stroke-miterlimit="10" d="M440,80.2l-1.7,0.9c-2,1-3.3,3.1-3.3,5.3v89.3
		c0,2.1-1.1,4.1-3,5.1l-18.5,10.6c-4,2.3-4,8,0,10.3l66.4,38.1c1.9,1.1,4.2,1,6-0.1l25.6-15.4c1.8-1.1,2.9-3,2.9-5.1v-45.3
		c0-2.1,1.1-4,2.9-5.1l1.1-0.7"/>
	<path fill="none" stroke="#F3F8FF" stroke-width="1.2801" stroke-miterlimit="10" d="M456.9,113.1l-0.5,0.2
		c-2.6,1.3-4.2,3.9-4.2,6.7v64.5c0,2.7-1.5,5.2-3.8,6.6L383.3,228c-6,3.4-13.4,3.2-19.3-0.5l0,0"/>
	<path fill="none" stroke="#F3F8FF" stroke-width="1.2801" stroke-miterlimit="10" d="M70.4,230l2.1,1.3c1.8,1.1,2.9,3,2.9,5.1v64
		c0,2.2,1.2,4.2,3.1,5.2l24,13.2c1.8,1,4,1,5.8-0.1l204-118c1.8-1,3.9-1.1,5.8-0.1l5.6,3"/>
</g>
<g>
	<path fill="#F3F8FF" d="M449,157.2c-14.1-5.5-29.9-5.1-40.1,1c-15.8,9.5-15.6,31.1-2.9,48.1s35.4,29.5,57.9,35.5s45,6.3,66.4,5.1
		c22-1.2,46.4-6.2,50.5-23.2c3.1-13-7.2-28.1-17-41.5c-2.2-3-4.4-6-7.4-8.6c-3.9-3.2-8.7-5.5-13.5-7.6c-16.6-7.3-34-13.8-51.3-16.4
		c-17.4-2.5-34.9-0.6-45.9,7.7"/>
</g>
<g>
	<path fill="#F3F8FF" d="M491.9,378.4c6.9,0.7,13.2,4.1,16,8.7c4.4,7.1-0.2,15.7-8.9,19.9s-20.5,4.6-30.8,2.3s-19.5-6.8-28-11.7
		c-8.7-5.1-17.5-12.1-15.6-19.7c1.5-5.9,8.7-9.8,15.5-13.2c1.5-0.8,3-1.5,4.8-1.9c2.2-0.5,4.7-0.4,7-0.3c8.3,0.5,16.6,1.5,24.2,4
		c7.6,2.6,14.3,7,17,12.6"/>
</g>
<g>
	<path fill="#F3F8FF" d="M69.7,276.1c7.5-2.8,16.1-1.8,22,2.5c9.1,6.7,10,20.3,3.8,30.5s-18,16.9-30,19.7c-12,2.7-24.3,1.9-36.2,0.1
		c-12.1-1.8-25.7-6.1-28.7-16.9c-2.3-8.3,2.6-17.4,7.4-25.4c1.1-1.8,2.1-3.6,3.7-5.1c2-1.9,4.5-3,7-4.1c8.8-3.8,18-7.1,27.3-7.9
		c9.4-0.8,19.1,1.2,25.5,7"/>
</g>
<g>
	<path fill="#F3F8FF" d="M354.4,389c7.5-2.8,16.1-1.8,22,2.5c9.1,6.7,10,20.3,3.8,30.5s-18,16.9-30,19.7c-12,2.7-24.3,1.9-36.2,0.1
		c-12.1-1.8-25.7-6.1-28.7-16.9c-2.3-8.3,2.6-17.4,7.4-25.4c1.1-1.8,2.1-3.6,3.7-5.1c2-1.9,4.5-3,7-4.1c8.8-3.8,18-7.1,27.3-7.9
		c9.4-0.8,19.1,1.2,25.5,7"/>
</g>
<g id="server_2_">
	<polygon fill="#044982" points="8.1,278.7 8,304.5 36.2,320.3 35.8,294.5 	"/>
	
		<linearGradient id="SVGID_1_" gradientUnits="userSpaceOnUse" x1="-1380.0077" y1="202.1643" x2="-1384.6587" y2="186.9231" gradientTransform="matrix(-1 -4.271178e-03 4.271178e-03 -1 -1319.6066 482.7769)">
		<stop  offset="1.153274e-03" style="stop-color:#044982"/>
		<stop  offset="0.5062" style="stop-color:#044E91"/>
		<stop  offset="1" style="stop-color:#0452A0"/>
	</linearGradient>
	<polygon fill="url(#SVGID_1_)" points="89.3,289.3 36.1,320.1 35.8,294.4 89.4,262.8 	"/>
	<path fill="#114B7C" d="M32.2,201.7"/>
	<polygon fill="#3D83FA" points="4.8,160.7 4.7,284.6 33.9,301 32.8,176.5 	"/>
	<polygon fill="#0452A0" points="4.8,160.7 62.6,126.2 91.6,141.9 32.8,176.5 	"/>
	<polygon fill="#246EF0" points="91.5,267.4 33.7,301 32.8,176.5 91.6,141.9 	"/>
	<g>
		<g>
			<path id="XMLID_57_" fill="#0452A0" d="M44.1,185.5L82,164.3c0.4-0.2,0.7-0.7,0.7-1.2V163c0-1-1.1-1.7-2-1.2L42.8,183
				c-0.4,0.2-0.7,0.7-0.7,1.2v0.1C42.1,185.3,43.2,186,44.1,185.5z"/>
		</g>
		<g>
			<defs>
				<path id="SVGID_2_" d="M44.1,185.5L82,164.3c0.4-0.2,0.7-0.7,0.7-1.2V163c0-1-1.1-1.7-2-1.2L42.8,183c-0.4,0.2-0.7,0.7-0.7,1.2
					v0.1C42.1,185.3,43.2,186,44.1,185.5z"/>
			</defs>
			<clipPath id="SVGID_3_">
				<use xlink:href="#SVGID_2_"  overflow="visible"/>
			</clipPath>
			<polygon clip-path="url(#SVGID_3_)" fill="#12355A" points="84.3,164.9 77.8,161.6 76.2,161.6 84.3,161.6 			"/>
		</g>
	</g>
	<g>
		<g>
			<path id="XMLID_56_" fill="#0452A0" d="M45,194.8l37.4-20.9c0.4-0.2,0.7-0.7,0.7-1.2v-0.1c0-1-1.1-1.7-2-1.2l-37.4,20.9
				c-0.4,0.2-0.7,0.7-0.7,1.2v0.1C43,194.7,44.1,195.3,45,194.8z"/>
		</g>
		<g>
			<defs>
				<path id="SVGID_4_" d="M45,194.8l37.4-20.9c0.4-0.2,0.7-0.7,0.7-1.2v-0.1c0-1-1.1-1.7-2-1.2l-37.4,20.9
					c-0.4,0.2-0.7,0.7-0.7,1.2v0.1C43,194.7,44.1,195.3,45,194.8z"/>
			</defs>
			<clipPath id="SVGID_5_">
				<use xlink:href="#SVGID_4_"  overflow="visible"/>
			</clipPath>
			<polygon clip-path="url(#SVGID_5_)" fill="#12355A" points="84.7,174.4 78.3,171.2 76.7,171.2 84.7,171.2 			"/>
		</g>
	</g>
	<polygon fill="#0452A0" points="49.4,207 44,210.1 44,203.9 49.4,200.8 	"/>
	<polygon fill="#0452A0" points="57.9,202.3 52.5,205.4 52.5,199.2 57.9,196.1 	"/>
	<polygon fill="#0452A0" points="66.2,197.6 60.7,200.8 60.7,194.5 66.2,191.4 	"/>
	<polygon id="_x3C_Path_x3E__3_" fill="#FEBF24" points="74.7,193 69.3,196.1 69.3,189.9 74.7,186.8 	"/>
	<polygon fill="#0452A0" points="83.1,188.3 77.7,191.4 77.7,185.2 83.1,182.1 	"/>
	<polygon fill="#0452A0" points="49.4,218.2 44,221.3 44,215 49.4,211.9 	"/>
	<polygon fill="#0452A0" points="57.9,213.5 52.5,216.6 52.5,210.4 57.9,207.3 	"/>
	<polygon fill="#0452A0" points="66.2,208.8 60.7,211.9 60.7,205.7 66.2,202.6 	"/>
	<polygon fill="#0452A0" points="74.7,204.2 69.3,207.3 69.3,201.1 74.7,198 	"/>
	<polygon fill="#0452A0" points="83.1,199.5 77.7,202.6 77.7,196.4 83.1,193.3 	"/>
	<polygon fill="#0452A0" points="49.3,230.3 43.9,233.4 43.9,227.2 49.3,224.1 	"/>
	<polygon fill="#0452A0" points="57.9,225.6 52.4,228.7 52.4,222.5 57.9,219.4 	"/>
	<polygon fill="#0452A0" points="66.1,220.9 60.7,224.1 60.7,217.8 66.1,214.7 	"/>
	<polygon fill="#0452A0" points="74.6,216.3 69.2,219.4 69.2,213.2 74.6,210.1 	"/>
	<polygon fill="#0452A0" points="83,211.6 77.6,214.7 77.6,208.5 83,205.4 	"/>
	<polygon fill="#0452A0" points="49.3,241.5 43.9,244.6 43.9,238.3 49.3,235.2 	"/>
	<polygon fill="#FEBF24" points="57.9,236.8 52.4,239.9 52.4,233.7 57.9,230.6 	"/>
	<polygon fill="#0452A0" points="66.1,232.1 60.7,235.2 60.7,229 66.1,225.9 	"/>
	<polygon fill="#0452A0" points="74.6,227.5 69.2,230.6 69.2,224.4 74.6,221.3 	"/>
	<polygon fill="#0452A0" points="83,222.8 77.6,225.9 77.6,219.7 83,216.6 	"/>
	<polygon fill="#0452A0" points="49.5,252.6 44,255.7 44,249.5 49.5,246.4 	"/>
	<polygon fill="#0452A0" points="58,248 52.6,251.1 52.6,244.9 58,241.8 	"/>
	<polygon fill="#0452A0" points="66.3,243.3 60.8,246.4 60.8,240.2 66.3,237.1 	"/>
	<polygon id="_x3C_Path_x3E__2_" fill="#FEBF24" points="74.8,238.7 69.4,241.8 69.4,235.5 74.8,232.4 	"/>
	<polygon fill="#0452A0" points="83.2,234 77.8,237.1 77.8,230.9 83.2,227.8 	"/>
	<polygon fill="#0452A0" points="49.5,263.8 44,266.9 44,260.7 49.5,257.6 	"/>
	<polygon fill="#0452A0" points="58,259.2 52.6,262.3 52.6,256.1 58,252.9 	"/>
	<polygon fill="#0452A0" points="66.3,254.5 60.8,257.6 60.8,251.4 66.3,248.3 	"/>
	<polygon fill="#0452A0" points="74.8,249.8 69.4,252.9 69.4,246.7 74.8,243.6 	"/>
	<polygon fill="#0452A0" points="83.2,245.2 77.8,248.3 77.8,242.1 83.2,239 	"/>
	<polygon fill="#0452A0" points="49.4,275.9 44,279 44,272.8 49.4,269.7 	"/>
	<polygon id="lamp-3_1_" fill="#FEBF24" points="57.9,271.3 52.5,274.4 52.5,268.2 57.9,265.1 	"/>
	<polygon fill="#0452A0" points="66.2,266.6 60.7,269.7 60.7,263.5 66.2,260.4 	"/>
	<polygon fill="#0452A0" points="74.7,262 69.3,265.1 69.3,258.9 74.7,255.7 	"/>
	<polygon fill="#0452A0" points="83.1,257.3 77.7,260.4 77.7,254.2 83.1,251.1 	"/>
</g>
<g id="server_1_">
	<polygon fill="#044982" points="502.1,152.5 502.2,178.3 473.9,194.1 474.4,168.3 	"/>
	
		<linearGradient id="SVGID_6_" gradientUnits="userSpaceOnUse" x1="451.951" y1="320.5199" x2="447.3" y2="305.2786" gradientTransform="matrix(1 -4.271178e-03 -4.271178e-03 -1 -1.6376 482.7769)">
		<stop  offset="1.153274e-03" style="stop-color:#044982"/>
		<stop  offset="0.5062" style="stop-color:#044E91"/>
		<stop  offset="1" style="stop-color:#0452A0"/>
	</linearGradient>
	<polygon fill="url(#SVGID_6_)" points="420.9,163.2 474.1,194 474.4,168.2 420.8,136.6 	"/>
	<path fill="#114B7C" d="M478,75.5"/>
	<polygon fill="#3D83FA" points="505.4,34.5 505.5,158.4 476.2,174.8 477.4,50.3 	"/>
	<polygon fill="#0452A0" points="505.4,34.5 447.6,0 418.6,15.7 477.4,50.3 	"/>
	<polygon fill="#246EF0" points="418.7,141.3 476.5,174.8 477.4,50.3 418.6,15.7 	"/>
	<g>
		<g>
			<path id="XMLID_55_" fill="#0452A0" d="M466,59.3l-37.9-21.2c-0.4-0.2-0.7-0.7-0.7-1.2v-0.1c0-1,1.1-1.7,2-1.2l37.9,21.2
				c0.4,0.2,0.7,0.7,0.7,1.2v0.1C468.1,59.2,467,59.8,466,59.3z"/>
		</g>
		<g>
			<defs>
				<path id="SVGID_7_" d="M466,59.3l-37.9-21.2c-0.4-0.2-0.7-0.7-0.7-1.2v-0.1c0-1,1.1-1.7,2-1.2l37.9,21.2
					c0.4,0.2,0.7,0.7,0.7,1.2v0.1C468.1,59.2,467,59.8,466,59.3z"/>
			</defs>
			<clipPath id="SVGID_8_">
				<use xlink:href="#SVGID_7_"  overflow="visible"/>
			</clipPath>
			<polygon clip-path="url(#SVGID_8_)" fill="#12355A" points="425.8,38.7 432.3,35.4 434,35.4 425.8,35.4 			"/>
		</g>
	</g>
	<g>
		<g>
			<path id="XMLID_16_" fill="#0452A0" d="M465.1,68.6l-37.4-20.9c-0.4-0.2-0.7-0.7-0.7-1.2v-0.1c0-1,1.1-1.7,2-1.2l37.4,20.9
				c0.4,0.2,0.7,0.7,0.7,1.2v0.1C467.1,68.5,466,69.1,465.1,68.6z"/>
		</g>
		<g>
			<defs>
				<path id="SVGID_9_" d="M465.1,68.6l-37.4-20.9c-0.4-0.2-0.7-0.7-0.7-1.2v-0.1c0-1,1.1-1.7,2-1.2l37.4,20.9
					c0.4,0.2,0.7,0.7,0.7,1.2v0.1C467.1,68.5,466,69.1,465.1,68.6z"/>
			</defs>
			<clipPath id="SVGID_10_">
				<use xlink:href="#SVGID_9_"  overflow="visible"/>
			</clipPath>
			<polygon clip-path="url(#SVGID_10_)" fill="#12355A" points="425.5,48.3 431.9,45.1 433.5,45.1 425.5,45.1 			"/>
		</g>
	</g>
	<polygon fill="#0452A0" points="460.8,80.8 466.2,83.9 466.2,77.7 460.8,74.6 	"/>
	<polygon fill="#0452A0" points="452.2,76.1 457.7,79.2 457.7,73 452.2,69.9 	"/>
	<polygon fill="#0452A0" points="444,71.5 449.4,74.6 449.4,68.4 444,65.2 	"/>
	<polygon id="_x3C_Path_x3E_" fill="#FEBF24" points="435.5,66.8 440.9,69.9 440.9,63.7 435.5,60.6 	"/>
	<polygon fill="#0452A0" points="427.1,62.1 432.5,65.2 432.5,59 427.1,55.9 	"/>
	<polygon fill="#0452A0" points="460.8,92 466.2,95.1 466.2,88.9 460.8,85.8 	"/>
	<polygon fill="#0452A0" points="452.2,87.3 457.7,90.4 457.7,84.2 452.2,81.1 	"/>
	<polygon fill="#0452A0" points="444,82.6 449.4,85.8 449.4,79.5 444,76.4 	"/>
	<polygon fill="#0452A0" points="435.5,78 441,81.1 441,74.9 435.5,71.8 	"/>
	<polygon fill="#0452A0" points="427.1,73.3 432.5,76.4 432.5,70.2 427.1,67.1 	"/>
	<polygon fill="#0452A0" points="460.9,104.1 466.3,107.2 466.3,101 460.9,97.9 	"/>
	<polygon fill="#0452A0" points="452.3,99.4 457.8,102.5 457.8,96.3 452.3,93.2 	"/>
	<polygon fill="#0452A0" points="444.1,94.8 449.5,97.9 449.5,91.7 444.1,88.5 	"/>
	<polygon fill="#0452A0" points="435.5,90.1 441,93.2 441,87 435.5,83.9 	"/>
	<polygon fill="#0452A0" points="427.1,85.4 432.6,88.5 432.6,82.3 427.1,79.2 	"/>
	<polygon fill="#0452A0" points="460.9,115.3 466.3,118.4 466.3,112.2 460.9,109.1 	"/>
	<polygon fill="#0452A0" points="452.3,110.6 457.8,113.7 457.8,107.5 452.3,104.4 	"/>
	<polygon fill="#0452A0" points="444.1,105.9 449.5,109.1 449.5,102.8 444.1,99.7 	"/>
	<polygon fill="#0452A0" points="435.5,101.3 441,104.4 441,98.2 435.5,95.1 	"/>
	<polygon fill="#0452A0" points="427.1,96.6 432.6,99.7 432.6,93.5 427.1,90.4 	"/>
	<polygon fill="#0452A0" points="460.7,126.5 466.1,129.6 466.1,123.3 460.7,120.2 	"/>
	<polygon fill="#0452A0" points="452.2,121.8 457.6,124.9 457.6,118.7 452.2,115.6 	"/>
	<polygon fill="#0452A0" points="443.9,117.1 449.4,120.2 449.4,114 443.9,110.9 	"/>
	<polygon id="lamp-4" fill="#FEBF24" points="435.4,112.5 440.8,115.6 440.8,109.4 435.4,106.3 	"/>
	<polygon fill="#0452A0" points="427,107.8 432.4,110.9 432.4,104.7 427,101.6 	"/>
	<polygon fill="#0452A0" points="460.7,137.6 466.1,140.7 466.1,134.5 460.7,131.4 	"/>
	<polygon fill="#0452A0" points="452.2,133 457.6,136.1 457.6,129.9 452.2,126.8 	"/>
	<polygon fill="#0452A0" points="443.9,128.3 449.4,131.4 449.4,125.2 443.9,122.1 	"/>
	<polygon fill="#0452A0" points="435.4,123.7 440.8,126.8 440.8,120.5 435.4,117.4 	"/>
	<polygon fill="#0452A0" points="427,119 432.4,122.1 432.4,115.9 427,112.8 	"/>
	<polygon fill="#0452A0" points="460.8,149.8 466.2,152.9 466.2,146.6 460.8,143.5 	"/>
	<polygon id="_x3C_Path_x3E__1_" fill="#FEBF24" points="452.2,145.1 457.7,148.2 457.7,142 452.2,138.9 	"/>
	<polygon fill="#0452A0" points="444,140.4 449.4,143.5 449.4,137.3 444,134.2 	"/>
	<polygon fill="#0452A0" points="435.5,135.8 440.9,138.9 440.9,132.7 435.5,129.6 	"/>
	<polygon fill="#0452A0" points="427.1,131.1 432.5,134.2 432.5,128 427.1,124.9 	"/>
</g>
<g>
	<path fill="#F3F8FF" d="M367.7,209.1c6.6,0.7,12.7,4.4,15.4,9.4c4.2,7.7-0.3,17.2-8.7,21.9c-8.4,4.7-19.7,5.1-29.7,2.7
		s-18.8-7.3-26.9-12.6c-8.3-5.5-16.8-13.1-14.9-21.5c1.4-6.4,8.5-10.8,15-14.6c1.5-0.8,2.9-1.7,4.6-2.1c2.2-0.6,4.5-0.5,6.8-0.3
		c8,0.5,16,1.5,23.3,4.3s13.7,7.5,16.3,13.7"/>
</g>
<g id="server">
	<polygon fill="#044982" points="572.7,189.8 572.8,215.6 544.5,231.4 545,205.6 	"/>
	
		<linearGradient id="SVGID_11_" gradientUnits="userSpaceOnUse" x1="522.3777" y1="282.9267" x2="517.7268" y2="267.6854" gradientTransform="matrix(1 -4.271178e-03 -4.271178e-03 -1 -1.6376 482.7769)">
		<stop  offset="1.153274e-03" style="stop-color:#044982"/>
		<stop  offset="0.5062" style="stop-color:#044E91"/>
		<stop  offset="1" style="stop-color:#0452A0"/>
	</linearGradient>
	<polygon fill="url(#SVGID_11_)" points="491.5,200.4 544.7,231.2 545,205.5 491.4,173.9 	"/>
	<path fill="#114B7C" d="M548.6,112.8"/>
	<polygon fill="#3D83FA" points="576,71.8 576.1,195.7 546.8,212.1 548,87.6 	"/>
	<polygon fill="#0452A0" points="576,71.8 518.2,37.3 489.2,53 548,87.6 	"/>
	<polygon fill="#246EF0" points="489.3,178.6 547.1,212.1 548,87.6 489.2,53 	"/>
	<g>
		<g>
			<path id="XMLID_15_" fill="#0452A0" d="M536.6,96.6l-37.9-21.2c-0.4-0.2-0.7-0.7-0.7-1.2v-0.1c0-1,1.1-1.7,2-1.2l38,21.2
				c0.4,0.2,0.7,0.7,0.7,1.2v0.1C538.7,96.4,537.5,97.1,536.6,96.6z"/>
		</g>
		<g>
			<defs>
				<path id="SVGID_12_" d="M536.6,96.6l-37.9-21.2c-0.4-0.2-0.7-0.7-0.7-1.2v-0.1c0-1,1.1-1.7,2-1.2l38,21.2
					c0.4,0.2,0.7,0.7,0.7,1.2v0.1C538.7,96.4,537.5,97.1,536.6,96.6z"/>
			</defs>
			<clipPath id="SVGID_13_">
				<use xlink:href="#SVGID_12_"  overflow="visible"/>
			</clipPath>
			<polygon clip-path="url(#SVGID_13_)" fill="#12355A" points="496.4,76 502.9,72.7 504.6,72.7 496.4,72.7 			"/>
		</g>
	</g>
	<g>
		<g>
			<path id="XMLID_14_" fill="#0452A0" d="M535.7,105.9L498.4,85c-0.4-0.2-0.7-0.7-0.7-1.2v-0.1c0-1,1.1-1.7,2-1.2l37.4,20.9
				c0.4,0.2,0.7,0.7,0.7,1.2v0.1C537.7,105.8,536.6,106.4,535.7,105.9z"/>
		</g>
		<g>
			<defs>
				<path id="SVGID_14_" d="M535.7,105.9L498.4,85c-0.4-0.2-0.7-0.7-0.7-1.2v-0.1c0-1,1.1-1.7,2-1.2l37.4,20.9
					c0.4,0.2,0.7,0.7,0.7,1.2v0.1C537.7,105.8,536.6,106.4,535.7,105.9z"/>
			</defs>
			<clipPath id="SVGID_15_">
				<use xlink:href="#SVGID_14_"  overflow="visible"/>
			</clipPath>
			<polygon clip-path="url(#SVGID_15_)" fill="#12355A" points="496.1,85.6 502.5,82.3 504.1,82.3 496.1,82.3 			"/>
		</g>
	</g>
	<polygon fill="#0452A0" points="531.4,118.1 536.8,121.2 536.8,115 531.4,111.9 	"/>
	<polygon fill="#0452A0" points="522.8,113.4 528.3,116.5 528.3,110.3 522.8,107.2 	"/>
	<polygon fill="#0452A0" points="514.6,108.8 520,111.9 520,105.6 514.6,102.5 	"/>
	<polygon fill="#0452A0" points="506,104.1 511.5,107.2 511.5,101 506,97.9 	"/>
	<polygon fill="#0452A0" points="497.7,99.4 503.1,102.5 503.1,96.3 497.7,93.2 	"/>
	<polygon fill="#0452A0" points="531.4,129.3 536.8,132.4 536.8,126.2 531.4,123 	"/>
	<polygon fill="#0452A0" points="522.8,124.6 528.3,127.7 528.3,121.5 522.8,118.4 	"/>
	<polygon fill="#FEBF24" points="514.6,119.9 520,123 520,116.8 514.6,113.7 	"/>
	<polygon fill="#0452A0" points="506,115.3 511.5,118.4 511.5,112.2 506,109.1 	"/>
	<polygon fill="#0452A0" points="497.7,110.6 503.1,113.7 503.1,107.5 497.7,104.4 	"/>
	<polygon fill="#0452A0" points="531.4,141.4 536.9,144.5 536.9,138.3 531.4,135.2 	"/>
	<polygon fill="#0452A0" points="522.9,136.7 528.3,139.8 528.3,133.6 522.9,130.5 	"/>
	<polygon fill="#0452A0" points="514.7,132.1 520.1,135.2 520.1,128.9 514.7,125.8 	"/>
	<polygon fill="#0452A0" points="506.1,127.4 511.6,130.5 511.6,124.3 506.1,121.2 	"/>
	<polygon fill="#0452A0" points="497.7,122.7 503.2,125.8 503.2,119.6 497.7,116.5 	"/>
	<polygon fill="#0452A0" points="531.4,152.6 536.9,155.7 536.9,149.5 531.4,146.3 	"/>
	<polygon fill="#FEBF24" points="522.9,147.9 528.3,151 528.3,144.8 522.9,141.7 	"/>
	<polygon fill="#0452A0" points="514.7,143.2 520.1,146.3 520.1,140.1 514.7,137 	"/>
	<polygon fill="#0452A0" points="506.1,138.6 511.6,141.7 511.6,135.5 506.1,132.4 	"/>
	<polygon fill="#0452A0" points="497.7,133.9 503.2,137 503.2,130.8 497.7,127.7 	"/>
	<polygon fill="#0452A0" points="531.3,163.7 536.7,166.9 536.7,160.6 531.3,157.5 	"/>
	<polygon fill="#0452A0" points="522.7,159.1 528.2,162.2 528.2,156 522.7,152.9 	"/>
	<polygon fill="#0452A0" points="514.5,154.4 520,157.5 520,151.3 514.5,148.2 	"/>
	<polygon id="_x3C_Path_x3E__5_" fill="#FEBF24" points="506,149.8 511.4,152.9 511.4,146.7 506,143.6 	"/>
	<polygon fill="#0452A0" points="497.6,145.1 503,148.2 503,142 497.6,138.9 	"/>
	<polygon id="_x3C_Path_x3E__4_" fill="#FEBF24" points="531.3,174.9 536.7,178 536.7,171.8 531.3,168.7 	"/>
	<polygon fill="#0452A0" points="522.7,170.3 528.2,173.4 528.2,167.2 522.7,164.1 	"/>
	<polygon fill="#0452A0" points="514.5,165.6 519.8,168.7 519.8,162.5 514.5,159.4 	"/>
	<polygon fill="#0452A0" points="506,161 511.4,164.1 511.4,157.8 506,154.7 	"/>
	<polygon fill="#0452A0" points="497.6,156.3 503,159.4 503,153.2 497.6,150.1 	"/>
	<polygon fill="#0452A0" points="531.4,187 536.8,190.2 536.8,183.9 531.4,180.8 	"/>
	<polygon fill="#0452A0" points="522.8,182.4 528.3,185.5 528.3,179.3 522.8,176.2 	"/>
	<polygon fill="#0452A0" points="514.6,177.7 520,180.8 520,174.6 514.6,171.5 	"/>
	<polygon fill="#0452A0" points="506,173.1 511.5,176.2 511.5,170 506,166.9 	"/>
	<polygon fill="#0452A0" points="497.7,168.4 503.1,171.5 503.1,165.3 497.7,162.2 	"/>
</g>
<g>
	<path fill="#F3F8FF" d="M200.1,381.8c-6.6,0.7-12.7,4.4-15.4,9.4c-4.2,7.7,0.3,17.2,8.7,21.9s19.7,5.1,29.7,2.7s18.8-7.3,26.9-12.6
		c8.3-5.5,16.8-13.1,14.9-21.5c-1.4-6.4-8.5-10.8-15-14.6c-1.5-0.8-2.9-1.7-4.6-2.1c-2.2-0.6-4.5-0.5-6.8-0.3
		c-8,0.5-16,1.5-23.3,4.3s-13.7,7.5-16.3,13.7"/>
</g>
<path fill="#CBDFF4" d="M502.2,224.8"/>
<g>
	<path fill="#F3F8FF" d="M188.5,250.8c-3.4-2.3-7.7-3-11-1.7c-5.1,2-6.9,8.3-4.9,14s7.1,10.4,12.7,13.2c5.6,2.9,11.7,4,17.7,4.7
		c6.1,0.7,13.2,0.5,15.8-4.3c2-3.7,0.5-8.6-1-13c-0.3-1-0.7-2-1.3-2.9c-0.8-1.1-1.9-2-3-2.9c-3.9-2.9-8.1-5.7-12.6-7.3
		s-9.5-1.9-13.2,0"/>
</g>
<g id="connection">
	<line fill="none" stroke="#044982" stroke-width="1.2801" stroke-miterlimit="10" x1="504.4" y1="223.2" x2="533.9" y2="241.4"/>
	<line fill="none" stroke="#044982" stroke-width="1.2801" stroke-miterlimit="10" x1="199.4" y1="320.7" x2="168.8" y2="338"/>
	<line fill="none" stroke="#044982" stroke-width="1.1597" stroke-miterlimit="10" x1="231.7" y1="242.6" x2="261.4" y2="260.5"/>
	<line fill="none" stroke="#044982" stroke-width="1.2801" stroke-miterlimit="10" x1="352.6" y1="228.7" x2="543.8" y2="339.5"/>
	<line fill="none" stroke="#044982" stroke-width="1.1597" stroke-miterlimit="10" x1="473.4" y1="398.4" x2="513.9" y2="421.9"/>
	<path fill="none" stroke="#044982" stroke-width="1.2801" stroke-miterlimit="10" d="M52.6,212.1c0,0,6.3,0,6.3,4.8v88.8
		c0,2.1,1.1,4.1,2.9,5.1l12,7c1.9,1.1,4.2,1.1,6,0l53.9-31.9c1.8-1.1,4.1-1.1,6,0l110.6,63.9c4,2.3,3.9,8.2-0.1,10.4l-14.6,7.9"/>
	<path fill="none" stroke="#044982" stroke-width="1.2801" stroke-miterlimit="10" d="M254.2,377l19.5-10.8c1.8-1,4.1-1,5.9,0.1
		l20,11.8"/>
	<path fill="none" stroke="#044982" stroke-width="1.2801" stroke-miterlimit="10" d="M211.2,401.9l-12.7,7.4c-3.9,2.3-3.9,8,0,10.3
		l99.6,58c1.8,1.1,4.1,1.1,6,0L649,278.4c4-2.3,3.9-8.1-0.1-10.4l-87.6-47.9"/>
	<path fill="none" stroke="#044982" stroke-width="1.2801" stroke-miterlimit="10" d="M441,76.7c0,0-6,0-6,4.8v89.3
		c0,2.1-1.1,4.1-3,5.1l-18.5,10.6c-4,2.3-4,8,0,10.3l66.4,38.1c1.9,1.1,4.2,1,6-0.1l25.6-15.4c1.8-1.1,2.9-3,2.9-5.1V169
		c0.2-4.9,5.4-4.6,5.4-4.6"/>
	<path fill="none" stroke="#044982" stroke-width="1.2801" stroke-miterlimit="10" d="M457.7,109.2c0,0-5.2-0.6-5.4,6.1v64.5
		c0,2.7-1.5,5.2-3.8,6.6l-65.2,36.8c-6,3.4-13.4,3.2-19.3-0.5l0,0"/>
	<path fill="none" stroke="#044982" stroke-width="1.2801" stroke-miterlimit="10" d="M69.3,225.9c0,0,6,0,6.1,5.6v64
		c0,2.2,1.2,4.2,3.1,5.2l24,13.2c1.8,1,4,1,5.8-0.1l204-118c1.8-1,3.9-1.1,5.8-0.1l5.6,3"/>
</g>
<g id="app_5_">
	<path fill="#BEBEBE" d="M220.6,266c-0.1-0.1-37.9-17.2-37.9-17.2l-10.3,5.8l-2.8,3.1v2c0,0.8,0.4,1.6,1.2,2l29,16.7
		c1.6,0.9,3.6,0.9,5.2,0c0,0,6.1-3.4,14.5-8.3c0.8-0.4,1.2-1.2,1.2-2.1L220.6,266z"/>
	<path fill="#E6E5E3" d="M170.9,255.2l15-8.4c1.2-0.7,2.6-0.7,3.8,0l30,17.3c1.3,0.8,1.3,2.6,0,3.4l-15.7,8.9
		c-1.3,0.7-2.9,0.7-4.1,0l-29-16.7C169.2,258.7,169.2,256.2,170.9,255.2z"/>
	<polygon fill="#044982" points="171.6,258.6 190.5,248.2 216,263 197.2,273.3 	"/>
	<polygon fill="#6DA2FC" stroke="#044982" stroke-width="0.5109" stroke-miterlimit="10" points="173,258.6 190.5,249 214.6,262.9 
		197.2,272.5 	"/>
	<path fill="#044982" d="M181,252c0,0.2-0.3,0.4-0.6,0.4s-0.6-0.2-0.6-0.4s0.3-0.4,0.6-0.4S181,251.8,181,252z"/>
	<path fill="#BEBEBE" d="M212.5,269.4c0,1.1-1.2,2-2.6,2s-2.6-0.9-2.6-2s1.2-2,2.6-2S212.5,268.3,212.5,269.4z"/>
	<path fill="#BEBEBE" d="M212.5,269.4c0,1.1-1.2,2-2.6,2s-2.6-0.9-2.6-2s1.2-2,2.6-2S212.5,268.3,212.5,269.4z"/>
	<path opacity="0.5" fill="#E6E5E3" enable-background="new    " d="M211.9,269.4c0,0.8-0.9,1.5-2,1.5s-2-0.7-2-1.5s0.9-1.5,2-1.5
		S211.9,268.6,211.9,269.4z"/>
	<g>
		<path fill="#BEBEBE" d="M183.7,250.4l-1.7,0.9c-0.1,0-0.2,0-0.2-0.1v-0.1c0-0.1,0-0.2,0.1-0.2l1.7-0.9c0.1,0,0.2,0,0.2,0.1v0.1
			C183.8,250.3,183.8,250.4,183.7,250.4z"/>
		<path fill="#BEBEBE" d="M178.9,253.1l-1.7,0.9c-0.1,0-0.2,0-0.2-0.1v-0.1c0-0.1,0-0.2,0.1-0.2l1.7-0.9c0.1,0,0.2,0,0.2,0.1v0.1
			C179,252.9,179,253.1,178.9,253.1z"/>
	</g>
</g>
<g id="app_4_">
	<g>
		<g>
			<path fill="#BEBEBE" d="M379.3,216.8l-44.5-25.5l-0.1-35.1c0-0.9,1.4-1.4,2.4-1.7c0.8-0.2,1.6,0,2.3,0.3l38,21.8
				c1.1,0.6,1.8,1.8,1.8,3.1L379.3,216.8z"/>
		</g>
		<g>
			<path fill="#044982" d="M378.1,216.2l-43.2-24.8l-0.1-35.2c0-1,1.1-1.7,2-1.2l39.8,22.8c0.9,0.5,1.4,1.4,1.4,2.4L378.1,216.2z"/>
		</g>
		<g>
			<polygon fill="#6DA2FC" points="336.6,157.1 376.1,179.8 376.2,212.9 336.6,190.2 			"/>
		</g>
		<g>
			<g>
				<path fill="#BEBEBE" d="M303.8,210.1c0.1,0,34.5-16.8,34.5-16.8l40.8,23.5L347,235.4c-1.1,0.6-2.4,0.6-3.5,0
					c0,0-33.3-19.2-38.9-22.5c-0.5-0.3-0.8-0.8-0.8-1.4L303.8,210.1z"/>
			</g>
			<g>
				<path fill="#E6E5E3" d="M378.1,216.1L335,191.2l-30.5,17.6c-0.9,0.5-0.9,1.8,0,2.3l39.7,22.9c0.9,0.5,1.9,0.5,2.8,0L378.1,216.1
					z"/>
			</g>
		</g>
		<g>
			<g>
				<path fill="#FFFFFF" d="M366.1,216.8c0.9,0.5,1.3,0.7,2.1,1.2c0.9-0.5,1.3-0.7,2.2-1.2c-0.9-0.5-1.3-0.7-2.1-1.2
					C367.4,216.1,367,216.3,366.1,216.8z"/>
				<path fill="#FFFFFF" d="M363,215c0.9,0.5,1.3,0.7,2.1,1.2c0.9-0.5,1.3-0.7,2.2-1.2c-0.9-0.5-1.3-0.7-2.1-1.2
					C364.3,214.3,363.8,214.5,363,215z"/>
				<path fill="#FFFFFF" d="M359.8,213.2c0.9,0.5,1.3,0.7,2.1,1.2c0.9-0.5,1.3-0.7,2.2-1.2c-0.9-0.5-1.3-0.7-2.1-1.2
					C361.1,212.4,360.7,212.7,359.8,213.2z"/>
				<path fill="#FFFFFF" d="M356.6,211.4c0.9,0.5,1.3,0.7,2.1,1.2c0.9-0.5,1.3-0.7,2.2-1.2c-0.9-0.5-1.3-0.7-2.1-1.2
					C357.9,210.6,357.5,210.9,356.6,211.4z"/>
				<path fill="#FFFFFF" d="M353.4,209.5c0.9,0.5,1.3,0.7,2.1,1.2c0.9-0.5,1.3-0.7,2.2-1.2c-0.9-0.5-1.3-0.7-2.1-1.2
					C354.7,208.8,354.3,209,353.4,209.5z"/>
				<path fill="#FFFFFF" d="M350.3,207.7c0.9,0.5,1.3,0.7,2.1,1.2c0.9-0.5,1.3-0.7,2.2-1.2c-0.9-0.5-1.3-0.7-2.1-1.2
					C351.6,207,351.1,207.2,350.3,207.7z"/>
				<path fill="#FFFFFF" d="M347.1,205.9c0.9,0.5,1.3,0.7,2.1,1.2c0.9-0.5,1.3-0.7,2.2-1.2c-0.9-0.5-1.3-0.7-2.1-1.2
					C348.4,205.2,348,205.4,347.1,205.9z"/>
				<path fill="#FFFFFF" d="M343.9,204.1c0.9,0.5,1.3,0.7,2.1,1.2c0.9-0.5,1.3-0.7,2.2-1.2c-0.9-0.5-1.3-0.7-2.1-1.2
					C345.2,203.3,344.8,203.6,343.9,204.1z"/>
				<path fill="#FFFFFF" d="M340.8,202.3c0.9,0.5,1.3,0.7,2.1,1.2c0.9-0.5,1.3-0.7,2.2-1.2c-0.9-0.5-1.3-0.7-2.1-1.2
					C342.1,201.5,341.6,201.8,340.8,202.3z"/>
				<path fill="#FFFFFF" d="M337.6,200.4c0.9,0.5,1.3,0.7,2.1,1.2c0.9-0.5,1.3-0.7,2.2-1.2c-0.9-0.5-1.3-0.7-2.1-1.2
					C338.9,199.7,338.5,199.9,337.6,200.4z"/>
				<path fill="#FFFFFF" d="M334.4,198.6c0.9,0.5,1.3,0.7,2.1,1.2c0.9-0.5,1.3-0.7,2.2-1.2c-0.9-0.5-1.3-0.7-2.1-1.2
					C335.7,197.9,335.3,198.1,334.4,198.6z"/>
				<path fill="#FFFFFF" d="M331.3,196.8c0.9,0.5,1.3,0.7,2.1,1.2c0.9-0.5,1.3-0.7,2.2-1.2c-0.9-0.5-1.3-0.7-2.1-1.2
					C332.6,196.1,332.1,196.3,331.3,196.8z"/>
				<path fill="#FFFFFF" d="M363.1,218.5c0.9,0.5,1.3,0.7,2.1,1.2c0.9-0.5,1.3-0.7,2.2-1.2c-0.9-0.5-1.3-0.7-2.1-1.2
					C364.4,217.8,363.9,218,363.1,218.5z"/>
				<path fill="#FFFFFF" d="M359.9,216.7c0.9,0.5,1.3,0.7,2.1,1.2c0.9-0.5,1.3-0.7,2.2-1.2c-0.9-0.5-1.3-0.7-2.1-1.2
					C361.2,216,360.8,216.2,359.9,216.7z"/>
				<path fill="#FFFFFF" d="M356.7,214.9c0.9,0.5,1.3,0.7,2.1,1.2c0.9-0.5,1.3-0.7,2.2-1.2c-0.9-0.5-1.3-0.7-2.1-1.2
					C358,214.2,357.6,214.4,356.7,214.9z"/>
				<path fill="#FFFFFF" d="M353.6,213.1c0.9,0.5,1.3,0.7,2.1,1.2c0.9-0.5,1.3-0.7,2.2-1.2c-0.9-0.5-1.3-0.7-2.1-1.2
					C354.9,212.3,354.4,212.6,353.6,213.1z"/>
				<path fill="#FFFFFF" d="M350.4,211.3c0.9,0.5,1.3,0.7,2.1,1.2c0.9-0.5,1.3-0.7,2.2-1.2c-0.9-0.5-1.3-0.7-2.1-1.2
					C351.7,210.5,351.3,210.8,350.4,211.3z"/>
				<path fill="#FFFFFF" d="M347.2,209.4c0.9,0.5,1.3,0.7,2.1,1.2c0.9-0.5,1.3-0.7,2.2-1.2c-0.9-0.5-1.3-0.7-2.1-1.2
					C348.5,208.7,348.1,208.9,347.2,209.4z"/>
				<path fill="#FFFFFF" d="M344.1,207.6c0.9,0.5,1.3,0.7,2.1,1.2c0.9-0.5,1.3-0.7,2.2-1.2c-0.9-0.5-1.3-0.7-2.1-1.2
					C345.4,206.9,344.9,207.1,344.1,207.6z"/>
				<path fill="#FFFFFF" d="M340.9,205.8c0.9,0.5,1.3,0.7,2.1,1.2c0.9-0.5,1.3-0.7,2.2-1.2c-0.9-0.5-1.3-0.7-2.1-1.2
					C342.2,205.1,341.8,205.3,340.9,205.8z"/>
				<path fill="#FFFFFF" d="M337.7,204c0.9,0.5,1.3,0.7,2.1,1.2c0.9-0.5,1.3-0.7,2.2-1.2c-0.9-0.5-1.3-0.7-2.1-1.2
					C339,203.2,338.6,203.5,337.7,204z"/>
				<path fill="#FFFFFF" d="M334.5,202.2c0.9,0.5,1.3,0.7,2.1,1.2c0.9-0.5,1.3-0.7,2.2-1.2c-0.9-0.5-1.3-0.7-2.1-1.2
					C335.8,201.4,335.4,201.7,334.5,202.2z"/>
				<path fill="#FFFFFF" d="M331.4,200.3c0.9,0.5,1.3,0.7,2.1,1.2c0.9-0.5,1.3-0.7,2.2-1.2c-0.9-0.5-1.3-0.7-2.1-1.2
					C332.7,199.6,332.2,199.8,331.4,200.3z"/>
				<path fill="#FFFFFF" d="M328.2,198.5c1.4,0.8,2.2,1.2,3.6,2.1c0.9-0.5,1.3-0.7,2.2-1.2c-1.4-0.8-2.2-1.2-3.6-2.1
					C329.5,197.8,329.1,198,328.2,198.5z"/>
				<path fill="#FFFFFF" d="M358.6,219.4c1.4,0.8,2.1,1.2,3.6,2c0.9-0.5,1.3-0.7,2.2-1.2c-1.4-0.8-2.1-1.2-3.6-2
					C359.9,218.7,359.5,219,358.6,219.4z"/>
				<path fill="#FFFFFF" d="M356.9,218.4c0.9,0.5,1.3,0.7,2.1,1.2c0.9-0.5,1.3-0.7,2.2-1.2c-0.9-0.5-1.3-0.7-2.1-1.2
					C358.2,217.7,357.7,218,356.9,218.4z"/>
				<path fill="#FFFFFF" d="M353.7,216.6c0.9,0.5,1.3,0.7,2.1,1.2c0.9-0.5,1.3-0.7,2.2-1.2c-0.9-0.5-1.3-0.7-2.1-1.2
					C355,215.9,354.6,216.1,353.7,216.6z"/>
				<path fill="#FFFFFF" d="M350.5,214.8c0.9,0.5,1.3,0.7,2.1,1.2c0.9-0.5,1.3-0.7,2.2-1.2c-0.9-0.5-1.3-0.7-2.1-1.2
					C351.8,214.1,351.4,214.3,350.5,214.8z"/>
				<path fill="#FFFFFF" d="M347.3,213c0.9,0.5,1.3,0.7,2.1,1.2c0.9-0.5,1.3-0.7,2.2-1.2c-0.9-0.5-1.3-0.7-2.1-1.2
					C348.7,212.2,348.2,212.5,347.3,213z"/>
				<path fill="#FFFFFF" d="M344.2,211.2c0.9,0.5,1.3,0.7,2.1,1.2c0.9-0.5,1.3-0.7,2.2-1.2c-0.9-0.5-1.3-0.7-2.1-1.2
					C345.5,210.4,345,210.7,344.2,211.2z"/>
				<path fill="#FFFFFF" d="M341,209.3c0.9,0.5,1.3,0.7,2.1,1.2c0.9-0.5,1.3-0.7,2.2-1.2c-0.9-0.5-1.3-0.7-2.1-1.2
					C342.3,208.6,341.9,208.8,341,209.3z"/>
				<path fill="#FFFFFF" d="M337.8,207.5c0.9,0.5,1.3,0.7,2.1,1.2c0.9-0.5,1.3-0.7,2.2-1.2c-0.9-0.5-1.3-0.7-2.1-1.2
					C339.1,206.8,338.7,207,337.8,207.5z"/>
				<path fill="#FFFFFF" d="M334.7,205.7c0.9,0.5,1.3,0.7,2.1,1.2c0.9-0.5,1.3-0.7,2.2-1.2c-0.9-0.5-1.3-0.7-2.1-1.2
					C336,205,335.5,205.2,334.7,205.7z"/>
				<path fill="#FFFFFF" d="M331.5,203.9c0.9,0.5,1.3,0.7,2.1,1.2c0.9-0.5,1.3-0.7,2.2-1.2c-0.9-0.5-1.3-0.7-2.1-1.2
					C332.8,203.1,332.4,203.4,331.5,203.9z"/>
				<path fill="#FFFFFF" d="M328.3,202.1c0.9,0.5,1.3,0.7,2.1,1.2c0.9-0.5,1.3-0.7,2.2-1.2c-0.9-0.5-1.3-0.7-2.1-1.2
					C329.6,201.3,329.2,201.6,328.3,202.1z"/>
				<path fill="#FFFFFF" d="M325.2,200.2c0.9,0.5,1.3,0.7,2.1,1.2c0.9-0.5,1.3-0.7,2.2-1.2c-0.9-0.5-1.3-0.7-2.1-1.2
					C326.5,199.5,326,199.7,325.2,200.2z"/>
				<path fill="#FFFFFF" d="M357,222c0.9,0.5,1.3,0.7,2.1,1.2c0.9-0.5,1.3-0.7,2.2-1.2c-0.9-0.5-1.3-0.7-2.1-1.2
					C358.3,221.2,357.9,221.5,357,222z"/>
				<path fill="#FFFFFF" d="M353.8,220.2c0.9,0.5,1.3,0.7,2.1,1.2c0.9-0.5,1.3-0.7,2.2-1.2c-0.9-0.5-1.3-0.7-2.1-1.2
					C355.1,219.4,354.7,219.7,353.8,220.2z"/>
				<path fill="#FFFFFF" d="M350.6,218.3c0.9,0.5,1.3,0.7,2.1,1.2c0.9-0.5,1.3-0.7,2.2-1.2c-0.9-0.5-1.3-0.7-2.1-1.2
					C351.9,217.6,351.5,217.9,350.6,218.3z"/>
				<path fill="#FFFFFF" d="M347.5,216.5c0.9,0.5,1.3,0.7,2.1,1.2c0.9-0.5,1.3-0.7,2.2-1.2c-0.9-0.5-1.3-0.7-2.1-1.2
					C348.8,215.8,348.3,216,347.5,216.5z"/>
				<path fill="#FFFFFF" d="M344.3,214.7c0.9,0.5,1.3,0.7,2.1,1.2c0.9-0.5,1.3-0.7,2.2-1.2c-0.9-0.5-1.3-0.7-2.1-1.2
					C345.6,214,345.2,214.2,344.3,214.7z"/>
				<path fill="#FFFFFF" d="M341.1,212.9c0.9,0.5,1.3,0.7,2.1,1.2c0.9-0.5,1.3-0.7,2.2-1.2c-0.9-0.5-1.3-0.7-2.1-1.2
					C342.4,212.1,342,212.4,341.1,212.9z"/>
				
					<ellipse transform="matrix(1 -2.619179e-03 2.619179e-03 1 -0.5517 0.8915)" fill="#FFFFFF" cx="340.1" cy="211.1" rx="2.2" ry="1.2"/>
				<path fill="#FFFFFF" d="M334.8,209.2c0.9,0.5,1.3,0.7,2.1,1.2c0.9-0.5,1.3-0.7,2.2-1.2c-0.9-0.5-1.3-0.7-2.1-1.2
					C336.1,208.5,335.7,208.8,334.8,209.2z"/>
				<path fill="#FFFFFF" d="M331.6,207.4c0.9,0.5,1.3,0.7,2.1,1.2c0.9-0.5,1.3-0.7,2.2-1.2c-0.9-0.5-1.3-0.7-2.1-1.2
					C332.9,206.7,332.5,206.9,331.6,207.4z"/>
				<path fill="#FFFFFF" d="M328.4,205.6c0.9,0.5,1.3,0.7,2.1,1.2c0.9-0.5,1.3-0.7,2.2-1.2c-0.9-0.5-1.3-0.7-2.1-1.2
					C329.8,204.9,329.3,205.1,328.4,205.6z"/>
				<path fill="#FFFFFF" d="M323.9,203c1.4,0.8,2.1,1.2,3.5,2c0.9-0.5,1.3-0.7,2.2-1.2c-1.4-0.8-2.1-1.2-3.5-2
					C325.2,202.3,324.8,202.5,323.9,203z"/>
				<path fill="#FFFFFF" d="M322.1,202c0.9,0.5,1.3,0.7,2.1,1.2c0.9-0.5,1.3-0.7,2.2-1.2c-0.9-0.5-1.3-0.7-2.1-1.2
					C323.4,201.2,323,201.5,322.1,202z"/>
				<path fill="#FFFFFF" d="M353.5,223.9c0.9,0.5,1.3,0.7,2.1,1.2c0.9-0.5,1.3-0.7,2.2-1.2c-0.9-0.5-1.3-0.7-2.1-1.2
					C354.8,223.2,354.4,223.5,353.5,223.9z"/>
				<path fill="#FFFFFF" d="M350.3,222.1c0.9,0.5,1.3,0.7,2.1,1.2c0.9-0.5,1.3-0.7,2.2-1.2c-0.9-0.5-1.3-0.7-2.1-1.2
					C351.6,221.4,351.2,221.6,350.3,222.1z"/>
				<path fill="#FFFFFF" d="M347.2,220.3c0.9,0.5,1.3,0.7,2.1,1.2c0.9-0.5,1.3-0.7,2.2-1.2c-0.9-0.5-1.3-0.7-2.1-1.2
					C348.5,219.6,348,219.8,347.2,220.3z"/>
				<path fill="#FFFFFF" d="M328.2,209.4c6,3.4,12,6.9,18,10.3c0.9-0.5,1.3-0.7,2.2-1.2c-6-3.4-12-6.9-18-10.3
					C329.5,208.6,329,208.9,328.2,209.4z"/>
				<path fill="#FFFFFF" d="M325,207.6c0.9,0.5,1.3,0.7,2.1,1.2c0.9-0.5,1.3-0.7,2.2-1.2c-0.9-0.5-1.3-0.7-2.1-1.2
					C326.3,206.8,325.8,207.1,325,207.6z"/>
				<path fill="#FFFFFF" d="M321.8,205.7c0.9,0.5,1.3,0.7,2.1,1.2c0.9-0.5,1.3-0.7,2.2-1.2c-0.9-0.5-1.3-0.7-2.1-1.2
					C323.1,205,322.7,205.3,321.8,205.7z"/>
				<path fill="#FFFFFF" d="M318.6,203.9c0.9,0.5,1.3,0.7,2.1,1.2c0.9-0.5,1.3-0.7,2.2-1.2c-0.9-0.5-1.3-0.7-2.1-1.2
					C319.9,203.2,319.5,203.4,318.6,203.9z"/>
			</g>
		</g>
		<g>
			<polygon fill="#BEBEBE" points="342.9,220.6 328.1,212.1 319.6,217.3 334.4,225.8 			"/>
		</g>
	</g>
</g>
<g id="app_6_">
	<g>
		<g>
			<path fill="#BEBEBE" d="M428.9,381.7c0.1,0,55.1,10.8,55.1,10.8v2.6l-16.6,9.3c-1,0.6-2.2,0.6-3.2,0c0,0-29.7-17.3-34.7-20.2
				c-0.5-0.3-0.7-0.7-0.7-1.3L428.9,381.7z"/>
			<path fill="#E6E5E3" d="M484.1,392.4l-38.3-22.3l-16.3,10.4c-0.8,0.5-0.8,1.6,0,2l35.4,20.6c0.8,0.4,1.7,0.5,2.5,0L484.1,392.4z"
				/>
		</g>
		<g>
			<g>
				<path fill="#FFFFFF" d="M474.5,392.3c0.8,0.4,1.1,0.7,1.9,1.1c0.8-0.5,1.2-0.8,2.1-1.3c-0.8-0.4-1.2-0.7-1.9-1.1
					C475.7,391.6,475.3,391.8,474.5,392.3z"/>
				<path fill="#FFFFFF" d="M471.7,390.7c0.8,0.4,1.1,0.7,1.9,1.1c0.8-0.5,1.2-0.8,2-1.3c-0.8-0.4-1.2-0.7-1.9-1.1
					C472.9,389.9,472.5,390.2,471.7,390.7z"/>
				<path fill="#FFFFFF" d="M468.9,389.1c0.8,0.4,1.1,0.7,1.9,1.1c0.8-0.5,1.2-0.8,2-1.3c-0.8-0.4-1.2-0.7-1.9-1.1
					C470.1,388.3,469.7,388.6,468.9,389.1z"/>
				<path fill="#FFFFFF" d="M466,387.4c0.8,0.4,1.1,0.7,1.9,1.1c0.8-0.5,1.2-0.8,2-1.3c-0.8-0.4-1.2-0.7-1.9-1.1
					C467.2,386.7,466.8,386.9,466,387.4z"/>
				<path fill="#FFFFFF" d="M463.2,385.8c0.8,0.4,1.1,0.7,1.9,1.1c0.8-0.5,1.2-0.8,2-1.3c-0.8-0.4-1.2-0.7-1.9-1.1
					C464.4,385,464,385.3,463.2,385.8z"/>
				<path fill="#FFFFFF" d="M460.4,384.2c0.8,0.4,1.1,0.7,1.9,1.1c0.8-0.5,1.2-0.7,2-1.3c-0.8-0.4-1.2-0.7-1.9-1.1
					C461.6,383.4,461.2,383.7,460.4,384.2z"/>
				<path fill="#FFFFFF" d="M457.6,382.5c0.8,0.4,1.1,0.7,1.9,1.1c0.8-0.5,1.2-0.7,2-1.2c-0.8-0.4-1.2-0.7-1.9-1.1
					C458.8,381.8,458.4,382,457.6,382.5z"/>
				<path fill="#FFFFFF" d="M454.8,380.9c0.8,0.4,1.1,0.7,1.9,1.1c0.8-0.5,1.2-0.7,2-1.2c-0.8-0.4-1.2-0.7-1.9-1.1
					C455.9,380.1,455.5,380.4,454.8,380.9z"/>
				<path fill="#FFFFFF" d="M451.9,379.2c0.8,0.4,1.1,0.7,1.9,1.1c0.8-0.5,1.2-0.7,1.9-1.2c-0.8-0.4-1.2-0.7-1.9-1.1
					C453.1,378.5,452.7,378.8,451.9,379.2z"/>
				<path fill="#FFFFFF" d="M449.1,377.6c0.8,0.4,1.1,0.7,1.9,1.1c0.8-0.5,1.2-0.7,1.9-1.2c-0.8-0.4-1.2-0.7-1.9-1.1
					C450.3,376.9,449.9,377.1,449.1,377.6z"/>
				<path fill="#FFFFFF" d="M446.3,376c0.8,0.4,1.1,0.7,1.9,1.1c0.8-0.5,1.2-0.7,1.9-1.2c-0.8-0.4-1.2-0.7-1.9-1.1
					C447.4,375.2,447.1,375.5,446.3,376z"/>
				<path fill="#FFFFFF" d="M443.5,374.3c0.8,0.4,1.1,0.7,1.9,1.1c0.8-0.5,1.1-0.7,1.9-1.2c-0.8-0.4-1.2-0.7-1.9-1.1
					C444.6,373.6,444.2,373.8,443.5,374.3z"/>
				<path fill="#FFFFFF" d="M471.7,394.1c0.8,0.4,1.1,0.7,1.9,1.1c0.8-0.5,1.2-0.7,2-1.2c-0.8-0.4-1.1-0.7-1.9-1.1
					C472.9,393.4,472.5,393.6,471.7,394.1z"/>
				<path fill="#FFFFFF" d="M468.9,392.4c0.8,0.4,1.1,0.7,1.9,1.1c0.8-0.5,1.2-0.7,2-1.2c-0.8-0.4-1.1-0.7-1.9-1.1
					C470.1,391.7,469.7,392,468.9,392.4z"/>
				<path fill="#FFFFFF" d="M466.1,390.8c0.8,0.4,1.1,0.7,1.9,1.1c0.8-0.5,1.2-0.7,2-1.2c-0.8-0.4-1.1-0.7-1.9-1.1
					C467.3,390.1,466.9,390.3,466.1,390.8z"/>
				<path fill="#FFFFFF" d="M463.3,389.2c0.8,0.4,1.1,0.7,1.9,1.1c0.8-0.5,1.2-0.7,2-1.2c-0.8-0.4-1.1-0.7-1.9-1.1
					C464.5,388.4,464.1,388.7,463.3,389.2z"/>
				<path fill="#FFFFFF" d="M460.5,387.5c0.8,0.4,1.1,0.7,1.9,1.1c0.8-0.5,1.2-0.7,2-1.2c-0.8-0.4-1.1-0.7-1.9-1.1
					C461.6,386.8,461.2,387,460.5,387.5z"/>
				<path fill="#FFFFFF" d="M457.7,385.9c0.8,0.4,1.1,0.7,1.9,1.1c0.8-0.5,1.2-0.7,2-1.2c-0.8-0.4-1.1-0.7-1.9-1.1
					C458.8,385.1,458.4,385.4,457.7,385.9z"/>
				<path fill="#FFFFFF" d="M454.9,384.2c0.8,0.4,1.1,0.7,1.9,1.1c0.8-0.5,1.2-0.7,1.9-1.2c-0.8-0.4-1.1-0.7-1.9-1.1
					C456,383.5,455.6,383.7,454.9,384.2z"/>
				<path fill="#FFFFFF" d="M452,382.6c0.8,0.4,1.1,0.7,1.9,1.1c0.8-0.5,1.2-0.7,1.9-1.2c-0.8-0.4-1.1-0.7-1.9-1.1
					C453.2,381.9,452.8,382.1,452,382.6z"/>
				<path fill="#FFFFFF" d="M449.2,380.9c0.8,0.4,1.1,0.7,1.9,1.1c0.8-0.5,1.2-0.7,1.9-1.2c-0.8-0.4-1.1-0.7-1.9-1.1
					C450.4,380.2,450,380.5,449.2,380.9z"/>
				<path fill="#FFFFFF" d="M446.4,379.3c0.8,0.4,1.1,0.7,1.9,1.1c0.8-0.5,1.2-0.7,1.9-1.2c-0.8-0.4-1.1-0.7-1.9-1.1
					C447.6,378.6,447.2,378.8,446.4,379.3z"/>
				<path fill="#FFFFFF" d="M443.6,377.7c0.8,0.4,1.1,0.7,1.9,1.1c0.8-0.5,1.2-0.7,1.9-1.2c-0.8-0.4-1.1-0.7-1.9-1.1
					C444.8,376.9,444.4,377.2,443.6,377.7z"/>
				<path fill="#FFFFFF" d="M440.8,376c1.3,0.7,1.9,1.1,3.2,1.9c0.8-0.5,1.2-0.7,1.9-1.2c-1.3-0.7-1.9-1.1-3.2-1.9
					C441.9,375.3,441.6,375.5,440.8,376z"/>
				<path fill="#FFFFFF" d="M467.7,395c1.3,0.7,1.9,1.1,3.2,1.8c0.8-0.5,1.2-0.7,1.9-1.2c-1.3-0.7-1.9-1.1-3.2-1.8
					C468.9,394.3,468.5,394.6,467.7,395z"/>
				<path fill="#FFFFFF" d="M466.2,394.1c0.8,0.4,1.1,0.7,1.9,1.1c0.8-0.5,1.2-0.7,1.9-1.2c-0.8-0.4-1.1-0.7-1.9-1.1
					C467.3,393.4,467,393.7,466.2,394.1z"/>
				<path fill="#FFFFFF" d="M463.4,392.5c0.8,0.4,1.1,0.7,1.9,1.1c0.8-0.5,1.2-0.7,1.9-1.2c-0.8-0.4-1.1-0.7-1.9-1.1
					C464.5,391.8,464.1,392,463.4,392.5z"/>
				<path fill="#FFFFFF" d="M460.6,390.9c0.8,0.4,1.1,0.7,1.9,1.1c0.8-0.5,1.2-0.7,1.9-1.2c-0.8-0.4-1.1-0.7-1.9-1.1
					C461.7,390.1,461.3,390.4,460.6,390.9z"/>
				<path fill="#FFFFFF" d="M457.8,389.2c0.8,0.4,1.1,0.7,1.9,1.1c0.8-0.5,1.2-0.7,1.9-1.2c-0.8-0.4-1.1-0.7-1.9-1.1
					C458.9,388.5,458.5,388.7,457.8,389.2z"/>
				<path fill="#FFFFFF" d="M455,387.6c0.8,0.4,1.1,0.7,1.9,1.1c0.8-0.5,1.2-0.7,1.9-1.2c-0.8-0.4-1.1-0.7-1.9-1.1
					C456.1,386.9,455.7,387.1,455,387.6z"/>
				<path fill="#FFFFFF" d="M452.1,385.9c0.8,0.4,1.1,0.7,1.9,1.1c0.8-0.5,1.2-0.7,1.9-1.2c-0.8-0.4-1.1-0.7-1.9-1.1
					C453.3,385.2,452.9,385.5,452.1,385.9z"/>
				<path fill="#FFFFFF" d="M449.3,384.3c0.8,0.4,1.1,0.7,1.9,1.1c0.8-0.5,1.2-0.7,1.9-1.2c-0.8-0.4-1.1-0.7-1.9-1.1
					C450.5,383.6,450.1,383.8,449.3,384.3z"/>
				<path fill="#FFFFFF" d="M446.5,382.7c0.8,0.4,1.1,0.7,1.9,1.1c0.8-0.5,1.2-0.7,1.9-1.2c-0.8-0.4-1.1-0.7-1.9-1.1
					C447.7,381.9,447.3,382.2,446.5,382.7z"/>
				<path fill="#FFFFFF" d="M443.7,381c0.8,0.4,1.1,0.7,1.9,1.1c0.8-0.5,1.2-0.7,1.9-1.2c-0.8-0.4-1.1-0.7-1.9-1.1
					C444.9,380.3,444.5,380.5,443.7,381z"/>
				<path fill="#FFFFFF" d="M440.9,379.4c0.8,0.4,1.1,0.7,1.9,1.1c0.8-0.5,1.2-0.7,1.9-1.2c-0.8-0.4-1.1-0.7-1.9-1.1
					C442.1,378.6,441.7,378.9,440.9,379.4z"/>
				<path fill="#FFFFFF" d="M438.1,377.7c0.8,0.4,1.1,0.7,1.9,1.1c0.8-0.5,1.2-0.7,1.9-1.2c-0.8-0.4-1.1-0.7-1.9-1.1
					C439.3,377,438.9,377.3,438.1,377.7z"/>
				<path fill="#FFFFFF" d="M466.3,397.5c0.8,0.4,1.1,0.7,1.9,1.1c0.8-0.5,1.1-0.7,1.9-1.2c-0.8-0.4-1.1-0.7-1.9-1.1
					C467.5,396.7,467.1,397,466.3,397.5z"/>
				<path fill="#FFFFFF" d="M463.5,395.8c0.8,0.4,1.1,0.7,1.9,1.1c0.8-0.5,1.1-0.7,1.9-1.2c-0.8-0.4-1.1-0.7-1.9-1.1
					C464.7,395.1,464.3,395.3,463.5,395.8z"/>
				<path fill="#FFFFFF" d="M460.7,394.2c0.8,0.4,1.1,0.7,1.9,1.1c0.8-0.5,1.1-0.7,1.9-1.2c-0.8-0.4-1.1-0.7-1.9-1.1
					C461.8,393.5,461.5,393.7,460.7,394.2z"/>
				<path fill="#FFFFFF" d="M457.9,392.6c0.8,0.4,1.1,0.7,1.9,1.1c0.8-0.5,1.1-0.7,1.9-1.2c-0.8-0.4-1.1-0.7-1.9-1.1
					C459,391.8,458.6,392.1,457.9,392.6z"/>
				<path fill="#FFFFFF" d="M455.1,390.9c0.8,0.4,1.1,0.7,1.9,1.1c0.8-0.5,1.1-0.7,1.9-1.2c-0.8-0.4-1.1-0.7-1.9-1.1
					C456.2,390.2,455.8,390.4,455.1,390.9z"/>
				<path fill="#FFFFFF" d="M452.2,389.3c0.8,0.4,1.1,0.7,1.9,1.1c0.8-0.5,1.2-0.7,1.9-1.2c-0.8-0.4-1.1-0.7-1.9-1.1
					C453.4,388.6,453,388.8,452.2,389.3z"/>
				<path fill="#FFFFFF" d="M449.4,387.7c0.8,0.4,1.1,0.7,1.9,1.1c0.8-0.5,1.2-0.7,1.9-1.2c-0.8-0.4-1.1-0.7-1.9-1.1
					C450.6,386.9,450.2,387.2,449.4,387.7z"/>
				<path fill="#FFFFFF" d="M446.6,386c0.8,0.4,1.1,0.7,1.9,1.1c0.8-0.5,1.2-0.7,1.9-1.2c-0.8-0.4-1.1-0.7-1.9-1.1
					C447.8,385.3,447.4,385.5,446.6,386z"/>
				<path fill="#FFFFFF" d="M443.8,384.4c0.8,0.4,1.1,0.7,1.9,1.1c0.8-0.5,1.2-0.7,1.9-1.2c-0.8-0.4-1.1-0.7-1.9-1.1
					C445,383.7,444.6,383.9,443.8,384.4z"/>
				<path fill="#FFFFFF" d="M441,382.8c0.8,0.4,1.1,0.7,1.9,1.1c0.8-0.5,1.2-0.7,1.9-1.2c-0.8-0.4-1.1-0.7-1.9-1.1
					C442.2,382,441.8,382.3,441,382.8z"/>
				<path fill="#FFFFFF" d="M437,380.4c1.2,0.7,1.9,1.1,3.1,1.8c0.8-0.5,1.2-0.7,1.9-1.2c-1.2-0.7-1.9-1.1-3.1-1.8
					C438.1,379.7,437.7,379.9,437,380.4z"/>
				<path fill="#FFFFFF" d="M435.4,379.5c0.8,0.4,1.1,0.7,1.9,1.1c0.8-0.5,1.2-0.7,2-1.2c-0.8-0.4-1.1-0.7-1.9-1.1
					C436.5,378.7,436.1,379,435.4,379.5z"/>
				<path fill="#FFFFFF" d="M463.3,399.4c0.8,0.4,1.2,0.7,1.9,1.1c0.7-0.5,1.1-0.7,1.9-1.2c-0.8-0.4-1.1-0.7-1.9-1.1
					C464.5,398.6,464.1,398.9,463.3,399.4z"/>
				<path fill="#FFFFFF" d="M460.5,397.7c0.8,0.4,1.2,0.7,1.9,1.1c0.7-0.5,1.1-0.7,1.9-1.2c-0.8-0.4-1.1-0.7-1.9-1.1
					C461.6,397,461.3,397.3,460.5,397.7z"/>
				<path fill="#FFFFFF" d="M457.7,396.1c0.8,0.4,1.2,0.7,1.9,1.1c0.8-0.5,1.1-0.7,1.9-1.2c-0.8-0.4-1.1-0.7-1.9-1.1
					C458.8,395.4,458.4,395.6,457.7,396.1z"/>
				<path fill="#FFFFFF" d="M440.7,386.3c6.4,3.7,9.7,5.5,16.1,9.2c0.8-0.5,1.1-0.7,1.9-1.2c-6.4-3.7-9.6-5.6-16-9.3
					C441.8,385.6,441.5,385.9,440.7,386.3z"/>
				<path fill="#FFFFFF" d="M437.8,384.7c0.8,0.4,1.2,0.7,1.9,1.1c0.8-0.5,1.2-0.7,2-1.2c-0.8-0.4-1.1-0.7-1.9-1.1
					C439,384,438.6,384.2,437.8,384.7z"/>
				<path fill="#FFFFFF" d="M435,383.1c0.8,0.4,1.2,0.7,1.9,1.1c0.8-0.5,1.2-0.7,2-1.2c-0.8-0.4-1.1-0.7-1.9-1.1
					C436.2,382.4,435.8,382.6,435,383.1z"/>
				<path fill="#FFFFFF" d="M432.2,381.5c0.8,0.4,1.2,0.7,1.9,1.1c0.8-0.5,1.2-0.7,2-1.2c-0.8-0.4-1.1-0.7-1.9-1.1
					C433.4,380.7,433,381,432.2,381.5z"/>
			</g>
		</g>
	</g>
	<g>
		<g>
			<path fill="#E6E5E3" d="M461.4,373.4c0,0,8.5-4.2,16.8-8.2c4.1,2.7,8.4,5,12.7,7.4c1.3,0.9,2.6,1.7,3.9,2.6l-15.6,9
				c-1,0.6-2.3,0.6-3.3,0c0,0-8.6-5.1-13.9-8.1c-0.5-0.3-0.8-0.8-0.8-1.3L461.4,373.4z"/>
			<path fill="#CBCBCB" d="M462,372.2l14.3-8.3c4.7,3.2,9.7,5.9,14.7,8.6c1,0.6,1.9,1.3,2.9,1.9l-14.6,8.5c-0.8,0.5-1.8,0.5-2.6,0
				l-14.6-8.5C461.2,373.9,461.2,372.7,462,372.2z"/>
		</g>
		<path fill="#BEBEBE" d="M504.9,385.5l-2.4,1.2l-56.8-85.8c0-0.9,0.9-1.9,1.7-2.3c1.4-0.7,3-0.6,4.3,0.1l50.7,29
			c1.4,0.8,2.3,2.4,2.3,4L504.9,385.5z"/>
		<path fill="#E6E5E3" d="M502.5,386.7l-56.7-32.5l-0.1-53.3c0-1.3,1.4-2.2,2.6-1.5l52.2,29.9c1.1,0.7,1.8,1.9,1.8,3.2L502.5,386.7z
			"/>
		<path fill="#044982" d="M445.8,345.7l-0.1-44.8c0-1.3,1.4-2.2,2.6-1.5l52.2,29.9c1.1,0.7,1.8,1.9,1.8,3.2l0.1,46.4L445.8,345.7z"
			/>
		<polygon fill="#6DA2FC" points="448,302.1 499.9,331.8 500,373.6 448,343.3 		"/>
	</g>
</g>
<g>
	<polygon fill="#044982" points="292.7,393.1 292.6,418.2 320,433.5 319.6,408.5 	"/>
	
		<linearGradient id="SVGID_16_" gradientUnits="userSpaceOnUse" x1="-1463.6884" y1="94.6283" x2="-1467.3998" y2="71.9892" gradientTransform="matrix(-1 0 0 -1 -1120.2126 486)">
		<stop  offset="1.153274e-03" style="stop-color:#044982"/>
		<stop  offset="0.5062" style="stop-color:#044E91"/>
		<stop  offset="1" style="stop-color:#0452A0"/>
	</linearGradient>
	<polygon fill="url(#SVGID_16_)" points="371.6,403.4 320,433.5 319.6,408.5 371.6,377.6 	"/>
	<polygon fill="#3D83FA" points="290.1,276.5 290.1,396.9 317.5,412.9 317.3,291.9 	"/>
	<polygon fill="#0452A0" points="290.1,276.5 346.3,243 373.7,259.1 317.3,291.9 	"/>
	<polygon fill="#246EF0" points="374.4,380.3 317.5,412.9 317.3,291.9 373.7,259.1 	"/>
	<g>
		
			<ellipse transform="matrix(0.6136 -0.7896 0.7896 0.6136 -164.7589 413.8399)" fill="#095ED8" cx="340.5" cy="375.3" rx="21.3" ry="13.9"/>
		<g>
			<path fill="#0452A0" d="M353.7,374.2c-0.3,1-0.7,1.9-1.2,2.8L329,389c-0.5-0.5-0.9-1-1.2-1.6L353.7,374.2z"/>
			<path fill="#0452A0" d="M354.8,368.3c0,0.4,0,0.8-0.1,1.2l-27.9,14.2c0-0.4-0.1-0.8-0.1-1.2c0-0.3,0-0.7,0-1.1l28-14.2
				C354.7,367.6,354.8,367.9,354.8,368.3z"/>
			<path fill="#0452A0" d="M332.9,367.8c2.2-2.7,4.9-4.9,7.8-6.4s5.6-2,7.8-1.6L332.9,367.8z"/>
			<path fill="#0452A0" d="M352.6,361.9c0.4,0.5,0.8,1,1.1,1.7l-26,13.3c0.3-0.9,0.7-1.9,1.1-2.8L352.6,361.9z"/>
			<path fill="#0452A0" d="M348.3,383.4c-2.2,2.5-4.8,4.7-7.6,6.1c-2.8,1.4-5.4,1.9-7.6,1.6L348.3,383.4z"/>
		</g>
	</g>
</g>
<g id="app_7_">
	<path fill="#BEBEBE" d="M573,310c0.1-0.1,37.9-17.2,37.9-17.2l10.3,5.8l2.8,3.1v2c0,0.8-0.4,1.6-1.2,2l-29,16.7
		c-1.6,0.9-3.6,0.9-5.2,0c0,0-6.1-3.4-14.5-8.3c-0.8-0.4-1.2-1.2-1.2-2.1L573,310z"/>
	<path fill="#E6E5E3" d="M622.7,299.2l-15-8.4c-1.2-0.7-2.6-0.7-3.8,0l-30,17.3c-1.3,0.8-1.3,2.6,0,3.4l15.7,8.9
		c1.3,0.7,2.9,0.7,4.1,0l29-16.7C624.4,302.7,624.4,300.2,622.7,299.2z"/>
	<polygon fill="#044982" points="622,302.6 603.1,292.2 577.6,307 596.4,317.3 	"/>
	<polygon fill="#6DA2FC" stroke="#044982" stroke-width="0.5109" stroke-miterlimit="10" points="620.6,302.6 603.1,293 579,306.9 
		596.4,316.5 	"/>
	<path fill="#044982" d="M612.7,296c0,0.2,0.3,0.4,0.6,0.4s0.6-0.2,0.6-0.4c0-0.2-0.3-0.4-0.6-0.4
		C612.9,295.6,612.7,295.8,612.7,296z"/>
	<path fill="#BEBEBE" d="M581.1,313.4c0,1.1,1.2,2,2.6,2s2.6-0.9,2.6-2s-1.2-2-2.6-2S581.1,312.3,581.1,313.4z"/>
	<path fill="#BEBEBE" d="M581.1,313.4c0,1.1,1.2,2,2.6,2s2.6-0.9,2.6-2s-1.2-2-2.6-2S581.1,312.3,581.1,313.4z"/>
	<path opacity="0.5" fill="#E6E5E3" enable-background="new    " d="M581.7,313.4c0,0.8,0.9,1.5,2,1.5s2-0.7,2-1.5s-0.9-1.5-2-1.5
		C582.6,311.9,581.7,312.6,581.7,313.4z"/>
	<g>
		<path fill="#BEBEBE" d="M609.9,294.4l1.7,0.9c0.1,0,0.2,0,0.2-0.1v-0.1c0-0.1,0-0.2-0.1-0.2L610,294c-0.1,0-0.2,0-0.2,0.1v0.1
			C609.8,294.3,609.8,294.4,609.9,294.4z"/>
		<path fill="#BEBEBE" d="M614.7,297.1l1.7,0.9c0.1,0,0.2,0,0.2-0.1v-0.1c0-0.1,0-0.2-0.1-0.2l-1.7-0.9c-0.1,0-0.2,0-0.2,0.1v0.1
			C614.6,296.9,614.6,297.1,614.7,297.1z"/>
	</g>
</g>
<g>
	<path opacity="0.5" fill="#E8F0F9" enable-background="new    " d="M233,255.1c1-3.4,21.4-11.5,27.4-12.1c9.3-0.9,20.6,3,26,8.2
		s5.7,11.3,2.6,16.1c-3.1,4.9-9.1,8.7-15.7,12.1c-6.7,3.5-16.1,6.7-26.1,4.3c-7.7-1.8-12.7-6.3-17.1-10.3c-1-0.9-1.9-1.8-2.4-2.8
		c-0.6-1.2-0.5-2.5-0.2-3.6c0.8-4.1,2.1-8.2,5.6-11.6"/>
</g>
<g id="log_4_">
	<path fill="#BEBEBE" d="M284.1,226.2c0,0,0,31.3,0,32.4c0,2.5-2.8,3.5-2.8,3.5s1.3-1.5,1.5-3.1c0-1.6,0-32,0-32L284.1,226.2z"/>
	<g>
		<polygon fill="#B1B1B2" points="284.1,226.2 260.6,212.7 259.4,213.3 283.2,226.8 		"/>
	</g>
	<polygon fill="#E6E5E3" points="264.7,251.9 275.6,256.5 275.6,250.3 264.7,244.1 	"/>
	<path fill="#CECECE" d="M279.4,260.8l-0.1,1.6l-4.6-2.1l-9.5-4.9v-5.6c0-2.4,1.9-3.4,4.1-2.7c0,0,4.7,2,4.5,6.6
		C273.6,259.5,279.4,260.8,279.4,260.8z"/>
	<path fill="#E6E5E3" d="M273.1,249c0.3,1,0.5,2.5,0.7,3.9c0,0.2,0,0.4,0.1,0.6c0,0.3,0.1,0.7,0.1,1c0,0.2,0,0.4,0,0.6
		c0,0.3,0.1,0.6,0.1,0.9l0,0c0,0.2,0,0.4,0,0.6c0,0.6,0.1,1,0.1,1c0,0.3,0.2,2.9,5.2,4.8c0,0,3.8,0.7,3.8-3.9V253
		C283.2,253.1,272.3,246.2,273.1,249z"/>
	<path fill="#F5F5F6" d="M275.6,257.5"/>
	<polygon fill="#E6E5E3" points="283.2,254.7 259.4,241.6 259.4,213.3 283.2,226.8 	"/>
	<path fill="#828282" d="M274.1,256c0,0.2,0,0.4,0,0.6l5.3,3l1,0.5v-0.6L274.1,256z"/>
	<path fill="#828282" d="M273.8,252.9c0,0.2,0,0.4,0.1,0.6l6.5,3.6v-0.6L273.8,252.9z"/>
	<path fill="#828282" d="M270.1,243.9c0,1.4-0.7,2.2-1.8,2.4l-5-2.5c-1.1-1.4-1.8-3.3-1.8-4.7c0-2.3,1.9-3.1,4.3-1.8
		C268.1,238.7,270.1,241.6,270.1,243.9z"/>
	
		<ellipse transform="matrix(0.7717 -0.6359 0.6359 0.7717 -93.0166 224.0959)" fill="#E6E5E3" cx="265.7" cy="241.6" rx="2" ry="3.4"/>
	<polygon fill="#828282" points="273.2,240.8 280.4,244.8 280.4,244.2 273.2,240.2 	"/>
	<polygon fill="#828282" points="272.2,243.7 280.4,248.2 280.4,247.6 272.2,243.1 	"/>
	<path fill="#E6E5E3" d="M265.2,244.8v27.3c0,1.8-1.7,3.7-3.7,2.6L242.3,264l0.1-28.2c0-2.6,2.2-3.4,5-1.8L265.2,244.8z"/>
	<path fill="#CECECE" d="M261.2,268.8l-1.4,7l-20.5-11.2c-0.9-0.5-2.5-2.1-2.5-4.4l0.3-5L261.2,268.8z"/>
	<path fill="#E6E5E3" d="M256.9,268.5c0,0.3,0,0.6,0,0.9v0.1c0,0.2,0,0.4,0,0.6l0,0c0,0.3,0,0.7,0.1,1c0,0.2,0.1,0.5,0.1,0.7
		c0.3,1.9,2.9,4.1,2.9,4.1c2.9,1.2,5.2-1.2,5.2-3.2v-5.5l-7.9-3.1h-0.1c0,0-0.3,1.7-0.4,3.8C256.9,268.1,256.9,268.3,256.9,268.5z"
		/>
	<path fill="#828282" d="M256.9,267.2l5.2,2.9v-0.6l-5.2-2.9C256.9,266.8,256.9,267,256.9,267.2z"/>
	<path fill="#828282" d="M256.9,270L256.9,270c0,0.2,0,0.4,0,0.6l0,0l5.2,2.9v-0.6L256.9,270z"/>
	<path fill="#BEBEBE" d="M266,247.7c0,0,0,23.3,0,24.5c0,1.9-1.9,2.9-1.9,2.9s0.9-0.7,1-2.3c0-1.6,0-21.4,0-22.7
		C265.1,248.7,266,247.7,266,247.7z"/>
	<polygon fill="#B1B1B2" points="257.8,266 238.1,254.7 237.1,255.3 256.9,266.6 	"/>
	<path fill="#BEBEBE" d="M257.8,266c0,0-0.9,8.1,2.5,10c0,0-2.9-0.9-3.2-4c0,0-0.4-3.6-0.2-5.4L257.8,266z"/>
	<polygon fill="#828282" points="243.8,243.3 262.1,253.3 262.1,252.7 243.8,242.7 	"/>
	<polygon fill="#828282" points="243.8,246.7 262.1,256.7 262.1,256.1 243.8,246.1 	"/>
	<g>
		<path fill="#828282" d="M263.1,226.7v-6.5l1,0.5v5.5l3.2,1.6v0.9L263.1,226.7z"/>
		<path fill="#828282" d="M271.8,231c-0.3,0-0.7-0.2-1.1-0.4s-0.8-0.4-1.1-0.7c-0.3-0.3-0.6-0.6-0.8-0.9c-0.2-0.3-0.4-0.7-0.5-1
			c-0.1-0.4-0.2-0.7-0.3-1.1c-0.1-0.3-0.1-0.7-0.1-1s0-0.6,0.1-0.9c0.1-0.3,0.2-0.5,0.3-0.8c0.1-0.2,0.3-0.4,0.5-0.5
			s0.5-0.1,0.8-0.1s0.7,0.2,1.1,0.4s0.8,0.4,1.1,0.7c0.3,0.3,0.6,0.6,0.8,0.9c0.2,0.3,0.4,0.7,0.5,1c0.1,0.4,0.2,0.7,0.3,1.1
			c0.1,0.3,0.1,0.7,0.1,1s0,0.6-0.1,0.9c-0.1,0.3-0.2,0.5-0.3,0.8c-0.1,0.2-0.3,0.4-0.5,0.5C272.4,231,272.2,231,271.8,231z
			 M269.9,229.1c0.2,0.3,0.5,0.5,0.8,0.6c0.3,0.2,0.6,0.2,0.8,0.2c0.2,0,0.4-0.1,0.6-0.3c0.1-0.2,0.2-0.4,0.3-0.6
			c0.1-0.2,0.1-0.5,0.1-0.8s0-0.6-0.1-0.9c-0.1-0.3-0.2-0.6-0.3-0.9c-0.1-0.3-0.3-0.6-0.6-0.9c-0.2-0.3-0.5-0.5-0.8-0.6
			c-0.3-0.2-0.6-0.2-0.8-0.2c-0.2,0-0.4,0.1-0.6,0.3c-0.1,0.2-0.2,0.4-0.3,0.6c-0.1,0.2-0.1,0.5-0.1,0.8s0,0.6,0.1,0.9
			c0.1,0.3,0.2,0.6,0.3,0.9C269.5,228.5,269.6,228.8,269.9,229.1z"/>
		<path fill="#828282" d="M277.6,234.1c-0.5-0.2-0.9-0.6-1.3-0.9c-0.4-0.4-0.7-0.8-0.9-1.2c-0.2-0.4-0.4-0.9-0.5-1.3
			c-0.1-0.4-0.2-0.9-0.2-1.3c0-0.4,0.1-0.8,0.2-1.1s0.3-0.6,0.5-0.8s0.5-0.3,0.9-0.3s0.8,0.1,1.2,0.3c0.6,0.3,1,0.6,1.4,1
			c0.3,0.4,0.6,0.8,0.9,1.3l-0.9,0.1c-0.4-0.7-0.8-1.2-1.3-1.5c-0.3-0.1-0.5-0.2-0.7-0.2s-0.4,0-0.5,0.1s-0.2,0.2-0.3,0.4
			c-0.1,0.2-0.2,0.4-0.2,0.5c0,0.2-0.1,0.4-0.1,0.6c0,0.7,0.2,1.3,0.5,1.9c0.3,0.6,0.8,1.1,1.4,1.4c0.4,0.2,0.7,0.2,1,0.1
			c0.3-0.1,0.4-0.4,0.4-0.8v-0.1l-1.2-0.6v-0.9l2.2,1.1v0.8c0,0.8-0.2,1.3-0.7,1.5C278.8,234.5,278.3,234.4,277.6,234.1z"/>
	</g>
</g>
<g>
	<path opacity="0.5" fill="#E8F0F9" enable-background="new    " d="M512,245.1c1-3.4,21.4-11.5,27.4-12.1c9.3-0.9,20.6,3,26,8.2
		s5.7,11.3,2.6,16.1c-3.1,4.9-9.1,8.7-15.7,12.1c-6.7,3.5-16.1,6.7-26.1,4.3c-7.7-1.8-12.7-6.3-17.1-10.3c-1-0.9-1.9-1.8-2.4-2.8
		c-0.6-1.2-0.5-2.5-0.2-3.6c0.8-4.1,2.1-8.2,5.6-11.6"/>
</g>
<g id="log_3_">
	<path fill="#BEBEBE" d="M563.1,216.2c0,0,0,31.3,0,32.4c0,2.5-2.8,3.5-2.8,3.5s1.3-1.5,1.5-3.1c0-1.6,0-32,0-32L563.1,216.2z"/>
	<g>
		<polygon fill="#B1B1B2" points="563.1,216.2 539.6,202.7 538.4,203.3 562.2,216.8 		"/>
	</g>
	<polygon fill="#E6E5E3" points="543.7,241.9 554.6,246.5 554.6,240.3 543.7,234.1 	"/>
	<path fill="#CECECE" d="M558.4,250.8l-0.1,1.6l-4.6-2.1l-9.5-4.9v-5.6c0-2.4,1.9-3.4,4.1-2.7c0,0,4.7,2,4.5,6.6
		C552.6,249.5,558.4,250.8,558.4,250.8z"/>
	<path fill="#E6E5E3" d="M552.1,239c0.3,1,0.5,2.5,0.7,3.9c0,0.2,0,0.4,0.1,0.6c0,0.3,0.1,0.7,0.1,1c0,0.2,0,0.4,0,0.6
		c0,0.3,0.1,0.6,0.1,0.9l0,0c0,0.2,0,0.4,0,0.6c0,0.6,0.1,1,0.1,1c0,0.3,0.2,2.9,5.2,4.8c0,0,3.8,0.7,3.8-3.9V243
		C562.2,243.1,551.3,236.2,552.1,239z"/>
	<path fill="#F5F5F6" d="M554.6,247.5"/>
	<polygon fill="#E6E5E3" points="562.2,244.7 538.4,231.6 538.4,203.3 562.2,216.8 	"/>
	<path fill="#828282" d="M553.1,246c0,0.2,0,0.4,0,0.6l5.3,3l1,0.5v-0.6L553.1,246z"/>
	<path fill="#828282" d="M552.8,242.9c0,0.2,0,0.4,0.1,0.6l6.5,3.6v-0.6L552.8,242.9z"/>
	<path fill="#828282" d="M549.1,233.9c0,1.4-0.7,2.2-1.8,2.4l-5-2.5c-1.1-1.4-1.8-3.3-1.8-4.7c0-2.3,1.9-3.1,4.3-1.8
		C547.1,228.7,549.1,231.6,549.1,233.9z"/>
	
		<ellipse transform="matrix(0.7717 -0.6359 0.6359 0.7717 -22.9836 399.2361)" fill="#E6E5E3" cx="544.7" cy="231.6" rx="2" ry="3.4"/>
	<polygon fill="#828282" points="552.2,230.8 559.4,234.8 559.4,234.2 552.2,230.2 	"/>
	<polygon fill="#828282" points="551.2,233.7 559.4,238.2 559.4,237.6 551.2,233.1 	"/>
	<path fill="#E6E5E3" d="M544.2,234.8v27.3c0,1.8-1.7,3.7-3.7,2.6L521.3,254l0.1-28.2c0-2.6,2.2-3.4,5-1.8L544.2,234.8z"/>
	<path fill="#CECECE" d="M540.2,258.8l-1.4,7l-20.5-11.2c-0.9-0.5-2.5-2.1-2.5-4.4l0.3-5L540.2,258.8z"/>
	<path fill="#E6E5E3" d="M535.9,258.5c0,0.3,0,0.6,0,0.9v0.1c0,0.2,0,0.4,0,0.6l0,0c0,0.3,0,0.7,0.1,1c0,0.2,0.1,0.5,0.1,0.7
		c0.3,1.9,2.9,4.1,2.9,4.1c2.9,1.2,5.2-1.2,5.2-3.2v-5.5l-7.9-3.1h-0.1c0,0-0.3,1.7-0.4,3.8C535.9,258.1,535.9,258.3,535.9,258.5z"
		/>
	<path fill="#828282" d="M535.9,257.2l5.2,2.9v-0.6l-5.2-2.9C535.9,256.8,535.9,257,535.9,257.2z"/>
	<path fill="#828282" d="M535.9,260L535.9,260c0,0.2,0,0.4,0,0.6l0,0l5.2,2.9v-0.6L535.9,260z"/>
	<path fill="#BEBEBE" d="M545,237.7c0,0,0,23.3,0,24.5c0,1.9-1.9,2.9-1.9,2.9s0.9-0.7,1-2.3c0-1.6,0-21.4,0-22.7
		C544.1,238.7,545,237.7,545,237.7z"/>
	<polygon fill="#B1B1B2" points="536.8,256 517.1,244.7 516.1,245.3 535.9,256.6 	"/>
	<path fill="#BEBEBE" d="M536.8,256c0,0-0.9,8.1,2.5,10c0,0-2.9-0.9-3.2-4c0,0-0.4-3.6-0.2-5.4L536.8,256z"/>
	<polygon fill="#828282" points="522.8,233.3 541.1,243.3 541.1,242.7 522.8,232.7 	"/>
	<polygon fill="#828282" points="522.8,236.7 541.1,246.7 541.1,246.1 522.8,236.1 	"/>
	<g>
		<path fill="#828282" d="M542.1,216.7v-6.5l1,0.5v5.5l3.2,1.6v0.9L542.1,216.7z"/>
		<path fill="#828282" d="M550.8,221c-0.3,0-0.7-0.2-1.1-0.4c-0.4-0.2-0.8-0.4-1.1-0.7s-0.6-0.6-0.8-0.9c-0.2-0.3-0.4-0.7-0.5-1
			c-0.1-0.4-0.2-0.7-0.3-1.1c-0.1-0.3-0.1-0.7-0.1-1s0-0.6,0.1-0.9c0.1-0.3,0.2-0.5,0.3-0.8c0.1-0.2,0.3-0.4,0.5-0.5
			s0.5-0.1,0.8-0.1s0.7,0.2,1.1,0.4c0.4,0.2,0.8,0.4,1.1,0.7s0.6,0.6,0.8,0.9c0.2,0.3,0.4,0.7,0.5,1c0.1,0.4,0.2,0.7,0.3,1.1
			c0.1,0.3,0.1,0.7,0.1,1s0,0.6-0.1,0.9c-0.1,0.3-0.2,0.5-0.3,0.8c-0.1,0.2-0.3,0.4-0.5,0.5C551.4,221,551.2,221,550.8,221z
			 M548.9,219.1c0.2,0.3,0.5,0.5,0.8,0.6c0.3,0.2,0.6,0.2,0.8,0.2s0.4-0.1,0.6-0.3c0.1-0.2,0.2-0.4,0.3-0.6c0.1-0.2,0.1-0.5,0.1-0.8
			s0-0.6-0.1-0.9c-0.1-0.3-0.2-0.6-0.3-0.9c-0.1-0.3-0.3-0.6-0.6-0.9c-0.2-0.3-0.5-0.5-0.8-0.6c-0.3-0.2-0.6-0.2-0.8-0.2
			s-0.4,0.1-0.6,0.3c-0.1,0.2-0.2,0.4-0.3,0.6c-0.1,0.2-0.1,0.5-0.1,0.8s0,0.6,0.1,0.9c0.1,0.3,0.2,0.6,0.3,0.9
			C548.5,218.5,548.6,218.8,548.9,219.1z"/>
		<path fill="#828282" d="M556.6,224.1c-0.5-0.2-0.9-0.6-1.3-0.9c-0.4-0.4-0.7-0.8-0.9-1.2s-0.4-0.9-0.5-1.3
			c-0.1-0.4-0.2-0.9-0.2-1.3c0-0.4,0.1-0.8,0.2-1.1c0.1-0.3,0.3-0.6,0.5-0.8s0.5-0.3,0.9-0.3s0.8,0.1,1.2,0.3c0.6,0.3,1,0.6,1.4,1
			c0.3,0.4,0.6,0.8,0.9,1.3l-0.9,0.1c-0.4-0.7-0.8-1.2-1.3-1.5c-0.3-0.1-0.5-0.2-0.7-0.2s-0.4,0-0.5,0.1s-0.2,0.2-0.3,0.4
			s-0.2,0.4-0.2,0.5c0,0.2-0.1,0.4-0.1,0.6c0,0.7,0.2,1.3,0.5,1.9c0.3,0.6,0.8,1.1,1.4,1.4c0.4,0.2,0.7,0.2,1,0.1
			c0.3-0.1,0.4-0.4,0.4-0.8v-0.1l-1.2-0.6v-0.9l2.2,1.1v0.8c0,0.8-0.2,1.3-0.7,1.5C557.8,224.5,557.3,224.4,556.6,224.1z"/>
	</g>
</g>
<g>
	<path opacity="0.5" fill="#E8F0F9" enable-background="new    " d="M497,428.1c1-3.4,21.4-11.5,27.4-12.1c9.3-0.9,20.6,3,26,8.2
		s5.7,11.3,2.6,16.1c-3.1,4.9-9.1,8.7-15.7,12.1c-6.7,3.5-16.1,6.7-26.1,4.3c-7.7-1.8-12.7-6.3-17.1-10.3c-1-0.9-1.9-1.8-2.4-2.8
		c-0.6-1.2-0.5-2.5-0.2-3.6c0.8-4.1,2.1-8.2,5.6-11.6"/>
</g>
<g id="log_1_">
	<path fill="#BEBEBE" d="M548.1,399.2c0,0,0,31.3,0,32.4c0,2.5-2.8,3.5-2.8,3.5s1.3-1.5,1.5-3.1c0-1.6,0-32,0-32L548.1,399.2z"/>
	<g>
		<polygon fill="#B1B1B2" points="548.1,399.2 524.6,385.7 523.4,386.3 547.2,399.8 		"/>
	</g>
	<polygon fill="#E6E5E3" points="528.7,424.9 539.6,429.5 539.6,423.3 528.7,417.1 	"/>
	<path fill="#CECECE" d="M543.4,433.8l-0.1,1.6l-4.6-2.1l-9.5-4.9v-5.6c0-2.4,1.9-3.4,4.1-2.7c0,0,4.7,2,4.5,6.6
		C537.6,432.5,543.4,433.8,543.4,433.8z"/>
	<path fill="#E6E5E3" d="M537.1,422c0.3,1,0.5,2.5,0.7,3.9c0,0.2,0,0.4,0.1,0.6c0,0.3,0.1,0.7,0.1,1c0,0.2,0,0.4,0,0.6
		c0,0.3,0.1,0.6,0.1,0.9l0,0c0,0.2,0,0.4,0,0.6c0,0.6,0.1,1,0.1,1c0,0.3,0.2,2.9,5.2,4.8c0,0,3.8,0.7,3.8-3.9V426
		C547.2,426.1,536.3,419.2,537.1,422z"/>
	<path fill="#F5F5F6" d="M539.6,430.5"/>
	<polygon fill="#E6E5E3" points="547.2,427.7 523.4,414.6 523.4,386.3 547.2,399.8 	"/>
	<path fill="#828282" d="M538.1,429c0,0.2,0,0.4,0,0.6l5.3,3l1,0.5v-0.6L538.1,429z"/>
	<path fill="#828282" d="M537.8,425.9c0,0.2,0,0.4,0.1,0.6l6.5,3.6v-0.6L537.8,425.9z"/>
	<path fill="#828282" d="M534.1,416.9c0,1.4-0.7,2.2-1.8,2.4l-5-2.5c-1.1-1.4-1.8-3.3-1.8-4.7c0-2.3,1.9-3.1,4.3-1.8
		C532.1,411.7,534.1,414.6,534.1,416.9z"/>
	
		<ellipse transform="matrix(0.7717 -0.6359 0.6359 0.7717 -142.7807 431.4618)" fill="#E6E5E3" cx="529.6" cy="414.6" rx="2" ry="3.4"/>
	<polygon fill="#828282" points="537.2,413.8 544.4,417.8 544.4,417.2 537.2,413.2 	"/>
	<polygon fill="#828282" points="536.2,416.7 544.4,421.2 544.4,420.6 536.2,416.1 	"/>
	<path fill="#E6E5E3" d="M529.2,417.8v27.3c0,1.8-1.7,3.7-3.7,2.6L506.3,437l0.1-28.2c0-2.6,2.2-3.4,5-1.8L529.2,417.8z"/>
	<path fill="#CECECE" d="M525.2,441.8l-1.4,7l-20.5-11.2c-0.9-0.5-2.5-2.1-2.5-4.4l0.3-5L525.2,441.8z"/>
	<path fill="#E6E5E3" d="M520.9,441.5c0,0.3,0,0.6,0,0.9v0.1c0,0.2,0,0.4,0,0.6l0,0c0,0.3,0,0.7,0.1,1c0,0.2,0.1,0.5,0.1,0.7
		c0.3,1.9,2.9,4.1,2.9,4.1c2.9,1.2,5.2-1.2,5.2-3.2v-5.5l-7.9-3.1h-0.1c0,0-0.3,1.7-0.4,3.8C520.9,441.1,520.9,441.3,520.9,441.5z"
		/>
	<path fill="#828282" d="M520.9,440.2l5.2,2.9v-0.6l-5.2-2.9C520.9,439.8,520.9,440,520.9,440.2z"/>
	<path fill="#828282" d="M520.9,443L520.9,443c0,0.2,0,0.4,0,0.6l0,0l5.2,2.9v-0.6L520.9,443z"/>
	<path fill="#BEBEBE" d="M530,420.7c0,0,0,23.3,0,24.5c0,1.9-1.9,2.9-1.9,2.9s0.9-0.7,1-2.3c0-1.6,0-21.4,0-22.7
		C529.1,421.7,530,420.7,530,420.7z"/>
	<polygon fill="#B1B1B2" points="521.8,439 502.1,427.7 501.1,428.3 520.9,439.6 	"/>
	<path fill="#BEBEBE" d="M521.8,439c0,0-0.9,8.1,2.5,10c0,0-2.9-0.9-3.2-4c0,0-0.4-3.6-0.2-5.4L521.8,439z"/>
	<polygon fill="#828282" points="507.8,416.3 526.1,426.3 526.1,425.7 507.8,415.7 	"/>
	<polygon fill="#828282" points="507.8,419.7 526.1,429.7 526.1,429.1 507.8,419.1 	"/>
	<g>
		<path fill="#828282" d="M527.1,399.7v-6.5l1,0.5v5.5l3.2,1.6v0.9L527.1,399.7z"/>
		<path fill="#828282" d="M535.8,404c-0.3,0-0.7-0.2-1.1-0.4c-0.4-0.2-0.8-0.4-1.1-0.7c-0.3-0.3-0.6-0.6-0.8-0.9s-0.4-0.7-0.5-1
			c-0.1-0.4-0.2-0.7-0.3-1.1c-0.1-0.3-0.1-0.7-0.1-1s0-0.6,0.1-0.9s0.2-0.5,0.3-0.8c0.1-0.2,0.3-0.4,0.5-0.5s0.5-0.1,0.8-0.1
			s0.7,0.2,1.1,0.4c0.4,0.2,0.8,0.4,1.1,0.7c0.3,0.3,0.6,0.6,0.8,0.9s0.4,0.7,0.5,1c0.1,0.4,0.2,0.7,0.3,1.1c0.1,0.3,0.1,0.7,0.1,1
			s0,0.6-0.1,0.9s-0.2,0.5-0.3,0.8c-0.1,0.2-0.3,0.4-0.5,0.5C536.4,404,536.2,404,535.8,404z M533.9,402.1c0.2,0.3,0.5,0.5,0.8,0.6
			c0.3,0.2,0.6,0.2,0.8,0.2s0.4-0.1,0.6-0.3c0.1-0.2,0.2-0.4,0.3-0.6s0.1-0.5,0.1-0.8s0-0.6-0.1-0.9s-0.2-0.6-0.3-0.9
			s-0.3-0.6-0.6-0.9c-0.2-0.3-0.5-0.5-0.8-0.6c-0.3-0.2-0.6-0.2-0.8-0.2s-0.4,0.1-0.6,0.3c-0.1,0.2-0.2,0.4-0.3,0.6
			s-0.1,0.5-0.1,0.8s0,0.6,0.1,0.9s0.2,0.6,0.3,0.9C533.5,401.5,533.6,401.8,533.9,402.1z"/>
		<path fill="#828282" d="M541.6,407.1c-0.5-0.2-0.9-0.6-1.3-0.9c-0.4-0.4-0.7-0.8-0.9-1.2c-0.2-0.4-0.4-0.9-0.5-1.3
			s-0.2-0.9-0.2-1.3s0.1-0.8,0.2-1.1c0.1-0.3,0.3-0.6,0.5-0.8c0.2-0.2,0.5-0.3,0.9-0.3s0.8,0.1,1.2,0.3c0.6,0.3,1,0.6,1.4,1
			c0.3,0.4,0.6,0.8,0.9,1.3l-0.9,0.1c-0.4-0.7-0.8-1.2-1.3-1.5c-0.3-0.1-0.5-0.2-0.7-0.2s-0.4,0-0.5,0.1s-0.2,0.2-0.3,0.4
			c-0.1,0.2-0.2,0.4-0.2,0.5c0,0.2-0.1,0.4-0.1,0.6c0,0.7,0.2,1.3,0.5,1.9s0.8,1.1,1.4,1.4c0.4,0.2,0.7,0.2,1,0.1s0.4-0.4,0.4-0.8
			v-0.1l-1.2-0.6v-0.9l2.2,1.1v0.8c0,0.8-0.2,1.3-0.7,1.5C542.8,407.5,542.3,407.4,541.6,407.1z"/>
	</g>
</g>
<g>
	<path opacity="0.5" fill="#E8F0F9" enable-background="new    " d="M189.3,336.7c-1-3.3-21.2-11.4-27.1-12
		c-9.2-0.9-20.3,2.9-25.7,8.1s-5.6,11.1-2.6,15.9s9,8.6,15.5,11.9c6.7,3.4,15.9,6.6,25.8,4.3c7.6-1.8,12.6-6.2,16.9-10.2
		c1-0.9,1.9-1.8,2.4-2.8c0.6-1.2,0.5-2.4,0.2-3.6c-0.8-4.1-2.1-8.1-5.6-11.4"/>
</g>
<g id="log_2_">
	<path fill="#BEBEBE" d="M138.8,308.1c0,0,0,30.9,0,32.1c0,2.5,2.8,3.5,2.8,3.5s-1.3-1.5-1.5-3c0-1.6,0-31.6,0-31.6L138.8,308.1z"/>
	<g>
		<polygon fill="#B1B1B2" points="138.8,308.1 162,294.7 163.1,295.2 139.7,308.7 		"/>
	</g>
	<polygon fill="#E6E5E3" points="158,333.5 147.1,338.1 147.1,331.9 158,325.8 	"/>
	<path fill="#CECECE" d="M143.4,342.2l0.1,1.6l4.5-2.1l9.4-4.8v-5.5c0-2.4-1.9-3.4-4.1-2.7c0,0-4.7,2-4.4,6.5
		C149.2,341,143.4,342.2,143.4,342.2z"/>
	<path fill="#E6E5E3" d="M149.6,330.6c-0.3,1-0.5,2.5-0.7,3.9c0,0.2,0,0.4-0.1,0.6c0,0.3-0.1,0.7-0.1,1c0,0.2,0,0.4,0,0.6
		c0,0.3-0.1,0.6-0.1,0.9l0,0c0,0.2,0,0.4,0,0.6c0,0.6-0.1,1-0.1,1c0,0.3-0.2,2.9-5.1,4.7c0,0-3.7,0.7-3.7-3.8v-5.5
		C139.7,334.6,150.4,327.9,149.6,330.6z"/>
	<path fill="#F5F5F6" d="M147.1,339"/>
	<polygon fill="#E6E5E3" points="139.7,336.3 163.1,323.3 163.1,295.3 139.7,308.7 	"/>
	<g>
		<path fill="#828282" d="M144.2,317.5v-5.8l0.9-0.5v5l2.8-1.5v0.8L144.2,317.5z"/>
		<path fill="#828282" d="M152,313.3c-0.3,0.3-0.6,0.5-1,0.7s-0.7,0.3-1,0.3s-0.5,0-0.7-0.1s-0.3-0.2-0.5-0.4
			c-0.1-0.2-0.2-0.4-0.3-0.7c-0.1-0.2-0.1-0.5-0.1-0.8s0-0.6,0.1-0.9s0.1-0.6,0.3-1c0.1-0.3,0.3-0.6,0.5-0.9s0.4-0.6,0.7-0.8
			c0.3-0.3,0.6-0.5,1-0.7s0.7-0.3,1-0.3s0.5,0,0.7,0.1s0.3,0.2,0.5,0.4c0.1,0.2,0.2,0.4,0.3,0.7c0.1,0.2,0.1,0.5,0.1,0.8
			s0,0.6-0.1,0.9s-0.1,0.6-0.3,1c-0.1,0.3-0.3,0.6-0.5,0.9C152.6,312.7,152.3,313,152,313.3z M150.3,313.4c0.2,0,0.5-0.1,0.8-0.2
			c0.3-0.2,0.5-0.4,0.8-0.6c0.2-0.3,0.4-0.5,0.5-0.8s0.2-0.6,0.3-0.8c0.1-0.3,0.1-0.5,0.1-0.8s0-0.5-0.1-0.7s-0.1-0.4-0.3-0.5
			c-0.1-0.2-0.3-0.2-0.5-0.2s-0.5,0.1-0.8,0.2c-0.3,0.2-0.5,0.4-0.8,0.6c-0.2,0.3-0.4,0.5-0.5,0.8s-0.2,0.6-0.3,0.8
			c-0.1,0.3-0.1,0.5-0.1,0.8s0,0.5,0.1,0.7s0.1,0.4,0.3,0.5C149.9,313.3,150.1,313.4,150.3,313.4z"/>
		<path fill="#828282" d="M157.2,310.7c-0.4,0.2-0.8,0.3-1.1,0.4c-0.3,0-0.6-0.1-0.8-0.3c-0.2-0.2-0.3-0.4-0.4-0.7
			c-0.1-0.3-0.1-0.6-0.1-1s0.1-0.7,0.2-1.2c0.1-0.4,0.3-0.8,0.5-1.2c0.2-0.4,0.5-0.8,0.8-1.1c0.3-0.4,0.7-0.6,1.1-0.9
			c0.5-0.3,0.9-0.4,1.2-0.4s0.6,0.2,0.8,0.4l-0.8,0.9c-0.3-0.3-0.7-0.3-1.2-0.1c-0.2,0.1-0.5,0.3-0.7,0.5s-0.3,0.4-0.5,0.6
			c-0.1,0.2-0.2,0.4-0.3,0.7c-0.1,0.2-0.1,0.5-0.2,0.7c0,0.2,0,0.4,0,0.6c0,0.6,0.1,1,0.4,1.3c0.3,0.3,0.7,0.3,1.2,0
			c0.4-0.2,0.7-0.5,0.9-0.8c0.2-0.4,0.3-0.7,0.3-1.1v-0.1l-1,0.6v-0.8l1.9-1v0.8c0,0.7-0.2,1.4-0.6,2
			C158.3,309.9,157.8,310.4,157.2,310.7z"/>
	</g>
	<path fill="#828282" d="M148.7,337.6c0,0.2,0,0.4,0,0.6l-5.2,2.9l-0.9,0.5V341L148.7,337.6z"/>
	<path fill="#828282" d="M149,334.4c0,0.2,0,0.4-0.1,0.6l-6.4,3.6V338L149,334.4z"/>
	<path fill="#828282" d="M152.6,325.6c0,1.4,0.7,2.2,1.8,2.3l5-2.5c1.1-1.3,1.8-3.2,1.8-4.6c0-2.3-1.9-3-4.3-1.7
		C154.6,320.4,152.6,323.3,152.6,325.6z"/>
	
		<ellipse transform="matrix(0.6359 -0.7717 0.7717 0.6359 -192.4047 238.783)" fill="#E6E5E3" cx="156.9" cy="323.3" rx="3.4" ry="1.9"/>
	<polygon fill="#828282" points="149.6,322.5 142.5,326.4 142.5,325.9 149.6,321.9 	"/>
	<polygon fill="#828282" points="150.5,325.3 142.5,329.8 142.5,329.2 150.5,324.7 	"/>
	<path fill="#E6E5E3" d="M157.4,326.5v27c0,1.8,1.7,3.6,3.7,2.5l18.9-10.5l-0.1-27.9c0-2.6-2.2-3.3-4.9-1.7L157.4,326.5z"/>
	<path fill="#CECECE" d="M161.3,350.2l1.4,6.9l20.3-11c0.9-0.5,2.5-2,2.5-4.4l-0.3-4.9L161.3,350.2z"/>
	<path fill="#E6E5E3" d="M165.7,349.8c0,0.3,0,0.6,0,0.9v0.1c0,0.2,0,0.4,0,0.5l0,0c0,0.3,0,0.6-0.1,1c0,0.2-0.1,0.5-0.1,0.7
		c-0.3,1.9-2.9,4.1-2.9,4.1c-2.9,1.1-5.2-1.2-5.2-3.1v-5.5l7.8-3h0.1c0,0,0.3,1.7,0.4,3.7C165.7,349.4,165.7,349.6,165.7,349.8z"/>
	<path fill="#828282" d="M165.7,348.6l-5.1,2.9v-0.6l5.1-2.9C165.7,348.2,165.7,348.4,165.7,348.6z"/>
	<path fill="#828282" d="M165.7,351.4L165.7,351.4c0,0.2,0,0.4,0,0.6l0,0l-5.1,2.9v-0.6L165.7,351.4z"/>
	<path fill="#BEBEBE" d="M156.6,329.3c0,0,0,23.1,0,24.2c0,1.9,1.9,2.9,1.9,2.9s-0.9-0.7-1-2.3c0-1.6,0-21.2,0-22.5
		C157.5,330.3,156.6,329.3,156.6,329.3z"/>
	<polygon fill="#B1B1B2" points="164.8,347.4 184.2,336.3 185.2,336.8 165.6,348 	"/>
	<path fill="#BEBEBE" d="M164.8,347.4c0,0,0.9,8-2.5,9.9c0,0,2.9-0.9,3.2-3.9c0,0,0.4-3.6,0.1-5.4L164.8,347.4z"/>
	<polygon fill="#828282" points="178.6,324.9 160.5,334.9 160.5,334.3 178.6,324.3 	"/>
	<polygon fill="#828282" points="178.6,328.3 160.5,338.2 160.5,337.6 178.6,327.8 	"/>
</g>
<g id="app_8_">
	<g id="app_3_">
		<g>
			<path fill="#BEBEBE" d="M188.5,389.5L233,364l0.1-35.1c0-0.9-1.4-1.4-2.4-1.7c-0.8-0.2-1.6,0-2.3,0.3l-38,21.8
				c-1.1,0.6-1.8,1.8-1.8,3.1L188.5,389.5z"/>
		</g>
		<g>
			<path fill="#044982" d="M189.7,388.9l43.2-24.8l0.1-35.2c0-1-1.1-1.7-2-1.2l-39.8,22.8c-0.9,0.5-1.4,1.4-1.4,2.4L189.7,388.9z"/>
		</g>
		<g>
			<polygon fill="#6DA2FC" points="231.2,329.8 191.7,352.5 191.6,385.6 231.2,362.9 			"/>
		</g>
		<g>
			<g>
				<path fill="#BEBEBE" d="M264,382.7c-0.1,0-34.5-16.8-34.5-16.8l-40.8,23.5l32.1,18.6c1.1,0.6,2.4,0.6,3.5,0
					c0,0,33.3-19.2,38.9-22.5c0.5-0.3,0.8-0.8,0.8-1.4L264,382.7z"/>
			</g>
			<g>
				<path fill="#E6E5E3" d="M189.8,388.7l43.1-24.9l30.5,17.6c0.9,0.5,0.9,1.8,0,2.3l-39.7,22.9c-0.9,0.5-1.9,0.5-2.8,0L189.8,388.7
					z"/>
			</g>
		</g>
		<g>
			<g>
				<path fill="#FFFFFF" d="M201.7,389.5c-0.9,0.5-1.3,0.7-2.1,1.2c-0.9-0.5-1.3-0.7-2.2-1.2c0.9-0.5,1.3-0.7,2.1-1.2
					C200.4,388.8,200.9,389,201.7,389.5z"/>
				<path fill="#FFFFFF" d="M204.9,387.7c-0.9,0.5-1.3,0.7-2.1,1.2c-0.9-0.5-1.3-0.7-2.2-1.2c0.9-0.5,1.3-0.7,2.1-1.2
					C203.6,386.9,204,387.2,204.9,387.7z"/>
				<path fill="#FFFFFF" d="M208.1,385.9c-0.9,0.5-1.3,0.7-2.1,1.2c-0.9-0.5-1.3-0.7-2.2-1.2c0.9-0.5,1.3-0.7,2.1-1.2
					C206.8,385.1,207.2,385.4,208.1,385.9z"/>
				<path fill="#FFFFFF" d="M211.2,384c-0.9,0.5-1.3,0.7-2.1,1.2c-0.9-0.5-1.3-0.7-2.2-1.2c0.9-0.5,1.3-0.7,2.1-1.2
					C209.9,383.3,210.4,383.5,211.2,384z"/>
				<path fill="#FFFFFF" d="M214.4,382.2c-0.9,0.5-1.3,0.7-2.1,1.2c-0.9-0.5-1.3-0.7-2.2-1.2c0.9-0.5,1.3-0.7,2.1-1.2
					C213.1,381.5,213.5,381.7,214.4,382.2z"/>
				<path fill="#FFFFFF" d="M217.6,380.4c-0.9,0.5-1.3,0.7-2.1,1.2c-0.9-0.5-1.3-0.7-2.2-1.2c0.9-0.5,1.3-0.7,2.1-1.2
					C216.3,379.7,216.7,379.9,217.6,380.4z"/>
				<path fill="#FFFFFF" d="M220.7,378.6c-0.9,0.5-1.3,0.7-2.1,1.2c-0.9-0.5-1.3-0.7-2.2-1.2c0.9-0.5,1.3-0.7,2.1-1.2
					C219.4,377.8,219.9,378.1,220.7,378.6z"/>
				<path fill="#FFFFFF" d="M223.9,376.8c-0.9,0.5-1.3,0.7-2.1,1.2c-0.9-0.5-1.3-0.7-2.2-1.2c0.9-0.5,1.3-0.7,2.1-1.2
					C222.6,376,223,376.3,223.9,376.8z"/>
				<path fill="#FFFFFF" d="M227.1,374.9c-0.9,0.5-1.3,0.7-2.1,1.2c-0.9-0.5-1.3-0.7-2.2-1.2c0.9-0.5,1.3-0.7,2.1-1.2
					C225.8,374.2,226.2,374.4,227.1,374.9z"/>
				<path fill="#FFFFFF" d="M230.3,373.1c-0.9,0.5-1.3,0.7-2.1,1.2c-0.9-0.5-1.3-0.7-2.2-1.2c0.9-0.5,1.3-0.7,2.1-1.2
					C229,372.4,229.4,372.6,230.3,373.1z"/>
				<path fill="#FFFFFF" d="M233.4,371.3c-0.9,0.5-1.3,0.7-2.1,1.2c-0.9-0.5-1.3-0.7-2.2-1.2c0.9-0.5,1.3-0.7,2.1-1.2
					C232.1,370.6,232.6,370.8,233.4,371.3z"/>
				<path fill="#FFFFFF" d="M236.6,369.5c-0.9,0.5-1.3,0.7-2.1,1.2c-0.9-0.5-1.3-0.7-2.2-1.2c0.9-0.5,1.3-0.7,2.1-1.2
					C235.3,368.7,235.7,369,236.6,369.5z"/>
				<path fill="#FFFFFF" d="M204.8,391.2c-0.9,0.5-1.3,0.7-2.1,1.2c-0.9-0.5-1.3-0.7-2.2-1.2c0.9-0.5,1.3-0.7,2.1-1.2
					C203.5,390.5,203.9,390.7,204.8,391.2z"/>
				<path fill="#FFFFFF" d="M207.9,389.4c-0.9,0.5-1.3,0.7-2.1,1.2c-0.9-0.5-1.3-0.7-2.2-1.2c0.9-0.5,1.3-0.7,2.1-1.2
					C206.6,388.7,207.1,388.9,207.9,389.4z"/>
				<path fill="#FFFFFF" d="M211.1,387.6c-0.9,0.5-1.3,0.7-2.1,1.2c-0.9-0.5-1.3-0.7-2.2-1.2c0.9-0.5,1.3-0.7,2.1-1.2
					C209.8,386.8,210.2,387.1,211.1,387.6z"/>
				<path fill="#FFFFFF" d="M214.3,385.8c-0.9,0.5-1.3,0.7-2.1,1.2c-0.9-0.5-1.3-0.7-2.2-1.2c0.9-0.5,1.3-0.7,2.1-1.2
					C213,385,213.4,385.3,214.3,385.8z"/>
				<path fill="#FFFFFF" d="M217.5,383.9c-0.9,0.5-1.3,0.7-2.1,1.2c-0.9-0.5-1.3-0.7-2.2-1.2c0.9-0.5,1.3-0.7,2.1-1.2
					C216.1,383.2,216.6,383.4,217.5,383.9z"/>
				<path fill="#FFFFFF" d="M220.6,382.1c-0.9,0.5-1.3,0.7-2.1,1.2c-0.9-0.5-1.3-0.7-2.2-1.2c0.9-0.5,1.3-0.7,2.1-1.2
					C219.3,381.4,219.8,381.6,220.6,382.1z"/>
				<path fill="#FFFFFF" d="M223.8,380.3c-0.9,0.5-1.3,0.7-2.1,1.2c-0.9-0.5-1.3-0.7-2.2-1.2c0.9-0.5,1.3-0.7,2.1-1.2
					C222.5,379.6,222.9,379.8,223.8,380.3z"/>
				<path fill="#FFFFFF" d="M227,378.5c-0.9,0.5-1.3,0.7-2.1,1.2c-0.9-0.5-1.3-0.7-2.2-1.2c0.9-0.5,1.3-0.7,2.1-1.2
					C225.7,377.7,226.1,378,227,378.5z"/>
				<path fill="#FFFFFF" d="M230.1,376.7c-0.9,0.5-1.3,0.7-2.1,1.2c-0.9-0.5-1.3-0.7-2.2-1.2c0.9-0.5,1.3-0.7,2.1-1.2
					C228.8,375.9,229.3,376.2,230.1,376.7z"/>
				<path fill="#FFFFFF" d="M233.3,374.8c-0.9,0.5-1.3,0.7-2.1,1.2c-0.9-0.5-1.3-0.7-2.2-1.2c0.9-0.5,1.3-0.7,2.1-1.2
					C232,374.1,232.4,374.3,233.3,374.8z"/>
				<path fill="#FFFFFF" d="M236.5,373c-0.9,0.5-1.3,0.7-2.1,1.2c-0.9-0.5-1.3-0.7-2.2-1.2c0.9-0.5,1.3-0.7,2.1-1.2
					C235.2,372.3,235.6,372.5,236.5,373z"/>
				<path fill="#FFFFFF" d="M239.6,371.2c-1.4,0.8-2.2,1.2-3.6,2.1c-0.9-0.5-1.3-0.7-2.2-1.2c1.4-0.8,2.2-1.2,3.6-2.1
					C238.3,370.5,238.8,370.7,239.6,371.2z"/>
				<path fill="#FFFFFF" d="M209.2,392.1c-1.4,0.8-2.1,1.2-3.6,2c-0.9-0.5-1.3-0.7-2.2-1.2c1.4-0.8,2.1-1.2,3.6-2
					C207.9,391.4,208.4,391.6,209.2,392.1z"/>
				<path fill="#FFFFFF" d="M211,391.1c-0.9,0.5-1.3,0.7-2.1,1.2c-0.9-0.5-1.3-0.7-2.2-1.2c0.9-0.5,1.3-0.7,2.1-1.2
					C209.7,390.4,210.1,390.6,211,391.1z"/>
				<path fill="#FFFFFF" d="M214.2,389.3c-0.9,0.5-1.3,0.7-2.1,1.2c-0.9-0.5-1.3-0.7-2.2-1.2c0.9-0.5,1.3-0.7,2.1-1.2
					C212.9,388.6,213.3,388.8,214.2,389.3z"/>
				<path fill="#FFFFFF" d="M217.3,387.5c-0.9,0.5-1.3,0.7-2.1,1.2c-0.9-0.5-1.3-0.7-2.2-1.2c0.9-0.5,1.3-0.7,2.1-1.2
					C216,386.7,216.5,387,217.3,387.5z"/>
				<path fill="#FFFFFF" d="M220.5,385.7c-0.9,0.5-1.3,0.7-2.1,1.2c-0.9-0.5-1.3-0.7-2.2-1.2c0.9-0.5,1.3-0.7,2.1-1.2
					C219.2,384.9,219.6,385.2,220.5,385.7z"/>
				<path fill="#FFFFFF" d="M223.7,383.8c-0.9,0.5-1.3,0.7-2.1,1.2c-0.9-0.5-1.3-0.7-2.2-1.2c0.9-0.5,1.3-0.7,2.1-1.2
					C222.4,383.1,222.8,383.4,223.7,383.8z"/>
				<path fill="#FFFFFF" d="M226.8,382c-0.9,0.5-1.3,0.7-2.1,1.2c-0.9-0.5-1.3-0.7-2.2-1.2c0.9-0.5,1.3-0.7,2.1-1.2
					C225.5,381.3,226,381.5,226.8,382z"/>
				<path fill="#FFFFFF" d="M230,380.2c-0.9,0.5-1.3,0.7-2.1,1.2c-0.9-0.5-1.3-0.7-2.2-1.2c0.9-0.5,1.3-0.7,2.1-1.2
					C228.7,379.5,229.1,379.7,230,380.2z"/>
				<path fill="#FFFFFF" d="M233.2,378.4c-0.9,0.5-1.3,0.7-2.1,1.2c-0.9-0.5-1.3-0.7-2.2-1.2c0.9-0.5,1.3-0.7,2.1-1.2
					C231.9,377.6,232.3,377.9,233.2,378.4z"/>
				<path fill="#FFFFFF" d="M236.4,376.6c-0.9,0.5-1.3,0.7-2.1,1.2c-0.9-0.5-1.3-0.7-2.2-1.2c0.9-0.5,1.3-0.7,2.1-1.2
					C235,375.8,235.5,376.1,236.4,376.6z"/>
				<path fill="#FFFFFF" d="M239.5,374.7c-0.9,0.5-1.3,0.7-2.1,1.2c-0.9-0.5-1.3-0.7-2.2-1.2c0.9-0.5,1.3-0.7,2.1-1.2
					C238.2,374,238.7,374.2,239.5,374.7z"/>
				<path fill="#FFFFFF" d="M242.7,372.9c-0.9,0.5-1.3,0.7-2.1,1.2c-0.9-0.5-1.3-0.7-2.2-1.2c0.9-0.5,1.3-0.7,2.1-1.2
					C241.4,372.2,241.8,372.4,242.7,372.9z"/>
				<path fill="#FFFFFF" d="M210.9,394.7c-0.9,0.5-1.3,0.7-2.1,1.2c-0.9-0.5-1.3-0.7-2.2-1.2c0.9-0.5,1.3-0.7,2.1-1.2
					C209.6,393.9,210,394.2,210.9,394.7z"/>
				<path fill="#FFFFFF" d="M214,392.8c-0.9,0.5-1.3,0.7-2.1,1.2c-0.9-0.5-1.3-0.7-2.2-1.2c0.9-0.5,1.3-0.7,2.1-1.2
					C212.7,392.1,213.2,392.4,214,392.8z"/>
				<path fill="#FFFFFF" d="M217.2,391c-0.9,0.5-1.3,0.7-2.1,1.2c-0.9-0.5-1.3-0.7-2.2-1.2c0.9-0.5,1.3-0.7,2.1-1.2
					C215.9,390.3,216.3,390.5,217.2,391z"/>
				<path fill="#FFFFFF" d="M220.4,389.2c-0.9,0.5-1.3,0.7-2.1,1.2c-0.9-0.5-1.3-0.7-2.2-1.2c0.9-0.5,1.3-0.7,2.1-1.2
					C219.1,388.5,219.5,388.7,220.4,389.2z"/>
				<path fill="#FFFFFF" d="M223.5,387.4c-0.9,0.5-1.3,0.7-2.1,1.2c-0.9-0.5-1.3-0.7-2.2-1.2c0.9-0.5,1.3-0.7,2.1-1.2
					C222.2,386.6,222.7,386.9,223.5,387.4z"/>
				<path fill="#FFFFFF" d="M226.7,385.6c-0.9,0.5-1.3,0.7-2.1,1.2c-0.9-0.5-1.3-0.7-2.2-1.2c0.9-0.5,1.3-0.7,2.1-1.2
					C225.4,384.8,225.8,385.1,226.7,385.6z"/>
				
					<ellipse transform="matrix(2.619179e-03 -1 1 2.619179e-03 -156.6874 610.4504)" fill="#FFFFFF" cx="227.7" cy="383.8" rx="1.2" ry="2.2"/>
				<path fill="#FFFFFF" d="M233.1,381.9c-0.9,0.5-1.3,0.7-2.1,1.2c-0.9-0.5-1.3-0.7-2.2-1.2c0.9-0.5,1.3-0.7,2.1-1.2
					C231.8,381.2,232.2,381.4,233.1,381.9z"/>
				<path fill="#FFFFFF" d="M236.2,380.1c-0.9,0.5-1.3,0.7-2.1,1.2c-0.9-0.5-1.3-0.7-2.2-1.2c0.9-0.5,1.3-0.7,2.1-1.2
					C234.9,379.4,235.4,379.6,236.2,380.1z"/>
				<path fill="#FFFFFF" d="M239.4,378.3c-0.9,0.5-1.3,0.7-2.1,1.2c-0.9-0.5-1.3-0.7-2.2-1.2c0.9-0.5,1.3-0.7,2.1-1.2
					C238.1,377.5,238.5,377.8,239.4,378.3z"/>
				<path fill="#FFFFFF" d="M243.9,375.7c-1.4,0.8-2.1,1.2-3.5,2c-0.9-0.5-1.3-0.7-2.2-1.2c1.4-0.8,2.1-1.2,3.5-2
					C242.6,374.9,243.1,375.2,243.9,375.7z"/>
				<path fill="#FFFFFF" d="M245.7,374.6c-0.9,0.5-1.3,0.7-2.1,1.2c-0.9-0.5-1.3-0.7-2.2-1.2c0.9-0.5,1.3-0.7,2.1-1.2
					C244.4,373.9,244.9,374.2,245.7,374.6z"/>
				<path fill="#FFFFFF" d="M214.3,396.6c-0.9,0.5-1.3,0.7-2.1,1.2c-0.9-0.5-1.3-0.7-2.2-1.2c0.9-0.5,1.3-0.7,2.1-1.2
					C213,395.9,213.5,396.1,214.3,396.6z"/>
				<path fill="#FFFFFF" d="M217.5,394.8c-0.9,0.5-1.3,0.7-2.1,1.2c-0.9-0.5-1.3-0.7-2.2-1.2c0.9-0.5,1.3-0.7,2.1-1.2
					C216.2,394.1,216.6,394.3,217.5,394.8z"/>
				<path fill="#FFFFFF" d="M220.7,393c-0.9,0.5-1.3,0.7-2.1,1.2c-0.9-0.5-1.3-0.7-2.2-1.2c0.9-0.5,1.3-0.7,2.1-1.2
					C219.4,392.3,219.8,392.5,220.7,393z"/>
				<path fill="#FFFFFF" d="M239.7,382.1c-6,3.4-12,6.9-18,10.3c-0.9-0.5-1.3-0.7-2.2-1.2c6-3.4,12-6.9,18-10.3
					C238.4,381.3,238.8,381.6,239.7,382.1z"/>
				<path fill="#FFFFFF" d="M242.9,380.2c-0.9,0.5-1.3,0.7-2.1,1.2c-0.9-0.5-1.3-0.7-2.2-1.2c0.9-0.5,1.3-0.7,2.1-1.2
					C241.6,379.5,242,379.8,242.9,380.2z"/>
				<path fill="#FFFFFF" d="M246,378.4c-0.9,0.5-1.3,0.7-2.1,1.2c-0.9-0.5-1.3-0.7-2.2-1.2c0.9-0.5,1.3-0.7,2.1-1.2
					C244.7,377.7,245.2,377.9,246,378.4z"/>
				<path fill="#FFFFFF" d="M249.2,376.6c-0.9,0.5-1.3,0.7-2.1,1.2c-0.9-0.5-1.3-0.7-2.2-1.2c0.9-0.5,1.3-0.7,2.1-1.2
					C247.9,375.9,248.3,376.1,249.2,376.6z"/>
			</g>
		</g>
		<g>
			<polygon fill="#BEBEBE" points="225,393.3 239.8,384.7 248.2,389.9 233.5,398.5 			"/>
		</g>
	</g>
</g>
</svg>
