<?xml version="1.0" encoding="utf-8"?>
<!-- Generator: Adobe Illustrator 22.1.0, SVG Export Plug-In . SVG Version: 6.00 Build 0)  -->
<svg version="1.1" id="Layer_1" xmlns="http://www.w3.org/2000/svg" xmlns:xlink="http://www.w3.org/1999/xlink" x="0px" y="0px"
	 viewBox="0 0 916.5 620.5" enable-background="new 0 0 916.5 620.5" xml:space="preserve">
<g>
	<linearGradient id="SVGID_1_" gradientUnits="userSpaceOnUse" x1="0" y1="310.2522" x2="916.5026" y2="310.2522">
		<stop  offset="1.153274e-03" style="stop-color:#4786F4"/>
		<stop  offset="0.3297" style="stop-color:#6DA2FC"/>
	</linearGradient>
	<path fill="url(#SVGID_1_)" d="M916.5,517c-51.1-6.7-90.2-23.4-90.2-23.4s-138.6-66.2-155.1-163c-6.7-39.5-3.8-80.2-9-120
		c-9.4-71.5-45.3-139.7-100.8-178.3c-55.5-38.6-130.5-44.2-187.4-8.1c-63.4,40.2-95,121.2-114.2,198.8C240.5,300.7,45.7,514.1,0,517
		l217.3,0c82.6,6.3,140.3,80.9,205.8,100.2C505.9,641.6,659.5,524,702.5,517L916.5,517z"/>
</g>
</svg>
