                        <svg id="landing_safe" data-name="Layer 1" xmlns="http://www.w3.org/2000/svg" xmlns:xlink="http://www.w3.org/1999/xlink" viewBox="0 0 362.33 232.79"><defs><linearGradient id="linear-gradient" x1="-6827.66" y1="301.9" x2="-6827.23" y2="305.27" gradientTransform="matrix(-1, 0, 0, 1, -6609.11, -115.82)" gradientUnits="userSpaceOnUse"><stop offset="0" stop-color="#ee9224"/><stop offset="1" stop-color="#fcb850"/></linearGradient><linearGradient id="linear-gradient-2" x1="-6817.83" y1="301.46" x2="-6817.31" y2="305.53" xlink:href="#linear-gradient"/><linearGradient id="linear-gradient-3" x1="799.12" y1="262.38" x2="799.47" y2="252.97" gradientUnits="userSpaceOnUse"><stop offset="0" stop-color="#3178dd"/><stop offset="1" stop-color="#18539b"/></linearGradient><linearGradient id="linear-gradient-4" x1="809.71" y1="263.56" x2="809.51" y2="252.53" xlink:href="#linear-gradient-3"/><linearGradient id="linear-gradient-5" x1="-6822.04" y1="211.14" x2="-6823.78" y2="214.65" gradientTransform="matrix(1, 0, 0, -1, 7627.54, 426.4)" xlink:href="#linear-gradient"/><linearGradient id="linear-gradient-6" x1="-6839.9" y1="224.66" x2="-6839.9" y2="224.66" gradientTransform="matrix(-1, 0, 0, 1, -6018.59, 0)" xlink:href="#linear-gradient"/><linearGradient id="linear-gradient-7" x1="819.84" y1="228.57" x2="809.15" y2="235.35" gradientUnits="userSpaceOnUse"><stop offset="0" stop-color="#365989"/><stop offset="1" stop-color="#2c4f78"/></linearGradient><linearGradient id="linear-gradient-8" x1="-6832.18" y1="233.25" x2="-6834.36" y2="233.1" xlink:href="#linear-gradient"/><linearGradient id="linear-gradient-9" x1="797.75" y1="224.91" x2="801.36" y2="237.3" xlink:href="#linear-gradient-7"/><linearGradient id="linear-gradient-10" x1="-6817.65" y1="229.76" x2="-6810.98" y2="229.76" gradientTransform="matrix(-1, 0, 0, 1, -6018.59, 0)" xlink:href="#linear-gradient"/><linearGradient id="linear-gradient-11" x1="210.72" y1="113.77" x2="210.95" y2="116.18" xlink:href="#linear-gradient-7"/></defs><title>landing-safe</title><path d="M690.38,218.16c-17.33-1-34.93-1.91-52,.47S604.7,227.21,596,237.52s-7.23,25,6.18,32.6c7.59,4.3,17.63,5.84,27.27,7.17S649.12,280,657,284s.31,11.57-3.83,17.69c-3,4.47-10,7.09-13.81,11.27-6.26,6.87-2.07,16.44,6.57,22s20.56,7.87,32.14,9.5c43.51,6.11,88.51,4.65,132.67,1.4s90.86-.25,123.92-20.66c11.38-7,21.29-17.32,17.22-27.44-3.72-9.26-17.86-14.73-31.51-16.87s-28-10.84-41.31-13.92c-9-2.09-18.05-6.43-19.5-12.87-1.26-5.58,3.55-11,3.56-16.65,0-7.58-8.89-14.07-19.11-16.93s-21.61-2.84-32.65-2.78c-58.79.31-104.92.62-163.7.94" transform="translate(-590.52 -115.82)" fill="#f5f5f6"/><polygon points="49.3 136.65 35.59 110.98 55.83 110.07 49.3 136.65" fill="#dfdfe5"/><path d="M639.82,252.46,810,233.71a1.29,1.29,0,0,0,1.38-1.16V117a1.28,1.28,0,0,0-1.38-1.15H757.78A1.27,1.27,0,0,0,756.4,117l0,7.93a1.29,1.29,0,0,1-1.39,1.16H634.34a1.29,1.29,0,0,0-1.38,1.16l2.77,116.09C635.73,244,639.05,252.46,639.82,252.46Z" transform="translate(-590.52 -115.82)" fill="#18539b"/><polygon points="65.29 137.8 199.92 137.8 199.92 12.1 65.29 2.89 65.29 137.8" fill="#f1f1f2"/><path d="M639.82,136.88V252.46a1.27,1.27,0,0,0,1.36,1.16h173a1.27,1.27,0,0,0,1.36-1.16V147.14a1.27,1.27,0,0,0-1.36-1.16H695.32a1.26,1.26,0,0,1-1.36-1.16l0-7.93a1.26,1.26,0,0,0-1.36-1.16H641.18A1.26,1.26,0,0,0,639.82,136.88Z" transform="translate(-590.52 -115.82)" fill="#3178dd"/><path d="M652.1,253.62" transform="translate(-590.52 -115.82)" fill="#e5e5e4"/><polyline points="220.7 175.05 207.6 155.92 220.7 155.74 233.28 175.51" fill="#dfdfe5"/><polyline points="98.59 171.95 85.49 152.82 165.1 152.65 179.23 174.84" fill="#dfdfe5"/><path d="M889.39,291.32l-78.63-.82-10.33-51.41a20.2,20.2,0,0,0-9.58-38h-.23a20.2,20.2,0,0,0-9.26,38l-9.19,51.37H694.28v-129H889.39Z" transform="translate(-590.52 -115.82)" fill="#fbb22f"/><polygon points="103.99 174.89 98.79 171.8 98.76 42.55 103.99 45.83 103.99 174.89" fill="#ee9224"/><path d="M804.29,238.92l10,51.79H811l-10.33-51.42a20.2,20.2,0,0,0-9.58-38h-.23a20.43,20.43,0,0,1,3.85-.36,20.2,20.2,0,0,1,9.59,38Z" transform="translate(-590.52 -115.82)" fill="#ee9224" opacity="0.71"/><polygon points="98.76 42.7 103.99 45.98 299.11 45.98 292.54 42.7 98.76 42.7" fill="#d6841f"/><path d="M816.07,297.72c1.29,1.87,2.6,3.82,1.86,6.09s-4.06,5-9,6.34a23.42,23.42,0,0,1-11.36.25,11.24,11.24,0,0,1-5.86-3.67c-4.28-4.94-4.76-10.91-5.21-16.79-.12-1.67.18-3.76,3.65-5.18a16,16,0,0,1,7.89-.88,11.07,11.07,0,0,1,4.86,2.06c6.24,4.31,12.15,6,13.22,11.78" transform="translate(-590.52 -115.82)" fill="#dfdfe5"/><rect x="217.16" y="186.52" width="2.31" height="2.84" fill="url(#linear-gradient)"/><rect x="207.28" y="186.14" width="2.31" height="3.51" fill="url(#linear-gradient-2)"/><rect x="806.28" y="307.02" width="9.5" height="0.73" rx="0.37" ry="0.37" transform="translate(1031.53 498.96) rotate(180)" fill="#365989"/><path d="M810.52,304.18s.17.55,1.19,1c.34.15,1.62.38,1.94.55.84.45,1.76.74,1.93,1.28h-9.19a5.41,5.41,0,0,1,.92-2.84s.41-.36.56,0l.27.65a1,1,0,0,0,1.32,0,2.75,2.75,0,0,1,.23-.63C810,303.57,810.52,304.18,810.52,304.18Z" transform="translate(-590.52 -115.82)" fill="#12355a"/><path d="M794.36,252.2a154.11,154.11,0,0,1,2.48,50.36h3.82s6.34-26.35.91-49.81" transform="translate(-590.52 -115.82)" fill="url(#linear-gradient-3)"/><path d="M805,252.2a172.88,172.88,0,0,1,1.5,50.36h4.8s6.34-26.35.91-49.81" transform="translate(-590.52 -115.82)" fill="url(#linear-gradient-4)"/><rect x="802.51" y="211.24" width="3.92" height="3.92" transform="translate(1018.43 310.58) rotate(-180)" fill="url(#linear-gradient-5)"/><path d="M809.09,204.54l-.58,5.91a3.72,3.72,0,0,1-2.23,2.08s-1.63,1.07-4.17-.94c0,0-.55-.23-.55-1.66V208s-.64.16-.83-.84a1.82,1.82,0,0,1,.07-.84.79.79,0,0,1,.92-.41l1.53-3.42h2.14Z" transform="translate(-590.52 -115.82)" fill="#fcb850"/><path d="M801.24,207.2a10.93,10.93,0,0,1,.1-3.11c.3-1.26.87-3.12,3.34-3.12a4.6,4.6,0,0,1,3.83,1.49s2.61,2.46,2.11,2.75c-2.59,1.54-3.17,1.06-4.62,0l-2.17-2.42S802.54,207.2,801.24,207.2Z" transform="translate(-590.52 -115.82)" fill="#0d3f72"/><path d="M821.31,224.66" transform="translate(-590.52 -115.82)" fill="url(#linear-gradient-6)"/><path d="M813.06,215.66c-3.37-1.2-6.72-.83-10.21-.83a19.4,19.4,0,0,0-6.85,1.49s-6.71,25.8-4.74,37.5h24.51c.57-1.87-.06-7.15.14-12.77,0-.39,0-.77,0-1.16.26-8,.26-16.27.26-16.27l.83-5S814.48,216.17,813.06,215.66Z" transform="translate(-590.52 -115.82)" fill="#365989"/><path d="M815.77,217.53l1.27,1.06,8.07,13.94s1.33,5.64-1.54,7.3c0,0-4.09,1.6-5.87,1.13l-11.57-3.82,6.82-2h2.82l-2-10.52" transform="translate(-590.52 -115.82)" fill="url(#linear-gradient-7)"/><polygon points="224.57 115.85 225.15 118.84 223.66 118.84 222.97 115.9 224.57 115.85" fill="url(#linear-gradient-8)"/><path d="M799.37,215.25s-6.78,2-8,3.73l-4.48,12.77s-.92,4.07,1.74,6.31l2.14,2.65s1.59.92,5.66-.74c0,0,15.87-4.79,17.8-4.9l-.79-3.36-.09-.4s-17.61.33-18.87.89l2.76-7.54" transform="translate(-590.52 -115.82)" fill="url(#linear-gradient-9)"/><path d="M798.85,229.94a4.08,4.08,0,0,0-2.63-2,3.54,3.54,0,0,0-3,.82,1.86,1.86,0,0,0-.71,1.93,1.15,1.15,0,0,0,1.12.69,6,6,0,0,0,1.3-.28,3.55,3.55,0,0,1,3.27.63c.25-.47.65-.73.9-1.21Z" transform="translate(-590.52 -115.82)" fill="url(#linear-gradient-10)"/><polygon points="215.61 115.67 208.4 113.72 206.24 116.09 215.61 115.67" fill="url(#linear-gradient-11)"/><path d="M800.64,304.18a13.37,13.37,0,0,1,1.18,1c.1.09,2,2.07,1.62,2.07-1.51,0-6.93-.24-6.93-.24a5.41,5.41,0,0,1,.92-2.84h0C798.26,303.76,800.64,304.18,800.64,304.18Z" transform="translate(-590.52 -115.82)" fill="#12355a"/><rect x="796.39" y="307.02" width="7.37" height="0.73" rx="0.37" ry="0.37" transform="translate(1009.64 498.96) rotate(180)" fill="#365989"/><ellipse cx="210.98" cy="90.93" rx="0.79" ry="0.93" fill="#fcb850"/></svg>
