        <svg id="landing_guy" data-name="Layer 1" xmlns="http://www.w3.org/2000/svg" xmlns:xlink="http://www.w3.org/1999/xlink" viewBox="0 0 487.76 316.26"><defs><linearGradient id="linear-gradient" x1="837.35" y1="349.7" x2="837.44" y2="390.42" gradientUnits="userSpaceOnUse"><stop offset="0" stop-color="#12355a"/><stop offset="1" stop-color="#18539b"/></linearGradient><linearGradient id="linear-gradient-2" x1="562.27" y1="352.59" x2="562.36" y2="393.31" xlink:href="#linear-gradient"/><linearGradient id="linear-gradient-3" x1="7696.15" y1="339.59" x2="7694.96" y2="349" gradientTransform="translate(-7455.3 -323.11) rotate(1.67)" gradientUnits="userSpaceOnUse"><stop offset="0" stop-color="#ee9224"/><stop offset="1" stop-color="#fcb850"/></linearGradient><linearGradient id="linear-gradient-4" x1="7486.14" y1="258.53" x2="7511.54" y2="258.53" gradientTransform="translate(-6896.86)" xlink:href="#linear-gradient-3"/><linearGradient id="linear-gradient-5" x1="7586.24" y1="467.15" x2="7584.75" y2="478.85" gradientTransform="translate(-7335.58 -225.51)" xlink:href="#linear-gradient-3"/><clipPath id="clip-path" transform="translate(-438.72 -225.51)"><polyline id="_Clipping_Path_" data-name="&lt;Clipping Path&gt;" points="600.06 369.32 602.23 312.28 643.02 314.14 641.53 334.4 642.67 369.17" style="fill:#18539b"/></clipPath><linearGradient id="linear-gradient-6" x1="2551.27" y1="-3722.54" x2="2518.45" y2="-3728.02" gradientTransform="matrix(0.88, 0.63, -0.78, 1.09, -4484.65, 2812.98)" gradientUnits="userSpaceOnUse"><stop offset="0" stop-color="#12355a"/><stop offset="0.5" stop-color="#15447a"/><stop offset="1" stop-color="#18539b"/></linearGradient><linearGradient id="linear-gradient-7" x1="7614.36" y1="343.71" x2="7636.94" y2="343.71" gradientTransform="translate(-6896.86)" xlink:href="#linear-gradient-3"/><linearGradient id="linear-gradient-8" x1="763.55" y1="352.15" x2="763.64" y2="392.86" xlink:href="#linear-gradient"/></defs><title>landing-guy</title><path d="M810.5,473.34q43.07-1.54,86.19-.75c10.42.19,22.67,1.29,27.82,8.21,4.9,6.6.07,15.43-8,19.87s-18.36,5.59-28.22,6.51a1616.35,1616.35,0,0,1-187.57,6.58c-20.36-.46-42.65-.87-58.69,8.71-6.33,3.77-11.17,8.87-17.66,12.48-14,7.78-32.86,7.42-50.06,6A642.86,642.86,0,0,1,461,521.79c-6.24-1.65-12.66-3.5-17.25-7.12s-6.81-9.5-3.37-13.79c6.05-7.53,23.06-4.79,30.15-11.77,6.53-6.44,0-16.05,3.07-23.84,4.19-10.59,22.44-12.5,36.93-12.42l226.83,1.25c57.5.31,126.41,5.18,179.8,21.48" transform="translate(-438.72 -225.51)" style="fill:#4f94f7"/><path d="M838.29,491h0a3.18,3.18,0,0,0,3.19-3.18l.86-136.63c0-1.76-2.29-3.16-4.05-3.16h0c-1.75,0-5.93.95-5.93,2.71l2.75,137.08A3.18,3.18,0,0,0,838.29,491Z" transform="translate(-438.72 -225.51)" style="fill:url(#linear-gradient)"/><path d="M563.22,493.9h0a3.18,3.18,0,0,0,3.18-3.18l.86-136.63c0-1.76-2.29-3.16-4-3.16h0c-1.76,0-5.94.95-5.94,2.71L560,490.72A3.18,3.18,0,0,0,563.22,493.9Z" transform="translate(-438.72 -225.51)" style="fill:url(#linear-gradient-2)"/><polygon points="223.34 241.14 222.95 254.42 229.71 255.29 231.16 241.37 223.34 241.14" style="fill:url(#linear-gradient-3)"/><path d="M687.6,487.65a1.09,1.09,0,0,0,1.14-1.09,6.83,6.83,0,0,0-4.34-6.13,18.77,18.77,0,0,0-5.31-.42c-1.78,0-3.71-.4-4.89-1.71a19.3,19.3,0,0,1-1.41-2.25,2.41,2.41,0,0,0-4.52.2c-.63,1.1-.95,2.38-2,3.19a2,2,0,0,1-1.77.37c-1-.31-1.24-1.35-1.47-2.26s-.54-1.63-1.32-1.86a2,2,0,0,0-1.83.62,5.47,5.47,0,0,0-1.55,4.53c.11,1.25.31,4.07.4,5.34a.69.69,0,0,0,.7.65l18.67.54Z" transform="translate(-438.72 -225.51)" style="fill:#165089"/><polygon points="215.03 165.76 236.46 166.1 234.19 244.12 221.89 244.38 215.03 165.76" style="fill:#0b3a60"/><rect x="104.32" y="122.14" width="317.02" height="5.8" style="fill:#0d3f72"/><path d="M622,237.74a17.83,17.83,0,0,1,1.43,9.5,3.55,3.55,0,0,0,.58,3l2.87,4.89s1.18,1.32,0,1.82c0,0-2.87.84-1.63,2.3l.63,1.1a.8.8,0,0,1-.24,1.08s-1.21.62-.54,1.48l.54.51s.61,1.12-.41,1.57c0,0-1.1,1.91-.82,3.06,0,0,1.68,3.62-2.18,4.24l-6.23,1s-6.35,1.49-7.07,10.81c0,0-7.52-4-19.65-4.6,0,0,4-9,2.13-14.73l2.9-21L607.9,233l13.16,3.45Z" transform="translate(-438.72 -225.51)" style="fill:url(#linear-gradient-4)"/><polygon points="246.25 243.17 243.7 258.38 252.49 259.2 255.43 242.11 246.25 243.17" style="fill:url(#linear-gradient-5)"/><path d="M606.78,261.64s-2.07,6.91-16.59,5.15c-.39-.05-.53-.08-.61-1.61a31.11,31.11,0,0,0-2.8-11.66s-3.75-10.07,1.66-18.64a19.72,19.72,0,0,1,13.68-9.32,32.51,32.51,0,0,1,11.72,1.51c3.68,1.21,6.83,3.56,8.84,4.9,2.71,1.81,2.89,3.61,2.53,4.85a1.54,1.54,0,0,1-2.15.93c-1.75-.84-5.1-2.05-8.46-.93s-3.91,5-3.91,5-1.06,4.66.75,7.82a4.25,4.25,0,0,1-1.06,5.41s-.6-3.61-2.85-3.46-3.6,1.65-2.78,4.06Z" transform="translate(-438.72 -225.51)" style="fill:#0d3f72"/><rect x="219.81" y="22.69" width="113.99" height="80.82" rx="6.2" ry="6.2" style="fill:#3178dd"/><polygon points="284.33 119.04 270.32 119.04 267.04 100.63 281.05 100.63 284.33 119.04" style="fill:#dedee0"/><rect x="216.29" y="22.69" width="113.99" height="80.82" rx="6.91" ry="6.91" style="fill:#ededee"/><rect id="_Rectangle_" data-name="&lt;Rectangle&gt;" x="222.45" y="29.34" width="101.68" height="65.43" rx="4.72" ry="4.72" style="fill:#fff"/><polyline id="_Clipping_Path_2" data-name="&lt;Clipping Path&gt;" points="161.33 143.81 163.5 86.77 204.3 88.64 202.81 108.89 203.95 143.66" style="fill:#18539b"/><g style="clip-path:url(#clip-path)"><path d="M627.41,318.74l-11.58,4.65c-4,2.94,0,12.51-.43,17.31L614,355.85a12,12,0,0,0,2.87,9.39h0c3.87,4.15,20.73,11,26.19,6.87l1.25-15.35c4.81-3.6,7.6-9.62,7-15.13l-1.36-12.89C649,319.53,635.51,312.84,627.41,318.74Z" transform="translate(-438.72 -225.51)" style="fill:url(#linear-gradient-6)"/></g><path d="M644.69,366.32s35.06-.95,61.07,4.68c30.23,6.54-10.57,99.59-10.57,99.59l-14.89-.94,10.27-72.34-90.42-2.58.64-25.41" transform="translate(-438.72 -225.51)" style="fill:#0d3f72"/><path d="M713.12,492.41a1.33,1.33,0,0,0,1.32-1.38c-.15-3.16-2.41-6.45-5.37-7.35-2-.61-4.2-.33-6.32-.32s-4.43-.35-5.87-1.92a20.57,20.57,0,0,1-1.75-2.71,2.85,2.85,0,0,0-5.38.41c-.7,1.37-1,2.95-2.29,4a2.32,2.32,0,0,1-2.09.52c-1.23-.34-1.52-1.61-1.82-2.72-.26-.93-.71-2-1.64-2.22a2.36,2.36,0,0,0-2.16.82,6.89,6.89,0,0,0-1.68,5.6c.18,1.53.51,5,.66,6.52a.85.85,0,0,0,.86.77Z" transform="translate(-438.72 -225.51)" style="fill:#18539b"/><path d="M619.25,283.62,595,278.08c-20.79-4.68-20.79,33.09-20.79,33.09L626,327c8,2,25.83-6.92,15.83-28.61C636.58,287,619.25,283.62,619.25,283.62Z" transform="translate(-438.72 -225.51)" style="fill:#18539b"/><g id="arm"><path d="M718.51,340.55a69.26,69.26,0,0,1,8.64-.63c4.29,0,4.79.13,7.88,1.33a9,9,0,0,1,5.05,6.24H717.5Z" transform="translate(-438.72 -225.51)" style="fill:url(#linear-gradient-7)"/><polygon points="282.83 121.98 280.69 121.98 280.69 114.1 282.83 114.43 282.83 121.98" style="fill:#fff"/><path d="M718.55,339.13,694,333.79c-8.32-1.94-29.65-4.16-29.65-4.16a30,30,0,0,1-5.62-1.22l-16.42-28.73c-5.5-13.87-28.8-15.72-29-16.14C611,290,605,297,607.17,307.8l23.45,7.84,2.77,8.08c9.14,27.43,30.72,23.92,30.72,23.92h55.14C721.34,342.28,718.55,339.13,718.55,339.13Z" transform="translate(-438.72 -225.51)" style="fill:#18539b"/></g><rect x="172.5" y="172.63" width="63.51" height="4.53" rx="2.27" ry="2.27" style="fill:#f4c882"/><rect x="130.72" y="172.63" width="67.07" height="4.53" rx="2.27" ry="2.27" style="fill:#fbb22f"/><path d="M619.39,441.71h-2.95c-2,0-3.64-2-3.64-4.48V402.68h10.46V437C623.26,439.58,621.53,441.71,619.39,441.71Z" transform="translate(-438.72 -225.51)" style="fill:#0d3f72"/><ellipse cx="213.09" cy="268.01" rx="3.36" ry="3.1" style="fill:#0d3f72"/><path d="M650.58,496.39a3,3,0,0,1,0-5.75,3.91,3.91,0,0,0,0,5.75Z" transform="translate(-438.72 -225.51)" style="fill:#18539b"/><path d="M652.87,496.39a3,3,0,0,0,0-5.75,3.91,3.91,0,0,1,0,5.75Z" transform="translate(-438.72 -225.51)" style="fill:#093356"/><path d="M618.05,484.84l33.84,5.71a2.16,2.16,0,0,0,2.07-2.23,2.34,2.34,0,0,0-2.07-2.23l-32.49-6.43s-3.42,1.73-3.42,2.95h0A2.16,2.16,0,0,0,618.05,484.84Z" transform="translate(-438.72 -225.51)" style="fill:#0a385e"/><path d="M579.37,393.08a1.33,1.33,0,0,1-1.28-1.68c5.21-20.1-5.84-37.32-5.84-37.32-13.31-19.05-14.43-46.64-14.5-53a1.33,1.33,0,0,1,1.33-1.34h60.74a1.33,1.33,0,0,1,1.33,1.31c.07,6.31,1.16,34,14.5,53,0,0,11.31,17.63,5.64,38a1.32,1.32,0,0,1-1.28,1Z" transform="translate(-438.72 -225.51)" style="fill:#f4c882"/><path d="M575,393.08a1.33,1.33,0,0,1-1.28-1.68c5.22-20.1-5.83-37.32-5.83-37.32-13.32-19.05-14.43-46.64-14.51-53a1.33,1.33,0,0,1,1.33-1.34h60.74a1.33,1.33,0,0,1,1.33,1.31c.07,6.31,1.16,34,14.5,53,0,0,11.31,17.63,5.64,38a1.32,1.32,0,0,1-1.28,1Z" transform="translate(-438.72 -225.51)" style="fill:#fbb22f"/><path d="M600.47,400.39h-2.41c-1.64,0-3-2-3-4.48V385.17h8.53v10.46C603.62,398.26,602.21,400.39,600.47,400.39Z" transform="translate(-438.72 -225.51)" style="fill:#0d3f72"/><path d="M597.26,393.75c0-3.18-.11-8.58-.11-8.58h-1.47v8.58s-.34,6.14,2.92,5.73C598.6,399.48,597.2,397.66,597.26,393.75Z" transform="translate(-438.72 -225.51)" style="fill:#18539b"/><path d="M600.47,373.27h-2.41c-1.64,0-3,2-3,4.47v10.75h8.53V378C603.62,375.4,602.21,373.27,600.47,373.27Z" transform="translate(-438.72 -225.51)" style="fill:#0d3f72"/><path d="M597.26,379.91c0,3.17-.11,8.58-.11,8.58h-1.47v-8.58s-.34-6.14,2.92-5.74C598.6,374.17,597.2,376,597.26,379.91Z" transform="translate(-438.72 -225.51)" style="fill:#18539b"/><ellipse cx="201.15" cy="272.37" rx="3.98" ry="3.45" style="fill:#0d3f72"/><path d="M641.33,501.08a3.3,3.3,0,0,0,0-6.41,4.19,4.19,0,0,1,0,6.41Z" transform="translate(-438.72 -225.51)" style="fill:#18539b"/><path d="M638.61,501.08a3.3,3.3,0,0,1,0-6.41,4.19,4.19,0,0,0,0,6.41Z" transform="translate(-438.72 -225.51)" style="fill:#093356"/><ellipse cx="146.39" cy="269.01" rx="3.64" ry="3.36" style="fill:#0d3f72"/><path d="M586.45,497.63a3.27,3.27,0,0,0,0-6.24,4.24,4.24,0,0,1,0,6.24Z" transform="translate(-438.72 -225.51)" style="fill:#18539b"/><path d="M584,497.63a3.26,3.26,0,0,1,0-6.24,4.24,4.24,0,0,0,0,6.24Z" transform="translate(-438.72 -225.51)" style="fill:#093356"/><path d="M620.21,480.78h-3a1.31,1.31,0,0,1-1.25-1.36l.13-40a1.31,1.31,0,0,1,1.25-1.35h2.84a1.31,1.31,0,0,1,1.25,1.36v40A1.3,1.3,0,0,1,620.21,480.78Z" transform="translate(-438.72 -225.51)" style="fill:#0d3f72"/><rect x="178.42" y="216.58" width="1.3" height="36.85" rx="0.65" ry="0.65" style="fill:#18539b"/><ellipse cx="167.9" cy="263.3" rx="3.64" ry="3.36" style="fill:#0d3f72"/><path d="M608,491.92a3.26,3.26,0,0,0,0-6.23,4.23,4.23,0,0,1,0,6.23Z" transform="translate(-438.72 -225.51)" style="fill:#18539b"/><path d="M605.47,491.92a3.26,3.26,0,0,1,0-6.23,4.23,4.23,0,0,0,0,6.23Z" transform="translate(-438.72 -225.51)" style="fill:#093356"/><path d="M618.44,484.91l-33.69,6.38a2.17,2.17,0,0,1-2.07-2.23,2.36,2.36,0,0,1,2.07-2.24l34-7.16" transform="translate(-438.72 -225.51)" style="fill:#0a385e"/><path d="M618.73,479.66l22.2,9.34a3.22,3.22,0,0,1,1.62,4.24h0a3.22,3.22,0,0,1-4.24,1.62L618.73,485" transform="translate(-438.72 -225.51)" style="fill:#0d3f72"/><path d="M615.46,435.06c.06-3.17-.13-32.38-.13-32.38h-1.8v32.38s-.42,6.14,3.58,5.74C617.11,440.8,615.39,439,615.46,435.06Z" transform="translate(-438.72 -225.51)" style="fill:#18539b"/><path d="M764.5,493.46h0a3.18,3.18,0,0,0,3.18-3.19l.86-136.62c0-1.76-2.28-3.16-4-3.16h0c-1.76,0-5.94.94-5.94,2.7l2.76,137.08A3.18,3.18,0,0,0,764.5,493.46Z" transform="translate(-438.72 -225.51)" style="fill:url(#linear-gradient-8)"/><rect x="311.81" y="122.15" width="109.53" height="5.8" style="fill:#1856a0"/><path d="M732,295.21H694.48a.28.28,0,0,1-.29-.26V268.73a.28.28,0,0,1,.29-.26h11.17a.28.28,0,0,1,.29.26v1.8a.28.28,0,0,0,.3.27H732a.28.28,0,0,1,.3.26V295A.28.28,0,0,1,732,295.21Z" transform="translate(-438.72 -225.51)" style="fill:#ee9224"/><polygon points="291.1 74.22 260.27 74.22 260.27 45.71 291.1 43.62 291.1 74.22" style="fill:#ededee"/><path d="M693.56,299.73h39.62a.29.29,0,0,0,.31-.26V273.25a.28.28,0,0,0-.31-.26H721.39a.28.28,0,0,0-.31.26v1.8a.29.29,0,0,1-.31.26H693.56a.29.29,0,0,0-.31.26v23.9A.29.29,0,0,0,693.56,299.73Z" transform="translate(-438.72 -225.51)" style="fill:#fbb22f"/></svg>
