<?xml version="1.0" encoding="utf-8"?>
<!-- Generator: Adobe Illustrator 22.1.0, SVG Export Plug-In . SVG Version: 6.00 Build 0)  -->
<svg version="1.1" id="landing_new" xmlns="http://www.w3.org/2000/svg" xmlns:xlink="http://www.w3.org/1999/xlink" x="0px" y="0px"
	 viewBox="0 0 652.6 483.9" enable-background="new 0 0 652.6 483.9" xml:space="preserve">
<g>
	<path fill="none" stroke="#F3F8FF" stroke-width="1.2783" stroke-miterlimit="10" d="M127.8,246.5l32.2-18.4
		c8.1-4.6,18-4.6,26.1,0.1l328.8,190.6"/>
	<path fill="none" stroke="#F3F8FF" stroke-width="1.2783" stroke-miterlimit="10" d="M186.9,228.9l39-22.7c3.3-1.9,5.4-5.5,5.4-9.4
		v-71c0-3.7,1.9-7.1,5-9.1l0.1,0"/>
	<line fill="none" stroke="#F3F8FF" stroke-width="1.2783" stroke-miterlimit="10" x1="242.8" y1="329.6" x2="301.9" y2="295.4"/>
	<path fill="none" stroke="#F3F8FF" stroke-width="1.2783" stroke-miterlimit="10" d="M318.1,304.2l38.5-22.3
		c3.3-1.9,5.4-5.5,5.4-9.4v-94.4c0-3.5,1.7-6.8,4.6-8.9h0"/>
	<line fill="none" stroke="#F3F8FF" stroke-width="1.2783" stroke-miterlimit="10" x1="380.9" y1="396.1" x2="428" y2="368.4"/>
	<path fill="none" stroke="#F3F8FF" stroke-width="1.2783" stroke-miterlimit="10" d="M436.3,373l38.6-22.8c3.3-1.9,5.3-5.4,5.3-9.2
		l0.4-36.5c0-3.4,1.7-6.6,4.5-8.7l0.7-0.5"/>
</g>
<g>
	<path opacity="0.5" fill="#E8F0F9" d="M228.1,162.8c-10.1-3.9-21.4-3.7-28.6,0.7c-11.3,6.8-11.1,22.2-2,34.4
		c9.1,12.2,25.3,21.1,41.3,25.4c16.1,4.3,32.1,4.5,47.4,3.6c15.7-0.9,33.1-4.4,36-16.5c2.2-9.3-5.1-20.1-12.1-29.7
		c-1.6-2.1-3.1-4.3-5.3-6.1c-2.7-2.3-6.2-3.9-9.6-5.4c-11.9-5.2-24.2-9.9-36.6-11.7c-12.4-1.8-24.9-0.4-32.8,5.5"/>
</g>
<g id="server_2_">
	<polygon fill="#044982" points="290.6,171.4 290.7,197.4 262.3,213.2 262.8,187.3 	"/>
	
		<linearGradient id="SVGID_1_" gradientUnits="userSpaceOnUse" x1="240.7404" y1="182.0409" x2="236.0696" y2="197.3472" gradientTransform="matrix(1 -4.271178e-03 4.271178e-03 1 -4.3156 -1.7026)">
		<stop  offset="1.153274e-03" style="stop-color:#044982"/>
		<stop  offset="0.5062" style="stop-color:#044E91"/>
		<stop  offset="1" style="stop-color:#0452A0"/>
	</linearGradient>
	<polygon fill="url(#SVGID_1_)" points="209.1,182.2 262.5,213.1 262.8,187.2 208.9,155.5 	"/>
	<path fill="#114B7C" d="M266.4,94.1"/>
	<polygon fill="#3D83FA" points="293.9,52.9 294,177.4 264.6,193.9 265.8,68.9 	"/>
	<polygon fill="#0452A0" points="293.9,52.9 235.9,18.3 206.7,34.1 265.8,68.9 	"/>
	<polygon fill="#246EF0" points="206.8,160.2 264.9,193.9 265.8,68.9 206.7,34.1 	"/>
	<g>
		<defs>
			<path id="XMLID_6_" d="M254.4,77.9l-38-21.3c-0.4-0.2-0.7-0.7-0.7-1.2v-0.1c0-1.1,1.1-1.7,2.1-1.2l38,21.3
				c0.4,0.2,0.7,0.7,0.7,1.2v0.1C256.4,77.7,255.3,78.4,254.4,77.9z"/>
		</defs>
		<use xlink:href="#XMLID_6_"  overflow="visible" fill="#0452A0"/>
		<clipPath id="XMLID_8_">
			<use xlink:href="#XMLID_6_"  overflow="visible"/>
		</clipPath>
		<polygon clip-path="url(#XMLID_8_)" fill="#12355A" points="214,57.1 220.6,53.9 222.2,53.9 214,53.9 		"/>
	</g>
	<g>
		<defs>
			<path id="XMLID_2_" d="M253.5,87.2l-37.5-21c-0.4-0.2-0.7-0.7-0.7-1.2v-0.1c0-1,1.1-1.7,2-1.2l37.5,21c0.4,0.2,0.7,0.7,0.7,1.2
				V86C255.5,87.1,254.4,87.7,253.5,87.2z"/>
		</defs>
		<use xlink:href="#XMLID_2_"  overflow="visible" fill="#0452A0"/>
		<clipPath id="XMLID_9_">
			<use xlink:href="#XMLID_2_"  overflow="visible"/>
		</clipPath>
		<polygon clip-path="url(#XMLID_9_)" fill="#12355A" points="213.6,66.8 220.1,63.6 221.7,63.6 213.6,63.6 		"/>
	</g>
	<polygon fill="#0452A0" points="249.1,99.4 254.6,102.6 254.6,96.3 249.1,93.2 	"/>
	<polygon fill="#0452A0" points="240.5,94.8 246,97.9 246,91.6 240.5,88.5 	"/>
	<polygon fill="#0452A0" points="232.3,90.1 237.7,93.2 237.7,87 232.3,83.8 	"/>
	<polygon fill="#FBB22F" points="223.7,85.4 229.1,88.5 229.1,82.3 223.7,79.2 	"/>
	<polygon fill="#0452A0" points="215.3,80.7 220.7,83.8 220.7,77.6 215.3,74.5 	"/>
	<polygon fill="#0452A0" points="249.1,110.7 254.6,113.8 254.6,107.5 249.1,104.4 	"/>
	<polygon fill="#0452A0" points="240.5,106 246,109.1 246,102.9 240.5,99.7 	"/>
	<polygon fill="#0452A0" points="232.3,101.3 237.7,104.4 237.7,98.2 232.3,95.1 	"/>
	<polygon fill="#0452A0" points="223.7,96.6 229.1,99.7 229.1,93.5 223.7,90.4 	"/>
	<polygon fill="#0452A0" points="215.3,91.9 220.7,95.1 220.7,88.8 215.3,85.7 	"/>
	<polygon fill="#FBB22F" points="249.2,122.8 254.7,126 254.7,119.7 249.2,116.6 	"/>
	<polygon fill="#0452A0" points="240.6,118.2 246.1,121.3 246.1,115 240.6,111.9 	"/>
	<polygon fill="#0452A0" points="232.3,113.5 237.8,116.6 237.8,110.4 232.3,107.2 	"/>
	<polygon fill="#0452A0" points="223.8,108.8 229.2,111.9 229.2,105.7 223.8,102.6 	"/>
	<polygon fill="#0452A0" points="215.3,104.1 220.8,107.2 220.8,101 215.3,97.9 	"/>
	<polygon fill="#0452A0" points="249.2,134.1 254.7,137.2 254.7,130.9 249.2,127.8 	"/>
	<polygon fill="#0452A0" points="240.6,129.4 246.1,132.5 246.1,126.3 240.6,123.1 	"/>
	<polygon fill="#0452A0" points="232.3,124.7 237.8,127.8 237.8,121.6 232.3,118.5 	"/>
	<polygon fill="#0452A0" points="223.8,120 229.2,123.1 229.2,116.9 223.8,113.8 	"/>
	<polygon fill="#0452A0" points="215.3,115.3 220.8,118.5 220.8,112.2 215.3,109.1 	"/>
	<polygon fill="#0452A0" points="249,145.3 254.5,148.4 254.5,142.2 249,139.1 	"/>
	<polygon fill="#0452A0" points="240.5,140.6 245.9,143.7 245.9,137.5 240.5,134.4 	"/>
	<polygon fill="#0452A0" points="232.2,135.9 237.6,139.1 237.6,132.8 232.2,129.7 	"/>
	<polygon fill="#FBB22F" points="223.6,131.3 229.1,134.4 229.1,128.1 223.6,125 	"/>
	<polygon fill="#0452A0" points="215.2,126.6 220.6,129.7 220.6,123.5 215.2,120.3 	"/>
	<polygon fill="#0452A0" points="249,156.5 254.5,159.7 254.5,153.4 249,150.3 	"/>
	<polygon fill="#0452A0" points="240.5,151.9 245.9,155 245.9,148.7 240.5,145.6 	"/>
	<polygon fill="#0452A0" points="232.2,147.2 237.6,150.3 237.6,144.1 232.2,140.9 	"/>
	<polygon fill="#0452A0" points="223.6,142.5 229.1,145.6 229.1,139.4 223.6,136.2 	"/>
	<polygon fill="#0452A0" points="215.2,137.8 220.6,140.9 220.6,134.7 215.2,131.6 	"/>
	<polygon fill="#0452A0" points="249.1,168.7 254.6,171.8 254.6,165.6 249.1,162.5 	"/>
	<polygon fill="#FBB22F" points="240.5,164 246,167.1 246,160.9 240.5,157.8 	"/>
	<polygon fill="#0452A0" points="232.3,159.3 237.7,162.5 237.7,156.2 232.3,153.1 	"/>
	<polygon fill="#0452A0" points="223.7,154.7 229.1,157.8 229.1,151.5 223.7,148.4 	"/>
	<polygon fill="#0452A0" points="215.3,150 220.7,153.1 220.7,146.9 215.3,143.7 	"/>
</g>
<g>
	<path opacity="0.5" fill="#E8F0F9" d="M348.2,238.6c-10.1-3.9-21.4-3.7-28.6,0.7c-11.3,6.8-11.1,22.2-2,34.4
		c9.1,12.2,25.3,21.1,41.3,25.4c16.1,4.3,32.1,4.5,47.4,3.6c15.7-0.9,33.1-4.4,36-16.5c2.2-9.3-5.1-20.1-12.1-29.7
		c-1.6-2.1-3.1-4.3-5.3-6.1c-2.7-2.3-6.2-3.9-9.6-5.4c-11.9-5.2-24.2-9.9-36.6-11.7c-12.4-1.8-24.9-0.4-32.8,5.5"/>
</g>
<g id="server_1_">
	<polygon fill="#044982" points="412.6,241.4 412.7,267.4 384.3,283.2 384.8,257.3 	"/>
	
		<linearGradient id="SVGID_2_" gradientUnits="userSpaceOnUse" x1="362.4403" y1="252.5614" x2="357.7695" y2="267.8677" gradientTransform="matrix(1 -4.271178e-03 4.271178e-03 1 -4.3156 -1.7026)">
		<stop  offset="1.153274e-03" style="stop-color:#044982"/>
		<stop  offset="0.5062" style="stop-color:#044E91"/>
		<stop  offset="1" style="stop-color:#0452A0"/>
	</linearGradient>
	<polygon fill="url(#SVGID_2_)" points="331.1,252.2 384.5,283.1 384.8,257.2 330.9,225.5 	"/>
	<path fill="#114B7C" d="M388.4,164.1"/>
	<polygon fill="#3D83FA" points="415.9,122.9 416,247.4 386.6,263.9 387.8,138.9 	"/>
	<polygon fill="#0452A0" points="415.9,122.9 357.9,88.3 328.7,104.1 387.8,138.9 	"/>
	<polygon fill="#246EF0" points="328.8,230.2 386.9,263.9 387.8,138.9 328.7,104.1 	"/>
	<g>
		<defs>
			<path id="XMLID_5_" d="M376.4,147.9l-38-21.3c-0.4-0.2-0.7-0.7-0.7-1.2v-0.1c0-1.1,1.1-1.7,2.1-1.2l38,21.3
				c0.4,0.2,0.7,0.7,0.7,1.2v0.1C378.4,147.7,377.3,148.4,376.4,147.9z"/>
		</defs>
		<use xlink:href="#XMLID_5_"  overflow="visible" fill="#0452A0"/>
		<clipPath id="XMLID_10_">
			<use xlink:href="#XMLID_5_"  overflow="visible"/>
		</clipPath>
		<polygon clip-path="url(#XMLID_10_)" fill="#12355A" points="336,127.1 342.6,123.9 344.2,123.9 336,123.9 		"/>
	</g>
	<g>
		<defs>
			<path id="XMLID_4_" d="M375.5,157.2l-37.5-21c-0.4-0.2-0.7-0.7-0.7-1.2v-0.1c0-1,1.1-1.7,2-1.2l37.5,21c0.4,0.2,0.7,0.7,0.7,1.2
				v0.1C377.5,157.1,376.4,157.7,375.5,157.2z"/>
		</defs>
		<use xlink:href="#XMLID_4_"  overflow="visible" fill="#0452A0"/>
		<clipPath id="XMLID_11_">
			<use xlink:href="#XMLID_4_"  overflow="visible"/>
		</clipPath>
		<polygon clip-path="url(#XMLID_11_)" fill="#12355A" points="335.6,136.8 342.1,133.6 343.7,133.6 335.6,133.6 		"/>
	</g>
	<polygon fill="#0452A0" points="371.1,169.4 376.6,172.6 376.6,166.3 371.1,163.2 	"/>
	<polygon fill="#0452A0" points="362.5,164.8 368,167.9 368,161.6 362.5,158.5 	"/>
	<polygon fill="#0452A0" points="354.3,160.1 359.7,163.2 359.7,157 354.3,153.8 	"/>
	<polygon fill="#FBB22F" points="345.7,155.4 351.1,158.5 351.1,152.3 345.7,149.2 	"/>
	<polygon fill="#0452A0" points="337.3,150.7 342.7,153.8 342.7,147.6 337.3,144.5 	"/>
	<polygon fill="#0452A0" points="371.1,180.7 376.6,183.8 376.6,177.5 371.1,174.4 	"/>
	<polygon fill="#0452A0" points="362.5,176 368,179.1 368,172.9 362.5,169.7 	"/>
	<polygon fill="#0452A0" points="354.3,171.3 359.7,174.4 359.7,168.2 354.3,165.1 	"/>
	<polygon fill="#0452A0" points="345.7,166.6 351.1,169.7 351.1,163.5 345.7,160.4 	"/>
	<polygon fill="#0452A0" points="337.3,161.9 342.7,165.1 342.7,158.8 337.3,155.7 	"/>
	<polygon fill="#FBB22F" points="371.2,192.8 376.7,196 376.7,189.7 371.2,186.6 	"/>
	<polygon fill="#0452A0" points="362.6,188.2 368.1,191.3 368.1,185 362.6,181.9 	"/>
	<polygon fill="#0452A0" points="354.3,183.5 359.8,186.6 359.8,180.4 354.3,177.2 	"/>
	<polygon fill="#0452A0" points="345.8,178.8 351.2,181.9 351.2,175.7 345.8,172.6 	"/>
	<polygon fill="#0452A0" points="337.3,174.1 342.8,177.2 342.8,171 337.3,167.9 	"/>
	<polygon fill="#0452A0" points="371.2,204.1 376.7,207.2 376.7,200.9 371.2,197.8 	"/>
	<polygon fill="#0452A0" points="362.6,199.4 368.1,202.5 368.1,196.3 362.6,193.1 	"/>
	<polygon fill="#0452A0" points="354.3,194.7 359.8,197.8 359.8,191.6 354.3,188.5 	"/>
	<polygon fill="#0452A0" points="345.8,190 351.2,193.1 351.2,186.9 345.8,183.8 	"/>
	<polygon fill="#0452A0" points="337.3,185.3 342.8,188.5 342.8,182.2 337.3,179.1 	"/>
	<polygon fill="#0452A0" points="371,215.3 376.5,218.4 376.5,212.2 371,209.1 	"/>
	<polygon fill="#0452A0" points="362.5,210.6 367.9,213.7 367.9,207.5 362.5,204.4 	"/>
	<polygon fill="#0452A0" points="354.2,205.9 359.6,209.1 359.6,202.8 354.2,199.7 	"/>
	<polygon fill="#FBB22F" points="345.6,201.3 351.1,204.4 351.1,198.1 345.6,195 	"/>
	<polygon fill="#0452A0" points="337.2,196.6 342.6,199.7 342.6,193.5 337.2,190.3 	"/>
	<polygon fill="#0452A0" points="371,226.5 376.5,229.7 376.5,223.4 371,220.3 	"/>
	<polygon fill="#0452A0" points="362.5,221.9 367.9,225 367.9,218.7 362.5,215.6 	"/>
	<polygon fill="#0452A0" points="354.2,217.2 359.6,220.3 359.6,214.1 354.2,210.9 	"/>
	<polygon fill="#0452A0" points="345.6,212.5 351.1,215.6 351.1,209.4 345.6,206.2 	"/>
	<polygon fill="#0452A0" points="337.2,207.8 342.6,210.9 342.6,204.7 337.2,201.6 	"/>
	<polygon fill="#0452A0" points="371.1,238.7 376.6,241.8 376.6,235.6 371.1,232.5 	"/>
	<polygon fill="#FBB22F" points="362.5,234 368,237.1 368,230.9 362.5,227.8 	"/>
	<polygon fill="#0452A0" points="354.3,229.3 359.7,232.5 359.7,226.2 354.3,223.1 	"/>
	<polygon fill="#0452A0" points="345.7,224.7 351.1,227.8 351.1,221.5 345.7,218.4 	"/>
	<polygon fill="#0452A0" points="337.3,220 342.7,223.1 342.7,216.9 337.3,213.7 	"/>
</g>
<g>
	<path opacity="0.5" fill="#E8F0F9" d="M484.2,318.4c-10.1-3.9-21.4-3.7-28.6,0.7c-11.3,6.8-11.1,22.2-2,34.4
		c9.1,12.2,25.3,21.1,41.3,25.4c16.1,4.3,32.1,4.5,47.4,3.6c15.7-0.9,33.1-4.4,36-16.5c2.2-9.3-5.1-20.1-12.1-29.7
		c-1.6-2.1-3.1-4.3-5.3-6.1c-2.7-2.3-6.2-3.9-9.6-5.4c-11.9-5.2-24.2-9.9-36.6-11.7c-12.4-1.8-24.9-0.4-32.8,5.5"/>
</g>
<g id="server">
	<polygon fill="#044982" points="548.5,321.3 548.6,347.2 520.3,363 520.7,337.2 	"/>
	
		<linearGradient id="SVGID_3_" gradientUnits="userSpaceOnUse" x1="498.0417" y1="332.9821" x2="493.3709" y2="348.2884" gradientTransform="matrix(1 -4.271178e-03 4.271178e-03 1 -4.3156 -1.7026)">
		<stop  offset="1.153274e-03" style="stop-color:#044982"/>
		<stop  offset="0.5062" style="stop-color:#044E91"/>
		<stop  offset="1" style="stop-color:#0452A0"/>
	</linearGradient>
	<polygon fill="url(#SVGID_3_)" points="467,332 520.4,362.9 520.7,337.1 466.9,305.4 	"/>
	<path fill="#114B7C" d="M524.4,244"/>
	<polygon fill="#3D83FA" points="551.8,202.8 551.9,327.2 522.6,343.7 523.7,218.7 	"/>
	<polygon fill="#0452A0" points="551.8,202.8 493.8,168.1 464.7,183.9 523.7,218.7 	"/>
	<polygon fill="#246EF0" points="464.8,310.2 522.8,343.9 523.7,218.9 464.7,184.1 	"/>
	<g>
		<defs>
			<path id="XMLID_3_" d="M512.3,227.7l-38-21.3c-0.4-0.2-0.7-0.7-0.7-1.2v-0.1c0-1.1,1.1-1.7,2.1-1.2l38,21.3
				c0.4,0.2,0.7,0.7,0.7,1.2v0.1C514.4,227.5,513.3,228.2,512.3,227.7z"/>
		</defs>
		<use xlink:href="#XMLID_3_"  overflow="visible" fill="#0452A0"/>
		<clipPath id="XMLID_12_">
			<use xlink:href="#XMLID_3_"  overflow="visible"/>
		</clipPath>
		<polygon clip-path="url(#XMLID_12_)" fill="#12355A" points="472,207 478.5,203.7 480.1,203.7 472,203.7 		"/>
	</g>
	<g>
		<defs>
			<path id="XMLID_1_" d="M511.4,237.1l-37.5-21c-0.4-0.2-0.7-0.7-0.7-1.2v-0.1c0-1,1.1-1.7,2-1.2l37.5,21c0.4,0.2,0.7,0.7,0.7,1.2
				v0.1C513.5,236.9,512.3,237.6,511.4,237.1z"/>
		</defs>
		<use xlink:href="#XMLID_1_"  overflow="visible" fill="#0452A0"/>
		<clipPath id="XMLID_13_">
			<use xlink:href="#XMLID_1_"  overflow="visible"/>
		</clipPath>
		<polygon clip-path="url(#XMLID_13_)" fill="#12355A" points="471.6,216.6 478,213.4 479.6,213.4 471.6,213.4 		"/>
	</g>
	<polygon fill="#0452A0" points="507.1,249.3 512.5,252.4 512.5,246.2 507.1,243 	"/>
	<polygon fill="#0452A0" points="498.5,244.6 503.9,247.7 503.9,241.5 498.5,238.4 	"/>
	<polygon fill="#0452A0" points="490.2,239.9 495.7,243 495.7,236.8 490.2,233.7 	"/>
	<polygon fill="#FBB22F" points="481.6,235.2 487.1,238.4 487.1,232.1 481.6,229 	"/>
	<polygon fill="#0452A0" points="473.2,230.6 478.7,233.7 478.7,227.4 473.2,224.3 	"/>
	<polygon fill="#0452A0" points="507.1,260.5 512.5,263.6 512.5,257.4 507.1,254.3 	"/>
	<polygon fill="#0452A0" points="498.5,255.8 503.9,258.9 503.9,252.7 498.5,249.6 	"/>
	<polygon fill="#0452A0" points="490.2,251.1 495.7,254.3 495.7,248 490.2,244.9 	"/>
	<polygon fill="#0452A0" points="481.6,246.5 487.1,249.6 487.1,243.3 481.6,240.2 	"/>
	<polygon fill="#0452A0" points="473.2,241.8 478.7,244.9 478.7,238.7 473.2,235.5 	"/>
	<polygon fill="#0452A0" points="507.1,272.7 512.6,275.8 512.6,269.6 507.1,266.4 	"/>
	<polygon fill="#0452A0" points="498.6,268 504,271.1 504,264.9 498.6,261.8 	"/>
	<polygon fill="#0452A0" points="490.3,263.3 495.7,266.4 495.7,260.2 490.3,257.1 	"/>
	<polygon fill="#0452A0" points="481.7,258.6 487.2,261.8 487.2,255.5 481.7,252.4 	"/>
	<polygon fill="#0452A0" points="473.3,254 478.7,257.1 478.7,250.8 473.3,247.7 	"/>
	<polygon fill="#0452A0" points="507.1,283.9 512.6,287 512.6,280.8 507.1,277.7 	"/>
	<polygon fill="#FBB22F" points="498.6,279.2 504,282.3 504,276.1 498.6,273 	"/>
	<polygon fill="#0452A0" points="490.3,274.5 495.7,277.7 495.7,271.4 490.3,268.3 	"/>
	<polygon fill="#0452A0" points="481.7,269.9 487.2,273 487.2,266.7 481.7,263.6 	"/>
	<polygon fill="#0452A0" points="473.3,265.2 478.7,268.3 478.7,262.1 473.3,258.9 	"/>
	<polygon fill="#0452A0" points="507,295.1 512.4,298.3 512.4,292 507,288.9 	"/>
	<polygon fill="#0452A0" points="498.4,290.5 503.9,293.6 503.9,287.3 498.4,284.2 	"/>
	<polygon fill="#0452A0" points="490.1,285.8 495.6,288.9 495.6,282.7 490.1,279.5 	"/>
	<polygon fill="#FBB22F" points="481.5,281.1 487,284.2 487,278 481.5,274.9 	"/>
	<polygon fill="#0452A0" points="473.1,276.4 478.6,279.5 478.6,273.3 473.1,270.2 	"/>
	<polygon fill="#0452A0" points="507,306.4 512.4,309.5 512.4,303.3 507,300.1 	"/>
	<polygon fill="#0452A0" points="498.4,301.7 503.9,304.8 503.9,298.6 498.4,295.5 	"/>
	<polygon fill="#0452A0" points="490.1,297 495.6,300.1 495.6,293.9 490.1,290.8 	"/>
	<polygon fill="#0452A0" points="481.5,292.3 487,295.5 487,289.2 481.5,286.1 	"/>
	<polygon fill="#0452A0" points="473.1,287.7 478.6,290.8 478.6,284.5 473.1,281.4 	"/>
	<polygon fill="#0452A0" points="507.1,318.5 512.5,321.7 512.5,315.4 507.1,312.3 	"/>
	<polygon fill="#FBB22F" points="498.5,313.9 503.9,317 503.9,310.7 498.5,307.6 	"/>
	<polygon fill="#0452A0" points="490.2,309.2 495.7,312.3 495.7,306.1 490.2,302.9 	"/>
	<polygon fill="#0452A0" points="481.6,304.5 487.1,307.6 487.1,301.4 481.6,298.3 	"/>
	<polygon fill="#0452A0" points="473.2,299.8 478.7,302.9 478.7,296.7 473.2,293.6 	"/>
</g>
<g>
	<path opacity="0.5" fill="#E8F0F9" d="M333.3,390c-6.1,0.6-11.8,3.7-14.3,7.7c-3.9,6.3,0.1,14,7.9,17.8c7.8,3.8,18.3,4.1,27.5,2.1
		s17.4-6,24.9-10.4c7.7-4.5,15.6-10.8,13.9-17.6c-1.3-5.2-7.8-8.7-13.8-11.8c-1.3-0.7-2.7-1.4-4.3-1.7c-2-0.5-4.2-0.4-6.3-0.2
		c-7.4,0.5-14.8,1.3-21.6,3.6c-6.7,2.3-12.7,6.2-15.1,11.2"/>
</g>
<g>
	<path opacity="0.5" fill="#E8F0F9" d="M89.1,247.2c-5.9,0.6-11.3,3.9-13.7,8.4c-3.8,6.9,0.2,15.3,7.7,19.5
		c7.5,4.2,17.6,4.6,26.5,2.4c8.9-2.1,16.7-6.5,24-11.2c7.4-4.9,15-11.7,13.3-19.2c-1.3-5.7-7.6-9.6-13.4-13
		c-1.3-0.7-2.6-1.5-4.1-1.9c-1.9-0.5-4-0.4-6.1-0.3c-7.1,0.5-14.3,1.3-20.8,3.8c-6.5,2.5-12.2,6.7-14.5,12.2"/>
</g>
<g>
	<path opacity="0.5" fill="#E8F0F9" d="M567.1,428.5c-1.3-4.2-27-14.5-34.6-15.3c-11.7-1.2-26,3.8-32.8,10.3
		c-6.9,6.6-7.2,14.2-3.3,20.3c3.9,6.1,11.5,11,19.8,15.2c8.5,4.4,20.3,8.4,32.9,5.4c9.7-2.3,16.1-7.9,21.5-13
		c1.2-1.1,2.5-2.3,3.1-3.5c0.8-1.6,0.6-3.1,0.3-4.6c-1-5.2-2.7-10.3-7.1-14.6"/>
</g>
<g>
	<path opacity="0.5" fill="#E8F0F9" d="M231,318.1c-3-2.1-6.9-2.6-9.8-1.5c-4.6,1.8-6.2,7.4-4.4,12.5c1.8,5,6.3,9.3,11.4,11.8
		c5,2.5,10.5,3.6,15.8,4.2c5.5,0.6,11.8,0.4,14.1-3.9c1.8-3.3,0.4-7.7-0.9-11.6c-0.3-0.9-0.6-1.8-1.1-2.6c-0.7-1-1.7-1.8-2.7-2.6
		c-3.5-2.6-7.2-5.1-11.2-6.5c-4-1.4-8.5-1.7-11.8,0"/>
</g>
<g id="connection_1_">
	<path fill="none" stroke="#F2BF3D" stroke-width="1.3376" stroke-miterlimit="10" d="M126.8,240.7l32.2-18.4
		c8.1-4.6,18-4.6,26.1,0.1L513.9,413"/>
	<path fill="none" stroke="#F2BF3D" stroke-width="1.3376" stroke-miterlimit="10" d="M185.9,223.1l39-22.7c3.3-1.9,5.4-5.5,5.4-9.4
		v-71c0.3-8.2,7.6-8.2,7.6-8.2"/>
	<line fill="none" stroke="#F2BF3D" stroke-width="1.3376" stroke-miterlimit="10" x1="241.8" y1="323.8" x2="300.9" y2="289.6"/>
	<path fill="none" stroke="#F2BF3D" stroke-width="1.3376" stroke-miterlimit="10" d="M317.1,298.4l38.5-22.3
		c3.3-1.9,5.4-5.5,5.4-9.4v-94.4c-0.5-9,7-9,7-9"/>
	<line fill="none" stroke="#F2BF3D" stroke-width="1.3376" stroke-miterlimit="10" x1="379.9" y1="390.3" x2="427" y2="362.6"/>
	<path fill="none" stroke="#F2BF3D" stroke-width="1.1223" stroke-miterlimit="10" d="M435.3,367.2l38.6-22.8
		c3.3-1.9,5.3-5.4,5.3-9.2l0.4-36.5c0.5-7.7,7.4-7.7,7.4-7.7"/>
</g>
<g id="app_2_">
	<g>
		<path fill="#BEBEBE" d="M78.8,254.1l39.7-22.8l0.1-31.3c0-0.8-1.2-1.3-2.2-1.5c-0.7-0.2-1.4,0-2,0.3l-33.9,19.4
			c-1,0.6-1.6,1.6-1.6,2.7L78.8,254.1z"/>
	</g>
	<g>
		<path fill="#044982" d="M79.8,253.6l38.5-22.1l0.1-31.4c0-0.9-1-1.5-1.8-1l-35.5,20.3c-0.8,0.4-1.3,1.3-1.3,2.2L79.8,253.6z"/>
	</g>
	<g>
		<polygon fill="#6DA2FC" points="116.9,200.8 81.6,221.1 81.5,250.6 116.9,230.4 		"/>
	</g>
	<g>
		<g>
			<path fill="#BEBEBE" d="M146.1,248.1c-0.1,0-30.8-15-30.8-15l-36.4,21l28.7,16.6c1,0.6,2.2,0.6,3.2,0c0,0,29.7-17.1,34.7-20.1
				c0.5-0.3,0.7-0.7,0.7-1.3L146.1,248.1z"/>
		</g>
		<g>
			<path fill="#E6E5E3" d="M79.9,253.4l38.5-22.2l27.2,15.7c0.8,0.5,0.8,1.6,0,2l-35.4,20.5c-0.8,0.4-1.7,0.4-2.5,0L79.9,253.4z"/>
		</g>
	</g>
	<g>
		<g>
			<path fill="#FFFFFF" d="M90.5,254.1c-0.8,0.4-1.1,0.7-1.9,1.1c-0.8-0.4-1.2-0.7-1.9-1.1c0.8-0.4,1.1-0.7,1.9-1.1
				C89.4,253.4,89.8,253.7,90.5,254.1z"/>
			<path fill="#FFFFFF" d="M93.4,252.5c-0.8,0.4-1.1,0.7-1.9,1.1c-0.8-0.4-1.2-0.7-1.9-1.1c0.8-0.4,1.1-0.7,1.9-1.1
				C92.2,251.8,92.6,252,93.4,252.5z"/>
			<path fill="#FFFFFF" d="M96.2,250.9c-0.8,0.4-1.1,0.7-1.9,1.1c-0.8-0.4-1.2-0.7-1.9-1.1c0.8-0.4,1.1-0.7,1.9-1.1
				C95,250.2,95.4,250.4,96.2,250.9z"/>
			<path fill="#FFFFFF" d="M99,249.2c-0.8,0.4-1.1,0.7-1.9,1.1c-0.8-0.4-1.2-0.7-1.9-1.1c0.8-0.4,1.1-0.7,1.9-1.1
				C97.9,248.6,98.2,248.8,99,249.2z"/>
			<path fill="#FFFFFF" d="M101.8,247.6c-0.8,0.4-1.1,0.7-1.9,1.1c-0.8-0.4-1.2-0.7-1.9-1.1c0.8-0.4,1.1-0.7,1.9-1.1
				C100.7,246.9,101.1,247.2,101.8,247.6z"/>
			<path fill="#FFFFFF" d="M104.7,246c-0.8,0.4-1.1,0.7-1.9,1.1c-0.8-0.4-1.2-0.7-1.9-1.1c0.8-0.4,1.1-0.7,1.9-1.1
				C103.5,245.3,103.9,245.5,104.7,246z"/>
			<path fill="#FFFFFF" d="M107.5,244.4c-0.8,0.4-1.1,0.7-1.9,1.1c-0.8-0.4-1.2-0.7-1.9-1.1c0.8-0.4,1.1-0.7,1.9-1.1
				C106.3,243.7,106.7,243.9,107.5,244.4z"/>
			<path fill="#FFFFFF" d="M110.3,242.7c-0.8,0.4-1.1,0.7-1.9,1.1c-0.8-0.4-1.2-0.7-1.9-1.1c0.8-0.4,1.1-0.7,1.9-1.1
				C109.2,242.1,109.6,242.3,110.3,242.7z"/>
			<path fill="#FFFFFF" d="M113.2,241.1c-0.8,0.4-1.1,0.7-1.9,1.1c-0.8-0.4-1.2-0.7-1.9-1.1c0.8-0.4,1.1-0.7,1.9-1.1
				C112,240.5,112.4,240.7,113.2,241.1z"/>
			<path fill="#FFFFFF" d="M116,239.5c-0.8,0.4-1.1,0.7-1.9,1.1c-0.8-0.4-1.2-0.7-1.9-1.1c0.8-0.4,1.1-0.7,1.9-1.1
				C114.8,238.8,115.2,239,116,239.5z"/>
			<path fill="#FFFFFF" d="M118.8,237.9c-0.8,0.4-1.1,0.7-1.9,1.1c-0.8-0.4-1.2-0.7-1.9-1.1c0.8-0.4,1.1-0.7,1.9-1.1
				C117.7,237.2,118,237.4,118.8,237.9z"/>
			<path fill="#FFFFFF" d="M121.6,236.2c-0.8,0.4-1.1,0.7-1.9,1.1c-0.8-0.4-1.2-0.7-1.9-1.1c0.8-0.4,1.1-0.7,1.9-1.1
				C120.5,235.6,120.9,235.8,121.6,236.2z"/>
			<path fill="#FFFFFF" d="M93.3,255.6c-0.8,0.4-1.1,0.7-1.9,1.1c-0.8-0.4-1.2-0.7-1.9-1.1c0.8-0.4,1.1-0.7,1.9-1.1
				C92.1,255,92.5,255.2,93.3,255.6z"/>
			<path fill="#FFFFFF" d="M96.1,254c-0.8,0.4-1.1,0.7-1.9,1.1c-0.8-0.4-1.2-0.7-1.9-1.1c0.8-0.4,1.1-0.7,1.9-1.1
				C94.9,253.4,95.3,253.6,96.1,254z"/>
			<path fill="#FFFFFF" d="M98.9,252.4c-0.8,0.4-1.1,0.7-1.9,1.1c-0.8-0.4-1.2-0.7-1.9-1.1c0.8-0.4,1.1-0.7,1.9-1.1
				C97.8,251.7,98.1,251.9,98.9,252.4z"/>
			<path fill="#FFFFFF" d="M101.7,250.8c-0.8,0.4-1.1,0.7-1.9,1.1c-0.8-0.4-1.2-0.7-1.9-1.1c0.8-0.4,1.1-0.7,1.9-1.1
				C100.6,250.1,101,250.3,101.7,250.8z"/>
			<path fill="#FFFFFF" d="M104.6,249.1c-0.8,0.4-1.1,0.7-1.9,1.1c-0.8-0.4-1.2-0.7-1.9-1.1c0.8-0.4,1.1-0.7,1.9-1.1
				C103.4,248.5,103.8,248.7,104.6,249.1z"/>
			<path fill="#FFFFFF" d="M107.4,247.5c-0.8,0.4-1.1,0.7-1.9,1.1c-0.8-0.4-1.2-0.7-1.9-1.1c0.8-0.4,1.1-0.7,1.9-1.1
				C106.2,246.9,106.6,247.1,107.4,247.5z"/>
			<path fill="#FFFFFF" d="M110.2,245.9c-0.8,0.4-1.1,0.7-1.9,1.1c-0.8-0.4-1.2-0.7-1.9-1.1c0.8-0.4,1.1-0.7,1.9-1.1
				C109.1,245.2,109.4,245.5,110.2,245.9z"/>
			<path fill="#FFFFFF" d="M113.1,244.3c-0.8,0.4-1.1,0.7-1.9,1.1c-0.8-0.4-1.2-0.7-1.9-1.1c0.8-0.4,1.1-0.7,1.9-1.1
				C111.9,243.6,112.3,243.8,113.1,244.3z"/>
			<path fill="#FFFFFF" d="M115.9,242.6c-0.8,0.4-1.1,0.7-1.9,1.1c-0.8-0.4-1.2-0.7-1.9-1.1c0.8-0.4,1.1-0.7,1.9-1.1
				C114.7,242,115.1,242.2,115.9,242.6z"/>
			<path fill="#FFFFFF" d="M118.7,241c-0.8,0.4-1.1,0.7-1.9,1.1c-0.8-0.4-1.2-0.7-1.9-1.1c0.8-0.4,1.1-0.7,1.9-1.1
				C117.5,240.4,117.9,240.6,118.7,241z"/>
			<path fill="#FFFFFF" d="M121.5,239.4c-0.8,0.4-1.1,0.7-1.9,1.1c-0.8-0.4-1.2-0.7-1.9-1.1c0.8-0.4,1.1-0.7,1.9-1.1
				C120.4,238.7,120.8,239,121.5,239.4z"/>
			<path fill="#FFFFFF" d="M124.4,237.8c-1.3,0.7-1.9,1.1-3.2,1.8c-0.8-0.4-1.2-0.7-1.9-1.1c1.3-0.7,1.9-1.1,3.2-1.8
				C123.2,237.1,123.6,237.3,124.4,237.8z"/>
			<path fill="#FFFFFF" d="M97.2,256.4c-1.3,0.7-1.9,1.1-3.2,1.8c-0.8-0.4-1.2-0.7-1.9-1.1c1.3-0.7,1.9-1.1,3.2-1.8
				C96.1,255.8,96.5,256,97.2,256.4z"/>
			<path fill="#FFFFFF" d="M98.8,255.5c-0.8,0.4-1.1,0.7-1.9,1.1c-0.8-0.4-1.2-0.7-1.9-1.1c0.8-0.4,1.1-0.7,1.9-1.1
				C97.6,254.9,98,255.1,98.8,255.5z"/>
			<path fill="#FFFFFF" d="M101.6,253.9c-0.8,0.4-1.1,0.7-1.9,1.1c-0.8-0.4-1.2-0.7-1.9-1.1c0.8-0.4,1.1-0.7,1.9-1.1
				C100.5,253.3,100.9,253.5,101.6,253.9z"/>
			<path fill="#FFFFFF" d="M104.5,252.3c-0.8,0.4-1.1,0.7-1.9,1.1c-0.8-0.4-1.2-0.7-1.9-1.1c0.8-0.4,1.1-0.7,1.9-1.1
				C103.3,251.6,103.7,251.9,104.5,252.3z"/>
			<path fill="#FFFFFF" d="M107.3,250.7c-0.8,0.4-1.1,0.7-1.9,1.1c-0.8-0.4-1.2-0.7-1.9-1.1c0.8-0.4,1.1-0.7,1.9-1.1
				C106.1,250,106.5,250.2,107.3,250.7z"/>
			<path fill="#FFFFFF" d="M110.1,249.1c-0.8,0.4-1.1,0.7-1.9,1.1c-0.8-0.4-1.2-0.7-1.9-1.1c0.8-0.4,1.1-0.7,1.9-1.1
				C109,248.4,109.3,248.6,110.1,249.1z"/>
			<path fill="#FFFFFF" d="M112.9,247.4c-0.8,0.4-1.1,0.7-1.9,1.1c-0.8-0.4-1.2-0.7-1.9-1.1c0.8-0.4,1.1-0.7,1.9-1.1
				C111.8,246.8,112.2,247,112.9,247.4z"/>
			<path fill="#FFFFFF" d="M115.8,245.8c-0.8,0.4-1.1,0.7-1.9,1.1c-0.8-0.4-1.2-0.7-1.9-1.1c0.8-0.4,1.1-0.7,1.9-1.1
				C114.6,245.1,115,245.4,115.8,245.8z"/>
			<path fill="#FFFFFF" d="M118.6,244.2c-0.8,0.4-1.1,0.7-1.9,1.1c-0.8-0.4-1.2-0.7-1.9-1.1c0.8-0.4,1.1-0.7,1.9-1.1
				C117.4,243.5,117.8,243.7,118.6,244.2z"/>
			<path fill="#FFFFFF" d="M121.4,242.6c-0.8,0.4-1.1,0.7-1.9,1.1c-0.8-0.4-1.2-0.7-1.9-1.1c0.8-0.4,1.1-0.7,1.9-1.1
				C120.3,241.9,120.7,242.1,121.4,242.6z"/>
			<path fill="#FFFFFF" d="M124.3,240.9c-0.8,0.4-1.1,0.7-1.9,1.1c-0.8-0.4-1.2-0.7-1.9-1.1c0.8-0.4,1.1-0.7,1.9-1.1
				C123.1,240.3,123.5,240.5,124.3,240.9z"/>
			<path fill="#FFFFFF" d="M127.1,239.3c-0.8,0.4-1.1,0.7-1.9,1.1c-0.8-0.4-1.2-0.7-1.9-1.1c0.8-0.4,1.1-0.7,1.9-1.1
				C125.9,238.7,126.3,238.9,127.1,239.3z"/>
			<path fill="#FFFFFF" d="M98.7,258.7c-0.8,0.4-1.1,0.7-1.9,1.1c-0.8-0.4-1.2-0.7-1.9-1.1c0.8-0.4,1.1-0.7,1.9-1.1
				C97.5,258.1,97.9,258.3,98.7,258.7z"/>
			<path fill="#FFFFFF" d="M101.5,257.1c-0.8,0.4-1.1,0.7-1.9,1.1c-0.8-0.4-1.2-0.7-1.9-1.1c0.8-0.4,1.1-0.7,1.9-1.1
				C100.4,256.4,100.7,256.6,101.5,257.1z"/>
			<path fill="#FFFFFF" d="M104.3,255.5c-0.8,0.4-1.1,0.7-1.9,1.1c-0.8-0.4-1.2-0.7-1.9-1.1c0.8-0.4,1.1-0.7,1.9-1.1
				C103.2,254.8,103.6,255,104.3,255.5z"/>
			<path fill="#FFFFFF" d="M107.2,253.8c-0.8,0.4-1.1,0.7-1.9,1.1c-0.8-0.4-1.2-0.7-1.9-1.1c0.8-0.4,1.1-0.7,1.9-1.1
				C106,253.2,106.4,253.4,107.2,253.8z"/>
			<path fill="#FFFFFF" d="M110,252.2c-0.8,0.4-1.1,0.7-1.9,1.1c-0.8-0.4-1.2-0.7-1.9-1.1c0.8-0.4,1.1-0.7,1.9-1.1
				C108.8,251.6,109.2,251.8,110,252.2z"/>
			<path fill="#FFFFFF" d="M112.8,250.6c-0.8,0.4-1.1,0.7-1.9,1.1c-0.8-0.4-1.2-0.7-1.9-1.1c0.8-0.4,1.1-0.7,1.9-1.1
				C111.7,249.9,112.1,250.2,112.8,250.6z"/>
			
				<ellipse transform="matrix(2.619188e-03 -1 1 2.619188e-03 -135.5302 362.0505)" fill="#FFFFFF" cx="113.7" cy="249" rx="1.1" ry="1.9"/>
			<path fill="#FFFFFF" d="M118.5,247.3c-0.8,0.4-1.1,0.7-1.9,1.1c-0.8-0.4-1.2-0.7-1.9-1.1c0.8-0.4,1.1-0.7,1.9-1.1
				C117.3,246.7,117.7,246.9,118.5,247.3z"/>
			<path fill="#FFFFFF" d="M121.3,245.7c-0.8,0.4-1.1,0.7-1.9,1.1c-0.8-0.4-1.2-0.7-1.9-1.1c0.8-0.4,1.1-0.7,1.9-1.1
				C120.2,245.1,120.5,245.3,121.3,245.7z"/>
			<path fill="#FFFFFF" d="M124.1,244.1c-0.8,0.4-1.1,0.7-1.9,1.1c-0.8-0.4-1.2-0.7-1.9-1.1c0.8-0.4,1.1-0.7,1.9-1.1
				C123,243.4,123.4,243.7,124.1,244.1z"/>
			<path fill="#FFFFFF" d="M128.2,241.8c-1.3,0.7-1.9,1.1-3.1,1.8c-0.8-0.4-1.2-0.7-1.9-1.1c1.3-0.7,1.9-1.1,3.1-1.8
				C127,241.1,127.4,241.3,128.2,241.8z"/>
			<path fill="#FFFFFF" d="M129.8,240.8c-0.8,0.4-1.1,0.7-1.9,1.1c-0.8-0.4-1.2-0.7-1.9-1.1c0.8-0.4,1.1-0.7,1.9-1.1
				C128.6,240.2,129,240.4,129.8,240.8z"/>
			<path fill="#FFFFFF" d="M101.8,260.5c-0.8,0.4-1.1,0.7-1.9,1.1c-0.8-0.4-1.2-0.7-1.9-1.1c0.8-0.4,1.1-0.7,1.9-1.1
				C100.6,259.8,101,260,101.8,260.5z"/>
			<path fill="#FFFFFF" d="M104.6,258.8c-0.8,0.4-1.1,0.7-1.9,1.1c-0.8-0.4-1.2-0.7-1.9-1.1c0.8-0.4,1.1-0.7,1.9-1.1
				C103.5,258.2,103.8,258.4,104.6,258.8z"/>
			<path fill="#FFFFFF" d="M107.4,257.2c-0.8,0.4-1.1,0.7-1.9,1.1c-0.8-0.4-1.2-0.7-1.9-1.1c0.8-0.4,1.1-0.7,1.9-1.1
				C106.3,256.6,106.7,256.8,107.4,257.2z"/>
			<path fill="#FFFFFF" d="M124.4,247.5c-5.4,3.1-10.7,6.1-16.1,9.2c-0.8-0.4-1.2-0.7-1.9-1.1c5.4-3.1,10.7-6.1,16.1-9.2
				C123.2,246.8,123.6,247,124.4,247.5z"/>
			<path fill="#FFFFFF" d="M127.2,245.8c-0.8,0.4-1.1,0.7-1.9,1.1c-0.8-0.4-1.2-0.7-1.9-1.1c0.8-0.4,1.1-0.7,1.9-1.1
				C126.1,245.2,126.5,245.4,127.2,245.8z"/>
			<path fill="#FFFFFF" d="M130.1,244.2c-0.8,0.4-1.1,0.7-1.9,1.1c-0.8-0.4-1.2-0.7-1.9-1.1c0.8-0.4,1.1-0.7,1.9-1.1
				C128.9,243.6,129.3,243.8,130.1,244.2z"/>
			<path fill="#FFFFFF" d="M132.9,242.6c-0.8,0.4-1.1,0.7-1.9,1.1c-0.8-0.4-1.2-0.7-1.9-1.1c0.8-0.4,1.1-0.7,1.9-1.1
				C131.7,241.9,132.1,242.2,132.9,242.6z"/>
		</g>
	</g>
	<g>
		<polygon fill="#BEBEBE" points="111.3,257.5 124.5,249.9 132,254.5 118.8,262.1 		"/>
	</g>
</g>
<g id="app_1_">
	<path fill="#BEBEBE" d="M259.6,331.7c-0.1-0.1-33.8-15.4-33.8-15.4l-9.2,5.1l-2.5,2.8l0,1.8c0,0.7,0.4,1.4,1,1.8l25.8,14.9
		c1.4,0.8,3.2,0.8,4.7,0c0,0,5.4-3,12.9-7.4c0.7-0.4,1.1-1.1,1.1-1.9L259.6,331.7z"/>
	<path fill="#E6E5E3" d="M215.3,322.1l13.3-7.5c1-0.6,2.3-0.6,3.4,0l26.8,15.5c1.2,0.7,1.2,2.4,0,3l-14,7.9c-1.1,0.7-2.6,0.7-3.7,0
		l-25.8-14.9C213.7,325.2,213.7,322.9,215.3,322.1z"/>
	<polygon fill="#044982" points="215.8,325.1 232.7,315.8 255.5,329 238.7,338.2 	"/>
	<polygon fill="#6DA2FC" stroke="#044982" stroke-width="0.4557" stroke-miterlimit="10" points="217.1,325.1 232.7,316.5 
		254.2,329 238.7,337.5 	"/>
	<path fill="#044982" d="M224.2,319.2c0,0.2-0.2,0.4-0.5,0.4c-0.3,0-0.5-0.2-0.5-0.4c0-0.2,0.2-0.4,0.5-0.4
		C224,318.8,224.2,319,224.2,319.2z"/>
	<path fill="#BEBEBE" d="M252.4,334.8c0,1-1,1.8-2.3,1.8s-2.3-0.8-2.3-1.8c0-1,1-1.8,2.3-1.8S252.4,333.8,252.4,334.8z"/>
	<path fill="#BEBEBE" d="M252.4,334.8c0,1-1,1.8-2.3,1.8s-2.3-0.8-2.3-1.8c0-1,1-1.8,2.3-1.8S252.4,333.8,252.4,334.8z"/>
	<path opacity="0.5" fill="#E6E5E3" d="M251.8,334.8c0,0.8-0.8,1.4-1.8,1.4c-1,0-1.8-0.6-1.8-1.4c0-0.8,0.8-1.4,1.8-1.4
		C251,333.4,251.8,334,251.8,334.8z"/>
	<g>
		<path fill="#BEBEBE" d="M226.7,317.8l-1.5,0.8c-0.1,0-0.2,0-0.2-0.1l0,0c0-0.1,0-0.2,0.1-0.2l1.5-0.8c0.1,0,0.2,0,0.2,0.1l0,0
			C226.8,317.7,226.8,317.8,226.7,317.8z"/>
		<path fill="#BEBEBE" d="M222.4,320.2l-1.5,0.8c-0.1,0-0.2,0-0.2-0.1l0,0c0-0.1,0-0.2,0.1-0.2l1.5-0.8c0.1,0,0.2,0,0.2,0.1l0,0
			C222.5,320,222.5,320.1,222.4,320.2z"/>
	</g>
</g>
<g id="app">
	<g>
		<g>
			<path fill="#BEBEBE" d="M389.4,392.9c0,0-49.2,9.6-49.2,9.6v2.3l14.8,8.3c0.9,0.5,1.9,0.5,2.8,0c0,0,26.5-15.4,31-18
				c0.4-0.2,0.7-0.7,0.6-1.1L389.4,392.9z"/>
			<path fill="#E6E5E3" d="M340.3,402.5l34.2-19.9l14.5,9.3c0.7,0.4,0.7,1.4,0,1.8l-31.6,18.4c-0.7,0.4-1.5,0.4-2.2,0L340.3,402.5z"
				/>
		</g>
		<g>
			<g>
				<path fill="#FFFFFF" d="M348.8,402.5c-0.7,0.4-1,0.6-1.7,1c-0.7-0.5-1.1-0.7-1.8-1.2c0.7-0.4,1-0.6,1.7-1
					C347.7,401.8,348.1,402,348.8,402.5z"/>
				<path fill="#FFFFFF" d="M351.3,401c-0.7,0.4-1,0.6-1.7,1c-0.7-0.5-1.1-0.7-1.8-1.2c0.7-0.4,1-0.6,1.7-1
					C350.2,400.3,350.6,400.5,351.3,401z"/>
				<path fill="#FFFFFF" d="M353.8,399.5c-0.7,0.4-1,0.6-1.7,1c-0.7-0.5-1.1-0.7-1.8-1.1c0.7-0.4,1-0.6,1.7-1
					C352.7,398.9,353.1,399.1,353.8,399.5z"/>
				<path fill="#FFFFFF" d="M356.3,398.1c-0.7,0.4-1,0.6-1.7,1c-0.7-0.4-1.1-0.7-1.8-1.1c0.7-0.4,1-0.6,1.7-1
					C355.3,397.4,355.6,397.6,356.3,398.1z"/>
				<path fill="#FFFFFF" d="M358.8,396.6c-0.7,0.4-1,0.6-1.7,1c-0.7-0.4-1.1-0.7-1.8-1.1c0.7-0.4,1-0.6,1.7-1
					C357.8,395.9,358.1,396.2,358.8,396.6z"/>
				<path fill="#FFFFFF" d="M361.4,395.2c-0.7,0.4-1,0.6-1.7,1c-0.7-0.4-1.1-0.7-1.8-1.1c0.7-0.4,1-0.6,1.7-1
					C360.3,394.5,360.7,394.7,361.4,395.2z"/>
				<path fill="#FFFFFF" d="M363.9,393.7c-0.7,0.4-1,0.6-1.7,1c-0.7-0.4-1.1-0.7-1.8-1.1c0.7-0.4,1-0.6,1.7-1
					C362.8,393,363.2,393.3,363.9,393.7z"/>
				<path fill="#FFFFFF" d="M366.4,392.2c-0.7,0.4-1,0.6-1.7,1c-0.7-0.4-1-0.7-1.7-1.1c0.7-0.4,1-0.6,1.7-1
					C365.4,391.6,365.7,391.8,366.4,392.2z"/>
				<path fill="#FFFFFF" d="M368.9,390.8c-0.7,0.4-1,0.6-1.7,1c-0.7-0.4-1-0.7-1.7-1.1c0.7-0.4,1-0.6,1.7-1
					C367.9,390.1,368.2,390.3,368.9,390.8z"/>
				<path fill="#FFFFFF" d="M371.4,389.3c-0.7,0.4-1,0.6-1.7,1c-0.7-0.4-1-0.6-1.7-1.1c0.7-0.4,1-0.6,1.7-1
					C370.4,388.7,370.7,388.9,371.4,389.3z"/>
				<path fill="#FFFFFF" d="M373.9,387.8c-0.7,0.4-1,0.6-1.7,1c-0.7-0.4-1-0.6-1.7-1.1c0.7-0.4,1-0.6,1.7-1
					C372.9,387.2,373.3,387.4,373.9,387.8z"/>
				<path fill="#FFFFFF" d="M376.5,386.4c-0.7,0.4-1,0.6-1.7,1c-0.7-0.4-1-0.6-1.7-1.1c0.7-0.4,1-0.6,1.7-1
					C375.4,385.7,375.8,386,376.5,386.4z"/>
				<path fill="#FFFFFF" d="M351.3,404c-0.7,0.4-1,0.6-1.7,1c-0.7-0.4-1.1-0.7-1.8-1.1c0.7-0.4,1-0.6,1.7-1
					C350.2,403.4,350.6,403.6,351.3,404z"/>
				<path fill="#FFFFFF" d="M353.8,402.6c-0.7,0.4-1,0.6-1.7,1c-0.7-0.4-1.1-0.7-1.8-1.1c0.7-0.4,1-0.6,1.7-1
					C352.7,401.9,353.1,402.1,353.8,402.6z"/>
				<path fill="#FFFFFF" d="M356.3,401.1c-0.7,0.4-1,0.6-1.7,1c-0.7-0.4-1-0.7-1.8-1.1c0.7-0.4,1-0.6,1.7-1
					C355.2,400.4,355.6,400.7,356.3,401.1z"/>
				<path fill="#FFFFFF" d="M358.8,399.6c-0.7,0.4-1,0.6-1.7,1c-0.7-0.4-1-0.7-1.8-1.1c0.7-0.4,1-0.6,1.7-1
					C357.7,399,358.1,399.2,358.8,399.6z"/>
				<path fill="#FFFFFF" d="M361.3,398.2c-0.7,0.4-1,0.6-1.7,1c-0.7-0.4-1-0.7-1.7-1.1c0.7-0.4,1-0.6,1.7-1
					C360.3,397.5,360.6,397.7,361.3,398.2z"/>
				<path fill="#FFFFFF" d="M363.8,396.7c-0.7,0.4-1,0.6-1.7,1c-0.7-0.4-1-0.7-1.7-1.1c0.7-0.4,1-0.6,1.7-1
					C362.8,396,363.1,396.3,363.8,396.7z"/>
				<path fill="#FFFFFF" d="M366.3,395.2c-0.7,0.4-1,0.6-1.7,1c-0.7-0.4-1-0.7-1.7-1.1c0.7-0.4,1-0.6,1.7-1
					C365.3,394.6,365.6,394.8,366.3,395.2z"/>
				<path fill="#FFFFFF" d="M368.8,393.8c-0.7,0.4-1,0.6-1.7,1c-0.7-0.4-1-0.7-1.7-1.1c0.7-0.4,1-0.6,1.7-1
					C367.8,393.1,368.1,393.3,368.8,393.8z"/>
				<path fill="#FFFFFF" d="M371.3,392.3c-0.7,0.4-1,0.6-1.7,1c-0.7-0.4-1-0.7-1.7-1.1c0.7-0.4,1-0.6,1.7-1
					C370.3,391.6,370.6,391.9,371.3,392.3z"/>
				<path fill="#FFFFFF" d="M373.8,390.8c-0.7,0.4-1,0.6-1.7,1c-0.7-0.4-1-0.7-1.7-1.1c0.7-0.4,1-0.6,1.7-1
					C372.8,390.2,373.1,390.4,373.8,390.8z"/>
				<path fill="#FFFFFF" d="M376.3,389.4c-0.7,0.4-1,0.6-1.7,1c-0.7-0.4-1-0.7-1.7-1.1c0.7-0.4,1-0.6,1.7-1
					C375.3,388.7,375.7,388.9,376.3,389.4z"/>
				<path fill="#FFFFFF" d="M378.8,387.9c-1.1,0.7-1.7,1-2.8,1.7c-0.7-0.4-1-0.7-1.7-1.1c1.1-0.7,1.7-1,2.9-1.7
					C377.8,387.2,378.2,387.5,378.8,387.9z"/>
				<path fill="#FFFFFF" d="M354.8,404.9c-1.1,0.7-1.7,1-2.8,1.6c-0.7-0.4-1-0.6-1.7-1.1c1.1-0.7,1.7-1,2.8-1.6
					C353.8,404.2,354.1,404.4,354.8,404.9z"/>
				<path fill="#FFFFFF" d="M356.2,404.1c-0.7,0.4-1,0.6-1.7,1c-0.7-0.4-1-0.6-1.7-1.1c0.7-0.4,1-0.6,1.7-1
					C355.2,403.4,355.5,403.6,356.2,404.1z"/>
				<path fill="#FFFFFF" d="M358.7,402.6c-0.7,0.4-1,0.6-1.7,1c-0.7-0.4-1-0.6-1.7-1.1c0.7-0.4,1-0.6,1.7-1
					C357.7,402,358,402.2,358.7,402.6z"/>
				<path fill="#FFFFFF" d="M361.2,401.1c-0.7,0.4-1,0.6-1.7,1c-0.7-0.4-1-0.6-1.7-1.1c0.7-0.4,1-0.6,1.7-1
					C360.2,400.5,360.5,400.7,361.2,401.1z"/>
				<path fill="#FFFFFF" d="M363.7,399.7c-0.7,0.4-1,0.6-1.7,1c-0.7-0.4-1-0.6-1.7-1.1c0.7-0.4,1-0.6,1.7-1
					C362.7,399,363,399.2,363.7,399.7z"/>
				<path fill="#FFFFFF" d="M366.2,398.2c-0.7,0.4-1,0.6-1.7,1c-0.7-0.4-1-0.6-1.7-1.1c0.7-0.4,1-0.6,1.7-1
					C365.2,397.6,365.5,397.8,366.2,398.2z"/>
				<path fill="#FFFFFF" d="M368.7,396.8c-0.7,0.4-1,0.6-1.7,1c-0.7-0.4-1-0.7-1.7-1.1c0.7-0.4,1-0.6,1.7-1
					C367.7,396.1,368,396.3,368.7,396.8z"/>
				<path fill="#FFFFFF" d="M371.2,395.3c-0.7,0.4-1,0.6-1.7,1c-0.7-0.4-1-0.7-1.7-1.1c0.7-0.4,1-0.6,1.7-1
					C370.2,394.6,370.5,394.9,371.2,395.3z"/>
				<path fill="#FFFFFF" d="M373.7,393.8c-0.7,0.4-1,0.6-1.7,1c-0.7-0.4-1-0.7-1.7-1.1c0.7-0.4,1-0.6,1.7-1
					C372.7,393.2,373,393.4,373.7,393.8z"/>
				<path fill="#FFFFFF" d="M376.2,392.4c-0.7,0.4-1,0.6-1.7,1c-0.7-0.4-1-0.7-1.7-1.1c0.7-0.4,1-0.6,1.7-1
					C375.2,391.7,375.6,391.9,376.2,392.4z"/>
				<path fill="#FFFFFF" d="M378.7,390.9c-0.7,0.4-1,0.6-1.7,1c-0.7-0.4-1-0.7-1.7-1.1c0.7-0.4,1-0.6,1.7-1
					C377.7,390.2,378.1,390.5,378.7,390.9z"/>
				<path fill="#FFFFFF" d="M381.3,389.4c-0.7,0.4-1,0.6-1.7,1c-0.7-0.4-1-0.7-1.7-1.1c0.7-0.4,1-0.6,1.7-1
					C380.2,388.8,380.6,389,381.3,389.4z"/>
				<path fill="#FFFFFF" d="M356.1,407c-0.7,0.4-1,0.6-1.7,1c-0.7-0.4-1-0.6-1.7-1.1c0.7-0.4,1-0.6,1.7-1
					C355.1,406.4,355.4,406.6,356.1,407z"/>
				<path fill="#FFFFFF" d="M358.6,405.6c-0.7,0.4-1,0.6-1.7,1c-0.7-0.4-1-0.6-1.7-1.1c0.7-0.4,1-0.6,1.7-1
					C357.6,404.9,357.9,405.1,358.6,405.6z"/>
				<path fill="#FFFFFF" d="M361.1,404.1c-0.7,0.4-1,0.6-1.7,1c-0.7-0.4-1-0.6-1.7-1.1c0.7-0.4,1-0.6,1.7-1
					C360.1,403.5,360.4,403.7,361.1,404.1z"/>
				<path fill="#FFFFFF" d="M363.6,402.6c-0.7,0.4-1,0.6-1.7,1c-0.7-0.4-1-0.6-1.7-1.1c0.7-0.4,1-0.6,1.7-1
					C362.6,402,362.9,402.2,363.6,402.6z"/>
				<path fill="#FFFFFF" d="M366.1,401.2c-0.7,0.4-1,0.6-1.7,1c-0.7-0.4-1-0.6-1.7-1.1c0.7-0.4,1-0.6,1.7-1
					C365.1,400.5,365.4,400.8,366.1,401.2z"/>
				<path fill="#FFFFFF" d="M368.6,399.7c-0.7,0.4-1,0.6-1.7,1c-0.7-0.4-1-0.6-1.7-1.1c0.7-0.4,1-0.6,1.7-1
					C367.6,399.1,367.9,399.3,368.6,399.7z"/>
				<path fill="#FFFFFF" d="M371.1,398.3c-0.7,0.4-1,0.6-1.7,1c-0.7-0.4-1-0.6-1.7-1.1c0.7-0.4,1-0.6,1.7-1
					C370.1,397.6,370.5,397.8,371.1,398.3z"/>
				<path fill="#FFFFFF" d="M373.7,396.8c-0.7,0.4-1,0.6-1.7,1c-0.7-0.4-1-0.7-1.7-1.1c0.7-0.4,1-0.6,1.7-1
					C372.6,396.2,373,396.4,373.7,396.8z"/>
				<path fill="#FFFFFF" d="M376.2,395.4c-0.7,0.4-1,0.6-1.7,1c-0.7-0.4-1-0.7-1.7-1.1c0.7-0.4,1-0.6,1.7-1
					C375.1,394.7,375.5,394.9,376.2,395.4z"/>
				<path fill="#FFFFFF" d="M378.7,393.9c-0.7,0.4-1,0.6-1.7,1c-0.7-0.4-1-0.7-1.7-1.1c0.7-0.4,1-0.6,1.7-1
					C377.6,393.2,378,393.5,378.7,393.9z"/>
				<path fill="#FFFFFF" d="M382.3,391.8c-1.1,0.6-1.7,1-2.8,1.6c-0.7-0.4-1-0.7-1.7-1.1c1.1-0.6,1.7-1,2.8-1.6
					C381.2,391.2,381.6,391.4,382.3,391.8z"/>
				<path fill="#FFFFFF" d="M383.7,391c-0.7,0.4-1,0.6-1.7,1c-0.7-0.4-1.1-0.7-1.7-1.1c0.7-0.4,1-0.6,1.7-1
					C382.6,390.3,383,390.6,383.7,391z"/>
				<path fill="#FFFFFF" d="M358.7,408.7c-0.7,0.4-1,0.6-1.7,1c-0.7-0.4-1-0.6-1.7-1.1c0.7-0.4,1-0.6,1.7-1
					C357.7,408.1,358.1,408.3,358.7,408.7z"/>
				<path fill="#FFFFFF" d="M361.3,407.3c-0.7,0.4-1,0.6-1.7,1c-0.7-0.4-1-0.6-1.7-1.1c0.7-0.4,1-0.6,1.7-1
					C360.3,406.6,360.6,406.8,361.3,407.3z"/>
				<path fill="#FFFFFF" d="M363.8,405.8c-0.7,0.4-1,0.6-1.7,1c-0.7-0.4-1-0.6-1.7-1.1c0.7-0.4,1-0.6,1.7-1
					C362.8,405.2,363.1,405.4,363.8,405.8z"/>
				<path fill="#FFFFFF" d="M379,397.1c-5.7,3.3-8.6,4.9-14.4,8.2c-0.7-0.4-1-0.6-1.7-1.1c5.7-3.3,8.6-5,14.3-8.3
					C377.9,396.5,378.3,396.7,379,397.1z"/>
				<path fill="#FFFFFF" d="M381.5,395.7c-0.7,0.4-1,0.6-1.7,1c-0.7-0.4-1.1-0.7-1.8-1.1c0.7-0.4,1-0.6,1.7-1
					C380.4,395,380.8,395.2,381.5,395.7z"/>
				<path fill="#FFFFFF" d="M384,394.2c-0.7,0.4-1,0.6-1.7,1c-0.7-0.4-1.1-0.7-1.8-1.1c0.7-0.4,1-0.6,1.7-1
					C382.9,393.5,383.3,393.8,384,394.2z"/>
				<path fill="#FFFFFF" d="M386.5,392.8c-0.7,0.4-1,0.6-1.7,1c-0.7-0.4-1.1-0.7-1.8-1.1c0.7-0.4,1-0.6,1.7-1
					C385.5,392.1,385.8,392.3,386.5,392.8z"/>
			</g>
		</g>
	</g>
	<g>
		<g>
			<path fill="#E6E5E3" d="M360.4,385.6c0,0-7.6-3.7-15-7.3c-3.7,2.4-7.5,4.5-11.4,6.6c-1.2,0.8-2.3,1.5-3.5,2.3l13.9,8
				c0.9,0.5,2,0.5,2.9,0c0,0,7.7-4.5,12.4-7.3c0.4-0.2,0.7-0.7,0.7-1.2L360.4,385.6z"/>
			<path fill="#CBCBCB" d="M359.9,384.5l-12.8-7.4c-4.2,2.8-8.6,5.3-13.1,7.7c-0.9,0.6-1.7,1.1-2.6,1.7l13,7.5
				c0.7,0.4,1.6,0.4,2.3,0l13.1-7.6C360.7,386,360.7,384.9,359.9,384.5z"/>
		</g>
		<path fill="#BEBEBE" d="M321.6,396.4l2.2,1.1l50.6-76.6c0-0.8-0.8-1.7-1.5-2.1c-1.2-0.6-2.7-0.6-3.8,0.1l-45.2,25.8
			c-1.3,0.7-2.1,2.1-2.1,3.6L321.6,396.4z"/>
		<path fill="#E6E5E3" d="M323.8,397.4l50.5-29l0.1-47.6c0-1.2-1.3-1.9-2.3-1.3l-46.6,26.7c-1,0.6-1.6,1.7-1.6,2.8L323.8,397.4z"/>
		<path fill="#044982" d="M374.4,360.9l0.1-40c0-1.2-1.3-1.9-2.3-1.3l-46.6,26.7c-1,0.6-1.6,1.7-1.6,2.8l-0.1,41.4L374.4,360.9z"/>
		<polygon fill="#6DA2FC" points="372.4,321.9 326.2,348.5 326.1,385.7 372.4,358.7 		"/>
	</g>
</g>
<g id="log_5_">
	<path fill="#BEBEBE" d="M502.7,392.1c0,0,0,39.4,0,40.9c0,3.1,3.5,4.4,3.5,4.4s-1.7-1.9-1.9-3.9c0-2,0-40.4,0-40.4L502.7,392.1z"/>
	<g>
		<polygon fill="#B1B1B2" points="502.7,392.1 532.3,375 533.8,375.7 503.8,392.8 		"/>
	</g>
	<polygon fill="#E6E5E3" points="527.2,424.4 513.3,430.3 513.3,422.4 527.2,414.6 	"/>
	<path fill="#CECECE" d="M508.6,435.6l0.1,2c0,0,5.7-2.7,5.8-2.7l12-6.2v-7c-0.1-3.1-2.5-4.4-5.2-3.4c0,0-5.9,2.6-5.6,8.3
		C515.9,434,508.6,435.6,508.6,435.6z"/>
	<path fill="#E6E5E3" d="M516.5,420.7c-0.4,1.3-0.6,3.1-0.8,4.9c0,0.3-0.1,0.5-0.1,0.8c0,0.4-0.1,0.9-0.1,1.3c0,0.2,0,0.5-0.1,0.7
		c0,0.4-0.1,0.8-0.1,1.1v0c0,0.3,0,0.6-0.1,0.8c-0.1,0.8-0.1,1.3-0.1,1.3c-0.1,0.4-0.2,3.7-6.5,6c0,0-4.8,0.9-4.8-4.9v-7
		C503.8,425.9,517.5,417.3,516.5,420.7z"/>
	<path fill="#F5F5F6" d="M513.3,431.5"/>
	<polygon fill="#E6E5E3" points="503.8,428 533.8,411.5 533.8,375.7 503.8,392.8 	"/>
	<g>
		<path fill="#828282" d="M509.6,404.1v-7.4l1.1-0.6v6.3l3.6-1.9v1.1L509.6,404.1z"/>
		<path fill="#828282" d="M519.6,398.7c-0.4,0.3-0.8,0.6-1.2,0.9c-0.5,0.2-0.9,0.4-1.2,0.4c-0.4,0.1-0.7,0-0.9-0.1
			c-0.2-0.1-0.4-0.3-0.6-0.6c-0.2-0.3-0.3-0.5-0.3-0.9c-0.1-0.3-0.1-0.7-0.1-1s0-0.8,0.1-1.2c0.1-0.4,0.2-0.8,0.3-1.2
			c0.2-0.4,0.4-0.8,0.6-1.2c0.2-0.4,0.5-0.7,0.9-1.1c0.4-0.3,0.8-0.6,1.2-0.9c0.5-0.2,0.9-0.4,1.2-0.4c0.4-0.1,0.7,0,0.9,0.1
			c0.2,0.1,0.4,0.3,0.6,0.6c0.2,0.3,0.3,0.5,0.3,0.9c0.1,0.3,0.1,0.7,0.1,1c0,0.4,0,0.8-0.1,1.2c-0.1,0.4-0.2,0.8-0.3,1.2
			c-0.2,0.4-0.4,0.8-0.6,1.2C520.3,398,520,398.3,519.6,398.7z M517.4,398.8c0.3,0,0.6-0.1,1-0.3c0.4-0.2,0.7-0.5,1-0.8
			c0.3-0.3,0.5-0.7,0.7-1c0.2-0.4,0.3-0.7,0.3-1.1c0.1-0.3,0.1-0.7,0.1-1c0-0.3,0-0.6-0.1-0.9c-0.1-0.3-0.2-0.5-0.3-0.7
			c-0.2-0.2-0.4-0.3-0.7-0.3c-0.3,0-0.6,0.1-1,0.3c-0.4,0.2-0.7,0.5-1,0.8c-0.3,0.3-0.5,0.7-0.7,1c-0.2,0.4-0.3,0.7-0.3,1.1
			c-0.1,0.3-0.1,0.7-0.1,1c0,0.3,0,0.6,0.1,0.9c0.1,0.3,0.2,0.5,0.3,0.7C516.9,398.7,517.1,398.8,517.4,398.8z"/>
		<path fill="#828282" d="M526.2,395.4c-0.6,0.3-1,0.4-1.5,0.5c-0.4,0-0.8-0.1-1-0.3c-0.2-0.2-0.4-0.5-0.6-0.9s-0.2-0.8-0.2-1.3
			c0-0.5,0.1-1,0.2-1.5c0.1-0.5,0.3-1,0.6-1.5c0.3-0.5,0.6-1,1-1.4c0.4-0.5,0.9-0.8,1.4-1.1c0.6-0.3,1.2-0.5,1.6-0.4
			c0.4,0,0.7,0.2,1,0.5l-1,1.1c-0.4-0.4-0.9-0.4-1.5-0.1c-0.3,0.2-0.6,0.4-0.8,0.6c-0.2,0.2-0.4,0.5-0.6,0.8
			c-0.2,0.3-0.3,0.5-0.4,0.8c-0.1,0.3-0.2,0.6-0.2,0.8c0,0.3-0.1,0.5-0.1,0.8c0,0.8,0.2,1.3,0.5,1.7c0.3,0.3,0.9,0.3,1.6,0
			c0.5-0.2,0.8-0.6,1.1-1c0.3-0.5,0.4-0.9,0.4-1.3v-0.1l-1.3,0.7v-1l2.5-1.3v1c0,0.9-0.3,1.7-0.8,2.5
			C527.6,394.4,527,395,526.2,395.4z"/>
	</g>
	<path fill="#828282" d="M515.3,429.6c0,0.3,0,0.6-0.1,0.8l-6.6,3.7l-1.2,0.7v-0.8L515.3,429.6z"/>
	<path fill="#828282" d="M515.7,425.7c0,0.3-0.1,0.5-0.1,0.8l-8.2,4.6v-0.8L515.7,425.7z"/>
	<path fill="#828282" d="M520.4,414.3c0,1.8,0.9,2.8,2.3,3l6.4-3.1c1.4-1.7,2.3-4.1,2.3-5.9c0-2.9-2.4-3.9-5.5-2.2
		C522.8,407.8,520.4,411.4,520.4,414.3z"/>
	
		<ellipse transform="matrix(0.6359 -0.7717 0.7717 0.6359 -126.1094 555.6079)" fill="#E6E5E3" cx="525.8" cy="411.5" rx="4.3" ry="2.5"/>
	<polygon fill="#828282" points="516.5,410.5 507.4,415.5 507.4,414.7 516.5,409.7 	"/>
	<polygon fill="#828282" points="517.7,414 507.4,419.7 507.4,419 517.7,413.3 	"/>
	<path fill="#E6E5E3" d="M526.4,415.5l0,34.4c0,2.3,2.1,4.6,4.7,3.2l24.1-13.4l-0.1-35.6c0-3.3-2.8-4.3-6.3-2.2L526.4,415.5z"/>
	<path fill="#CECECE" d="M531.5,445.8l1.8,8.8l25.9-14.1c1.1-0.6,3.1-2.6,3.1-5.6l-0.4-6.3L531.5,445.8z"/>
	<path fill="#E6E5E3" d="M537,445.3c0,0.4,0,0.8,0,1.2v0.1c0,0.2,0,0.5,0,0.7v0.1c0,0.4,0,0.8-0.1,1.2c0,0.3-0.1,0.6-0.1,0.9
		c-0.4,2.4-3.7,5.2-3.7,5.2c-3.7,1.5-6.6-1.5-6.6-4v-7l9.9-3.9c0,0,0.1,0,0.1,0c0,0,0.4,2.1,0.5,4.8C537,444.8,537,445,537,445.3z"
		/>
	<path fill="#828282" d="M537,443.8l-6.5,3.7l0-0.8l6.5-3.7C537,443.3,537,443.5,537,443.8z"/>
	<path fill="#828282" d="M537,447.3L537,447.3c0,0.3,0,0.5,0,0.8v0l-6.5,3.6l0-0.8L537,447.3z"/>
	<path fill="#BEBEBE" d="M525.5,419.1c0,0,0,29.4,0,30.9c0,2.4,2.4,3.7,2.4,3.7s-1.1-0.9-1.3-3c0-2,0-27,0-28.7
		S525.5,419.1,525.5,419.1z"/>
	<polygon fill="#B1B1B2" points="535.8,442.2 560.6,428 561.9,428.7 536.9,443 	"/>
	<path fill="#BEBEBE" d="M535.8,442.2c0,0,1.1,10.2-3.1,12.6c0,0,3.7-1.1,4.1-5c0,0,0.6-4.6,0.2-6.8L535.8,442.2z"/>
	<polygon fill="#828282" points="553.5,413.5 530.4,426.2 530.4,425.5 553.5,412.8 	"/>
	<polygon fill="#828282" points="553.5,417.9 530.4,430.5 530.4,429.7 553.5,417.1 	"/>
</g>
</svg>
