                        <svg id="landing_open" data-name="Layer 1" xmlns="http://www.w3.org/2000/svg" xmlns:xlink="http://www.w3.org/1999/xlink" viewBox="0 0 286.8 387.16"><defs><linearGradient id="linear-gradient" x1="669.47" y1="469.9" x2="675.14" y2="469.9" gradientUnits="userSpaceOnUse"><stop offset="0" stop-color="#ee9224"/><stop offset="1" stop-color="#fcb850"/></linearGradient><linearGradient id="linear-gradient-2" x1="708.03" y1="498.15" x2="705.5" y2="479.12" gradientUnits="userSpaceOnUse"><stop offset="0" stop-color="#365989"/><stop offset="1" stop-color="#294970"/></linearGradient><linearGradient id="linear-gradient-3" x1="727.26" y1="500.89" x2="726.54" y2="476.49" xlink:href="#linear-gradient-2"/><linearGradient id="linear-gradient-4" x1="629.98" y1="377.59" x2="629.51" y2="361.7" gradientUnits="userSpaceOnUse"><stop offset="0" stop-color="#3178dd"/><stop offset="1" stop-color="#18539b"/></linearGradient><linearGradient id="linear-gradient-5" x1="641.38" y1="390.15" x2="640.52" y2="361.12" xlink:href="#linear-gradient-4"/><linearGradient id="linear-gradient-6" x1="3669.59" y1="1693.85" x2="3675.85" y2="1693.85" gradientTransform="translate(-1955.26 -2776.5) rotate(25.27)" xlink:href="#linear-gradient"/><linearGradient id="linear-gradient-7" x1="640.98" y1="311.36" x2="646.52" y2="311.36" xlink:href="#linear-gradient"/></defs><title>landing-open</title><path d="M653.73,528.71c-35.49-9.59-73.2-1.38-105.78,15.63-4.29,2.23-9,5.44-9.29,10.27-.5,7.55,9.23,10.86,16.75,11.7l54.89,6.17c27.62,3.1,55.44,6.2,83.15,4,30.52-2.37,60.47-11.11,91.08-11,9.3,0,19,.79,27.56-2.71s15.68-13.12,12.64-21.91c-2.13-6.15-8.31-9.88-14.35-12.29-51.09-20.39-84.1,14.65-156.65.14" transform="translate(-538.65 -190.08)" style="fill:#f5f5f6"/><g style="opacity:0.18"><polyline points="125.65 2.61 142.3 332.25 142.8 340.81 135.98 359.71" style="fill:none;stroke:#5f90ff;stroke-miterlimit:10;stroke-width:1.69988256309274px"/><polyline points="82.91 361.68 92.26 340.04 93.24 0.03" style="fill:none;stroke:#5f90ff;stroke-miterlimit:10;stroke-width:1.69988256309274px"/><line x1="132.21" y1="158.33" x2="93.24" y2="158.33" style="fill:none;stroke:#5f90ff;stroke-miterlimit:10;stroke-width:1.69988256309274px"/><line x1="134.29" y1="194.24" x2="93.24" y2="194.24" style="fill:none;stroke:#5f90ff;stroke-miterlimit:10;stroke-width:1.69988256309274px"/><line x1="136.14" y1="226.02" x2="93.24" y2="226.02" style="fill:none;stroke:#5f90ff;stroke-miterlimit:10;stroke-width:1.69988256309274px"/><line x1="138.14" y1="260.47" x2="92.48" y2="260.47" style="fill:none;stroke:#5f90ff;stroke-miterlimit:10;stroke-width:1.69988256309274px"/><line x1="140.35" y1="298.61" x2="93.24" y2="298.61" style="fill:none;stroke:#5f90ff;stroke-miterlimit:10;stroke-width:1.69988256309274px"/><line x1="142.3" y1="332.25" x2="92.28" y2="332.25" style="fill:none;stroke:#5f90ff;stroke-miterlimit:10;stroke-width:1.69988256309274px"/></g><line x1="93.24" y1="0.03" x2="82.91" y2="361.68" style="fill:none;stroke:#fcb850;stroke-miterlimit:10;stroke-width:1.85677455857866px"/><line x1="135.98" y1="361.68" x2="125.65" y2="0.03" style="fill:none;stroke:#fcb850;stroke-miterlimit:10;stroke-width:1.85677455857866px"/><line x1="89.82" y1="119.61" x2="129.11" y2="119.61" style="fill:none;stroke:#fcb850;stroke-miterlimit:10;stroke-width:1.85677455857866px"/><line x1="88.88" y1="152.48" x2="130" y2="152.48" style="fill:none;stroke:#fcb850;stroke-miterlimit:10;stroke-width:1.85677455857866px"/><line x1="87.88" y1="187.51" x2="130" y2="187.51" style="fill:none;stroke:#fcb850;stroke-miterlimit:10;stroke-width:1.85677455857866px"/><line x1="86.87" y1="222.65" x2="132.12" y2="222.65" style="fill:none;stroke:#fcb850;stroke-miterlimit:10;stroke-width:1.85677455857866px"/><line x1="85.96" y1="254.91" x2="132.93" y2="254.91" style="fill:none;stroke:#fcb850;stroke-miterlimit:10;stroke-width:1.85677455857866px"/><line x1="85.04" y1="287.14" x2="132.93" y2="287.14" style="fill:none;stroke:#fcb850;stroke-miterlimit:10;stroke-width:1.85677455857866px"/><line x1="84.06" y1="321.46" x2="134.77" y2="321.46" style="fill:none;stroke:#fcb850;stroke-miterlimit:10;stroke-width:1.85677455857866px"/><path d="M715.43,439.44c-3.56-2.46-17.77-39.25-17.77-39.25L695,401s7.41,31.79,13.38,36.59" transform="translate(-538.65 -190.08)" style="fill:#5f90ff"/><path d="M674.76,467.46a13.4,13.4,0,0,0-3.14,1.26,4.54,4.54,0,0,0-2.09,2.57,1,1,0,0,0,.1.87.77.77,0,0,0,.87.08,2.94,2.94,0,0,0,.69-.63,7.56,7.56,0,0,1,3.95-2.27Z" transform="translate(-538.65 -190.08)" style="fill:url(#linear-gradient)"/><path d="M709.18,436l4-7.24a2,2,0,0,0-.82-2.91L710,424.6s-2.33-1.17-4.45,1.75a1.86,1.86,0,0,1-1.51.53s-.47.11-.19.45c0,0,.58.51.31.88,0,0-.94,1.19-.12,1.87l1.19.76a.15.15,0,0,1,0,.19l-.09,4.09Z" transform="translate(-538.65 -190.08)" style="fill:#fcb850"/><path d="M713.87,535.11l-.35,5.42a.39.39,0,0,1-.26.36L709,542.21s-.37,0-.37.6c0,.3.49.3.49.3h8a.23.23,0,0,0,.21-.26l-.35-7.74Z" transform="translate(-538.65 -190.08)" style="fill:#0d3f72;stroke:#0d4054;stroke-miterlimit:10;stroke-width:0.100111430102331px"/><path d="M734.25,535.11l-.35,5.42a.39.39,0,0,1-.26.36l-4.28,1.32s-.36,0-.36.6c0,.3.48.3.48.3h8a.24.24,0,0,0,.22-.26l-.36-7.74Z" transform="translate(-538.65 -190.08)" style="fill:#0d3f72;stroke:#0d4054;stroke-miterlimit:10;stroke-width:0.100111430102331px"/><path d="M697.89,547.41a.19.19,0,0,0,0-.38.19.19,0,0,0,0,.38Z" transform="translate(-538.65 -190.08)" style="fill:#f9bf79"/><path id="_Clipping_Path_" data-name="&lt;Clipping Path&gt;" d="M701.94,482.33s-2.23,34,10.29,55.7a.66.66,0,0,0,.58.33h5.25a.43.43,0,0,0,.4-.6c-1.65-4-10.62-27.53-6.5-57.27" transform="translate(-538.65 -190.08)" style="fill:url(#linear-gradient-2)"/><path id="_Path_" data-name="&lt;Path&gt;" d="M715.43,480.12s1.69,33.75,17.9,58.24c.23.36,6.24,0,6.24,0S726.75,515.63,725.46,480" transform="translate(-538.65 -190.08)" style="fill:url(#linear-gradient-3)"/><path d="M699.06,428.52" transform="translate(-538.65 -190.08)" style="fill:none;stroke:#3fb980;stroke-miterlimit:10;stroke-width:0.187693754677433px"/><path d="M699.83,482.65l26.75-2.75s-6.17-46.29-18-45.63c0,0-9.37-1.48-13.23,8.59-2,5.25-2.67,10.05-3.43,14.06s-8.92,8.24-8.92,8.24l-8.92,2,.63,2.52s3.71-.5,7.7-.66a21.31,21.31,0,0,0,8.13-2.45,37.91,37.91,0,0,0,5.22-5.53c1.69-2.47,2.61-7.83,2.61-7.83Z" transform="translate(-538.65 -190.08)" style="fill:#5f90ff"/><path d="M710.55,436.89a12,12,0,0,0-1,3.1,6,6,0,0,1-1.73,2.65,3.56,3.56,0,0,1-1.6.9,3.72,3.72,0,0,1-2.38-.62,2.41,2.41,0,0,1-.32-2.92,10.92,10.92,0,0,1,2.07-2.39,7.17,7.17,0,0,0,2-3.48c.16-.83.1-1.68.24-2.51.06-.34.31-1.06.57-1.87a.08.08,0,0,1,.09-.05.72.72,0,0,0,.84-.42.86.86,0,0,0,0-.55c-.06-.19-.32-.33-.43-.41a.07.07,0,0,1,0-.09,4.4,4.4,0,0,0,.25-1.67l-.59-1.56a1.78,1.78,0,0,1,.48-1.58,1.83,1.83,0,0,1,2.17-.08,2.77,2.77,0,0,1,1.34,1.5c.28.73,1.43,1.53,1.7,2.26a5.83,5.83,0,0,1,.16,3.1C714,432.2,711.35,435.7,710.55,436.89Z" transform="translate(-538.65 -190.08)" style="fill:#18539b"/><path d="M697,400.58s-.88-3.05-.88-3.05l-1.37.22.92,3.09Z" transform="translate(-538.65 -190.08)" style="fill:#fcb850"/><line x1="138.14" y1="209.15" x2="167.14" y2="208.61" style="fill:none;stroke:#fcb850;stroke-miterlimit:10;stroke-width:1.69988256309274px"/><path d="M694.65,397.52a.88.88,0,0,0-.33.91.76.76,0,0,0,.76.58,1,1,0,0,0,.75-.48,2.64,2.64,0,0,0,.3-.87.19.19,0,0,0,0-.13.15.15,0,0,0-.13,0l-1.21-.14" transform="translate(-538.65 -190.08)" style="fill:#fcb850"/><path d="M653.3,430.39l.49,9.94a.51.51,0,0,0,.34.47l5.61,1.73s.48,0,.48.79c0,.39-.64.39-.64.39H649.14a.3.3,0,0,1-.28-.34v-13Z" transform="translate(-538.65 -190.08)" style="fill:#0d3f72;stroke:#0d4054;stroke-miterlimit:10;stroke-width:0.131301261733118px"/><path d="M636.17,400.61l.46,7.35a.53.53,0,0,0,.34.49l5.61,1.79s.48,0,.48.82c0,.41-.64.41-.64.41H632a.31.31,0,0,1-.29-.35l.47-10.51Z" transform="translate(-538.65 -190.08)" style="fill:#0d3f72;stroke:#0d4054;stroke-miterlimit:10;stroke-width:0.133528102667961px"/><path d="M621.72,365.06s8.28,16,9.06,19.05.32,17.95.32,17.95H637s1-13.51,1-17.95S632,363.78,632,363.78Z" transform="translate(-538.65 -190.08)" style="fill:url(#linear-gradient-4)"/><path d="M624.92,365.56s21.22,23.53,22.82,29-.36,40.23-.36,40.23h7.4s4.06-31.31,2.09-41.18S643,365,643,365Z" transform="translate(-538.65 -190.08)" style="fill:url(#linear-gradient-5)"/><path d="M675.19,365.57a10.68,10.68,0,0,1,1.79,1.26,3.32,3.32,0,0,1,1,1.88,1.09,1.09,0,0,1-.29,1,1.3,1.3,0,0,1-1.34-.08,9.39,9.39,0,0,1-2.9-2.22c-.1-.11-.2-.24-.16-.38s-2.19-2.49-1.47-2.86c.3-.16.24-.17.49-.39s2.37,1.94,2.61,1.73" transform="translate(-538.65 -190.08)" style="fill:#fcb850"/><path d="M650,319.7a4.63,4.63,0,0,1-.72,2.4.93.93,0,0,0-.19.76l.13,1.48s.13.44-.2.43c0,0-.77-.12-.64.36l0,.33a.21.21,0,0,1-.18.23s-.35,0-.29.29l.07.18s0,.33-.27.32c0,0-.47.33-.53.63,0,0,0,1-1,.76l-1.58-.45s-.94.22-2.15,2.34a11.74,11.74,0,0,1-4.85-1.52,31.84,31.84,0,0,0,2.14-5.57l3-4.62L647.2,317l2.72,2.28Z" transform="translate(-538.65 -190.08)" style="fill:url(#linear-gradient-6)"/><path d="M643.84,323.84s-1.2,1.34-4.29-.61c-.08-.05-.11-.07,0-.42a7.77,7.77,0,0,0,.61-2.93,5.78,5.78,0,0,1,2.36-4,4.91,4.91,0,0,1,4.09-.64,8,8,0,0,1,2.48,1.59c1.93,1.82,1,3.08,1,3.08s-.65-1-1.52-1a3.14,3.14,0,0,0-1.76.92,3.19,3.19,0,0,0-.66,1.84,1.06,1.06,0,0,1-.82,1.11s.25-.88-.27-1.08a.7.7,0,0,0-1.06.62Z" transform="translate(-538.65 -190.08)" style="fill:#5f90ff"/><path d="M641.75,313a29.42,29.42,0,0,1,2.28-3.66,3.38,3.38,0,0,1,.78-.82,1.19,1.19,0,0,1,1.09-.16,1.18,1.18,0,0,1,.6,1.3,3.08,3.08,0,0,1-.71,1.36c-.62.79-1.3,1.52-2,2.26a3.46,3.46,0,0,1-1.35,1,1.17,1.17,0,0,1-1.46-.55l0-.12" transform="translate(-538.65 -190.08)" style="fill:url(#linear-gradient-7)"/><path d="M649.46,327.87s-8.54.45-9.52,0-2.52-3.49-2.08-5c.36-1.2,3.93-5.67,5.35-8.11a9,9,0,0,1,2-1.69c-.55-.14-3-2.21-3.35-2.21s-8.72,8.85-10.18,11.83c-2.92,10.26-12.13,37.69-10.73,42.22.47,1.37,23.53,0,23.53,0s-.71-4.15-1-6.49,5.33-16.8,6-15.14c1.8,4.69,22.06,22.24,22.06,22.24l1.81-1.65S660.58,346.62,659,344s-4.28-15.86-8.26-16S649.46,327.87,649.46,327.87Z" transform="translate(-538.65 -190.08)" style="fill:#0d3f72"/><line x1="41.31" y1="353.68" x2="77.59" y2="349.51" style="fill:none;stroke:#fcb850;stroke-miterlimit:10;stroke-width:1.69988256309274px"/><line x1="20.75" y1="356.77" x2="64.81" y2="362.29" style="fill:none;stroke:#fcb850;stroke-miterlimit:10;stroke-width:1.69988256309274px"/><line x1="217.89" y1="348.3" x2="262.61" y2="355.56" style="fill:none;stroke:#fcb850;stroke-miterlimit:10;stroke-width:1.69988256309274px"/></svg>
