<?xml version="1.0" encoding="utf-8"?>
<!-- Generator: Adobe Illustrator 22.1.0, SVG Export Plug-In . SVG Version: 6.00 Build 0)  -->
<svg version="1.1" id="landing_safe" xmlns="http://www.w3.org/2000/svg" xmlns:xlink="http://www.w3.org/1999/xlink" x="0px" y="0px"
	 viewBox="0 0 509 327" enable-background="new 0 0 509 327" xml:space="preserve">
<g>
	<g>
		<path fill="#F5F5F6" d="M140.3,143.8c-24.3-1.3-49.1-2.7-73,0.7c-23.9,3.3-47.4,12-59.6,26.5c-12.3,14.5-10.2,35.2,8.7,45.8
			c10.7,6,24.8,8.2,38.3,10.1s27.7,3.8,38.8,9.4c11.1,5.6,0.4,16.2-5.4,24.8c-4.3,6.3-14,10-19.4,15.8c-8.8,9.7-2.9,23.1,9.2,30.9
			s28.9,11.1,45.2,13.3c61.1,8.6,124.4,6.5,186.4,2c62.1-4.6,127.6-0.4,174.1-29c16-9.9,29.9-24.3,24.2-38.6
			c-5.2-13-25.1-20.7-44.3-23.7s-39.4-15.2-58-19.6c-12.6-2.9-25.4-9-27.4-18.1c-1.8-7.8,5-15.5,5-23.4c0-10.6-12.5-19.8-26.8-23.8
			s-30.4-4-45.9-3.9c-82.6,0.4-147.4,0.9-230,1.3"/>
	</g>
	<g>
		<polygon fill="#DFDFE5" points="69.3,192 50,155.9 78.4,154.6 		"/>
		<path fill="#0452A0" d="M69.3,192l239.1-26.3c1.1,0,1.9-0.7,1.9-1.6V1.6c0-0.9-0.9-1.6-1.9-1.6L235,0c-1.1,0-1.9,0.7-1.9,1.6
			l0.1,11.1c0,0.9-0.9,1.6-1.9,1.6H61.6c-1.1,0-1.9,0.7-1.9,1.6l3.9,163.1C63.5,180,68.2,192,69.3,192z"/>
		<polygon fill="#F1F1F2" points="91.7,193.6 280.9,193.6 280.9,17 91.7,4.1 		"/>
		<path fill="#3D83FA" d="M69.3,29.6V192c0,0.9,0.9,1.6,1.9,1.6h150.4h92.6c1.1,0,1.9-0.7,1.9-1.6V44c0-0.9-0.9-1.6-1.9-1.6h-167
			c-1.1,0-1.9-0.7-1.9-1.6l0.1-11.1c0-0.9-0.9-1.6-1.9-1.6H71.2C70.1,28,69.3,28.7,69.3,29.6z"/>
		<path fill="#E5E5E4" d="M86.5,193.6"/>
	</g>
	<polyline fill="#DFDFE5" points="310.1,245.9 291.6,219.1 310.1,218.8 327.7,246.6 	"/>
	<polyline fill="#DFDFE5" points="138.5,241.6 120.1,214.7 231.9,214.4 251.8,245.6 	"/>
	<g>
		<path fill="#FBB22F" d="M419.9,246.6l-110.5-1.2l-14.5-72.2c8.9-4.8,14.9-14.2,14.9-25c0-15.7-12.7-28.4-28.4-28.4h-0.3
			c-15.5,0.2-28.1,12.8-28.1,28.4c0,10.9,6.1,20.3,15.1,25.1l-12.9,72.2H148.8c-1.7,0-3,0-3,0V64.1h274.1V246.6z"/>
		<polygon fill="#EE9224" points="146.1,245.7 138.8,241.4 138.7,59.8 146.1,64.4 		"/>
		<path opacity="0.71" fill="#EE9224" d="M300.3,172.9l14,72.7h-4.6l-14.5-72.2c8.9-4.8,14.9-14.2,14.9-25
			c0-15.7-12.7-28.4-28.4-28.4h-0.3c1.8-0.3,3.6-0.5,5.4-0.5c15.7,0,28.4,12.7,28.4,28.4C315.2,158.8,309.2,168.1,300.3,172.9z"/>
		<polygon fill="#D6841F" points="138.7,60 146.1,64.6 420.2,64.6 411,60 		"/>
	</g>
	<g>
		<g>
			<path fill="#DFDFE5" d="M309.9,249.5c1.8,2.6,3.7,5.4,2.6,8.6c-1,3.2-5.7,7-12.7,8.9c-5.8,1.5-11.9,1.5-16,0.4
				c-4.1-1.1-6.4-3.1-8.2-5.2c-6-6.9-6.7-15.3-7.3-23.6c-0.2-2.3,0.3-5.3,5.1-7.3c3.5-1.4,8-1.7,11.1-1.2s5.1,1.7,6.8,2.9
				C300.1,239.1,308.4,241.4,309.9,249.5"/>
		</g>
		
			<linearGradient id="SVGID_1_" gradientUnits="userSpaceOnUse" x1="-6961.8184" y1="255.4228" x2="-6961.2163" y2="260.1525" gradientTransform="matrix(-1 0 0 1 -6661.7803 0)">
			<stop  offset="0" style="stop-color:#EE9224"/>
			<stop  offset="1" style="stop-color:#FCB850"/>
		</linearGradient>
		<rect x="298.1" y="256" fill="url(#SVGID_1_)" width="3.2" height="4"/>
		
			<linearGradient id="SVGID_2_" gradientUnits="userSpaceOnUse" x1="-6948.0122" y1="254.8024" x2="-6947.2832" y2="260.5289" gradientTransform="matrix(-1 0 0 1 -6661.7803 0)">
			<stop  offset="0" style="stop-color:#EE9224"/>
			<stop  offset="1" style="stop-color:#FCB850"/>
		</linearGradient>
		<rect x="284.2" y="255.5" fill="url(#SVGID_2_)" width="3.2" height="4.9"/>
		<path fill="#053C68" d="M296.5,263.6h12.6c0.2,0,0.4-0.2,0.4-0.4V263c0-0.2-0.2-0.4-0.4-0.4h-12.6c-0.2,0-0.4,0.2-0.4,0.4v0.3
			C296.1,263.5,296.3,263.6,296.5,263.6z"/>
		<path fill="#0452A0" d="M302.1,258.6c0,0,0.2,0.8,1.7,1.4c0.5,0.2,2.3,0.5,2.7,0.8c1.2,0.6,2.5,1,2.7,1.8h-12.9c0,0,0.1-2.8,1.3-4
			c0,0,0.6-0.5,0.8,0s0.4,0.9,0.4,0.9s0.8,0.7,1.9,0c0.2-0.6,0-0.3,0.3-0.9C301.3,257.8,302.1,258.6,302.1,258.6z"/>
		<linearGradient id="SVGID_3_" gradientUnits="userSpaceOnUse" x1="285.7536" y1="215.3708" x2="286.2755" y2="183.3875">
			<stop  offset="0" style="stop-color:#3D83FA"/>
			<stop  offset="0.9987" style="stop-color:#0452A0"/>
		</linearGradient>
		<path fill="url(#SVGID_3_)" d="M279.4,185.6c0,0,8.2,32.6,3.5,70.7h5.4c0,0,8.9-37,1.3-70"/>
		<linearGradient id="SVGID_4_" gradientUnits="userSpaceOnUse" x1="301.1616" y1="214.9205" x2="300.6574" y2="184.2029">
			<stop  offset="0" style="stop-color:#3D83FA"/>
			<stop  offset="0.4956" style="stop-color:#216BCD"/>
			<stop  offset="0.9987" style="stop-color:#0452A0"/>
		</linearGradient>
		<path fill="url(#SVGID_4_)" d="M294.3,185.6c0,0,6.8,32.6,2.1,70.7h6.7c0,0,8.9-37,1.3-70"/>
		
			<linearGradient id="SVGID_5_" gradientUnits="userSpaceOnUse" x1="-6953.9272" y1="127.9133" x2="-6956.374" y2="132.8436" gradientTransform="matrix(-1 0 0 1 -6661.7803 0)">
			<stop  offset="0" style="stop-color:#EE9224"/>
			<stop  offset="1" style="stop-color:#FCB850"/>
		</linearGradient>
		<polygon fill="url(#SVGID_5_)" points="290.8,133.6 296.3,133.6 296.3,128.1 290.8,128.1 		"/>
		<path fill="#FCB850" d="M300.1,118.6l-0.8,8.3c0,0-0.5,1.8-3.1,2.9c0,0-2.3,1.5-5.9-1.3c0,0-0.8-0.3-0.8-2.3v-2.6
			c0,0-0.9,0.2-1.2-1.2c-0.1-0.3,0-0.9,0.1-1.2c0.4-0.8,1.3-0.6,1.3-0.6l2.2-4.8h3L300.1,118.6z"/>
		<path fill="#0452A0" d="M289,122.4c0,0-0.3-2.6,0.1-4.4c0.4-1.8,1.2-4.4,4.7-4.4c0,0,2.6-0.5,5.4,2.1c0,0,3.7,3.4,3,3.9
			c-3.6,2.2-4.5,1.5-6.5,0l-3-3.4C292.7,116.2,290.9,122.4,289,122.4z"/>
		
			<linearGradient id="SVGID_6_" gradientUnits="userSpaceOnUse" x1="-6979.02" y1="146.912" x2="-6979.02" y2="146.912" gradientTransform="matrix(-1 0 0 1 -6661.7803 0)">
			<stop  offset="0" style="stop-color:#EE9224"/>
			<stop  offset="1" style="stop-color:#FCB850"/>
		</linearGradient>
		<path fill="url(#SVGID_6_)" d="M317.2,146.9"/>
		<linearGradient id="SVGID_7_" gradientUnits="userSpaceOnUse" x1="293.0526" y1="149.5843" x2="292.383" y2="186.3002">
			<stop  offset="0" style="stop-color:#044982"/>
			<stop  offset="1" style="stop-color:#0452A3"/>
		</linearGradient>
		<path fill="url(#SVGID_7_)" d="M305.6,134.3c-4.7-1.7-9.4-1.2-14.3-1.2c-4.9,0-9.6,2.1-9.6,2.1s-9.4,36.2-6.6,52.7h34.4
			c0.8-2.6-0.1-10,0.2-17.9c0-0.5,0-1.1,0.1-1.6c0.4-11.2,0.4-22.8,0.4-22.8l1.2-7.1C311.2,138.4,307.6,135,305.6,134.3z"/>
		<linearGradient id="SVGID_8_" gradientUnits="userSpaceOnUse" x1="309.5456" y1="146.2016" x2="309.4074" y2="173.3058">
			<stop  offset="0" style="stop-color:#044982"/>
			<stop  offset="1" style="stop-color:#053C68"/>
		</linearGradient>
		<path fill="url(#SVGID_8_)" d="M309.5,136.9l1.8,1.5l11.3,19.6c0,0,1.9,7.9-2.2,10.3c0,0-5.7,2.2-8.2,1.6l-16.3-5.4l9.6-2.7h4
			l-2.9-14.8"/>
		
			<linearGradient id="SVGID_9_" gradientUnits="userSpaceOnUse" x1="-6968.1694" y1="158.9772" x2="-6971.2334" y2="158.7742" gradientTransform="matrix(-1 0 0 1 -6661.7803 0)">
			<stop  offset="0" style="stop-color:#EE9224"/>
			<stop  offset="1" style="stop-color:#FCB850"/>
		</linearGradient>
		<polygon fill="url(#SVGID_9_)" points="308.5,156.8 309.3,160.9 307.2,160.9 306.2,156.8 		"/>
		<path fill="#044982" d="M286.4,133.7c0,0-9.5,2.8-11.2,5.2l-6.3,17.9c0,0-1.3,5.7,2.4,8.9l3,3.7c0,0,2.2,1.3,8-1
			c0,0,22.3-6.7,25-6.9l-1.1-4.7l-0.1-0.6c0,0-24.7,0.5-26.5,1.2l3.9-10.6"/>
		<g>
			
				<linearGradient id="SVGID_10_" gradientUnits="userSpaceOnUse" x1="-6947.7603" y1="154.0717" x2="-6938.3936" y2="154.0717" gradientTransform="matrix(-1 0 0 1 -6661.7803 0)">
				<stop  offset="0" style="stop-color:#EE9224"/>
				<stop  offset="1" style="stop-color:#FCB850"/>
			</linearGradient>
			<path fill="url(#SVGID_10_)" d="M285.7,154.3c-0.8-1.5-2.2-2.6-3.7-2.9c-1.5-0.3-3.1,0.1-4.3,1.2c-0.7,0.6-1.4,1.7-1,2.7
				c0.3,0.7,0.9,1,1.6,1s1.2-0.3,1.8-0.4c1.6-0.4,3.2-0.3,4.6,0.9c0.4-0.7,0.9-1,1.3-1.7L285.7,154.3z"/>
		</g>
		<polygon fill="#053C68" points="295.9,156.5 285.8,153.8 282.7,157.1 		"/>
		<path fill="#0452A0" d="M288.2,258.6c0,0,0.8,0.6,1.7,1.4c0.1,0.1,2.8,2.9,2.3,2.9c-2.1,0-9.7-0.3-9.7-0.3s0.1-2.8,1.3-4
			c0,0-0.5,0.3,0,0C284.9,258,288.2,258.6,288.2,258.6z"/>
		<path fill="#053C68" d="M282.6,263.6h9.6c0.2,0,0.4-0.2,0.4-0.4V263c0-0.2-0.2-0.4-0.4-0.4h-9.6c-0.2,0-0.4,0.2-0.4,0.4v0.3
			C282.2,263.5,282.4,263.6,282.6,263.6z"/>
		<ellipse fill="#FCB850" cx="289.4" cy="121.7" rx="1.1" ry="1.3"/>
	</g>
</g>
</svg>
