        <svg id="landing_buildings" data-name="Layer 1" xmlns="http://www.w3.org/2000/svg" viewBox="0 0 1381.99 770"><title>landing_buildings</title><path d="M780.79,535.25c-83.7-20.66-172.67-3-249.55,33.69-10.1,4.82-21.14,11.74-21.9,22.14-1.18,16.27,21.78,23.4,39.5,25.22l129.51,13.29c65.16,6.68,130.79,13.38,196.15,8.72,72-5.12,142.66-24,214.89-23.81,32.18.06,123,5.5,133-1.16,11.18-7.48,11.64-24.89,4.19-36.08s-20.37-17.39-33-22c-15.14-5.52-28.69-15-43.17-20.31-120.53-44-198.41,31.58-369.59.3" style="fill:#3084d8"/><path d="M258.83,473V337.79a18.07,18.07,0,0,1,18.06-18.06l197.88-.82a18.06,18.06,0,0,0,18.06-18.06V54.7A18.07,18.07,0,0,1,510.9,36.64l170.78-1h46l128.09,1A18.06,18.06,0,0,1,873.81,54.7V236.26" style="fill:none;stroke:#fff;stroke-miterlimit:10;stroke-width:1.232px;stroke-dasharray:4.105381488800049,4.105381488800049"/><path d="M799.1,235.91V81.26A18.05,18.05,0,0,1,817.16,63.2h193.77A18.06,18.06,0,0,1,1029,81.26V347.59" style="fill:none;stroke:#fff;stroke-miterlimit:10;stroke-width:1.232px;stroke-dasharray:4.105381488800049,4.105381488800049"/><path d="M637.34,129.79V106.18a18.07,18.07,0,0,1,18.07-18.07H818.8a18.07,18.07,0,0,1,18.07,18.07V235.91" style="fill:none;stroke:#fff;stroke-miterlimit:10;stroke-width:1.232px;stroke-dasharray:4.105381488800049,4.105381488800049"/><rect x="613.93" y="129.79" width="132.9" height="441.12" style="fill:#18539b"/><rect x="630.88" y="149.66" width="8.16" height="403.08" style="fill:#0d3f72"/><rect x="653.17" y="149.66" width="8.16" height="403.08" style="fill:#0d3f72"/><rect x="677.61" y="149.66" width="8.16" height="403.08" style="fill:#0d3f72"/><rect x="699.9" y="149.66" width="8.16" height="403.08" style="fill:#0d3f72"/><rect x="724.53" y="148.82" width="8.16" height="403.08" style="fill:#0d3f72"/><rect x="900.33" y="397.25" width="228.71" height="172.69" style="fill:#18539b"/><ellipse cx="1014.68" cy="440.84" rx="86.96" ry="94.52" style="fill:#18539b"/><rect x="916.99" y="416.68" width="9.74" height="63.7" style="fill:#0d3f72"/><rect x="943.61" y="416.68" width="9.74" height="63.7" style="fill:#0d3f72"/><rect x="916.65" y="489.2" width="9.74" height="63.7" style="fill:#0d3f72"/><rect x="943.28" y="489.2" width="9.74" height="63.7" style="fill:#0d3f72"/><rect x="970.14" y="415.49" width="9.74" height="63.7" style="fill:#0d3f72"/><rect x="996.76" y="415.49" width="9.74" height="63.7" style="fill:#0d3f72"/><rect x="969.8" y="488.01" width="9.74" height="63.7" style="fill:#0d3f72"/><rect x="996.42" y="488.01" width="9.74" height="63.7" style="fill:#0d3f72"/><rect x="1023.6" y="415.32" width="9.74" height="63.7" style="fill:#0d3f72"/><rect x="1050.22" y="415.32" width="9.74" height="63.7" style="fill:#0d3f72"/><rect x="1023.26" y="487.84" width="9.74" height="63.7" style="fill:#0d3f72"/><rect x="1049.88" y="487.84" width="9.74" height="63.7" style="fill:#0d3f72"/><rect x="1076.75" y="414.13" width="9.74" height="63.7" style="fill:#0d3f72"/><rect x="1103.37" y="414.13" width="9.74" height="63.7" style="fill:#0d3f72"/><rect x="1076.41" y="486.65" width="9.74" height="63.7" style="fill:#0d3f72"/><rect x="1103.03" y="486.65" width="9.74" height="63.7" style="fill:#0d3f72"/><polygon points="741.98 267.79 741.98 277.43 744.69 286.91 741.99 286.91 741.99 328.43 744.9 338.58 741.99 338.58 741.99 380.09 744.9 389.58 741.99 389.58 741.99 431.09 744.82 441.64 741.99 441.64 741.99 482.85 745.04 493.31 741.99 493.31 741.99 534.82 744.33 544.26 742.05 544.26 742.05 588.69 961.38 588.69 961.38 544.61 958.58 544.55 961.32 534.82 961.32 493.31 958.29 493.31 961.32 483.15 961.32 441.64 958.83 441.64 961.32 431.09 961.28 410.49 961.32 389.58 959.06 389.58 961.32 380.09 961.32 338.58 958.73 338.58 961.32 328.43 961.32 286.91 958.89 286.91 961.32 277.43 961.31 235.91 741.98 235.91 741.98 267.79" style="fill:#f1f1f2"/><polygon points="741.99 588.69 741.99 544.26 961.32 544.61 961.32 588.69 741.99 588.69" style="fill:#fff"/><rect x="741.99" y="235.91" width="219.33" height="41.51" style="fill:#fff"/><polygon points="754.86 261.63 758.41 245.15 755.65 245.15 750.78 267.79 754.86 261.63" style="fill:#f48455"/><polygon points="758.95 255.45 757.09 258.25 762.55 271.95 765.75 271.95 758.95 255.45" style="fill:#f48455"/><rect x="741.99" y="286.91" width="219.33" height="41.51" style="fill:#fff"/><rect x="741.99" y="338.58" width="219.33" height="41.51" style="fill:#fff"/><rect x="741.99" y="389.58" width="219.33" height="41.51" style="fill:#fff"/><rect x="741.99" y="441.64" width="219.33" height="41.51" style="fill:#fff"/><rect x="741.99" y="493.31" width="219.33" height="41.51" style="fill:#fff"/><path d="M722.74,129.79V21.68A18.06,18.06,0,0,0,704.67,3.62h0a18.06,18.06,0,0,0-18.06,18.06V486.41" style="fill:none;stroke:#fff;stroke-miterlimit:10;stroke-width:1.232px;stroke-dasharray:4.105381488800049,4.105381488800049"/><polygon points="816.63 456.96 640.22 509.67 640.22 604.01 816.63 604.01 816.63 456.96" style="fill:#0d3f72"/><rect x="652.1" y="522.28" width="7.61" height="15.35" style="fill:#08365b"/><rect x="672.9" y="522.28" width="7.61" height="15.35" style="fill:#08365b"/><rect x="652.24" y="548.99" width="7.61" height="15.35" style="fill:#08365b"/><rect x="673.04" y="548.99" width="7.61" height="15.35" style="fill:#08365b"/><rect x="693.62" y="522.28" width="7.61" height="15.35" style="fill:#08365b"/><rect x="714.42" y="522.28" width="7.61" height="15.35" style="fill:#08365b"/><rect x="693.76" y="548.99" width="7.61" height="15.35" style="fill:#08365b"/><rect x="714.56" y="548.99" width="7.61" height="15.35" style="fill:#08365b"/><rect x="735.38" y="522.28" width="7.61" height="15.35" style="fill:#08365b"/><rect x="756.18" y="522.28" width="7.61" height="15.35" style="fill:#08365b"/><rect x="735.52" y="548.99" width="7.61" height="15.35" style="fill:#08365b"/><rect x="756.32" y="548.99" width="7.61" height="15.35" style="fill:#08365b"/><rect x="776.9" y="522.28" width="7.61" height="15.35" style="fill:#08365b"/><rect x="797.7" y="522.28" width="7.61" height="15.35" style="fill:#08365b"/><rect x="777.04" y="548.99" width="7.61" height="15.35" style="fill:#08365b"/><rect x="797.84" y="548.99" width="7.61" height="15.35" style="fill:#08365b"/><rect x="652.22" y="576.22" width="7.61" height="15.35" style="fill:#08365b"/><rect x="673.02" y="576.22" width="7.61" height="15.35" style="fill:#08365b"/><rect x="693.74" y="576.22" width="7.61" height="15.35" style="fill:#08365b"/><rect x="714.54" y="576.22" width="7.61" height="15.35" style="fill:#08365b"/><rect x="735.51" y="576.22" width="7.61" height="15.35" style="fill:#08365b"/><rect x="756.3" y="576.22" width="7.61" height="15.35" style="fill:#08365b"/><rect x="777.03" y="576.22" width="7.61" height="15.35" style="fill:#08365b"/><rect x="797.82" y="576.22" width="7.61" height="15.35" style="fill:#08365b"/><rect x="755.95" y="493.74" width="7.61" height="15.35" style="fill:#08365b"/><rect x="776.68" y="493.74" width="7.61" height="15.35" style="fill:#08365b"/><rect x="797.48" y="493.74" width="7.61" height="15.35" style="fill:#08365b"/><rect x="735.38" y="493.74" width="7.61" height="15.35" style="fill:#08365b"/><polygon points="637.73 500.86 637.73 510.4 820.94 456.89 820.94 446.71 637.73 500.86" style="fill:#08365b"/></svg>
