<?xml version="1.0" encoding="utf-8"?>
<!-- Generator: Adobe Illustrator 22.1.0, SVG Export Plug-In . SVG Version: 6.00 Build 0)  -->
<svg version="1.1" id="Layer_1" xmlns="http://www.w3.org/2000/svg" xmlns:xlink="http://www.w3.org/1999/xlink" x="0px" y="0px"
	 viewBox="0 0 406.2 265" enable-background="new 0 0 406.2 265" xml:space="preserve">
<g>
	<g>
		<linearGradient id="SVGID_1_" gradientUnits="userSpaceOnUse" x1="182.9916" y1="51" x2="274.9916" y2="51">
			<stop  offset="1.153274e-03" style="stop-color:#4786F4"/>
			<stop  offset="0.3297" style="stop-color:#6DA2FC"/>
		</linearGradient>
		<rect x="183" y="24" fill="url(#SVGID_1_)" width="92" height="54"/>
		<path fill="#BEBEBE" d="M273.3,21.9h2c1.7,0,3.1,1.4,3.1,3.1v61.7c0,1.6-1.3,3-3,3H272"/>
		<polygon fill="#DEDEE0" points="237.3,102.7 225.6,102.7 222.9,87.3 234.6,87.3 		"/>
		<path fill="#EDEDEE" d="M275.6,77.8v8.9c0,1.6-1.3,3-3,3h-88.7c-1.8,0-3.3-1.5-3.3-3.3V78"/>
		<path fill="#044982" d="M272.2,25.3l0,51.4L184,77.2V25.3H272.2 M272.7,22h-88.8c-1.8,0-3.3,1.5-3.3,3.3v55.3l94.9-0.4l0-55.2
			C275.6,23.2,274.3,22,272.7,22L272.7,22z"/>
	</g>
	<g>
		<path opacity="0.36" fill="#4087DD" d="M309.6,207.7c23.9-0.9,47.9-1.1,71.8-0.6c8.7,0.2,18.9,1.1,23.2,6.9
			c4.1,5.5,0.1,12.9-6.6,16.6c-6.7,3.7-15.3,4.7-23.5,5.5c-51.8,4.9-104.1,6.7-156.2,5.5c-17-0.4-35.5-0.7-48.9,7.3
			c-5.3,3.2-9.3,7.4-14.7,10.5c-11.6,6.5-27.4,6.2-41.7,5.1c-32.1-2.6-63.8-8-94.4-16.1c-5.2-1.4-10.5-2.9-14.4-6
			c-3.8-3-5.7-8-2.8-11.6c5-6.3,19.2-4,25.1-9.9c5.4-5.4,0-13.4,2.6-20c3.5-8.9,18.7-10.5,30.8-10.4c63,0.3,125.9,0.7,188.9,1
			c47.9,0.3,105.3,4.3,149.7,18"/>
	</g>
	<linearGradient id="SVGID_2_" gradientUnits="userSpaceOnUse" x1="331.9912" y1="104.0625" x2="332.0677" y2="138.1802">
		<stop  offset="0" style="stop-color:#044982"/>
		<stop  offset="1" style="stop-color:#0F5EBC"/>
	</linearGradient>
	<path fill="url(#SVGID_2_)" d="M332.8,222.5L332.8,222.5c1.5,0,2.7-1.2,2.7-2.7l0.7-114.5c0-1.5-1.9-2.6-3.4-2.6l0,0
		c-1.5,0-4.9,0.8-4.9,2.3l2.3,114.9C330.1,221.3,331.3,222.5,332.8,222.5z"/>
	<linearGradient id="SVGID_3_" gradientUnits="userSpaceOnUse" x1="102.895" y1="106.4853" x2="102.9715" y2="140.603">
		<stop  offset="0" style="stop-color:#044982"/>
		<stop  offset="1" style="stop-color:#0F5EBC"/>
	</linearGradient>
	<path fill="url(#SVGID_3_)" d="M103.7,224.9L103.7,224.9c1.5,0,2.7-1.2,2.7-2.7l0.7-114.5c0-1.5-1.9-2.6-3.4-2.6h0
		c-1.5,0-4.9,0.8-4.9,2.3l2.3,114.9C101,223.7,102.2,224.9,103.7,224.9z"/>
	<g>
		
			<linearGradient id="SVGID_4_" gradientUnits="userSpaceOnUse" x1="7218.9824" y1="74.9423" x2="7217.9819" y2="82.8236" gradientTransform="matrix(0.9996 2.918356e-02 -2.918356e-02 0.9996 -7024.1064 -83.7015)">
			<stop  offset="0" style="stop-color:#EE9224"/>
			<stop  offset="1" style="stop-color:#FCB850"/>
		</linearGradient>
		<polygon fill="url(#SVGID_4_)" points="186,202.1 185.7,213.2 191.3,213.9 192.5,202.2 		"/>
		<g>
			<path fill="#0B5AA8" d="M207.3,219.7c0.5,0,1-0.4,1-0.9c0-2.2-1.6-4.5-3.6-5.1c-1.4-0.5-2.9-0.3-4.4-0.3c-1.5,0-3.1-0.3-4.1-1.4
				c-0.5-0.6-0.8-1.3-1.2-1.9c-0.4-0.6-1-1.2-1.8-1.2c-0.9,0-1.6,0.7-2,1.4c-0.5,0.9-0.8,2-1.7,2.7c-0.4,0.3-1,0.5-1.5,0.3
				c-0.9-0.3-1-1.1-1.2-1.9c-0.2-0.6-0.5-1.4-1.1-1.6c-0.5-0.2-1.1,0.1-1.5,0.5c-1,0.9-1.4,2.4-1.3,3.8c0.1,1,0.3,3.4,0.3,4.5
				c0,0.3,0.3,0.5,0.6,0.5l15.5,0.5L207.3,219.7z"/>
		</g>
		<polygon fill="#0452A0" points="179.1,138.9 196.9,139.2 195,204.5 184.8,204.8 		"/>
	</g>
	<rect x="86.9" y="102.3" fill="#044982" width="264" height="4.9"/>
	
		<linearGradient id="SVGID_5_" gradientUnits="userSpaceOnUse" x1="7022.252" y1="27.6659" x2="7043.4072" y2="27.6659" gradientTransform="matrix(1 0 0 1 -6896.8613 0)">
		<stop  offset="0" style="stop-color:#EE9224"/>
		<stop  offset="1" style="stop-color:#FCB850"/>
	</linearGradient>
	<path fill="url(#SVGID_5_)" d="M152.6,10.3c0,0,1.8,3.5,1.2,8c0,0-0.4,1.2,0.5,2.5l2.4,4.1c0,0,1,1.1,0,1.5c0,0-2.4,0.7-1.4,1.9
		l0.5,0.9c0,0,0.3,0.5-0.2,0.9c0,0-1,0.5-0.4,1.2l0.5,0.4c0,0,0.5,0.9-0.3,1.3c0,0-0.9,1.6-0.7,2.6c0,0,1.4,3-1.8,3.6l-5.2,0.9
		c0,0-5.3,1.2-5.9,9.1c0,0-6.3-3.4-16.4-3.9c0,0,3.3-7.6,1.8-12.3l2.4-17.6l11.3-9.1l11,2.9L152.6,10.3z"/>
	
		<linearGradient id="SVGID_6_" gradientUnits="userSpaceOnUse" x1="7105.6235" y1="202.4754" x2="7104.3789" y2="212.277" gradientTransform="matrix(1 0 0 1 -6896.8613 0)">
		<stop  offset="0" style="stop-color:#EE9224"/>
		<stop  offset="1" style="stop-color:#FCB850"/>
	</linearGradient>
	<polygon fill="url(#SVGID_6_)" points="205.1,203.8 203,216.5 210.3,217.2 212.7,202.9 	"/>
	<path fill="#0452A0" d="M140,30.3c0,0-1.7,5.8-13.8,4.3c-0.3,0-0.4-0.1-0.5-1.4c0,0-0.1-5.1-2.3-9.8c0,0-3.1-8.4,1.4-15.6
		S136.1,0,136.1,0s4.7-0.4,9.8,1.3c3.1,1,5.7,3,7.4,4.1c2.3,1.5,2.4,3,2.1,4.1c-0.2,0.8-1.1,1.1-1.8,0.8c-1.5-0.7-4.3-1.7-7-0.8
		c-2.8,0.9-3.3,4.2-3.3,4.2s-0.9,3.9,0.6,6.5s-0.9,4.5-0.9,4.5s-0.5-3-2.4-2.9c-1.9,0.1-3,1.4-2.3,3.4C139,27.3,140,30.3,140,30.3z"
		/>
	<g>
		<defs>
			<polyline id="SVGID_18_" points="134.4,120.5 136.2,72.7 170.2,74.3 168.9,91.2 169.9,120.4 			"/>
		</defs>
		<use xlink:href="#SVGID_18_"  overflow="visible" fill="#246EF0"/>
		<clipPath id="SVGID_7_">
			<use xlink:href="#SVGID_18_"  overflow="visible"/>
		</clipPath>
		
			<linearGradient id="SVGID_8_" gradientUnits="userSpaceOnUse" x1="2078.3413" y1="-3974.1125" x2="2050.9028" y2="-3978.6941" gradientTransform="matrix(0.8788 0.6265 -0.776 1.0886 -4737.5879 3135.9299)">
			<stop  offset="0" style="stop-color:#246EF0"/>
			<stop  offset="0" style="stop-color:#0F5EBC"/>
			<stop  offset="1" style="stop-color:#246EF0"/>
		</linearGradient>
		<path clip-path="url(#SVGID_7_)" fill="url(#SVGID_8_)" d="M157.1,78.1l-9.6,3.9c-3.4,2.5,0,10.5-0.4,14.5l-1.2,12.7
			c-0.3,3.1,0.6,5.9,2.4,7.9l0,0c3.2,3.5,17.3,9.2,21.8,5.8l1-12.9c4-3,6.3-8.1,5.8-12.7l-1.1-10.8
			C175.1,78.8,163.9,73.2,157.1,78.1z"/>
	</g>
	<path fill="#0452A0" d="M125,122l1.2,14.8c0.2,3,2.7,5.3,5.7,5.3l77.9,1.8l-8.6,60.6l12.4,0.8c0,0,34-78,8.8-83.5
		c-21.7-4.7-50.9-3.9-50.9-3.9L125,122z"/>
	
		<linearGradient id="SVGID_9_" gradientUnits="userSpaceOnUse" x1="7129.041" y1="99.039" x2="7147.8452" y2="99.039" gradientTransform="matrix(1 0 0 1 -6896.8613 0)">
		<stop  offset="0" style="stop-color:#EE9224"/>
		<stop  offset="1" style="stop-color:#FCB850"/>
	</linearGradient>
	<path fill="url(#SVGID_9_)" d="M233,96.4c0,0,3.6-0.5,7.2-0.5s4,0.1,6.6,1.1c3.6,1.7,4.2,5.2,4.2,5.2h-7.6h-11.2L233,96.4z"/>
	<polygon fill="#FFFFFF" points="235.6,102.2 233.8,102.2 233.8,95.6 235.6,95.9 	"/>
	<g>
		<path fill="#095FC6" d="M228.5,223.6c0.6,0,1.1-0.5,1.1-1.2c-0.1-2.6-2-5.4-4.5-6.2c-1.7-0.5-3.5-0.3-5.3-0.3
			c-1.8,0-3.7-0.3-4.9-1.6c-0.6-0.7-1-1.5-1.5-2.3s-1.2-1.4-2.1-1.4c-1,0-1.9,0.9-2.3,1.8c-0.6,1.1-0.9,2.5-1.9,3.3
			c-0.5,0.4-1.1,0.6-1.7,0.4c-1-0.3-1.3-1.4-1.5-2.3c-0.2-0.8-0.6-1.7-1.4-1.9c-0.6-0.2-1.3,0.2-1.8,0.7c-1.2,1.2-1.6,3-1.4,4.7
			c0.1,1.3,0.4,4.2,0.6,5.5c0,0.4,0.3,0.6,0.7,0.6L228.5,223.6z"/>
	</g>
	<path fill="#246EF0" d="M112.8,71.8c0,0,0-31.6,17.3-27.7l20.2,4.6c0,0,15.6,3,19.2,13.5l12.4,22.1c0.6,1,1.5,1.8,2.5,2.1
		c1.2,0.4,2.7,0.9,3.5,0.9c0,0,17.8,1.9,24.7,3.5l20.4,4.5c0,0,2.3,2.6,0.6,7.1h-45.9c0,0-18,2.9-25.6-20l-2.3-6.8L112.8,71.8z"/>
	<path fill="#F4C882" d="M196.5,146.2h-50.7c-0.6,0-1.1-0.5-1.1-1.1v-1.6c0-0.6,0.5-1.1,1.1-1.1h50.7c0.6,0,1.1,0.5,1.1,1.1v1.6
		C197.6,145.7,197.1,146.2,196.5,146.2z"/>
	<path fill="#FBB22F" d="M164.7,146.2H111c-0.6,0-1.1-0.5-1.1-1.1v-1.6c0-0.6,0.5-1.1,1.1-1.1h53.7c0.6,0,1.1,0.5,1.1,1.1v1.6
		C165.8,145.7,165.3,146.2,164.7,146.2z"/>
	<path fill="#044982" d="M151.5,178.9H149c-1.7,0-3-1.7-3-3.8v-29h1.1h1h6.6v28.7C154.7,177.1,153.3,178.9,151.5,178.9z"/>
	<g>
		<ellipse fill="#0D3F72" cx="178.5" cy="222.3" rx="2.8" ry="2.6"/>
		<path fill="#18539B" d="M177.5,224.7c-1-0.2-1.8-1.2-1.8-2.4c0-1.2,0.8-2.2,1.8-2.4c-0.6,0.6-1.1,1.4-1.1,2.4
			C176.4,223.3,176.8,224.2,177.5,224.7z"/>
		<path fill="#093356" d="M179.4,224.7c1-0.2,1.8-1.2,1.8-2.4c0-1.2-0.8-2.2-1.8-2.4c0.6,0.6,1.1,1.4,1.1,2.4
			C180.4,223.3,180,224.2,179.4,224.7z"/>
	</g>
	<path fill="#00416D" d="M150.4,215.1l28.2,4.8c0.9,0,1.7-0.8,1.7-1.9c0,0,0-1.6-1.7-1.9l-27.4-5.5c0,0-2.5,1.5-2.5,2.6v0
		C148.7,214.2,149.4,215.1,150.4,215.1z"/>
	<path fill="#F4C882" d="M118.2,138.2c-0.7,0-1.3-0.7-1.1-1.4c4.3-16.8-4.9-31.3-4.9-31.3c-11.1-16-12-39.1-12.1-44.4
		c0-0.6,0.5-1.1,1.1-1.1h50.6c0.6,0,1.1,0.5,1.1,1.1c0.1,5.3,1,28.5,12.1,44.4c0,0,9.4,14.8,4.7,31.9c-0.1,0.5-0.6,0.8-1.1,0.8
		H118.2z"/>
	<path fill="#FBB22F" d="M114.5,138.2c-0.7,0-1.3-0.7-1.1-1.4c4.3-16.8-4.9-31.3-4.9-31.3c-11.1-16-12-39.1-12.1-44.4
		c0-0.6,0.5-1.1,1.1-1.1h50.6c0.6,0,1.1,0.5,1.1,1.1c0.1,5.3,1,28.5,12.1,44.4c0,0,9.4,14.8,4.7,31.9c-0.1,0.5-0.6,0.8-1.1,0.8
		H114.5z"/>
	<path fill="#044982" d="M135.7,121.6h-2c-1.4,0-2.5,1.7-2.5,3.8v6.2v2.8v6.2c0,2.1,1.1,3.8,2.5,3.8h2c1.5,0,2.6-1.8,2.6-4v-6v-2.8
		v-6C138.4,123.4,137.2,121.6,135.7,121.6z"/>
	<path fill="#0452A0" d="M133,132.9c0-1.5,0.1-4.1,0.1-5.8c0-3.3,1.1-4.8,1.1-4.8c-2.7-0.3-2.4,4.8-2.4,4.8v4.4v2.8v4.4
		c0,0-0.3,5.1,2.4,4.8c0,0-1.2-1.5-1.1-4.8C133.1,137,133,134.5,133,132.9z"/>
	<g>
		<ellipse fill="#0D3F72" cx="168.6" cy="226" rx="3.3" ry="2.9"/>
		<path fill="#18539B" d="M169.8,228.7c1.2-0.3,2.1-1.4,2.1-2.7c0-1.3-0.9-2.4-2.1-2.7c0.8,0.6,1.2,1.6,1.2,2.7
			C171,227.1,170.5,228,169.8,228.7z"/>
		<path fill="#093356" d="M167.5,228.7c-1.2-0.3-2.1-1.4-2.1-2.7c0-1.3,0.9-2.4,2.1-2.7c-0.8,0.6-1.2,1.6-1.2,2.7
			C166.3,227.1,166.8,228,167.5,228.7z"/>
	</g>
	<g>
		<ellipse fill="#0D3F72" cx="123" cy="223.2" rx="3" ry="2.8"/>
		<path fill="#18539B" d="M124.1,225.8c1.1-0.3,1.9-1.3,1.9-2.6c0-1.3-0.8-2.3-1.9-2.6c0.7,0.6,1.1,1.6,1.1,2.6
			C125.2,224.2,124.8,225.2,124.1,225.8z"/>
		<path fill="#093356" d="M122,225.8c-1.1-0.3-1.9-1.3-1.9-2.6c0-1.3,0.8-2.3,1.9-2.6c-0.7,0.6-1.1,1.6-1.1,2.6
			C120.9,224.2,121.3,225.2,122,225.8z"/>
	</g>
	<path fill="#044982" d="M152.2,211.7h-2.5c-0.6,0-1-0.5-1-1.1l0.1-33.5c0-0.6,0.5-1.1,1-1.1h2.4c0.6,0,1,0.5,1,1.1v33.5
		C153.2,211.2,152.8,211.7,152.2,211.7z"/>
	<path fill="#0452A0" d="M150.4,210.1h-0.5c-0.2,0-0.3-0.1-0.3-0.3v-30.2c0-0.2,0.1-0.3,0.3-0.3h0.5c0.2,0,0.3,0.1,0.3,0.3v30.2
		C150.7,210,150.6,210.1,150.4,210.1z"/>
	<g>
		<ellipse fill="#0D3F72" cx="140.9" cy="218.4" rx="3" ry="2.8"/>
		<path fill="#18539B" d="M142,221c1.1-0.3,1.9-1.3,1.9-2.6c0-1.3-0.8-2.3-1.9-2.6c0.7,0.6,1.1,1.6,1.1,2.6
			C143.1,219.4,142.7,220.4,142,221z"/>
		<path fill="#093356" d="M139.9,221c-1.1-0.3-1.9-1.3-1.9-2.6c0-1.3,0.8-2.3,1.9-2.6c-0.7,0.6-1.1,1.6-1.1,2.6
			C138.8,219.4,139.2,220.4,139.9,221z"/>
	</g>
	<path fill="#00416D" d="M150.7,215.1l-28.1,5.3c-0.9,0-1.7-0.8-1.7-1.9c0,0,0-1.6,1.7-1.9l28.3-6"/>
	<path fill="#044982" d="M150.9,210.7l18.5,7.8c1.3,0.6,2,2.2,1.4,3.6v0c-0.6,1.4-2.2,2-3.5,1.4l-16.3-8.3"/>
	<path fill="#0452A0" d="M148.2,173.4c0-2.7-0.1-27.1-0.1-27.1l-1.5,0v27.1c0,0-0.3,5.1,3,4.8C149.6,178.2,148.2,176.6,148.2,173.4z
		"/>
	<linearGradient id="SVGID_10_" gradientUnits="userSpaceOnUse" x1="270.531" y1="106.1111" x2="270.6075" y2="140.2289">
		<stop  offset="0" style="stop-color:#044982"/>
		<stop  offset="1" style="stop-color:#0F5EBC"/>
	</linearGradient>
	<path fill="url(#SVGID_10_)" d="M271.3,224.5L271.3,224.5c1.5,0,2.7-1.2,2.7-2.7l0.7-114.5c0-1.5-1.9-2.6-3.4-2.6l0,0
		c-1.5,0-4.9,0.8-4.9,2.3l2.3,114.9C268.7,223.3,269.9,224.5,271.3,224.5z"/>
	<rect x="259.7" y="102.3" fill="#0452A0" width="91.2" height="4.9"/>
	<g>
		<path fill="#EE9224" d="M241.2,60.4h-30c-0.1,0-0.2-0.1-0.2-0.2V39c0-0.1,0.1-0.2,0.2-0.2h8.9c0.1,0,0.2,0.1,0.2,0.2l0,1.4
			c0,0.1,0.1,0.2,0.2,0.2h20.6c0.1,0,0.2,0.1,0.2,0.2v19.2C241.4,60.3,241.3,60.4,241.2,60.4z"/>
		<polygon fill="#FFFDFD" points="239.4,64 214.8,64 214.8,41 239.4,39.4 		"/>
		<path fill="#FBB22F" d="M210.4,64h31.7c0.1,0,0.2-0.1,0.2-0.2V42.7c0-0.1-0.1-0.2-0.2-0.2h-9.4c-0.1,0-0.3,0.1-0.2,0.2l0,1.4
			c0,0.1-0.1,0.2-0.2,0.2h-21.8c-0.1,0-0.2,0.1-0.2,0.2v19.2C210.2,63.9,210.3,64,210.4,64z"/>
	</g>
</g>
</svg>
