<?xml version="1.0" encoding="utf-8"?>
<!-- Generator: Adobe Illustrator 22.1.0, SVG Export Plug-In . SVG Version: 6.00 Build 0)  -->
<svg version="1.1" id="landing_open" xmlns="http://www.w3.org/2000/svg" xmlns:xlink="http://www.w3.org/1999/xlink" x="0px" y="0px"
	 viewBox="0 0 438.5 592" enable-background="new 0 0 438.5 592" xml:space="preserve">
<g>
	<g>
		<path fill="#F5F5F6" d="M176,517.8c-54.3-14.7-111.9-2.1-161.7,23.9C7.7,545.1,0.5,550,0,557.4c-0.8,11.5,14.1,16.6,25.6,17.9
			c28,3.1,56,6.3,83.9,9.4c42.2,4.7,84.8,9.5,127.1,6.2c46.7-3.6,92.5-17,139.3-16.9c14.2,0,29,1.2,42.1-4.1
			c13.2-5.4,24-20.1,19.3-33.5c-3.2-9.4-12.7-15.1-21.9-18.8C337.4,486.4,286.9,540,176,517.8"/>
	</g>
	<g opacity="0.18">
		<polyline fill="none" stroke="#5F90FF" stroke-width="2.5992" stroke-miterlimit="10" points="192.1,4 217.6,508 218.3,521.1
			207.9,550 		"/>
		<polyline fill="none" stroke="#5F90FF" stroke-width="2.5992" stroke-miterlimit="10" points="126.8,553 141.1,519.9 142.6,0
			"/>
		<line fill="none" stroke="#5F90FF" stroke-width="2.5992" stroke-miterlimit="10" x1="202.2" y1="242.1" x2="142.6" y2="242.1"/>
		<line fill="none" stroke="#5F90FF" stroke-width="2.5992" stroke-miterlimit="10" x1="205.3" y1="297" x2="142.6" y2="297"/>
		<line fill="none" stroke="#5F90FF" stroke-width="2.5992" stroke-miterlimit="10" x1="208.2" y1="345.6" x2="142.6" y2="345.6"/>
		<line fill="none" stroke="#5F90FF" stroke-width="2.5992" stroke-miterlimit="10" x1="211.2" y1="398.3" x2="141.4" y2="398.3"/>
		<line fill="none" stroke="#5F90FF" stroke-width="2.5992" stroke-miterlimit="10" x1="214.6" y1="456.6" x2="142.6" y2="456.6"/>
		<line fill="none" stroke="#5F90FF" stroke-width="2.5992" stroke-miterlimit="10" x1="217.6" y1="508" x2="141.1" y2="508"/>
	</g>
	<g>
		<line fill="none" stroke="#FEBF24" stroke-width="2.8391" stroke-miterlimit="10" x1="142.6" y1="0" x2="126.8" y2="553"/>
		<line fill="none" stroke="#FEBF24" stroke-width="2.8391" stroke-miterlimit="10" x1="207.9" y1="553" x2="192.1" y2="0"/>
		<line fill="none" stroke="#FEBF24" stroke-width="2.8391" stroke-miterlimit="10" x1="137.3" y1="182.9" x2="197.4" y2="182.9"/>
		<line fill="none" stroke="#FEBF24" stroke-width="2.8391" stroke-miterlimit="10" x1="135.9" y1="233.2" x2="198.8" y2="233.2"/>
		<line fill="none" stroke="#FEBF24" stroke-width="2.8391" stroke-miterlimit="10" x1="134.4" y1="286.7" x2="198.8" y2="286.7"/>
		<line fill="none" stroke="#FEBF24" stroke-width="2.8391" stroke-miterlimit="10" x1="132.8" y1="340.5" x2="202" y2="340.5"/>
		<line fill="none" stroke="#FEBF24" stroke-width="2.8391" stroke-miterlimit="10" x1="131.4" y1="389.8" x2="203.3" y2="389.8"/>
		<line fill="none" stroke="#FEBF24" stroke-width="2.8391" stroke-miterlimit="10" x1="130" y1="439.1" x2="203.3" y2="439.1"/>
		<line fill="none" stroke="#FEBF24" stroke-width="2.8391" stroke-miterlimit="10" x1="128.5" y1="491.5" x2="206.1" y2="491.5"/>
	</g>
	<g>
		<path fill="#EE9224" d="M242.1,321.9c0,0-1.3-4.7-1.3-4.7l-2.1,0.3l1.4,4.7L242.1,321.9z"/>
		<path fill="#5F90FF" d="M270.3,381.3c-5.5-3.8-27.2-60-27.2-60l-4.1,1.2c0,0,11.3,48.6,20.5,55.9"/>
		<linearGradient id="SVGID_1_" gradientUnits="userSpaceOnUse" x1="200.0408" y1="427.8599" x2="208.7078" y2="427.8599">
			<stop  offset="0" style="stop-color:#EE9224"/>
			<stop  offset="1" style="stop-color:#FCB850"/>
		</linearGradient>
		<path fill="url(#SVGID_1_)" d="M208.1,424.1c-1.7,0.5-3.3,1-4.8,1.9c-1.5,0.9-2.7,2.3-3.2,3.9c-0.1,0.4-0.2,1,0.2,1.3
			c0.3,0.4,0.9,0.3,1.3,0.1s0.7-0.6,1.1-1c1.6-1.7,3.7-3,6-3.5L208.1,424.1z"/>
		<linearGradient id="SVGID_2_" gradientUnits="userSpaceOnUse" x1="264.5082" y1="375.9542" x2="258.0868" y2="362.4204">
			<stop  offset="0" style="stop-color:#EE9224"/>
			<stop  offset="1" style="stop-color:#FCB850"/>
		</linearGradient>
		<path fill="url(#SVGID_2_)" d="M260.8,376.1l6.1-11.1c0,0,1.8-2.5-1.2-4.5l-3.6-2c0,0-3.6-1.8-6.8,2.7c0,0-0.9,1-2.3,0.8
			c0,0-0.7,0.2-0.3,0.7c0,0,0.9,0.8,0.5,1.3c0,0-1.4,1.8-0.2,2.9l1.8,1.2c0.1,0.1,0.1,0.2,0.1,0.3l-0.1,6.3L260.8,376.1z"/>
		<path fill="#0D3F72" stroke="#0D4054" stroke-width="0.1531" stroke-miterlimit="10" d="M267.9,527.6l-0.5,8.3
			c0,0.3-0.2,0.5-0.4,0.5l-6.5,2c0,0-0.6,0-0.6,0.9c0,0.5,0.7,0.5,0.7,0.5h12.2c0.2,0,0.3-0.2,0.3-0.4l-0.5-11.8H267.9z"/>
		<path fill="#0D3F72" stroke="#0D4054" stroke-width="0.1531" stroke-miterlimit="10" d="M299.1,527.6l-0.5,8.3
			c0,0.3-0.2,0.5-0.4,0.5l-6.5,2c0,0-0.6,0-0.6,0.9c0,0.5,0.7,0.5,0.7,0.5H304c0.2,0,0.3-0.2,0.3-0.4l-0.5-11.8H299.1z"/>
		<g>
			<path fill="#F9BF79" d="M243.5,546.4c0.4,0,0.4-0.6,0-0.6C243.1,545.8,243.1,546.4,243.5,546.4L243.5,546.4z"/>
		</g>
		<g>
			<defs>
				<path id="XMLID_51_" d="M249.7,446.9c0,0-3.4,49,15.7,82.2c0.2,0.3,0.5,0.5,0.9,0.5h8c0.5,0,0.8-0.5,0.6-0.9
					c-2.5-6.1-16.2-39.1-9.9-84.6"/>
			</defs>
			<linearGradient id="XMLID_2_" gradientUnits="userSpaceOnUse" x1="264.2556" y1="441.8307" x2="262.9704" y2="472.6764">
				<stop  offset="1.153274e-03" style="stop-color:#044982"/>
				<stop  offset="0.5062" style="stop-color:#044E91"/>
				<stop  offset="1" style="stop-color:#0452A0"/>
			</linearGradient>
			<use xlink:href="#XMLID_51_"  overflow="visible" fill="url(#XMLID_2_)"/>
			<clipPath id="XMLID_3_1">
				<use xlink:href="#XMLID_51_"  overflow="visible"/>
			</clipPath>
		</g>
		<linearGradient id="XMLID_4_" gradientUnits="userSpaceOnUse" x1="286.6658" y1="440.8187" x2="287.9345" y2="477.2802">
			<stop  offset="1.153274e-03" style="stop-color:#044982"/>
			<stop  offset="0.5062" style="stop-color:#044E91"/>
			<stop  offset="1" style="stop-color:#0452A0"/>
		</linearGradient>
		<path id="XMLID_50_" fill="url(#XMLID_4_)" d="M270.3,443.5c0,0,1.6,49.6,26.4,87c0.4,0.5,9.6,0,9.6,0s-18.6-32.8-20.6-87.2"/>
		<path fill="none" stroke="#3FB980" stroke-width="0.287" stroke-miterlimit="10" d="M245.3,364.6"/>
		<path fill="#3D83FA" d="M246.5,447.4l40.9-4.2c0,0-9.4-70.8-27.5-69.8c0,0-14.3-2.3-20.2,13.1c-3.1,8-4.1,15.4-5.2,21.5
			c-1.2,6.1-13.6,12.6-13.6,12.6l-13.6,3.1l1,3.8c0,0,5.7-0.8,11.8-1c6.1-0.2,12.4-3.8,12.4-3.8s5.4-4.7,8-8.5c2.6-3.8,4-12,4-12
			L246.5,447.4z"/>
		<path fill="#0452A0" d="M262.9,377.4c-0.9,1.4-1,3.2-1.6,4.7c-0.5,1.6-1.4,3-2.6,4.1c-0.7,0.6-1.5,1.2-2.5,1.4
			c-0.9,0.2-2.9-0.3-3.6-0.9c-1.3-1-1.2-3-0.5-4.5c0.8-1.4,2-2.5,3.2-3.7c1.4-1.5,2.7-3.3,3.1-5.3c0.2-1.3,0.2-2.6,0.4-3.8
			c0.1-0.5,0.5-1.6,0.9-2.9c0-0.1,0.1-0.1,0.1-0.1c0.2,0.1,0.5,0,0.7,0c0.3-0.1,0.5-0.3,0.6-0.6c0.1-0.3,0.1-0.6,0-0.9
			c-0.1-0.3-0.5-0.5-0.7-0.6c0,0-0.1-0.1-0.1-0.1c0.3-1.1,0.5-2,0.4-2.6l-0.9-2.4c-0.1-0.9,0.1-1.8,0.7-2.4c0.9-0.8,2.3-0.8,3.3-0.1
			c1,0.6,1.6,1.2,2,2.3c0.4,1.1,2.2,2.3,2.6,3.5c0.5,1.4,0.5,3.2,0.2,4.7C268.1,370.2,264.1,375.6,262.9,377.4z"/>
		<line fill="none" stroke="#FCB850" stroke-width="2.5992" stroke-miterlimit="10" x1="211.2" y1="319.8" x2="255.6" y2="319"/>
		<g>
			<linearGradient id="SVGID_3_" gradientUnits="userSpaceOnUse" x1="238.9697" y1="319.635" x2="239.6057" y2="316.8752">
				<stop  offset="0" style="stop-color:#EE9224"/>
				<stop  offset="1" style="stop-color:#FCB850"/>
			</linearGradient>
			<path fill="url(#SVGID_3_)" d="M238.5,317.2c-0.4,0.3-0.6,0.9-0.5,1.4s0.6,0.9,1.2,0.9c0.5,0,0.9-0.3,1.1-0.7
				c0.3-0.4,0.4-0.9,0.5-1.3c0-0.1,0-0.1,0-0.2c0-0.1-0.1-0.1-0.2-0.1c-0.6-0.1-1.2-0.1-1.9-0.2"/>
		</g>
	</g>
	<path fill="#0452A0" d="M175.3,368.5l0.7,15.2c0,0.3,0.2,0.6,0.5,0.7l8.6,2.6c0,0,0.7,0,0.7,1.2c0,0.6-1,0.6-1,0.6h-16
		c-0.2,0-0.4-0.2-0.4-0.5l0-19.8H175.3z"/>
	<path fill="#0452A0" d="M149.1,322.9l0.7,11.2c0,0.4,0.2,0.7,0.5,0.7l8.6,2.7c0,0,0.7,0,0.7,1.3c0,0.6-1,0.6-1,0.6h-16
		c-0.2,0-0.4-0.2-0.4-0.5l0.7-16.1H149.1z"/>
	<linearGradient id="SVGID_4_" gradientUnits="userSpaceOnUse" x1="139.6477" y1="286.7208" x2="138.9314" y2="262.4157">
		<stop  offset="0" style="stop-color:#3178DD"/>
		<stop  offset="0.9987" style="stop-color:#18539B"/>
	</linearGradient>
	<path fill="url(#SVGID_4_)" d="M127,267.6c0,0,12.7,24.5,13.9,29.1c1.2,4.6,0.5,27.4,0.5,27.4h9.1c0,0,1.6-20.7,1.6-27.4
		c0-6.8-9.3-31.1-9.3-31.1L127,267.6z"/>
	<linearGradient id="SVGID_5_" gradientUnits="userSpaceOnUse" x1="156.9815" y1="305.5227" x2="155.6651" y2="260.8625">
		<stop  offset="0" style="stop-color:#3D83FA"/>
		<stop  offset="0.9987" style="stop-color:#18539B"/>
	</linearGradient>
	<path fill="url(#SVGID_5_)" d="M131.7,267.8c0,0,32.6,36.5,35.1,44.9c2.5,8.4-0.6,61.5-0.6,61.5h11.3c0,0,6.2-47.9,3.2-63
		c-3-15.1-21.1-44.5-21.1-44.5L131.7,267.8z"/>
	<g>
		<path fill="#FCB850" d="M208.8,268.3c1,0.6,1.9,1.2,2.7,1.9c0.8,0.8,1.5,1.8,1.6,2.9c0.1,0.5,0,1.2-0.4,1.5
			c-0.6,0.5-1.4,0.2-2-0.1c-1.7-0.8-3.2-2-4.4-3.4c-0.1-0.2-0.3-0.4-0.2-0.6c0-0.1-3.3-3.8-2.2-4.4c0.5-0.2,0.4-0.3,0.7-0.6
			c0.4-0.3,3.6,3,4,2.6"/>
	</g>

		<linearGradient id="SVGID_6_" gradientUnits="userSpaceOnUse" x1="3172.667" y1="1586.1963" x2="3182.2373" y2="1586.1963" gradientTransform="matrix(0.9043 0.4268 -0.4268 0.9043 -2036.7119 -2587.5278)">
		<stop  offset="0" style="stop-color:#EE9224"/>
		<stop  offset="1" style="stop-color:#FCB850"/>
	</linearGradient>
	<path fill="url(#SVGID_6_)" d="M170.3,198.2c0,0,0.1,1.8-1.1,3.7c0,0-0.4,0.4-0.3,1.2l0.2,2.3c0,0,0.2,0.7-0.3,0.7
		c0,0-1.2-0.2-1,0.6l0,0.5c0,0,0,0.3-0.3,0.3c0,0-0.5,0-0.4,0.4l0.1,0.3c0,0,0,0.5-0.4,0.5c0,0-0.7,0.5-0.8,1c0,0,0,1.6-1.5,1.2
		L162,210c0,0-1.4,0.3-3.3,3.6c0,0-3.1,0-7.4-2.3c0,0,3-6.1,3.3-8.5l4.6-7.1l6.8-1.6l4.2,3.5L170.3,198.2z"/>
	<path fill="#3D83FA" d="M160.9,204.5c0,0-1.8,2-6.6-0.9c-0.1-0.1-0.2-0.1,0.1-0.7c0,0,1-2.1,0.9-4.5c0,0,0.3-4.1,3.6-6.2
		c3.3-2.1,6.2-1,6.2-1s2,0.7,3.8,2.4c2.9,2.8,1.5,4.7,1.5,4.7s-1-1.5-2.3-1.5c-1.3,0-2.7,1.4-2.7,1.4s-1.1,1.4-1,2.8
		c0.1,1.4-1.2,1.7-1.2,1.7s0.4-1.3-0.4-1.7c-0.8-0.3-1.5,0-1.6,0.9C161,203.1,160.9,204.5,160.9,204.5z"/>
	<g>
		<linearGradient id="SVGID_7_" gradientUnits="userSpaceOnUse" x1="156.468" y1="185.4489" x2="164.9448" y2="185.4489">
			<stop  offset="0" style="stop-color:#EE9224"/>
			<stop  offset="1" style="stop-color:#FCB850"/>
		</linearGradient>
		<path fill="url(#SVGID_7_)" d="M157.7,188c1-1.9,2.2-3.8,3.5-5.6c0.3-0.5,0.7-0.9,1.2-1.3c0.5-0.3,1.1-0.5,1.7-0.2
			c0.7,0.3,1,1.2,0.9,2c-0.1,0.8-0.6,1.5-1.1,2.1c-0.9,1.2-2,2.3-3,3.5c-0.6,0.6-1.2,1.3-2.1,1.6c-0.8,0.3-1.9,0-2.2-0.8
			c0-0.1,0-0.1,0-0.2"/>
	</g>
	<path fill="#044982" d="M169.4,210.7c0,0-13,0.7-14.5,0s-3.9-5.3-3.2-7.7c0.5-1.8,6-8.7,8.2-12.4c0.6-1,3-2.6,3-2.6
		c-0.8-0.2-4.6-3.4-5.1-3.4c-0.5,0-13.3,13.5-15.6,18.1c-4.5,15.7-18.5,57.6-16.4,64.5c0.7,2.1,36,0,36,0s-1.1-6.3-1.5-9.9
		c-0.4-3.6,8.1-25.7,9.1-23.2c2.8,7.2,33.7,34,33.7,34l2.8-2.5c0,0-19.5-26.4-22-30.4c-2.5-4.1-6.5-24.3-12.6-24.5
		C165.3,210.5,169.4,210.7,169.4,210.7z"/>
	<line fill="none" stroke="#FEBF24" stroke-width="2.8391" stroke-miterlimit="10" x1="63.2" y1="540.8" x2="118.6" y2="534.4"/>
	<line fill="none" stroke="#FEBF24" stroke-width="2.8391" stroke-miterlimit="10" x1="31.7" y1="545.5" x2="99.1" y2="554"/>
	<line fill="none" stroke="#FEBF24" stroke-width="2.8391" stroke-miterlimit="10" x1="333.2" y1="532.6" x2="401.6" y2="543.7"/>
	<g>
		<path fill="#F9BF79" d="M348.8,519.5c0.4,0,0.4-0.6,0-0.6C348.4,518.9,348.4,519.5,348.8,519.5L348.8,519.5z"/>
	</g>
</g>
</svg>
