<?xml version="1.0" encoding="utf-8"?>
<!-- Generator: Adobe Illustrator 22.1.0, SVG Export Plug-In . SVG Version: 6.00 Build 0)  -->
<svg version="1.1" id="landing_privacy" xmlns="http://www.w3.org/2000/svg" xmlns:xlink="http://www.w3.org/1999/xlink" x="0px" y="0px"
	 viewBox="0 0 508.7 436.6" enable-background="new 0 0 508.7 436.6" xml:space="preserve">
<g>
	<path fill="#F5F5F6" d="M304.6,327.5c62.9-21.6,129.8-3.1,187.6,35.2c7.6,5,15.9,12.3,16.5,23.1c0.9,17-16.4,24.4-29.7,26.3
		c-32.5,4.6-64.9,9.2-97.4,13.9c-49,7-98.3,14-147.5,9.1c-54.1-5.3-107.3-25-161.6-24.9c-16.5,0-33.6,1.8-48.9-6.1
		c-15.3-7.9-27.8-29.5-22.4-49.3C5,341,16,332.6,26.7,327.1C117.3,281.3,175.9,360.1,304.6,327.5"/>
</g>
<g>

		<rect x="323" y="161.5" transform="matrix(-0.9933 0.116 -0.116 -0.9933 677.4405 470.7025)" fill="#044982" width="4" height="187.2"/>

		<rect x="159.7" y="165.5" transform="matrix(0.9933 0.116 -0.116 0.9933 31.1442 -17.0068)" fill="#044982" width="4" height="187.2"/>

		<rect x="290.1" y="165.5" transform="matrix(0.9933 0.116 -0.116 0.9933 32.0244 -32.1354)" fill="#044982" width="4" height="187.2"/>
	<polyline fill="#3D83FA" points="186.6,0 162.5,212.3 311.6,212.3 335.6,0 186.6,0 	"/>
	<polygon fill="#6DA2FC" points="305.9,212.3 156.8,212.3 181.3,0 330.3,0 	"/>
	<path fill="#3D83FA" d="M219.4,19.2c-17,0-30.7,13.7-30.7,30.7c0,17,13.7,30.7,30.7,30.7c17,0,30.7-13.7,30.7-30.7
		C250.1,32.9,236.3,19.2,219.4,19.2z M219.5,74.7c-13.8,0-24.9-11.2-24.9-24.9c0-13.8,11.2-24.9,24.9-24.9
		c13.8,0,24.9,11.2,24.9,24.9C244.4,63.5,233.3,74.7,219.5,74.7z"/>
	<polygon fill="#3D83FA" points="242.6,145.2 241.9,149.3 176,149.3 176.5,145.2 	"/>
	<polygon fill="#3D83FA" points="264.3,157.9 263.4,161.9 174.3,161.9 174.8,157.9 	"/>
	<polygon fill="#3D83FA" points="308.9,119 308.2,123 242.2,123 242.7,119 	"/>
	<polygon fill="#3178DD" points="319.1,29.7 318.4,33.8 294,33.8 294.5,29.7 	"/>
	<polygon fill="#3D83FA" points="317.8,42.4 316.9,46.4 276.4,46.4 276.9,42.4 	"/>
</g>
<g>
	<g>
		<path fill="#FCB850" d="M312.8,147.4c-1.3,0.4-5.6-3.9-6.3-4.6c-0.7-0.7-1.3-1.7-1.3-2.7c0-0.5,0.1-1.1,0.5-1.4
			c0.5-0.4,1.3-0.1,1.9,0.2c1.5,0.8,2.8,2,3.9,3.3c0.1,0.2,3.2,4.8,3.2,4.8S313.2,147.1,312.8,147.4"/>
	</g>
	<path fill="#FCAA27" d="M311.9,143l19.4,17.3c0,0,17.3,7.6,21.4,9.9c4.1,2.3,5.8,6.4,5.8,6.4s0.7,1.7-0.6,5c-1.6,4-8.4,0.8-8.4,0.8
		l-23.4-15.6c-0.3-0.2-0.5-0.4-0.8-0.7l-16.7-20.3L311.9,143z"/>
	<path fill="#FCB850" d="M360.3,171.9l3.7-14.6c0,0,1.4-3.5-2.8-4.8l-4.7-1.2c0,0-4.6-1-7,5.1c0,0-0.8,1.4-2.4,1.6
		c0,0-0.8,0.4-0.1,0.9c0,0,1.3,0.6,1,1.4c0,0-1.1,2.5,0.7,3.4l2.4,0.8c0.1,0,0.2,0.2,0.2,0.3l1.7,7.3L360.3,171.9z"/>
	<g>
		<path fill="#FCB850" d="M326.5,242.1c0.7,1.2-2.2,6.4-2.7,7.3c-0.5,0.9-1.3,1.7-2.2,2c-0.5,0.2-1.1,0.2-1.5-0.1
			c-0.5-0.4-0.5-1.2-0.3-1.9c0.4-1.7,1.1-3.3,2.1-4.7c0.1-0.2,3.7-4.4,3.7-4.4S326.1,241.8,326.5,242.1"/>
	</g>
	<path fill="#044982" d="M365.3,350.1l-1.5,11.4c0,0.4-0.3,0.6-0.6,0.7l-9.2,2.2c0,0-0.8,0-0.9,1.2c0,0.6,1,0.7,1,0.7l16.8,1.1
		c0.3,0,0.5-0.2,0.5-0.5l0.3-16.4L365.3,350.1z"/>

		<linearGradient id="XMLID_2_" gradientUnits="userSpaceOnUse" x1="-29.7812" y1="-33.2857" x2="-28.168" y2="-70.3876" gradientTransform="matrix(0.9966 8.207998e-02 -8.207998e-02 0.9966 390.4751 339.2685)">
		<stop  offset="0" style="stop-color:#EE9224"/>
		<stop  offset="0.9987" style="stop-color:#EE7421"/>
	</linearGradient>
	<path id="XMLID_46_" fill="url(#XMLID_2_)" d="M353.2,253.3c0,0-8.8,58.8,9.9,98.3c0.2,0.4,0.5,0.6,1,0.7l9.1,0.8
		c0.5,0,0.9-0.5,0.8-1c-2.3-7.2-14.5-49.4-3.1-100.5"/>
	<path fill="#044982" d="M321.7,350.9l-1.5,11.4c0,0.4-0.3,0.6-0.6,0.7l-9.2,2.2c0,0-0.8,0-0.9,1.2c0,0.6,1,0.7,1,0.7l16.8,1.1
		c0.3,0,0.5-0.2,0.5-0.5l0.3-16.4L321.7,350.9z"/>

		<linearGradient id="SVGID_1_" gradientUnits="userSpaceOnUse" x1="-7690.6274" y1="-194.327" x2="-7692.0103" y2="-241.2461" gradientTransform="matrix(-0.9926 -0.1216 -0.1216 0.9926 -7317.8672 -446.7679)">
		<stop  offset="0" style="stop-color:#EE9224"/>
		<stop  offset="0.9987" style="stop-color:#EE8024"/>
	</linearGradient>
	<path fill="url(#SVGID_1_)" d="M363.2,245.6c0,0-21.9,40.6-25.4,48.6c-3.4,8-6.9,60.8-6.9,60.8l-11.2-1.4c0,0-0.3-48,4.5-62.6
		c4.8-14.5,14.4-48.5,14.4-48.5L363.2,245.6z"/>
	<path fill="#FCAA27" d="M332.2,255.9l39.9,1.4c0,0,3-78.3-9.7-85c0,0-9.2-6.5-19.1,10.3C338.2,191.3,332.2,255.9,332.2,255.9z"/>
	<path fill="#FEBF24" d="M322.2,242.3l15-29.9c0,0,3.6-24,5.1-29.9c1.5-5.9,6.7-13.2,12.4-10.6c3.9,1.8,0,10.9,0,10.9l-6.3,32
		c-0.1,0.4-1.4,4.1-1.7,4.5l-20,26L322.2,242.3z"/>
	<path fill="#044982" d="M369.8,177.8c-0.7,1.9-17.2,1-16.1-0.6c1.3-2.1,1.2-4.7,1-7.1c-0.1-1.5-0.2-3.3-0.4-4.8
		c-0.1-0.6,1-2.4,1.1-4c0-0.1,0.1-0.1,0.1-0.1c0.3,0,0.6-0.1,0.8-0.2c0.3-0.2,0.5-0.5,0.6-0.9c0.1-0.4-0.1-0.7-0.3-1
		c-0.2-0.3-0.8-0.5-1-0.5c-0.1,0-0.1-0.1-0.1-0.1c0-1.3-0.1-2.5-0.4-3.1l-2-2.5c-0.5-1-0.5-2.1,0.1-3c0.8-1.2,2.6-1.5,4.1-1.1
		c1.5,0.4,6.9,4.2,7.9,5.4c1.2,1.5,1.8,3.6,1.9,5.4C367.4,163.2,370.7,175.3,369.8,177.8z"/>
</g>
<g>

		<linearGradient id="SVGID_2_" gradientUnits="userSpaceOnUse" x1="2891.0642" y1="525.2798" x2="2902.3516" y2="525.2798" gradientTransform="matrix(0.9709 -0.2393 0.2393 0.9709 -2824.4783 345.7108)">
		<stop  offset="0" style="stop-color:#EE9224"/>
		<stop  offset="1" style="stop-color:#FCB850"/>
	</linearGradient>
	<path fill="url(#SVGID_2_)" d="M119.7,150c0,0,1.4,1.7,1.7,4.2c0,0-0.1,0.7,0.6,1.3l1.9,1.9c0,0,0.7,0.5,0.2,0.8
		c0,0-1.2,0.7-0.5,1.2l0.4,0.4c0,0,0.2,0.2,0,0.5c0,0-0.5,0.4-0.1,0.7l0.3,0.2c0,0,0.4,0.4,0,0.8c0,0-0.3,1,0,1.5
		c0,0,1.2,1.5-0.5,2.2L121,167c0,0-1.1,1.4-0.3,5.7c0,0-2.9,2.3-8.5,3.4c0,0-1.9-7.8-3.3-10.2l-1-9.9l5-6.5l6.4,0.1L119.7,150z"/>
	<path fill="#3D83FA" d="M115.8,162.8c0,0-0.2,3.2-6.7,4c-0.2,0-0.2,0-0.4-0.6c0,0-0.7-2.7-2.5-4.8c0,0-2.7-4-1.3-8.3
		c1.4-4.3,5-5.5,5-5.5s2.4-0.8,5.3-0.6c4.8,0.4,4.9,3.2,4.9,3.2s-2-0.7-3.3,0.3c-1.2,1-1.4,3.3-1.4,3.3s0,2.2,1.2,3.3
		s0.1,2.5,0.1,2.5s-0.7-1.5-1.6-1.2s-1.4,1.1-0.8,2.1C114.9,161.4,115.8,162.8,115.8,162.8z"/>
	<path fill="#05416B" d="M102,356.8l0.4,11.9c0,0.4,0.2,0.7,0.6,0.8l9.3,3.1c0,0,0.8,0.1,0.8,1.3c0,0.7-1.1,0.6-1.1,0.6l-17.5-0.5
		c-0.3,0-0.5-0.3-0.5-0.6l1.2-17L102,356.8z"/>
	<g>
		<defs>
			<path id="XMLID_45_" d="M114.4,257c0,0,1.2,55.8-10.3,102.5c-0.1,0.4-0.6,0.7-1,0.7l-9.5,0.8c-0.6,0-1-0.5-0.8-1
				c2.4-7.5,11.3-51.9,3.2-104.8"/>
		</defs>
		<linearGradient id="XMLID_3_" gradientUnits="userSpaceOnUse" x1="103.3723" y1="303.8628" x2="101.0766" y2="250.6017">
			<stop  offset="0" style="stop-color:#3D83FA"/>
			<stop  offset="0.9987" style="stop-color:#0452A0"/>
		</linearGradient>
		<use xlink:href="#XMLID_45_"  overflow="visible" fill="url(#XMLID_3_)"/>
		<clipPath id="XMLID_4_1">
			<use xlink:href="#XMLID_45_"  overflow="visible"/>
		</clipPath>
	</g>
	<path fill="#05416B" d="M122.4,358.7l0.4,11.9c0,0.4,0.2,0.7,0.6,0.8l9.3,3.1c0,0,0.8,0.1,0.8,1.3c0,0.7-1.1,0.6-1.1,0.6l-17.5-0.5
		c-0.3,0-0.5-0.3-0.5-0.6l1.2-17L122.4,358.7z"/>
	<g>
		<defs>
			<path id="XMLID_44_" d="M134.4,257c0,0,1.2,55.8-10.3,102.5c-0.1,0.4-0.6,0.7-1,0.7l-9.5,0.8c-0.6,0-1-0.5-0.8-1
				c2.4-7.5,11.3-51.9,3.2-104.8"/>
		</defs>

			<linearGradient id="XMLID_5_" gradientUnits="userSpaceOnUse" x1="1998.0087" y1="-217.4814" x2="1993.4159" y2="-252.0806" gradientTransform="matrix(-0.9966 8.207998e-02 8.207998e-02 0.9966 2133.2097 339.2685)">
			<stop  offset="0" style="stop-color:#3D83FA"/>
			<stop  offset="0.9987" style="stop-color:#0452A0"/>
		</linearGradient>
		<use xlink:href="#XMLID_44_"  overflow="visible" fill="url(#XMLID_5_)"/>
		<clipPath id="XMLID_6_2">
			<use xlink:href="#XMLID_44_"  overflow="visible"/>
		</clipPath>
	</g>
	<polygon fill="#05416B" points="142.1,217.8 124.2,218.2 124.2,203.6 142.7,203.6 	"/>
	<path fill="#0452A0" d="M139.5,259l-44.6,2.7c0,0-5.1-89.8,17.2-91.2c0,0,17.2-4.9,26.7,13.1c5,9.4,7.3,18.2,9.6,25.5
		s-6.2,8.7-6.2,8.7l-6.7-14.1L139.5,259z"/>
</g>
</svg>
