<?xml version="1.0" encoding="UTF-8"?>
<svg width="24px" height="24px" viewBox="0 0 24 24" version="1.1" xmlns="http://www.w3.org/2000/svg" xmlns:xlink="http://www.w3.org/1999/xlink">
    <!-- Generator: Sketch 50 (54983) - http://www.bohemiancoding.com/sketch -->
    <title>Combined-Shape</title>
    <desc>Created with Sketch.</desc>
    <defs></defs>
    <g id="Page-1" stroke="none" stroke-width="1" fill="none" fill-rule="evenodd">
        <path d="M22.9940062,8.69987946 C25.4690966,16.9501808 23.5504219,20.5189158 15.3001205,22.9940062 C7.04981918,25.4690966 3.48108417,23.5504219 1.00599376,15.3001205 C-1.46909664,7.04981919 0.449578094,3.48108418 8.69987945,1.00599377 C16.9501808,-1.46909664 20.5189158,0.449578097 22.9940062,8.69987946 Z M18.830482,14.0529819 C19.4828314,13.8419277 19.8281929,13.1320181 19.6171387,12.4796687 C19.4060845,11.8273193 18.6961748,11.4819578 18.0438254,11.693012 L16.4896989,12.2110542 L15.4536145,9.1219879 L17.007741,8.60394573 C17.6600904,8.3928915 18.0054519,7.68298185 17.7943977,7.03063244 C17.5833435,6.37828303 16.8734338,6.03292158 16.2210844,6.2439758 L14.6669579,6.76201798 L14.1297289,5.1503312 C13.9186747,4.49798179 13.2087651,4.15262034 12.5564157,4.36367456 C11.9040662,4.57472878 11.5587048,5.28463843 11.769759,5.93698784 L12.3069879,7.54867462 L9.10280115,8.62313247 L8.56557222,7.01144569 C8.354518,6.35909628 7.64460835,6.01373483 6.99225894,6.22478905 C6.33990953,6.43584327 5.99454808,7.14575293 6.2056023,7.79810234 L6.74283122,9.40978911 L5.18870469,9.92783133 C4.53635528,10.1388855 4.19099382,10.8487951 4.40204804,11.5011445 C4.57472877,12 5.05439745,12.3261747 5.55325289,12.3453614 C5.68756012,12.3645482 5.8410541,12.3261747 5.97536133,12.2878012 L7.52948786,11.769759 L8.56557222,14.8588253 L7.01144568,15.3768675 C6.35909627,15.5879217 6.01373482,16.2978314 6.22478904,16.9501808 C6.39746977,17.4490362 6.87713845,17.7752109 7.37599388,17.7943977 C7.51030112,17.8135844 7.66379509,17.7752109 7.79810233,17.7368374 L9.35222882,17.2187953 L9.88945782,18.830482 C10.0621385,19.3293375 10.5418072,19.6555122 11.0406626,19.6746989 C11.1749698,19.6938857 11.3284638,19.6555122 11.4627711,19.6171387 C12.1151205,19.4060845 12.4604819,18.6961748 12.2494277,18.0438254 L11.7121988,16.4321386 L14.9163856,15.3576808 L15.4536145,16.9693675 C15.6262952,17.468223 16.1059639,17.7943977 16.6048193,17.8135844 C16.7391266,17.8327712 16.8926206,17.7943977 17.0269278,17.7560242 C17.6792772,17.54497 18.0246386,16.8350603 17.8135844,16.1827109 L17.2763555,14.5710241 L18.830482,14.0529819 Z M9.88072402,11.0082101 L13.0826698,9.93571703 L14.1186006,13.0285056 L10.9166548,14.1009987 L9.88072402,11.0082101 Z" id="Combined-Shape" fill="#FFFFFF" fill-rule="nonzero"></path>
    </g>
</svg>